<?xml version="1.0"?>
<svg xmlns="http://www.w3.org/2000/svg" xmlns:lc="http://www.librecad.org" xmlns:xlink="http://www.w3.org/1999/xlink" width="20mm" height="20mm" viewBox="0 0 20 20">
    <g lc:layername="0" lc:is_locked="false" lc:is_construction="false" fill="none" stroke="black" stroke-width="1">
        <circle cx="10" cy="10" r="2.15"/>
        <path d="M20,18 L20,13.2 A0.7,0.7 0 0,0 19.3,12.5 L18.5,12.5 A0.3,0.3 0 0,0 18.2,12.8 L18.2,14.87 A0.88,0.88 0 0,1 16.69774603,15.49225397 L13.94289322,12.73740115 A1,1 0 0,1 13.65,12.03029437 L13.65,7.96970563 A1,1 0 0,1 13.94289322,7.26259885 L16.69774603,4.50774603 A0.88,0.88 0 0,1 18.2,5.13 L18.2,7.2 A0.3,0.3 0 0,0 18.5,7.5 L19.3,7.5 A0.7,0.7 0 0,0 20,6.8 L20,2 A2,2 0 0,0 18,0 L13.2,0 A0.7,0.7 0 0,0 12.5,0.7 L12.5,1.5 A0.3,0.3 0 0,0 12.8,1.8 L14.87,1.8 A0.88,0.88 0 0,1 15.49225397,3.30225397 L12.73740115,6.05710678 A1,1 0 0,1 12.03029437,6.35 L7.96970563,6.35 A1,1 0 0,1 7.26259885,6.05710678 L4.50774603,3.30225397 A0.88,0.88 0 0,1 5.13,1.8 L7.2,1.8 A0.3,0.3 0 0,0 7.5,1.5 L7.5,0.7 A0.7,0.7 0 0,0 6.8,0 L2,0 A2,2 0 0,0 0,2 L0,6.8 A0.7,0.7 0 0,0 0.7,7.5 L1.5,7.5 A0.3,0.3 0 0,0 1.8,7.2 L1.8,5.13 A0.88,0.88 0 0,1 3.30225397,4.50774603 L6.05710678,7.26259885 A1,1 0 0,1 6.35,7.96970563 L6.35,12.03029437 A1,1 0 0,1 6.05710678,12.73740115 L3.30225397,15.49225397 A0.88,0.88 0 0,1 1.8,14.87 L1.8,12.8 A0.3,0.3 0 0,0 1.5,12.5 L0.7,12.5 A0.7,0.7 0 0,0 0,13.2 L0,18 A2,2 0 0,0 2,20 L6.8,20 A0.7,0.7 0 0,0 7.5,19.3 L7.5,18.5 A0.30000008,0.30000008 0 0,0 7.19999983,18.2 L5.13,18.2 A0.88,0.88 0 0,1 4.50774603,16.69774603 L7.26259885,13.94289322 A1,1 0 0,1 7.96970563,13.65 L12.03029437,13.65 A1,1 0 0,1 12.73740115,13.94289322 L15.49225397,16.69774603 A0.88,0.88 0 0,1 14.87,18.2 L12.8,18.2 A0.3,0.3 0 0,0 12.5,18.5 L12.5,19.3 A0.70000008,0.70000008 0 0,0 13.20000017,20 L18,20 A2,2 0 0,0 20,18 Z "/>
    </g>
</svg>
