999
dxflib 3.7.5.0
  0
SECTION
  2
HEADER
  9
$ACADVER
  1
AC1015
  9
$HANDSEED
  5
FFFF
  9
$DIMADEC
 70
0
  9
$DIMASZ
 40
0.18
  9
$DIMAUNIT
 70
0
  9
$DIMAZIN
 70
0
  9
$DIMDEC
 70
4
  9
$DIMEXE
 40
0.18
  9
$DIMEXO
 40
0.0625
  9
$DIMGAP
 40
0.09
  9
$DIMLUNIT
 70
2
  9
$DIMSCALE
 40
1.0
  9
$DIMTSZ
 40
0.0
  9
$DIMTXT
 40
0.18
  9
$DIMZIN
 70
0
  9
$DWGCODEPAGE
  3
ANSI_1252
  9
$INSUNITS
 70
0
  9
$LTSCALE
 40
1
  0
ENDSEC
  0
SECTION
  2
TABLES
  0
TABLE
  2
VPORT
  5
8
100
AcDbSymbolTable
 70
1
  0
VPORT
  5
30
100
AcDbSymbolTableRecord
100
AcDbViewportTableRecord
  2
*Active
 70
0
 10
0.0
 20
0.0
 11
1.0
 21
1.0
 12
286.3055555555554861
 22
148.5
 13
0.0
 23
0.0
 14
10.0
 24
10.0
 15
10.0
 25
10.0
 16
0.0
 26
0.0
 36
1.0
 17
0.0
 27
0.0
 37
0.0
 40
297.0
 41
1.92798353909465
 42
50.0
 43
0.0
 44
0.0
 50
0.0
 51
0.0
 71
0
 72
100
 73
1
 74
3
 75
1
 76
1
 77
0
 78
0
281
0
 65
1
110
0.0
120
0.0
130
0.0
111
1.0
121
0.0
131
0.0
112
0.0
122
1.0
132
0.0
 79
0
146
0.0
  0
ENDTAB
  0
TABLE
  2
LTYPE
  5
5
100
AcDbSymbolTable
 70
41
  0
LTYPE
  5
16
100
AcDbSymbolTableRecord
100
AcDbLinetypeTableRecord
  2
CONTINUOUS
 70
0
  3
Solid line
 72
65
 73
0
 40
0.0
  0
LTYPE
  5
31
100
AcDbSymbolTableRecord
100
AcDbLinetypeTableRecord
  2
ACAD_ISO15W100
 70
0
  3
ISO double-dash triple-dot __ __ . . . __ __ . .
 72
65
 73
10
 40
39.0000000000000071
 49
12.0
 74
0
 49
-3.0
 74
0
 49
12.0
 74
0
 49
-2.9500000000000002
 74
0
 49
0.1
 74
0
 49
-2.9000000000000004
 74
0
 49
0.1
 74
0
 49
-2.9000000000000004
 74
0
 49
0.1
 74
0
 49
-2.9500000000000002
 74
0
  0
LTYPE
  5
32
100
AcDbSymbolTableRecord
100
AcDbLinetypeTableRecord
  2
DIVIDE
 70
0
  3
Divide ____ . . ____ . . ____ . . ____ . . ____
 72
65
 73
6
 40
31.7500000000000036
 49
12.6999999999999993
 74
0
 49
-6.2999999999999998
 74
0
 49
0.1
 74
0
 49
-6.25
 74
0
 49
0.1
 74
0
 49
-6.2999999999999998
 74
0
  0
LTYPE
  5
33
100
AcDbSymbolTableRecord
100
AcDbLinetypeTableRecord
  2
ACAD_ISO10W100
 70
0
  3
ISO dash dot __ . __ . __ . __ . __ . __ . __ . 
 72
65
 73
4
 40
18.0
 49
12.0
 74
0
 49
-2.9500000000000002
 74
0
 49
0.1
 74
0
 49
-2.9500000000000002
 74
0
  0
LTYPE
  5
34
100
AcDbSymbolTableRecord
100
AcDbLinetypeTableRecord
  2
ACAD_ISO04W100
 70
0
  3
ISO long-dash dot ____ . ____ . ____ . ____ . _
 72
65
 73
4
 40
30.0
 49
24.0
 74
0
 49
-2.9500000000000002
 74
0
 49
0.1
 74
0
 49
-2.9500000000000002
 74
0
  0
LTYPE
  5
35
100
AcDbSymbolTableRecord
100
AcDbLinetypeTableRecord
  2
CENTER2
 70
0
  3
Center (.5x) ___ _ ___ _ ___ _ ___ _ ___ _ ___
 72
65
 73
4
 40
28.5750000000000028
 49
19.0500000000000007
 74
0
 49
-3.1749999999999998
 74
0
 49
3.1749999999999998
 74
0
 49
-3.1749999999999998
 74
0
  0
LTYPE
  5
36
100
AcDbSymbolTableRecord
100
AcDbLinetypeTableRecord
  2
ACAD_ISO11W100
 70
0
  3
ISO double-dash dot __ __ . __ __ . __ __ . __ _
 72
65
 73
6
 40
33.0
 49
12.0
 74
0
 49
-3.0
 74
0
 49
12.0
 74
0
 49
-2.9500000000000002
 74
0
 49
0.1
 74
0
 49
-2.9500000000000002
 74
0
  0
LTYPE
  5
37
100
AcDbSymbolTableRecord
100
AcDbLinetypeTableRecord
  2
HIDDEN2
 70
0
  3
Hidden (.5x) _ _ _ _ _ _ _ _ _ _ _ _ _ _ _ _ _ 
 72
65
 73
2
 40
4.7624999999999993
 49
3.1749999999999998
 74
0
 49
-1.5874999999999999
 74
0
  0
LTYPE
  5
38
100
AcDbSymbolTableRecord
100
AcDbLinetypeTableRecord
  2
BORDERX2
 70
0
  3
Border (2x) ____  ____  .  ____  ____  .  ___
 72
65
 73
6
 40
88.8999999999999773
 49
25.3999999999999986
 74
0
 49
-12.6999999999999993
 74
0
 49
25.3999999999999986
 74
0
 49
-12.6499999999999986
 74
0
 49
0.1
 74
0
 49
-12.6499999999999986
 74
0
  0
LTYPE
  5
39
100
AcDbSymbolTableRecord
100
AcDbLinetypeTableRecord
  2
ACAD_ISO05W100
 70
0
  3
ISO long-dash double-dot ____ .. ____ .. ____ . 
 72
65
 73
6
 40
33.0000000000000071
 49
24.0
 74
0
 49
-2.9500000000000002
 74
0
 49
0.1
 74
0
 49
-2.9000000000000004
 74
0
 49
0.1
 74
0
 49
-2.9500000000000002
 74
0
  0
LTYPE
  5
3A
100
AcDbSymbolTableRecord
100
AcDbLinetypeTableRecord
  2
DASHDOTX2
 70
0
  3
Dash dot (2x) ____  .  ____  .  ____  .  ___
 72
65
 73
4
 40
50.7999999999999972
 49
25.3999999999999986
 74
0
 49
-12.6499999999999986
 74
0
 49
0.1
 74
0
 49
-12.6499999999999986
 74
0
  0
LTYPE
  5
3B
100
AcDbSymbolTableRecord
100
AcDbLinetypeTableRecord
  2
HIDDENX2
 70
0
  3
Hidden (2x) ____ ____ ____ ____ ____ ____ ____ 
 72
65
 73
2
 40
19.0499999999999972
 49
12.6999999999999993
 74
0
 49
-6.3499999999999996
 74
0
  0
LTYPE
  5
3C
100
AcDbSymbolTableRecord
100
AcDbLinetypeTableRecord
  2
CENTERX2
 70
0
  3
Center (2x) ________  __  ________  __  _____
 72
65
 73
4
 40
101.6000000000000085
 49
63.5
 74
0
 49
-12.6999999999999993
 74
0
 49
12.6999999999999993
 74
0
 49
-12.6999999999999993
 74
0
  0
LTYPE
  5
3D
100
AcDbSymbolTableRecord
100
AcDbLinetypeTableRecord
  2
BORDER2
 70
0
  3
Border (.5x) __.__.__.__.__.__.__.__.__.__.__.
 72
65
 73
6
 40
22.2250000000000014
 49
6.3499999999999996
 74
0
 49
-3.1749999999999998
 74
0
 49
6.3499999999999996
 74
0
 49
-3.125
 74
0
 49
0.1
 74
0
 49
-3.125
 74
0
  0
LTYPE
  5
3E
100
AcDbSymbolTableRecord
100
AcDbLinetypeTableRecord
  2
DASHDOT2
 70
0
  3
Dash dot (.5x) _._._._._._._._._._._._._._._.
 72
65
 73
4
 40
12.6999999999999993
 49
6.3499999999999996
 74
0
 49
-3.125
 74
0
 49
0.1
 74
0
 49
-3.125
 74
0
  0
LTYPE
  5
3F
100
AcDbSymbolTableRecord
100
AcDbLinetypeTableRecord
  2
ACAD_ISO12W100
 70
0
  3
ISO dash double-dot __ . . __ . . __ . . __ . . 
 72
65
 73
6
 40
21.0
 49
12.0
 74
0
 49
-2.9500000000000002
 74
0
 49
0.1
 74
0
 49
-2.9000000000000004
 74
0
 49
0.1
 74
0
 49
-2.9500000000000002
 74
0
  0
LTYPE
  5
40
100
AcDbSymbolTableRecord
100
AcDbLinetypeTableRecord
  2
ACAD_ISO07W100
 70
0
  3
ISO dot . . . . . . . . . . . . . . . . . . . . 
 72
65
 73
2
 40
3.0
 49
0.1
 74
0
 49
-2.8999999999999999
 74
0
  0
LTYPE
  5
41
100
AcDbSymbolTableRecord
100
AcDbLinetypeTableRecord
  2
HIDDEN
 70
0
  3
Hidden __ __ __ __ __ __ __ __ __ __ __ __ __ __
 72
65
 73
2
 40
9.5249999999999986
 49
6.3499999999999996
 74
0
 49
-3.1749999999999998
 74
0
  0
LTYPE
  5
42
100
AcDbSymbolTableRecord
100
AcDbLinetypeTableRecord
  2
ACAD_ISO06W100
 70
0
  3
ISO long-dash triple-dot ____ ... ____ ... ____
 72
65
 73
8
 40
36.0000000000000071
 49
24.0
 74
0
 49
-2.9500000000000002
 74
0
 49
0.1
 74
0
 49
-2.9000000000000004
 74
0
 49
0.1
 74
0
 49
-2.9000000000000004
 74
0
 49
0.1
 74
0
 49
-2.9500000000000002
 74
0
  0
LTYPE
  5
43
100
AcDbSymbolTableRecord
100
AcDbLinetypeTableRecord
  2
CENTER
 70
0
  3
Center ____ _ ____ _ ____ _ ____ _ ____ _ ____
 72
65
 73
4
 40
50.8000000000000043
 49
31.75
 74
0
 49
-6.3499999999999996
 74
0
 49
6.3499999999999996
 74
0
 49
-6.3499999999999996
 74
0
  0
LTYPE
  5
44
100
AcDbSymbolTableRecord
100
AcDbLinetypeTableRecord
  2
DOTX2
 70
0
  3
Dot (2x) .  .  .  .  .  .  .  .  .  .  .  .  .  .
 72
65
 73
2
 40
12.6999999999999993
 49
0.1
 74
0
 49
-12.5999999999999996
 74
0
  0
LTYPE
  5
45
100
AcDbSymbolTableRecord
100
AcDbLinetypeTableRecord
  2
PHANTOM
 70
0
  3
Phantom ______  __  __  ______  __  __  ______ 
 72
65
 73
6
 40
63.5000000000000071
 49
31.75
 74
0
 49
-6.3499999999999996
 74
0
 49
6.3499999999999996
 74
0
 49
-6.3499999999999996
 74
0
 49
6.3499999999999996
 74
0
 49
-6.3499999999999996
 74
0
  0
LTYPE
  5
46
100
AcDbSymbolTableRecord
100
AcDbLinetypeTableRecord
  2
ACAD_ISO08W100
 70
0
  3
ISO long-dash short-dash ____ __ ____ __ ____ _
 72
65
 73
4
 40
36.0
 49
24.0
 74
0
 49
-3.0
 74
0
 49
6.0
 74
0
 49
-3.0
 74
0
  0
LTYPE
  5
47
100
AcDbSymbolTableRecord
100
AcDbLinetypeTableRecord
  2
DASHEDX2
 70
0
  3
Dashed (2x) ____  ____  ____  ____  ____  ___
 72
65
 73
2
 40
38.0999999999999943
 49
25.3999999999999986
 74
0
 49
-12.6999999999999993
 74
0
  0
LTYPE
  5
48
100
AcDbSymbolTableRecord
100
AcDbLinetypeTableRecord
  2
ACAD_ISO02W100
 70
0
  3
ISO dash __ __ __ __ __ __ __ __ __ __ __ __ __
 72
65
 73
2
 40
15.0
 49
12.0
 74
0
 49
-3.0
 74
0
  0
LTYPE
  5
49
100
AcDbSymbolTableRecord
100
AcDbLinetypeTableRecord
  2
PHANTOM2
 70
0
  3
Phantom (.5x) ___ _ _ ___ _ _ ___ _ _ ___ _ _
 72
65
 73
6
 40
31.7500000000000036
 49
15.875
 74
0
 49
-3.1749999999999998
 74
0
 49
3.1749999999999998
 74
0
 49
-3.1749999999999998
 74
0
 49
3.1749999999999998
 74
0
 49
-3.1749999999999998
 74
0
  0
LTYPE
  5
4A
100
AcDbSymbolTableRecord
100
AcDbLinetypeTableRecord
  2
DASHED2
 70
0
  3
Dashed (.5x) _ _ _ _ _ _ _ _ _ _ _ _ _ _ _ _ _ 
 72
65
 73
2
 40
9.5249999999999986
 49
6.3499999999999996
 74
0
 49
-3.1749999999999998
 74
0
  0
LTYPE
  5
4B
100
AcDbSymbolTableRecord
100
AcDbLinetypeTableRecord
  2
ACAD_ISO09W100
 70
0
  3
ISO long-dash double-short-dash ____ __ __ ____
 72
65
 73
6
 40
45.0
 49
24.0
 74
0
 49
-3.0
 74
0
 49
6.0
 74
0
 49
-3.0
 74
0
 49
6.0
 74
0
 49
-3.0
 74
0
  0
LTYPE
  5
4C
100
AcDbSymbolTableRecord
100
AcDbLinetypeTableRecord
  2
ACAD_ISO13W100
 70
0
  3
ISO double-dash double-dot __ __ . . __ __ . . _
 72
65
 73
8
 40
36.0000000000000071
 49
12.0
 74
0
 49
-3.0
 74
0
 49
12.0
 74
0
 49
-2.9500000000000002
 74
0
 49
0.1
 74
0
 49
-2.9000000000000004
 74
0
 49
0.1
 74
0
 49
-2.9500000000000002
 74
0
  0
LTYPE
  5
4D
100
AcDbSymbolTableRecord
100
AcDbLinetypeTableRecord
  2
DOT2
 70
0
  3
Dot (.5x) ........................................
 72
65
 73
2
 40
3.1749999999999998
 49
0.1
 74
0
 49
-3.0749999999999997
 74
0
  0
LTYPE
  5
4E
100
AcDbSymbolTableRecord
100
AcDbLinetypeTableRecord
  2
DASHED
 70
0
  3
Dashed __ __ __ __ __ __ __ __ __ __ __ __ __ _
 72
65
 73
2
 40
19.0499999999999972
 49
12.6999999999999993
 74
0
 49
-6.3499999999999996
 74
0
  0
LTYPE
  5
4F
100
AcDbSymbolTableRecord
100
AcDbLinetypeTableRecord
  2
ACAD_ISO14W100
 70
0
  3
ISO dash triple-dot __ . . . __ . . . __ . . . _
 72
65
 73
8
 40
24.0000000000000036
 49
12.0
 74
0
 49
-2.9500000000000002
 74
0
 49
0.1
 74
0
 49
-2.9000000000000004
 74
0
 49
0.1
 74
0
 49
-2.9000000000000004
 74
0
 49
0.1
 74
0
 49
-2.9500000000000002
 74
0
  0
LTYPE
  5
15
100
AcDbSymbolTableRecord
100
AcDbLinetypeTableRecord
  2
BYLAYER
 70
0
  3

 72
65
 73
0
 40
0.0
  0
LTYPE
  5
50
100
AcDbSymbolTableRecord
100
AcDbLinetypeTableRecord
  2
PHANTOMX2
 70
0
  3
Phantom (2x) ____________    ____    ____   _
 72
65
 73
6
 40
127.0000000000000142
 49
63.5
 74
0
 49
-12.6999999999999993
 74
0
 49
12.6999999999999993
 74
0
 49
-12.6999999999999993
 74
0
 49
12.6999999999999993
 74
0
 49
-12.6999999999999993
 74
0
  0
LTYPE
  5
14
100
AcDbSymbolTableRecord
100
AcDbLinetypeTableRecord
  2
BYBLOCK
 70
0
  3

 72
65
 73
0
 40
0.0
  0
LTYPE
  5
51
100
AcDbSymbolTableRecord
100
AcDbLinetypeTableRecord
  2
DIVIDEX2
 70
0
  3
Divide (2x) ________  .  .  ________  .  .  _
 72
65
 73
6
 40
63.5
 49
25.3999999999999986
 74
0
 49
-12.6499999999999986
 74
0
 49
0.1
 74
0
 49
-12.5999999999999979
 74
0
 49
0.1
 74
0
 49
-12.6499999999999986
 74
0
  0
LTYPE
  5
52
100
AcDbSymbolTableRecord
100
AcDbLinetypeTableRecord
  2
BORDER
 70
0
  3
Border __ __ . __ __ . __ __ . __ __ . __ __ .
 72
65
 73
6
 40
44.4499999999999957
 49
12.6999999999999993
 74
0
 49
-6.3499999999999996
 74
0
 49
12.6999999999999993
 74
0
 49
-6.2999999999999998
 74
0
 49
0.1
 74
0
 49
-6.2999999999999998
 74
0
  0
LTYPE
  5
53
100
AcDbSymbolTableRecord
100
AcDbLinetypeTableRecord
  2
DIVIDE2
 70
0
  3
Divide (.5x) __..__..__..__..__..__..__..__.._
 72
65
 73
6
 40
15.8749999999999982
 49
6.3499999999999996
 74
0
 49
-3.125
 74
0
 49
0.1
 74
0
 49
-3.0750000000000002
 74
0
 49
0.1
 74
0
 49
-3.125
 74
0
  0
LTYPE
  5
54
100
AcDbSymbolTableRecord
100
AcDbLinetypeTableRecord
  2
DOT
 70
0
  3
Dot . . . . . . . . . . . . . . . . . . . . . . . .
 72
65
 73
2
 40
6.3499999999999996
 49
0.1
 74
0
 49
-6.25
 74
0
  0
LTYPE
  5
55
100
AcDbSymbolTableRecord
100
AcDbLinetypeTableRecord
  2
DASHDOT
 70
0
  3
Dash dot __ . __ . __ . __ . __ . __ . __ . __
 72
65
 73
4
 40
25.4000000000000021
 49
12.6999999999999993
 74
0
 49
-6.2999999999999998
 74
0
 49
0.1
 74
0
 49
-6.2999999999999998
 74
0
  0
LTYPE
  5
56
100
AcDbSymbolTableRecord
100
AcDbLinetypeTableRecord
  2
ACAD_ISO03W100
 70
0
  3
ISO dash space __    __    __    __    __    __
 72
65
 73
2
 40
30.0
 49
12.0
 74
0
 49
-18.0
 74
0
  0
ENDTAB
  0
TABLE
  2
LAYER
  5
2
100
AcDbSymbolTable
 70
1
  0
LAYER
  5
10
100
AcDbSymbolTableRecord
100
AcDbLayerTableRecord
  2
0
 70
0
 62
7
420
16777215
  6
CONTINUOUS
370
5
390
F
  0
ENDTAB
  0
TABLE
  2
STYLE
  5
3
100
AcDbSymbolTable
 70
1
  0
STYLE
  5
57
100
AcDbSymbolTableRecord
100
AcDbTextStyleTableRecord
  2
Standard
 70
0
 40
0.0
 41
1.0
 50
0.0
 71
0
 42
2.5
  3

  4

1001
ACAD
1000
txt
1071
0
  0
ENDTAB
  0
TABLE
  2
VIEW
  5
6
100
AcDbSymbolTable
 70
0
  0
ENDTAB
  0
TABLE
  2
UCS
  5
7
100
AcDbSymbolTable
 70
0
  0
ENDTAB
  0
TABLE
  2
APPID
  5
9
100
AcDbSymbolTable
 70
1
  0
APPID
  5
12
100
AcDbSymbolTableRecord
100
AcDbRegAppTableRecord
  2
ACAD
 70
0
  0
APPID
  5
58
100
AcDbSymbolTableRecord
100
AcDbRegAppTableRecord
  2
QCAD
 70
0
  0
ENDTAB
  0
TABLE
  2
DIMSTYLE
  5
A
100
AcDbSymbolTable
 70
1
100
AcDbDimStyleTable
 71
0
  0
DIMSTYLE
105
27
100
AcDbSymbolTableRecord
100
AcDbDimStyleTableRecord
  2
Standard
 41
0.18
 42
0.0625
 43
3.75
 44
0.18
 70
0
 73
0
 74
0
 77
1
 78
8
140
0.18
141
2.5
143
0.03937007874016
147
0.09
171
3
172
1
271
2
272
2
274
3
278
44
283
0
284
8
340
57
  0
ENDTAB
  0
TABLE
  2
BLOCK_RECORD
  5
1
100
AcDbSymbolTable
 70
1
  0
BLOCK_RECORD
  5
1F
100
AcDbSymbolTableRecord
100
AcDbBlockTableRecord
  2
*Model_Space
340
22
  0
BLOCK_RECORD
  5
1B
100
AcDbSymbolTableRecord
100
AcDbBlockTableRecord
  2
*Paper_Space
340
1E
  0
BLOCK_RECORD
  5
23
100
AcDbSymbolTableRecord
100
AcDbBlockTableRecord
  2
*Paper_Space0
340
26
  0
ENDTAB
  0
ENDSEC
  0
SECTION
  2
BLOCKS
  0
BLOCK
  5
20
100
AcDbEntity
  8
0
100
AcDbBlockBegin
  2
*Model_Space
 70
0
 10
0.0
 20
0.0
 30
0.0
  3
*Model_Space
  1

  0
ENDBLK
  5
21
100
AcDbEntity
  8
0
100
AcDbBlockEnd
  0
BLOCK
  5
1C
100
AcDbEntity
 67
1
  8
0
100
AcDbBlockBegin
  2
*Paper_Space
 70
0
 10
0.0
 20
0.0
 30
0.0
  3
*Paper_Space
  1

  0
ENDBLK
  5
1D
100
AcDbEntity
 67
1
  8
0
100
AcDbBlockEnd
  0
BLOCK
  5
24
100
AcDbEntity
  8
0
100
AcDbBlockBegin
  2
*Paper_Space0
 70
0
 10
0.0
 20
0.0
 30
0.0
  3
*Paper_Space0
  1

  0
ENDBLK
  5
25
100
AcDbEntity
  8
0
100
AcDbBlockEnd
  0
ENDSEC
  0
SECTION
  2
ENTITIES
  0
LWPOLYLINE
  5
59
  8
0
 62
7
420
16777215
370
-1
 48
1.0
  6
BYLAYER
100
AcDbEntity
100
AcDbPolyline
 90
3
 70
0
 10
8.5980720000000002
 20
1.254483
 30
0.0
 10
9.0736170000000005
 20
1.7300279999999999
 30
0.0
 10
8.5980720000000002
 20
1.254483
 30
0.0
  0
LWPOLYLINE
  5
5A
  8
0
 62
7
420
16777215
370
-1
 48
1.0
  6
BYLAYER
100
AcDbEntity
100
AcDbPolyline
 90
15
 70
0
 10
9.0736170000000005
 20
1.729746
 30
0.0
 10
17.3994539999999986
 20
10.0555830000000004
 30
0.0
 10
16.9927719999999987
 20
10.8935010000000005
 30
0.0
 10
16.1404609999999984
 20
10.7961349999999996
 30
0.0
 10
6.1735009999999999
 20
0.548081
 30
0.0
 10
6.1737659999999996
 20
0.539445
 30
0.0
 10
6.1743309999999996
 20
0.5308659999999999
 30
0.0
 10
6.1748950000000002
 20
0.522286
 30
0.0
 10
6.1751610000000001
 20
0.5136500000000001
 30
0.0
 10
6.1494780000000002
 20
-0.029015
 30
0.0
 10
6.0740540000000003
 20
-0.556997
 30
0.0
 10
5.9513220000000002
 20
-1.068095
 30
0.0
 10
5.7837519999999998
 20
-1.560119
 30
0.0
 10
8.5983540000000005
 20
1.254483
 30
0.0
 10
9.0736170000000005
 20
1.729746
 30
0.0
  0
LWPOLYLINE
  5
5B
  8
0
 62
7
420
16777215
370
-1
 48
1.0
  6
BYLAYER
100
AcDbEntity
100
AcDbPolyline
 90
13
 70
0
 10
0.481644
 20
6.2077660000000003
 30
0.0
 10
0.938133
 20
6.1893079999999996
 30
0.0
 10
1.384436
 20
6.1351440000000004
 30
0.0
 10
1.8194699999999999
 20
6.0471640000000004
 30
0.0
 10
2.242146
 20
5.927251
 30
0.0
 10
12.1250029999999995
 20
16.1126509999999996
 30
0.0
 10
10.6131390000000003
 20
17.0595059999999989
 30
0.0
 10
0.064519
 20
6.1866130000000004
 30
0.0
 10
0.168231
 20
6.1942050000000002
 30
0.0
 10
0.272128
 20
6.2010059999999996
 30
0.0
 10
0.376502
 20
6.205889
 30
0.0
 10
0.481644
 20
6.2078639999999998
 30
0.0
 10
0.481644
 20
6.2077660000000003
 30
0.0
  0
LWPOLYLINE
  5
5C
  8
0
 62
7
420
16777215
370
-1
 48
1.0
  6
BYLAYER
100
AcDbEntity
100
AcDbPolyline
 90
9
 70
0
 10
2.8065910000000001
 20
5.707668
 30
0.0
 10
3.3804720000000001
 20
5.4104340000000004
 30
0.0
 10
3.9140299999999999
 20
5.0527709999999999
 30
0.0
 10
4.4025030000000003
 20
4.6388049999999996
 30
0.0
 10
4.8411299999999997
 20
4.1726609999999997
 30
0.0
 10
12.4097650000000002
 20
11.9749770000000009
 30
0.0
 10
11.8072210000000002
 20
12.5758279999999996
 30
0.0
 10
12.5666810000000009
 20
15.7691719999999993
 30
0.0
 10
2.8065910000000001
 20
5.707668
 30
0.0
  0
LWPOLYLINE
  5
5D
  8
0
 62
7
420
16777215
370
-1
 48
1.0
  6
BYLAYER
100
AcDbEntity
100
AcDbPolyline
 90
9
 70
0
 10
6.1162099999999997
 20
1.2883500000000001
 30
0.0
 10
15.2655720000000006
 20
10.6970749999999999
 30
0.0
 10
13.6614210000000007
 20
10.5139119999999995
 30
0.0
 10
12.791048
 20
11.5668830000000007
 30
0.0
 10
5.1823370000000004
 20
3.7242099999999998
 30
0.0
 10
5.5166120000000003
 20
3.1689829999999999
 30
0.0
 10
5.7862220000000004
 20
2.5746479999999998
 30
0.0
 10
5.9873589999999997
 20
1.9461310000000001
 30
0.0
 10
6.1162099999999997
 20
1.2883500000000001
 30
0.0
  0
LWPOLYLINE
  5
5E
  8
0
 62
7
420
16777215
370
-1
 48
1.0
  6
BYLAYER
100
AcDbEntity
100
AcDbPolyline
 90
7
 70
0
 10
-3.230143
 20
-12.2501320000000007
 30
0.0
 10
1.614484
 20
-7.4052230000000003
 30
0.0
 10
4.5216539999999998
 20
-10.3123939999999994
 30
0.0
 10
0.645615
 20
-14.1878700000000002
 30
0.0
 10
2.5836350000000001
 20
-16.1258899999999983
 30
0.0
 10
1.614484
 20
-17.0950409999999984
 30
0.0
 10
-3.230143
 20
-12.2501320000000007
 30
0.0
  0
LWPOLYLINE
  5
5F
  8
0
 62
7
420
16777215
370
-1
 48
1.0
  6
BYLAYER
100
AcDbEntity
100
AcDbPolyline
 90
5
 70
0
 10
1.614484
 20
-9.3432429999999993
 30
0.0
 10
-1.292405
 20
-12.2501320000000007
 30
0.0
 10
-0.323254
 20
-13.2192830000000008
 30
0.0
 10
2.5836350000000001
 20
-10.3123939999999994
 30
0.0
 10
1.614484
 20
-9.3432429999999993
 30
0.0
  0
LWPOLYLINE
  5
60
  8
0
 62
7
420
16777215
370
-1
 48
1.0
  6
BYLAYER
100
AcDbEntity
100
AcDbPolyline
 90
9
 70
0
 10
5.8785790000000002
 20
-5.0794300000000003
 30
0.0
 10
3.9408409999999998
 20
-7.0171679999999999
 30
0.0
 10
2.9716900000000002
 20
-6.0482990000000001
 30
0.0
 10
7.8163169999999997
 20
-1.20339
 30
0.0
 10
8.7854679999999998
 20
-2.1725409999999998
 30
0.0
 10
6.847448
 20
-4.1105609999999997
 30
0.0
 10
10.7234879999999997
 20
-7.9860369999999996
 30
0.0
 10
9.7543369999999996
 20
-8.9551879999999997
 30
0.0
 10
5.8785790000000002
 20
-5.0794300000000003
 30
0.0
  0
LWPOLYLINE
  5
61
  8
0
 62
7
420
16777215
370
-1
 48
1.0
  6
BYLAYER
100
AcDbEntity
100
AcDbPolyline
 90
7
 70
0
 10
9.1732410000000009
 20
0.153252
 30
0.0
 10
10.1423919999999992
 20
1.1221209999999999
 30
0.0
 10
14.017868
 20
-2.7533539999999999
 30
0.0
 10
17.8939079999999997
 20
1.1221209999999999
 30
0.0
 10
18.8627770000000012
 20
0.153252
 30
0.0
 10
14.017868
 20
-4.6916570000000002
 30
0.0
 10
9.1732410000000009
 20
0.153252
 30
0.0
  0
LINE
  5
62
100
AcDbEntity
100
AcDbLine
  8
0
 62
256
370
-1
 48
1.0
  6
BYLAYER
 10
-8.3852847676752571
 20
-5.9968332309380372
 30
0.0
 11
-10.2426980980503277
 21
-7.9110246144089436
 31
0.0
  0
LINE
  5
63
100
AcDbEntity
100
AcDbLine
  8
0
 62
256
370
-1
 48
1.0
  6
BYLAYER
 10
-7.9605374180734252
 20
-6.4206968587207225
 30
0.0
 11
-9.8121232346866556
 21
-8.3288825909735884
 31
0.0
  0
LINE
  5
64
100
AcDbEntity
100
AcDbLine
  8
0
 62
7
420
16777215
370
-1
 48
1.0
  6
BYLAYER
 10
-11.2548499999999994
 20
-7.7074829999999999
 30
0.0
 11
-11.6561699999999995
 21
-7.8040029999999998
 31
0.0
  0
LINE
  5
65
100
AcDbEntity
100
AcDbLine
  8
0
 62
7
420
16777215
370
-1
 48
1.0
  6
BYLAYER
 10
-11.6561699999999995
 20
-7.8040029999999998
 30
0.0
 11
-11.9990299999999994
 21
-7.7348420000000004
 31
0.0
  0
LINE
  5
66
100
AcDbEntity
100
AcDbLine
  8
0
 62
7
420
16777215
370
-1
 48
1.0
  6
BYLAYER
 10
-11.9990299999999994
 20
-7.7348420000000004
 30
0.0
 11
-12.2792089999999998
 21
-7.5461929999999997
 31
0.0
  0
LINE
  5
67
100
AcDbEntity
100
AcDbLine
  8
0
 62
7
420
16777215
370
-1
 48
1.0
  6
BYLAYER
 10
-12.2792089999999998
 20
-7.5461929999999997
 30
0.0
 11
-12.468216
 21
-7.2663159999999998
 31
0.0
  0
LINE
  5
68
100
AcDbEntity
100
AcDbLine
  8
0
 62
7
420
16777215
370
-1
 48
1.0
  6
BYLAYER
 10
-12.468216
 20
-7.2663159999999998
 30
0.0
 11
-12.5375499999999995
 21
-6.92347
 31
0.0
  0
LINE
  5
69
100
AcDbEntity
100
AcDbLine
  8
0
 62
7
420
16777215
370
-1
 48
1.0
  6
BYLAYER
 10
-12.5375499999999995
 20
-6.92347
 30
0.0
 11
-12.468216
 21
-6.58101
 31
0.0
  0
LINE
  5
6A
100
AcDbEntity
100
AcDbLine
  8
0
 62
7
420
16777215
370
-1
 48
1.0
  6
BYLAYER
 10
-12.468216
 20
-6.58101
 30
0.0
 11
-12.2792089999999998
 21
-6.3008879999999996
 31
0.0
  0
LINE
  5
6B
100
AcDbEntity
100
AcDbLine
  8
0
 62
7
420
16777215
370
-1
 48
1.0
  6
BYLAYER
 10
-12.2792089999999998
 20
-6.3008879999999996
 30
0.0
 11
-11.9990299999999994
 21
-6.1117819999999998
 31
0.0
  0
LINE
  5
6C
100
AcDbEntity
100
AcDbLine
  8
0
 62
7
420
16777215
370
-1
 48
1.0
  6
BYLAYER
 10
-11.9990299999999994
 20
-6.1117819999999998
 30
0.0
 11
-11.6561699999999995
 21
-6.0423720000000003
 31
0.0
  0
LINE
  5
6D
100
AcDbEntity
100
AcDbLine
  8
0
 62
7
420
16777215
370
-1
 48
1.0
  6
BYLAYER
 10
-11.6561699999999995
 20
-6.0423720000000003
 30
0.0
 11
-11.3136360000000007
 21
-6.1117819999999998
 31
0.0
  0
LINE
  5
6E
100
AcDbEntity
100
AcDbLine
  8
0
 62
7
420
16777215
370
-1
 48
1.0
  6
BYLAYER
 10
-11.3136360000000007
 20
-6.1117819999999998
 30
0.0
 11
-11.0336210000000001
 21
-6.3008879999999996
 31
0.0
  0
LINE
  5
6F
100
AcDbEntity
100
AcDbLine
  8
0
 62
7
420
16777215
370
-1
 48
1.0
  6
BYLAYER
 10
-11.0336210000000001
 20
-6.3008879999999996
 30
0.0
 11
-10.8446789999999993
 21
-6.58101
 31
0.0
  0
LINE
  5
70
100
AcDbEntity
100
AcDbLine
  8
0
 62
7
420
16777215
370
-1
 48
1.0
  6
BYLAYER
 10
-10.8446789999999993
 20
-6.58101
 30
0.0
 11
-10.7753540000000001
 21
-6.92347
 31
0.0
  0
LINE
  5
71
100
AcDbEntity
100
AcDbLine
  8
0
 62
7
420
16777215
370
-1
 48
1.0
  6
BYLAYER
 10
-10.7753540000000001
 20
-6.92347
 30
0.0
 11
-10.7981010000000008
 21
-7.1194730000000002
 31
0.0
  0
LINE
  5
72
100
AcDbEntity
100
AcDbLine
  8
0
 62
7
420
16777215
370
-1
 48
1.0
  6
BYLAYER
 10
-10.7981010000000008
 20
-7.1194730000000002
 30
0.0
 11
-10.8650950000000002
 21
-7.30701
 31
0.0
  0
LINE
  5
73
100
AcDbEntity
100
AcDbLine
  8
0
 62
7
420
16777215
370
-1
 48
1.0
  6
BYLAYER
 10
-5.3324109999999996
 20
-12.6762879999999996
 30
0.0
 11
-3.5140530000000001
 21
-10.8579299999999996
 31
0.0
  0
LINE
  5
74
100
AcDbEntity
100
AcDbLine
  8
0
 62
7
420
16777215
370
-1
 48
1.0
  6
BYLAYER
 10
-11.3815620000000006
 20
-3.0067900000000001
 30
0.0
 11
-11.5175669999999997
 21
-3.0719660000000002
 31
0.0
  0
LINE
  5
75
100
AcDbEntity
100
AcDbLine
  8
0
 62
7
420
16777215
370
-1
 48
1.0
  6
BYLAYER
 10
-11.5175669999999997
 20
-3.0719660000000002
 30
0.0
 11
-11.6606089999999991
 21
-3.1190440000000001
 31
0.0
  0
LINE
  5
76
100
AcDbEntity
100
AcDbLine
  8
0
 62
7
420
16777215
370
-1
 48
1.0
  6
BYLAYER
 10
-11.6606089999999991
 20
-3.1190440000000001
 30
0.0
 11
-11.8088379999999997
 21
-3.147602
 31
0.0
  0
LINE
  5
77
100
AcDbEntity
100
AcDbLine
  8
0
 62
7
420
16777215
370
-1
 48
1.0
  6
BYLAYER
 10
-11.8088379999999997
 20
-3.147602
 30
0.0
 11
-11.9603990000000007
 21
-3.1572260000000001
 31
0.0
  0
LINE
  5
78
100
AcDbEntity
100
AcDbLine
  8
0
 62
7
420
16777215
370
-1
 48
1.0
  6
BYLAYER
 10
-11.9603990000000007
 20
-3.1572260000000001
 30
0.0
 11
-12.4210740000000008
 21
-3.0638329999999998
 31
0.0
  0
LINE
  5
79
100
AcDbEntity
100
AcDbLine
  8
0
 62
7
420
16777215
370
-1
 48
1.0
  6
BYLAYER
 10
-12.4210740000000008
 20
-3.0638329999999998
 30
0.0
 11
-12.7978229999999993
 21
-2.809491
 31
0.0
  0
LINE
  5
7A
100
AcDbEntity
100
AcDbLine
  8
0
 62
7
420
16777215
370
-1
 48
1.0
  6
BYLAYER
 10
-12.7978229999999993
 20
-2.809491
 30
0.0
 11
-13.0521220000000007
 21
-2.4329670000000001
 31
0.0
  0
LINE
  5
7B
100
AcDbEntity
100
AcDbLine
  8
0
 62
7
420
16777215
370
-1
 48
1.0
  6
BYLAYER
 10
-13.0521220000000007
 20
-2.4329670000000001
 30
0.0
 11
-13.1454559999999994
 21
-1.9730099999999999
 31
0.0
  0
LINE
  5
7C
100
AcDbEntity
100
AcDbLine
  8
0
 62
7
420
16777215
370
-1
 48
1.0
  6
BYLAYER
 10
-13.1454559999999994
 20
-1.9730099999999999
 30
0.0
 11
-13.0521279999999997
 21
-1.511935
 31
0.0
  0
LINE
  5
7D
100
AcDbEntity
100
AcDbLine
  8
0
 62
7
420
16777215
370
-1
 48
1.0
  6
BYLAYER
 10
-13.0521279999999997
 20
-1.511935
 30
0.0
 11
-12.7978290000000001
 21
-1.1351290000000001
 31
0.0
  0
LINE
  5
7E
100
AcDbEntity
100
AcDbLine
  8
0
 62
7
420
16777215
370
-1
 48
1.0
  6
BYLAYER
 10
-12.7978290000000001
 20
-1.1351290000000001
 30
0.0
 11
-12.4210790000000006
 21
-0.880928
 31
0.0
  0
LINE
  5
7F
100
AcDbEntity
100
AcDbLine
  8
0
 62
7
420
16777215
370
-1
 48
1.0
  6
BYLAYER
 10
-12.4210790000000006
 20
-0.880928
 30
0.0
 11
-11.9604049999999997
 21
-0.787677
 31
0.0
  0
LINE
  5
80
100
AcDbEntity
100
AcDbLine
  8
0
 62
7
420
16777215
370
-1
 48
1.0
  6
BYLAYER
 10
-11.9604049999999997
 20
-0.787677
 30
0.0
 11
-11.4997310000000006
 21
-0.880928
 31
0.0
  0
LINE
  5
81
100
AcDbEntity
100
AcDbLine
  8
0
 62
7
420
16777215
370
-1
 48
1.0
  6
BYLAYER
 10
-11.4997310000000006
 20
-0.880928
 30
0.0
 11
-11.1229809999999993
 21
-1.1351290000000001
 31
0.0
  0
LINE
  5
82
100
AcDbEntity
100
AcDbLine
  8
0
 62
7
420
16777215
370
-1
 48
1.0
  6
BYLAYER
 10
-11.1229809999999993
 20
-1.1351290000000001
 30
0.0
 11
-10.8686819999999997
 21
-1.511935
 31
0.0
  0
LINE
  5
83
100
AcDbEntity
100
AcDbLine
  8
0
 62
7
420
16777215
370
-1
 48
1.0
  6
BYLAYER
 10
-10.8686819999999997
 20
-1.511935
 30
0.0
 11
-10.7753540000000001
 21
-1.9730099999999999
 31
0.0
  0
LINE
  5
84
100
AcDbEntity
100
AcDbLine
  8
0
 62
7
420
16777215
370
-1
 48
1.0
  6
BYLAYER
 10
-10.7753540000000001
 20
-1.9730099999999999
 30
0.0
 11
-10.788252
 21
-2.1447509999999999
 31
0.0
  0
LINE
  5
85
100
AcDbEntity
100
AcDbLine
  8
0
 62
7
420
16777215
370
-1
 48
1.0
  6
BYLAYER
 10
-10.788252
 20
-2.1447509999999999
 30
0.0
 11
-10.826473
 21
-2.311677
 31
0.0
  0
LINE
  5
86
100
AcDbEntity
100
AcDbLine
  8
0
 62
7
420
16777215
370
-1
 48
1.0
  6
BYLAYER
 10
-10.826473
 20
-2.311677
 30
0.0
 11
-10.8892959999999999
 21
-2.4720409999999999
 31
0.0
  0
LINE
  5
87
100
AcDbEntity
100
AcDbLine
  8
0
 62
7
420
16777215
370
-1
 48
1.0
  6
BYLAYER
 10
-10.8892959999999999
 20
-2.4720409999999999
 30
0.0
 11
-10.9760139999999993
 21
-2.6240969999999999
 31
0.0
  0
LINE
  5
88
100
AcDbEntity
100
AcDbLine
  8
0
 62
7
420
16777215
370
-1
 48
1.0
  6
BYLAYER
 10
-3.1200760000000001
 20
-10.4639480000000002
 30
0.0
 11
-1.994856
 21
-9.3387279999999997
 31
0.0
  0
LINE
  5
89
100
AcDbEntity
100
AcDbLine
  8
0
 62
7
420
16777215
370
-1
 48
1.0
  6
BYLAYER
 10
-1.994856
 20
-9.3387279999999997
 30
0.0
 11
-5.8745649999999996
 21
-5.4979649999999998
 31
0.0
  0
LINE
  5
8A
100
AcDbEntity
100
AcDbLine
  8
0
 62
7
420
16777215
370
-1
 48
1.0
  6
BYLAYER
 10
-5.8745649999999996
 20
-5.4979649999999998
 30
0.0
 11
-6.0208409999999999
 21
-5.5872130000000002
 31
0.0
  0
LINE
  5
8B
100
AcDbEntity
100
AcDbLine
  8
0
 62
7
420
16777215
370
-1
 48
1.0
  6
BYLAYER
 10
-6.0208409999999999
 20
-5.5872130000000002
 30
0.0
 11
-6.1756589999999996
 21
-5.6531510000000003
 31
0.0
  0
LINE
  5
8C
100
AcDbEntity
100
AcDbLine
  8
0
 62
7
420
16777215
370
-1
 48
1.0
  6
BYLAYER
 10
-6.1756589999999996
 20
-5.6531510000000003
 30
0.0
 11
-6.3372029999999997
 21
-5.6953319999999996
 31
0.0
  0
LINE
  5
8D
100
AcDbEntity
100
AcDbLine
  8
0
 62
7
420
16777215
370
-1
 48
1.0
  6
BYLAYER
 10
-6.3372029999999997
 20
-5.6953319999999996
 30
0.0
 11
-6.5036379999999996
 21
-5.7133089999999997
 31
0.0
  0
LINE
  5
8E
100
AcDbEntity
100
AcDbLine
  8
0
 62
7
420
16777215
370
-1
 48
1.0
  6
BYLAYER
 10
-6.5036379999999996
 20
-5.7133089999999997
 30
0.0
 11
-6.5099879999999999
 21
-5.7133089999999997
 31
0.0
  0
LINE
  5
8F
100
AcDbEntity
100
AcDbLine
  8
0
 62
7
420
16777215
370
-1
 48
1.0
  6
BYLAYER
 10
-6.5099879999999999
 20
-5.7133089999999997
 30
0.0
 11
-6.5163380000000002
 21
-5.7133089999999997
 31
0.0
  0
LINE
  5
90
100
AcDbEntity
100
AcDbLine
  8
0
 62
7
420
16777215
370
-1
 48
1.0
  6
BYLAYER
 10
-6.5163380000000002
 20
-5.7133089999999997
 30
0.0
 11
-6.5226879999999996
 21
-5.7133089999999997
 31
0.0
  0
LINE
  5
91
100
AcDbEntity
100
AcDbLine
  8
0
 62
7
420
16777215
370
-1
 48
1.0
  6
BYLAYER
 10
-6.5226879999999996
 20
-5.7133089999999997
 30
0.0
 11
-6.5290379999999999
 21
-5.7133089999999997
 31
0.0
  0
LINE
  5
92
100
AcDbEntity
100
AcDbLine
  8
0
 62
7
420
16777215
370
-1
 48
1.0
  6
BYLAYER
 10
-6.5290379999999999
 20
-5.7133089999999997
 30
0.0
 11
-6.9739449999999996
 21
-5.6211099999999998
 31
0.0
  0
LINE
  5
93
100
AcDbEntity
100
AcDbLine
  8
0
 62
7
420
16777215
370
-1
 48
1.0
  6
BYLAYER
 10
-7.5921859999999999
 20
-4.9975059999999996
 30
0.0
 11
-7.6903829999999997
 21
-4.5420870000000004
 31
0.0
  0
LINE
  5
94
100
AcDbEntity
100
AcDbLine
  8
0
 62
7
420
16777215
370
-1
 48
1.0
  6
BYLAYER
 10
-7.6903829999999997
 20
-4.5420870000000004
 30
0.0
 11
-7.6724620000000003
 21
-4.3087910000000003
 31
0.0
  0
LINE
  5
95
100
AcDbEntity
100
AcDbLine
  8
0
 62
7
420
16777215
370
-1
 48
1.0
  6
BYLAYER
 10
-7.6724620000000003
 20
-4.3087910000000003
 30
0.0
 11
-7.6115719999999998
 21
-4.0864729999999998
 31
0.0
  0
LINE
  5
96
100
AcDbEntity
100
AcDbLine
  8
0
 62
7
420
16777215
370
-1
 48
1.0
  6
BYLAYER
 10
-7.6115719999999998
 20
-4.0864729999999998
 30
0.0
 11
-7.5097240000000003
 21
-3.8802989999999999
 31
0.0
  0
LINE
  5
97
100
AcDbEntity
100
AcDbLine
  8
0
 62
7
420
16777215
370
-1
 48
1.0
  6
BYLAYER
 10
-7.5097240000000003
 20
-3.8802989999999999
 30
0.0
 11
-7.368932
 21
-3.6954210000000001
 31
0.0
  0
LINE
  5
98
100
AcDbEntity
100
AcDbLine
  8
0
 62
7
420
16777215
370
-1
 48
1.0
  6
BYLAYER
 10
-7.368932
 20
-3.6954210000000001
 30
0.0
 11
-7.1942279999999998
 21
-3.5420579999999999
 31
0.0
  0
LINE
  5
99
100
AcDbEntity
100
AcDbLine
  8
0
 62
7
420
16777215
370
-1
 48
1.0
  6
BYLAYER
 10
-7.1942279999999998
 20
-3.5420579999999999
 30
0.0
 11
-6.9968219999999999
 21
-3.4278029999999999
 31
0.0
  0
LINE
  5
9A
100
AcDbEntity
100
AcDbLine
  8
0
 62
7
420
16777215
370
-1
 48
1.0
  6
BYLAYER
 10
-6.9968219999999999
 20
-3.4278029999999999
 30
0.0
 11
-6.7816359999999998
 21
-3.35514
 31
0.0
  0
LINE
  5
9B
100
AcDbEntity
100
AcDbLine
  8
0
 62
7
420
16777215
370
-1
 48
1.0
  6
BYLAYER
 10
-6.7816359999999998
 20
-3.35514
 30
0.0
 11
-6.5535920000000001
 21
-3.3265560000000001
 31
0.0
  0
LINE
  5
9C
100
AcDbEntity
100
AcDbLine
  8
0
 62
7
420
16777215
370
-1
 48
1.0
  6
BYLAYER
 10
-6.5535920000000001
 20
-3.3265560000000001
 30
0.0
 11
-6.5471009999999996
 21
-3.3265560000000001
 31
0.0
  0
LINE
  5
9D
100
AcDbEntity
100
AcDbLine
  8
0
 62
7
420
16777215
370
-1
 48
1.0
  6
BYLAYER
 10
-6.5471009999999996
 20
-3.3265560000000001
 30
0.0
 11
-6.54061
 21
-3.3265560000000001
 31
0.0
  0
LINE
  5
9E
100
AcDbEntity
100
AcDbLine
  8
0
 62
7
420
16777215
370
-1
 48
1.0
  6
BYLAYER
 10
-6.54061
 20
-3.3265560000000001
 30
0.0
 11
-6.5341180000000003
 21
-3.3265560000000001
 31
0.0
  0
LINE
  5
9F
100
AcDbEntity
100
AcDbLine
  8
0
 62
7
420
16777215
370
-1
 48
1.0
  6
BYLAYER
 10
-6.5341180000000003
 20
-3.3265560000000001
 30
0.0
 11
-6.5276269999999998
 21
-3.3265560000000001
 31
0.0
  0
LINE
  5
A0
100
AcDbEntity
100
AcDbLine
  8
0
 62
7
420
16777215
370
-1
 48
1.0
  6
BYLAYER
 10
-6.5276269999999998
 20
-3.3265560000000001
 30
0.0
 11
-6.0835249999999998
 21
-3.4184420000000002
 31
0.0
  0
LINE
  5
A1
100
AcDbEntity
100
AcDbLine
  8
0
 62
7
420
16777215
370
-1
 48
1.0
  6
BYLAYER
 10
-5.4658280000000001
 20
-4.0405730000000002
 30
0.0
 11
-5.3668469999999999
 21
-4.4955210000000001
 31
0.0
  0
LINE
  5
A2
100
AcDbEntity
100
AcDbLine
  8
0
 62
7
420
16777215
370
-1
 48
1.0
  6
BYLAYER
 10
-5.3668469999999999
 20
-4.4955210000000001
 30
0.0
 11
-5.3728590000000001
 21
-4.6486039999999997
 31
0.0
  0
LINE
  5
A3
100
AcDbEntity
100
AcDbLine
  8
0
 62
7
420
16777215
370
-1
 48
1.0
  6
BYLAYER
 10
-5.3728590000000001
 20
-4.6486039999999997
 30
0.0
 11
-5.3980889999999997
 21
-4.7981670000000003
 31
0.0
  0
LINE
  5
A4
100
AcDbEntity
100
AcDbLine
  8
0
 62
7
420
16777215
370
-1
 48
1.0
  6
BYLAYER
 10
-5.3980889999999997
 20
-4.7981670000000003
 30
0.0
 11
-5.4418420000000003
 21
-4.9425999999999997
 31
0.0
  0
LINE
  5
A5
100
AcDbEntity
100
AcDbLine
  8
0
 62
7
420
16777215
370
-1
 48
1.0
  6
BYLAYER
 10
-5.4418420000000003
 20
-4.9425999999999997
 30
0.0
 11
-5.5034289999999997
 21
-5.0802849999999999
 31
0.0
  0
LINE
  5
A6
100
AcDbEntity
100
AcDbLine
  8
0
 62
7
420
16777215
370
-1
 48
1.0
  6
BYLAYER
 10
-5.5034289999999997
 20
-5.0802849999999999
 30
0.0
 11
-1.600295
 21
-8.9444719999999993
 31
0.0
  0
LINE
  5
A7
100
AcDbEntity
100
AcDbLine
  8
0
 62
7
420
16777215
370
-1
 48
1.0
  6
BYLAYER
 10
-1.600295
 20
-8.9444719999999993
 30
0.0
 11
-0.769433
 21
-8.1136090000000003
 31
0.0
  0
LINE
  5
A8
100
AcDbEntity
100
AcDbLine
  8
0
 62
7
420
16777215
370
-1
 48
1.0
  6
BYLAYER
 10
-0.769433
 20
-8.1136090000000003
 30
0.0
 11
-1.082276
 21
-8.026332
 31
0.0
  0
LINE
  5
A9
100
AcDbEntity
100
AcDbLine
  8
0
 62
7
420
16777215
370
-1
 48
1.0
  6
BYLAYER
 10
-1.082276
 20
-8.026332
 30
0.0
 11
-1.335853
 21
-7.8383019999999997
 31
0.0
  0
LINE
  5
AA
100
AcDbEntity
100
AcDbLine
  8
0
 62
7
420
16777215
370
-1
 48
1.0
  6
BYLAYER
 10
-1.335853
 20
-7.8383019999999997
 30
0.0
 11
-1.5073030000000001
 21
-7.5725889999999998
 31
0.0
  0
LINE
  5
AB
100
AcDbEntity
100
AcDbLine
  8
0
 62
7
420
16777215
370
-1
 48
1.0
  6
BYLAYER
 10
-1.5073030000000001
 20
-7.5725889999999998
 30
0.0
 11
-1.573766
 21
-7.2522669999999998
 31
0.0
  0
LINE
  5
AC
100
AcDbEntity
100
AcDbLine
  8
0
 62
7
420
16777215
370
-1
 48
1.0
  6
BYLAYER
 10
-1.573766
 20
-7.2522669999999998
 30
0.0
 11
-1.512939
 21
-6.9064829999999997
 31
0.0
  0
LINE
  5
AD
100
AcDbEntity
100
AcDbLine
  8
0
 62
7
420
16777215
370
-1
 48
1.0
  6
BYLAYER
 10
-1.512939
 20
-6.9064829999999997
 30
0.0
 11
-1.333736
 21
-6.620654
 31
0.0
  0
LINE
  5
AE
100
AcDbEntity
100
AcDbLine
  8
0
 62
7
420
16777215
370
-1
 48
1.0
  6
BYLAYER
 10
-1.333736
 20
-6.620654
 30
0.0
 11
-1.0633049999999999
 21
-6.4241479999999997
 31
0.0
  0
LINE
  5
AF
100
AcDbEntity
100
AcDbLine
  8
0
 62
7
420
16777215
370
-1
 48
1.0
  6
BYLAYER
 10
-1.0633049999999999
 20
-6.4241479999999997
 30
0.0
 11
-0.728793
 21
-6.3463339999999997
 31
0.0
  0
LINE
  5
B0
100
AcDbEntity
100
AcDbLine
  8
0
 62
7
420
16777215
370
-1
 48
1.0
  6
BYLAYER
 10
-0.728793
 20
-6.3463339999999997
 30
0.0
 11
-0.393406
 21
-6.4127010000000002
 31
0.0
  0
LINE
  5
B1
100
AcDbEntity
100
AcDbLine
  8
0
 62
7
420
16777215
370
-1
 48
1.0
  6
BYLAYER
 10
-0.393406
 20
-6.4127010000000002
 30
0.0
 11
-0.118346
 21
-6.5938429999999997
 31
0.0
  0
LINE
  5
B2
100
AcDbEntity
100
AcDbLine
  8
0
 62
7
420
16777215
370
-1
 48
1.0
  6
BYLAYER
 10
-0.118346
 20
-6.5938429999999997
 30
0.0
 11
0.071626
 21
-6.8628260000000001
 31
0.0
  0
LINE
  5
B3
100
AcDbEntity
100
AcDbLine
  8
0
 62
7
420
16777215
370
-1
 48
1.0
  6
BYLAYER
 10
0.071626
 20
-6.8628260000000001
 30
0.0
 11
0.15174
 21
-7.1927180000000002
 31
0.0
  0
LINE
  5
B4
100
AcDbEntity
100
AcDbLine
  8
0
 62
7
420
16777215
370
-1
 48
1.0
  6
BYLAYER
 10
0.15174
 20
-7.1927180000000002
 30
0.0
 11
1.3561240000000001
 21
-5.988194
 31
0.0
  0
LINE
  5
B5
100
AcDbEntity
100
AcDbLine
  8
0
 62
7
420
16777215
370
-1
 48
1.0
  6
BYLAYER
 10
1.3561240000000001
 20
-5.988194
 30
0.0
 11
2.5605069999999999
 21
-4.7836689999999997
 31
0.0
  0
LINE
  5
B6
100
AcDbEntity
100
AcDbLine
  8
0
 62
7
420
16777215
370
-1
 48
1.0
  6
BYLAYER
 10
2.5605069999999999
 20
-4.7836689999999997
 30
0.0
 11
2.0674109999999999
 21
-4.9527380000000001
 31
0.0
  0
LINE
  5
B7
100
AcDbEntity
100
AcDbLine
  8
0
 62
7
420
16777215
370
-1
 48
1.0
  6
BYLAYER
 10
2.0674109999999999
 20
-4.9527380000000001
 30
0.0
 11
1.555161
 21
-5.0770390000000001
 31
0.0
  0
LINE
  5
B8
100
AcDbEntity
100
AcDbLine
  8
0
 62
7
420
16777215
370
-1
 48
1.0
  6
BYLAYER
 10
1.555161
 20
-5.0770390000000001
 30
0.0
 11
1.0258700000000001
 21
-5.1537160000000002
 31
0.0
  0
LINE
  5
B9
100
AcDbEntity
100
AcDbLine
  8
0
 62
7
420
16777215
370
-1
 48
1.0
  6
BYLAYER
 10
1.0258700000000001
 20
-5.1537160000000002
 30
0.0
 11
0.481658
 21
-5.179907
 31
0.0
  0
LINE
  5
BA
100
AcDbEntity
100
AcDbLine
  8
0
 62
7
420
16777215
370
-1
 48
1.0
  6
BYLAYER
 10
0.481658
 20
-5.179907
 30
0.0
 11
-0.05212
 21
-5.1551840000000002
 31
0.0
  0
LINE
  5
BB
100
AcDbEntity
100
AcDbLine
  8
0
 62
7
420
16777215
370
-1
 48
1.0
  6
BYLAYER
 10
-0.05212
 20
-5.1551840000000002
 30
0.0
 11
-0.571872
 21
-5.0825060000000004
 31
0.0
  0
LINE
  5
BC
100
AcDbEntity
100
AcDbLine
  8
0
 62
7
420
16777215
370
-1
 48
1.0
  6
BYLAYER
 10
-0.571872
 20
-5.0825060000000004
 30
0.0
 11
-1.07541
 21
-4.9640719999999998
 31
0.0
  0
LINE
  5
BD
100
AcDbEntity
100
AcDbLine
  8
0
 62
7
420
16777215
370
-1
 48
1.0
  6
BYLAYER
 10
-1.07541
 20
-4.9640719999999998
 30
0.0
 11
-1.5605560000000001
 21
-4.802079
 31
0.0
  0
LINE
  5
BE
100
AcDbEntity
100
AcDbLine
  8
0
 62
7
420
16777215
370
-1
 48
1.0
  6
BYLAYER
 10
-1.5605560000000001
 20
-4.802079
 30
0.0
 11
-2.0251190000000001
 21
-4.5987349999999996
 31
0.0
  0
LINE
  5
BF
100
AcDbEntity
100
AcDbLine
  8
0
 62
7
420
16777215
370
-1
 48
1.0
  6
BYLAYER
 10
-2.0251190000000001
 20
-4.5987349999999996
 30
0.0
 11
-2.466926
 21
-4.3562380000000003
 31
0.0
  0
LINE
  5
C0
100
AcDbEntity
100
AcDbLine
  8
0
 62
7
420
16777215
370
-1
 48
1.0
  6
BYLAYER
 10
-2.466926
 20
-4.3562380000000003
 30
0.0
 11
-2.8837860000000002
 21
-4.0767990000000003
 31
0.0
  0
LINE
  5
C1
100
AcDbEntity
100
AcDbLine
  8
0
 62
7
420
16777215
370
-1
 48
1.0
  6
BYLAYER
 10
-2.8837860000000002
 20
-4.0767990000000003
 30
0.0
 11
-3.27352
 21
-3.7626119999999998
 31
0.0
  0
LINE
  5
C2
100
AcDbEntity
100
AcDbLine
  8
0
 62
7
420
16777215
370
-1
 48
1.0
  6
BYLAYER
 10
-3.27352
 20
-3.7626119999999998
 30
0.0
 11
-3.6339459999999999
 21
-3.4158879999999998
 31
0.0
  0
LINE
  5
C3
100
AcDbEntity
100
AcDbLine
  8
0
 62
7
420
16777215
370
-1
 48
1.0
  6
BYLAYER
 10
-3.6339459999999999
 20
-3.4158879999999998
 30
0.0
 11
-3.962879
 21
-3.0388250000000001
 31
0.0
  0
LINE
  5
C4
100
AcDbEntity
100
AcDbLine
  8
0
 62
7
420
16777215
370
-1
 48
1.0
  6
BYLAYER
 10
-3.962879
 20
-3.0388250000000001
 30
0.0
 11
-4.270001701515195
 21
-2.6173475699542452
 31
0.0
  0
LINE
  5
C5
100
AcDbEntity
100
AcDbLine
  8
0
 62
7
420
16777215
370
-1
 48
1.0
  6
BYLAYER
 10
-4.579653536474078
 20
-2.0748701480295826
 30
0.0
 11
-4.7389060000000001
 21
-1.747641
 31
0.0
  0
LINE
  5
C6
100
AcDbEntity
100
AcDbLine
  8
0
 62
7
420
16777215
370
-1
 48
1.0
  6
BYLAYER
 10
-4.7389060000000001
 20
-1.747641
 30
0.0
 11
-4.9200470000000003
 21
-1.2712559999999999
 31
0.0
  0
LINE
  5
C7
100
AcDbEntity
100
AcDbLine
  8
0
 62
7
420
16777215
370
-1
 48
1.0
  6
BYLAYER
 10
-4.9200470000000003
 20
-1.2712559999999999
 30
0.0
 11
-5.0587819999999999
 21
-0.775555
 31
0.0
  0
LINE
  5
C8
100
AcDbEntity
100
AcDbLine
  8
0
 62
7
420
16777215
370
-1
 48
1.0
  6
BYLAYER
 10
-5.0587819999999999
 20
-0.775555
 30
0.0
 11
-5.1529230000000004
 21
-0.262743
 31
0.0
  0
LINE
  5
C9
100
AcDbEntity
100
AcDbLine
  8
0
 62
7
420
16777215
370
-1
 48
1.0
  6
BYLAYER
 10
-5.1529230000000004
 20
-0.262743
 30
0.0
 11
-6.0625249999999999
 21
-0.307899
 31
0.0
  0
LINE
  5
CA
100
AcDbEntity
100
AcDbLine
  8
0
 62
7
420
16777215
370
-1
 48
1.0
  6
BYLAYER
 10
-6.0625249999999999
 20
-0.307899
 30
0.0
 11
-6.1658949999999999
 21
-0.503541
 31
0.0
  0
LINE
  5
CB
100
AcDbEntity
100
AcDbLine
  8
0
 62
7
420
16777215
370
-1
 48
1.0
  6
BYLAYER
 10
-6.1658949999999999
 20
-0.503541
 30
0.0
 11
-6.3167030000000004
 21
-0.653833
 31
0.0
  0
LINE
  5
CC
100
AcDbEntity
100
AcDbLine
  8
0
 62
7
420
16777215
370
-1
 48
1.0
  6
BYLAYER
 10
-6.3167030000000004
 20
-0.653833
 30
0.0
 11
-6.5039689999999997
 21
-0.750257
 31
0.0
  0
LINE
  5
CD
100
AcDbEntity
100
AcDbLine
  8
0
 62
7
420
16777215
370
-1
 48
1.0
  6
BYLAYER
 10
-6.5039689999999997
 20
-0.750257
 30
0.0
 11
-6.7167159999999999
 21
-0.78429
 31
0.0
  0
LINE
  5
CE
100
AcDbEntity
100
AcDbLine
  8
0
 62
7
420
16777215
370
-1
 48
1.0
  6
BYLAYER
 10
-6.7167159999999999
 20
-0.78429
 30
0.0
 11
-6.9927149999999996
 21
-0.727013
 31
0.0
  0
LINE
  5
CF
100
AcDbEntity
100
AcDbLine
  8
0
 62
7
420
16777215
370
-1
 48
1.0
  6
BYLAYER
 10
-6.9927149999999996
 20
-0.727013
 30
0.0
 11
-7.2182620000000002
 21
-0.570967
 31
0.0
  0
LINE
  5
D0
100
AcDbEntity
100
AcDbLine
  8
0
 62
7
420
16777215
370
-1
 48
1.0
  6
BYLAYER
 10
-7.2182620000000002
 20
-0.570967
 30
0.0
 11
-7.3704080000000003
 21
-0.339829
 31
0.0
  0
LINE
  5
D1
100
AcDbEntity
100
AcDbLine
  8
0
 62
7
420
16777215
370
-1
 48
1.0
  6
BYLAYER
 10
-7.3704080000000003
 20
-0.339829
 30
0.0
 11
-7.4262230000000002
 21
-0.057285
 31
0.0
  0
LINE
  5
D2
100
AcDbEntity
100
AcDbLine
  8
0
 62
7
420
16777215
370
-1
 48
1.0
  6
BYLAYER
 10
-7.4262230000000002
 20
-0.057285
 30
0.0
 11
-7.3704080000000003
 21
0.226608
 31
0.0
  0
LINE
  5
D3
100
AcDbEntity
100
AcDbLine
  8
0
 62
7
420
16777215
370
-1
 48
1.0
  6
BYLAYER
 10
-7.3704080000000003
 20
0.226608
 30
0.0
 11
-7.2182620000000002
 21
0.45851
 31
0.0
  0
LINE
  5
D4
100
AcDbEntity
100
AcDbLine
  8
0
 62
7
420
16777215
370
-1
 48
1.0
  6
BYLAYER
 10
-7.2182620000000002
 20
0.45851
 30
0.0
 11
-6.9927149999999996
 21
0.614903
 31
0.0
  0
LINE
  5
D5
100
AcDbEntity
100
AcDbLine
  8
0
 62
7
420
16777215
370
-1
 48
1.0
  6
BYLAYER
 10
-6.9927149999999996
 20
0.614903
 30
0.0
 11
-6.7167159999999999
 21
0.6722590000000001
 31
0.0
  0
LINE
  5
D6
100
AcDbEntity
100
AcDbLine
  8
0
 62
7
420
16777215
370
-1
 48
1.0
  6
BYLAYER
 10
-6.7167159999999999
 20
0.6722590000000001
 30
0.0
 11
-6.517665
 21
0.642727
 31
0.0
  0
LINE
  5
D7
100
AcDbEntity
100
AcDbLine
  8
0
 62
7
420
16777215
370
-1
 48
1.0
  6
BYLAYER
 10
-6.517665
 20
0.642727
 30
0.0
 11
-6.3392780000000002
 21
0.558346
 31
0.0
  0
LINE
  5
D8
100
AcDbEntity
100
AcDbLine
  8
0
 62
7
420
16777215
370
-1
 48
1.0
  6
BYLAYER
 10
-6.3392780000000002
 20
0.558346
 30
0.0
 11
-6.1905780000000004
 21
0.425442
 31
0.0
  0
LINE
  5
D9
100
AcDbEntity
100
AcDbLine
  8
0
 62
7
420
16777215
370
-1
 48
1.0
  6
BYLAYER
 10
-6.1905780000000004
 20
0.425442
 30
0.0
 11
-6.0805870000000004
 21
0.250337
 31
0.0
  0
LINE
  5
DA
100
AcDbEntity
100
AcDbLine
  8
0
 62
7
420
16777215
370
-1
 48
1.0
  6
BYLAYER
 10
-6.0805870000000004
 20
0.250337
 30
0.0
 11
-5.200901
 21
0.294646
 31
0.0
  0
LINE
  5
DB
100
AcDbEntity
100
AcDbLine
  8
0
 62
7
420
16777215
370
-1
 48
1.0
  6
BYLAYER
 10
-5.200901
 20
0.294646
 30
0.0
 11
-5.2074759999999998
 21
0.4039
 31
0.0
  0
LINE
  5
DC
100
AcDbEntity
100
AcDbLine
  8
0
 62
7
420
16777215
370
-1
 48
1.0
  6
BYLAYER
 10
-5.2074759999999998
 20
0.4039
 30
0.0
 11
-5.2119070000000001
 21
0.513368
 31
0.0
  0
LINE
  5
DD
100
AcDbEntity
100
AcDbLine
  8
0
 62
7
420
16777215
370
-1
 48
1.0
  6
BYLAYER
 10
-5.2119070000000001
 20
0.513368
 30
0.0
 11
-5.2008720000000004
 21
0.868655
 31
0.0
  0
LINE
  5
DE
100
AcDbEntity
100
AcDbLine
  8
0
 62
7
420
16777215
370
-1
 48
1.0
  6
BYLAYER
 10
-5.2008720000000004
 20
0.868655
 30
0.0
 11
-5.1682420000000002
 21
1.218051
 31
0.0
  0
LINE
  5
DF
100
AcDbEntity
100
AcDbLine
  8
0
 62
7
420
16777215
370
-1
 48
1.0
  6
BYLAYER
 10
-5.1682420000000002
 20
1.218051
 30
0.0
 11
-5.1147239999999998
 21
1.5609489999999999
 31
0.0
  0
LINE
  5
E0
100
AcDbEntity
100
AcDbLine
  8
0
 62
7
420
16777215
370
-1
 48
1.0
  6
BYLAYER
 10
-5.1147239999999998
 20
1.5609489999999999
 30
0.0
 11
-5.0410219999999999
 21
1.8967510000000001
 31
0.0
  0
LINE
  5
E1
100
AcDbEntity
100
AcDbLine
  8
0
 62
7
420
16777215
370
-1
 48
1.0
  6
BYLAYER
 10
-5.0410219999999999
 20
1.8967510000000001
 30
0.0
 11
-4.9478489999999997
 21
2.2248540000000001
 31
0.0
  0
LINE
  5
E2
100
AcDbEntity
100
AcDbLine
  8
0
 62
7
420
16777215
370
-1
 48
1.0
  6
BYLAYER
 10
-4.9478489999999997
 20
2.2248540000000001
 30
0.0
 11
-4.8359079999999999
 21
2.544654
 31
0.0
  0
LINE
  5
E3
100
AcDbEntity
100
AcDbLine
  8
0
 62
7
420
16777215
370
-1
 48
1.0
  6
BYLAYER
 10
-4.8359079999999999
 20
2.544654
 30
0.0
 11
-4.7059110000000004
 21
2.85555
 31
0.0
  0
LINE
  5
E4
100
AcDbEntity
100
AcDbLine
  8
0
 62
7
420
16777215
370
-1
 48
1.0
  6
BYLAYER
 10
-4.7059110000000004
 20
2.85555
 30
0.0
 11
-4.5585630000000004
 21
3.1569430000000001
 31
0.0
  0
LINE
  5
E5
100
AcDbEntity
100
AcDbLine
  8
0
 62
7
420
16777215
370
-1
 48
1.0
  6
BYLAYER
 10
-4.5585630000000004
 20
3.1569430000000001
 30
0.0
 11
-5.0084249999999999
 21
3.1371880000000001
 31
0.0
  0
LINE
  5
E6
100
AcDbEntity
100
AcDbLine
  8
0
 62
7
420
16777215
370
-1
 48
1.0
  6
BYLAYER
 10
-5.0084249999999999
 20
3.1371880000000001
 30
0.0
 11
-5.1288239999999998
 21
2.914012
 31
0.0
  0
LINE
  5
E7
100
AcDbEntity
100
AcDbLine
  8
0
 62
7
420
16777215
370
-1
 48
1.0
  6
BYLAYER
 10
-5.1288239999999998
 20
2.914012
 30
0.0
 11
-5.3044390000000003
 21
2.7422179999999998
 31
0.0
  0
LINE
  5
E8
100
AcDbEntity
100
AcDbLine
  8
0
 62
7
420
16777215
370
-1
 48
1.0
  6
BYLAYER
 10
-5.3044390000000003
 20
2.7422179999999998
 30
0.0
 11
-5.5223380000000004
 21
2.6318069999999998
 31
0.0
  0
LINE
  5
E9
100
AcDbEntity
100
AcDbLine
  8
0
 62
7
420
16777215
370
-1
 48
1.0
  6
BYLAYER
 10
-5.5223380000000004
 20
2.6318069999999998
 30
0.0
 11
-5.7695780000000001
 21
2.592781
 31
0.0
  0
LINE
  5
EA
100
AcDbEntity
100
AcDbLine
  8
0
 62
7
420
16777215
370
-1
 48
1.0
  6
BYLAYER
 10
-5.7695780000000001
 20
2.592781
 30
0.0
 11
-6.0864349999999998
 21
2.6582029999999999
 31
0.0
  0
LINE
  5
EB
100
AcDbEntity
100
AcDbLine
  8
0
 62
7
420
16777215
370
-1
 48
1.0
  6
BYLAYER
 10
-6.0864349999999998
 20
2.6582029999999999
 30
0.0
 11
-6.345453
 21
2.836551
 31
0.0
  0
LINE
  5
EC
100
AcDbEntity
100
AcDbLine
  8
0
 62
7
420
16777215
370
-1
 48
1.0
  6
BYLAYER
 10
-6.345453
 20
2.836551
 30
0.0
 11
-6.5202270000000002
 21
3.1009389999999999
 31
0.0
  0
LINE
  5
ED
100
AcDbEntity
100
AcDbLine
  8
0
 62
7
420
16777215
370
-1
 48
1.0
  6
BYLAYER
 10
-6.5202270000000002
 20
3.1009389999999999
 30
0.0
 11
-6.5843540000000003
 21
3.42449
 31
0.0
  0
LINE
  5
EE
100
AcDbEntity
100
AcDbLine
  8
0
 62
7
420
16777215
370
-1
 48
1.0
  6
BYLAYER
 10
-6.5843540000000003
 20
3.42449
 30
0.0
 11
-6.5202270000000002
 21
3.7497739999999999
 31
0.0
  0
LINE
  5
EF
100
AcDbEntity
100
AcDbLine
  8
0
 62
7
420
16777215
370
-1
 48
1.0
  6
BYLAYER
 10
-6.5202270000000002
 20
3.7497739999999999
 30
0.0
 11
-6.345453
 21
4.0154969999999999
 31
0.0
  0
LINE
  5
F0
100
AcDbEntity
100
AcDbLine
  8
0
 62
7
420
16777215
370
-1
 48
1.0
  6
BYLAYER
 10
-6.345453
 20
4.0154969999999999
 30
0.0
 11
-6.0864349999999998
 21
4.194706
 31
0.0
  0
LINE
  5
F1
100
AcDbEntity
100
AcDbLine
  8
0
 62
7
420
16777215
370
-1
 48
1.0
  6
BYLAYER
 10
-5.5189589999999997
 20
4.2195640000000001
 30
0.0
 11
-5.2975250000000003
 21
4.1047159999999998
 31
0.0
  0
LINE
  5
F2
100
AcDbEntity
100
AcDbLine
  8
0
 62
7
420
16777215
370
-1
 48
1.0
  6
BYLAYER
 10
-5.2975250000000003
 20
4.1047159999999998
 30
0.0
 11
-5.1198550000000003
 21
3.9275340000000001
 31
0.0
  0
LINE
  5
F3
100
AcDbEntity
100
AcDbLine
  8
0
 62
7
420
16777215
370
-1
 48
1.0
  6
BYLAYER
 10
-5.1198550000000003
 20
3.9275340000000001
 30
0.0
 11
-5.0005230000000003
 21
3.6996570000000002
 31
0.0
  0
LINE
  5
F4
100
AcDbEntity
100
AcDbLine
  8
0
 62
7
420
16777215
370
-1
 48
1.0
  6
BYLAYER
 10
-5.0005230000000003
 20
3.6996570000000002
 30
0.0
 11
-4.2103010000000003
 21
3.7354989999999999
 31
0.0
  0
LINE
  5
F5
100
AcDbEntity
100
AcDbLine
  8
0
 62
7
420
16777215
370
-1
 48
1.0
  6
BYLAYER
 10
-4.2103010000000003
 20
3.7354989999999999
 30
0.0
 11
-3.55009
 21
4.5296669999999999
 31
0.0
  0
LINE
  5
F6
100
AcDbEntity
100
AcDbLine
  8
0
 62
7
420
16777215
370
-1
 48
1.0
  6
BYLAYER
 10
-3.55009
 20
4.5296669999999999
 30
0.0
 11
-3.1691829999999999
 21
4.8782050000000003
 31
0.0
  0
LINE
  5
F7
100
AcDbEntity
100
AcDbLine
  8
0
 62
7
420
16777215
370
-1
 48
1.0
  6
BYLAYER
 10
-3.1691829999999999
 20
4.8782050000000003
 30
0.0
 11
-2.757666
 21
5.191306
 31
0.0
  0
LINE
  5
F8
100
AcDbEntity
100
AcDbLine
  8
0
 62
7
420
16777215
370
-1
 48
1.0
  6
BYLAYER
 10
-2.757666
 20
5.191306
 30
0.0
 11
-2.3179859999999999
 21
5.4666639999999997
 31
0.0
  0
LINE
  5
F9
100
AcDbEntity
100
AcDbLine
  8
0
 62
7
420
16777215
370
-1
 48
1.0
  6
BYLAYER
 10
-2.3179859999999999
 20
5.4666639999999997
 30
0.0
 11
-1.8525849999999999
 21
5.701975
 31
0.0
  0
LINE
  5
FA
100
AcDbEntity
100
AcDbLine
  8
0
 62
7
420
16777215
370
-1
 48
1.0
  6
BYLAYER
 10
-1.8525849999999999
 20
5.701975
 30
0.0
 11
-1.3639060000000001
 21
5.8949309999999997
 31
0.0
  0
LINE
  5
FB
100
AcDbEntity
100
AcDbLine
  8
0
 62
7
420
16777215
370
-1
 48
1.0
  6
BYLAYER
 10
-1.3639060000000001
 20
5.8949309999999997
 30
0.0
 11
-0.854396
 21
6.0432300000000003
 31
0.0
  0
LINE
  5
FC
100
AcDbEntity
100
AcDbLine
  8
0
 62
7
420
16777215
370
-1
 48
1.0
  6
BYLAYER
 10
-0.854396
 20
6.0432300000000003
 30
0.0
 11
10.1282809999999994
 21
17.3628810000000016
 31
0.0
  0
LINE
  5
FD
100
AcDbEntity
100
AcDbLine
  8
0
 62
7
420
16777215
370
-1
 48
1.0
  6
BYLAYER
 10
10.1282809999999994
 20
17.3628810000000016
 30
0.0
 11
8.9387139999999992
 21
18.1079480000000004
 31
0.0
  0
LINE
  5
FE
100
AcDbEntity
100
AcDbLine
  8
0
 62
7
420
16777215
370
-1
 48
1.0
  6
BYLAYER
 10
8.9387139999999992
 20
18.1079480000000004
 30
0.0
 11
8.680199
 21
17.9022080000000017
 31
0.0
  0
LINE
  5
FF
100
AcDbEntity
100
AcDbLine
  8
0
 62
7
420
16777215
370
-1
 48
1.0
  6
BYLAYER
 10
8.680199
 20
17.9022080000000017
 30
0.0
 11
-3.3994759999999999
 21
5.4505629999999998
 31
0.0
  0
LINE
  5
100
100
AcDbEntity
100
AcDbLine
  8
0
 62
7
420
16777215
370
-1
 48
1.0
  6
BYLAYER
 10
-8.0996050000000004
 20
5.2208350000000001
 30
0.0
 11
-8.2422850000000007
 21
4.9011560000000003
 31
0.0
  0
LINE
  5
101
100
AcDbEntity
100
AcDbLine
  8
0
 62
7
420
16777215
370
-1
 48
1.0
  6
BYLAYER
 10
-8.2422850000000007
 20
4.9011560000000003
 30
0.0
 11
-8.4727029999999992
 21
4.6496870000000001
 31
0.0
  0
LINE
  5
102
100
AcDbEntity
100
AcDbLine
  8
0
 62
7
420
16777215
370
-1
 48
1.0
  6
BYLAYER
 10
-8.4727029999999992
 20
4.6496870000000001
 30
0.0
 11
-8.7687369999999998
 21
4.4851070000000002
 31
0.0
  0
LINE
  5
103
100
AcDbEntity
100
AcDbLine
  8
0
 62
7
420
16777215
370
-1
 48
1.0
  6
BYLAYER
 10
-8.7687369999999998
 20
4.4851070000000002
 30
0.0
 11
-9.1082669999999997
 21
4.4260970000000004
 31
0.0
  0
LINE
  5
104
100
AcDbEntity
100
AcDbLine
  8
0
 62
7
420
16777215
370
-1
 48
1.0
  6
BYLAYER
 10
-9.1082669999999997
 20
4.4260970000000004
 30
0.0
 11
-9.5151559999999993
 21
4.510859
 31
0.0
  0
LINE
  5
105
100
AcDbEntity
100
AcDbLine
  8
0
 62
7
420
16777215
370
-1
 48
1.0
  6
BYLAYER
 10
-9.5151559999999993
 20
4.510859
 30
0.0
 11
-9.8481470000000009
 21
4.7418329999999997
 31
0.0
  0
LINE
  5
106
100
AcDbEntity
100
AcDbLine
  8
0
 62
7
420
16777215
370
-1
 48
1.0
  6
BYLAYER
 10
-9.8481470000000009
 20
4.7418329999999997
 30
0.0
 11
-10.0730299999999993
 21
5.0840360000000002
 31
0.0
  0
LINE
  5
107
100
AcDbEntity
100
AcDbLine
  8
0
 62
7
420
16777215
370
-1
 48
1.0
  6
BYLAYER
 10
-10.0730299999999993
 20
5.0840360000000002
 30
0.0
 11
-10.1555940000000007
 21
5.5024920000000002
 31
0.0
  0
LINE
  5
108
100
AcDbEntity
100
AcDbLine
  8
0
 62
7
420
16777215
370
-1
 48
1.0
  6
BYLAYER
 10
-10.1555940000000007
 20
5.5024920000000002
 30
0.0
 11
-10.0730299999999993
 21
5.9200460000000001
 31
0.0
  0
LINE
  5
109
100
AcDbEntity
100
AcDbLine
  8
0
 62
7
420
16777215
370
-1
 48
1.0
  6
BYLAYER
 10
-10.0730299999999993
 20
5.9200460000000001
 30
0.0
 11
-9.8481470000000009
 21
6.2616329999999998
 31
0.0
  0
LINE
  5
10A
100
AcDbEntity
100
AcDbLine
  8
0
 62
7
420
16777215
370
-1
 48
1.0
  6
BYLAYER
 10
-9.8481470000000009
 20
6.2616329999999998
 30
0.0
 11
-9.5151559999999993
 21
6.4922599999999999
 31
0.0
  0
LINE
  5
10B
100
AcDbEntity
100
AcDbLine
  8
0
 62
7
420
16777215
370
-1
 48
1.0
  6
BYLAYER
 10
-9.5151559999999993
 20
6.4922599999999999
 30
0.0
 11
-9.1082669999999997
 21
6.5769120000000001
 31
0.0
  0
LINE
  5
10C
100
AcDbEntity
100
AcDbLine
  8
0
 62
7
420
16777215
370
-1
 48
1.0
  6
BYLAYER
 10
-9.1082669999999997
 20
6.5769120000000001
 30
0.0
 11
-8.765015
 21
6.5190200000000003
 31
0.0
  0
LINE
  5
10D
100
AcDbEntity
100
AcDbLine
  8
0
 62
7
420
16777215
370
-1
 48
1.0
  6
BYLAYER
 10
-8.765015
 20
6.5190200000000003
 30
0.0
 11
-8.4693869999999993
 21
6.3563559999999999
 31
0.0
  0
LINE
  5
10E
100
AcDbEntity
100
AcDbLine
  8
0
 62
7
420
16777215
370
-1
 48
1.0
  6
BYLAYER
 10
-8.4693869999999993
 20
6.3563559999999999
 30
0.0
 11
-8.2411729999999999
 21
6.105423
 31
0.0
  0
LINE
  5
10F
100
AcDbEntity
100
AcDbLine
  8
0
 62
7
420
16777215
370
-1
 48
1.0
  6
BYLAYER
 10
-8.2411729999999999
 20
6.105423
 30
0.0
 11
-8.1001700000000003
 21
5.7827390000000003
 31
0.0
  0
LINE
  5
110
100
AcDbEntity
100
AcDbLine
  8
0
 62
7
420
16777215
370
-1
 48
1.0
  6
BYLAYER
 10
-3.6447270000000001
 20
6.0020259999999999
 30
0.0
 11
6.1376590000000002
 21
16.0841320000000003
 31
0.0
  0
LINE
  5
111
100
AcDbEntity
100
AcDbLine
  8
0
 62
7
420
16777215
370
-1
 48
1.0
  6
BYLAYER
 10
6.1376590000000002
 20
16.0841320000000003
 30
0.0
 11
4.669257
 21
16.5506460000000004
 31
0.0
  0
LINE
  5
112
100
AcDbEntity
100
AcDbLine
  8
0
 62
7
420
16777215
370
-1
 48
1.0
  6
BYLAYER
 10
4.669257
 20
16.5506460000000004
 30
0.0
 11
-3.3602470000000002
 21
8.2741969999999991
 31
0.0
  0
LINE
  5
113
100
AcDbEntity
100
AcDbLine
  8
0
 62
7
420
16777215
370
-1
 48
1.0
  6
BYLAYER
 10
-3.3602470000000002
 20
8.2741969999999991
 30
0.0
 11
-3.3205100000000001
 21
8.1763309999999993
 31
0.0
  0
LINE
  5
114
100
AcDbEntity
100
AcDbLine
  8
0
 62
7
420
16777215
370
-1
 48
1.0
  6
BYLAYER
 10
-3.3205100000000001
 20
8.1763309999999993
 30
0.0
 11
-3.2917010000000002
 21
8.0763219999999993
 31
0.0
  0
LINE
  5
115
100
AcDbEntity
100
AcDbLine
  8
0
 62
7
420
16777215
370
-1
 48
1.0
  6
BYLAYER
 10
-3.2917010000000002
 20
8.0763219999999993
 30
0.0
 11
-3.2741750000000001
 21
7.9749930000000004
 31
0.0
  0
LINE
  5
116
100
AcDbEntity
100
AcDbLine
  8
0
 62
7
420
16777215
370
-1
 48
1.0
  6
BYLAYER
 10
-3.2741750000000001
 20
7.9749930000000004
 30
0.0
 11
-3.2682479999999998
 21
7.8731590000000002
 31
0.0
  0
LINE
  5
117
100
AcDbEntity
100
AcDbLine
  8
0
 62
7
420
16777215
370
-1
 48
1.0
  6
BYLAYER
 10
-3.2682479999999998
 20
7.8731590000000002
 30
0.0
 11
-3.340176
 21
7.508559
 31
0.0
  0
LINE
  5
118
100
AcDbEntity
100
AcDbLine
  8
0
 62
7
420
16777215
370
-1
 48
1.0
  6
BYLAYER
 10
-3.340176
 20
7.508559
 30
0.0
 11
-3.536111
 21
7.2108169999999996
 31
0.0
  0
LINE
  5
119
100
AcDbEntity
100
AcDbLine
  8
0
 62
7
420
16777215
370
-1
 48
1.0
  6
BYLAYER
 10
-3.536111
 20
7.2108169999999996
 30
0.0
 11
-3.826295
 21
7.0100749999999996
 31
0.0
  0
LINE
  5
11A
100
AcDbEntity
100
AcDbLine
  8
0
 62
7
420
16777215
370
-1
 48
1.0
  6
BYLAYER
 10
-3.826295
 20
7.0100749999999996
 30
0.0
 11
-4.1809500000000002
 21
6.9364629999999998
 31
0.0
  0
LINE
  5
11B
100
AcDbEntity
100
AcDbLine
  8
0
 62
7
420
16777215
370
-1
 48
1.0
  6
BYLAYER
 10
-4.1809500000000002
 20
6.9364629999999998
 30
0.0
 11
-4.5358499999999999
 21
7.0100749999999996
 31
0.0
  0
LINE
  5
11C
100
AcDbEntity
100
AcDbLine
  8
0
 62
7
420
16777215
370
-1
 48
1.0
  6
BYLAYER
 10
-4.5358499999999999
 20
7.0100749999999996
 30
0.0
 11
-4.8260019999999999
 21
7.2108169999999996
 31
0.0
  0
LINE
  5
11D
100
AcDbEntity
100
AcDbLine
  8
0
 62
7
420
16777215
370
-1
 48
1.0
  6
BYLAYER
 10
-4.8260019999999999
 20
7.2108169999999996
 30
0.0
 11
-5.021808
 21
7.508559
 31
0.0
  0
LINE
  5
11E
100
AcDbEntity
100
AcDbLine
  8
0
 62
7
420
16777215
370
-1
 48
1.0
  6
BYLAYER
 10
-5.021808
 20
7.508559
 30
0.0
 11
-5.0936560000000002
 21
7.8731590000000002
 31
0.0
  0
LINE
  5
11F
100
AcDbEntity
100
AcDbLine
  8
0
 62
7
420
16777215
370
-1
 48
1.0
  6
BYLAYER
 10
-5.0936560000000002
 20
7.8731590000000002
 30
0.0
 11
-5.021808
 21
8.2369430000000001
 31
0.0
  0
LINE
  5
120
100
AcDbEntity
100
AcDbLine
  8
0
 62
7
420
16777215
370
-1
 48
1.0
  6
BYLAYER
 10
-5.021808
 20
8.2369430000000001
 30
0.0
 11
-4.8260019999999999
 21
8.5342649999999995
 31
0.0
  0
LINE
  5
121
100
AcDbEntity
100
AcDbLine
  8
0
 62
7
420
16777215
370
-1
 48
1.0
  6
BYLAYER
 10
-4.8260019999999999
 20
8.5342649999999995
 30
0.0
 11
-4.5358499999999999
 21
8.7348540000000003
 31
0.0
  0
LINE
  5
122
100
AcDbEntity
100
AcDbLine
  8
0
 62
7
420
16777215
370
-1
 48
1.0
  6
BYLAYER
 10
-4.5358499999999999
 20
8.7348540000000003
 30
0.0
 11
-4.1809500000000002
 21
8.8084430000000005
 31
0.0
  0
LINE
  5
123
100
AcDbEntity
100
AcDbLine
  8
0
 62
7
420
16777215
370
-1
 48
1.0
  6
BYLAYER
 10
-4.1809500000000002
 20
8.8084430000000005
 30
0.0
 11
-4.0666099999999998
 21
8.8007109999999997
 31
0.0
  0
LINE
  5
124
100
AcDbEntity
100
AcDbLine
  8
0
 62
7
420
16777215
370
-1
 48
1.0
  6
BYLAYER
 10
-4.0666099999999998
 20
8.8007109999999997
 30
0.0
 11
-3.9541469999999999
 21
8.7777659999999997
 31
0.0
  0
LINE
  5
125
100
AcDbEntity
100
AcDbLine
  8
0
 62
7
420
16777215
370
-1
 48
1.0
  6
BYLAYER
 10
-3.9541469999999999
 20
8.7777659999999997
 30
0.0
 11
-3.8445969999999998
 21
8.7399620000000002
 31
0.0
  0
LINE
  5
126
100
AcDbEntity
100
AcDbLine
  8
0
 62
7
420
16777215
370
-1
 48
1.0
  6
BYLAYER
 10
-3.8445969999999998
 20
8.7399620000000002
 30
0.0
 11
-3.7389899999999998
 21
8.6876300000000004
 31
0.0
  0
LINE
  5
127
100
AcDbEntity
100
AcDbLine
  8
0
 62
7
420
16777215
370
-1
 48
1.0
  6
BYLAYER
 10
-3.7389899999999998
 20
8.6876300000000004
 30
0.0
 11
4.0356680000000003
 21
16.7007650000000005
 31
0.0
  0
LINE
  5
128
100
AcDbEntity
100
AcDbLine
  8
0
 62
7
420
16777215
370
-1
 48
1.0
  6
BYLAYER
 10
4.0356680000000003
 20
16.7007650000000005
 30
0.0
 11
2.8892820000000001
 21
16.920615999999999
 31
0.0
  0
LINE
  5
129
100
AcDbEntity
100
AcDbLine
  8
0
 62
7
420
16777215
370
-1
 48
1.0
  6
BYLAYER
 10
2.8892820000000001
 20
16.920615999999999
 30
0.0
 11
2.719948
 21
17.3524160000000016
 31
0.0
  0
LINE
  5
12A
100
AcDbEntity
100
AcDbLine
  8
0
 62
7
420
16777215
370
-1
 48
1.0
  6
BYLAYER
 10
2.719948
 20
17.3524160000000016
 30
0.0
 11
-4.3680630000000003
 21
10.0468119999999992
 31
0.0
  0
LINE
  5
12B
100
AcDbEntity
100
AcDbLine
  8
0
 62
7
420
16777215
370
-1
 48
1.0
  6
BYLAYER
 10
-4.3680630000000003
 20
10.0468119999999992
 30
0.0
 11
-4.4177340000000003
 21
10.0437080000000005
 31
0.0
  0
LINE
  5
12C
100
AcDbEntity
100
AcDbLine
  8
0
 62
7
420
16777215
370
-1
 48
1.0
  6
BYLAYER
 10
-7.2884979999999997
 20
9.9500100000000007
 30
0.0
 11
-7.4106129999999997
 21
9.7372029999999992
 31
0.0
  0
LINE
  5
12D
100
AcDbEntity
100
AcDbLine
  8
0
 62
7
420
16777215
370
-1
 48
1.0
  6
BYLAYER
 10
-7.4106129999999997
 20
9.7372029999999992
 30
0.0
 11
-7.5840560000000004
 21
9.5736329999999992
 31
0.0
  0
LINE
  5
12E
100
AcDbEntity
100
AcDbLine
  8
0
 62
7
420
16777215
370
-1
 48
1.0
  6
BYLAYER
 10
-7.5840560000000004
 20
9.5736329999999992
 30
0.0
 11
-7.7963399999999998
 21
9.4686400000000006
 31
0.0
  0
LINE
  5
12F
100
AcDbEntity
100
AcDbLine
  8
0
 62
7
420
16777215
370
-1
 48
1.0
  6
BYLAYER
 10
-7.7963399999999998
 20
9.4686400000000006
 30
0.0
 11
-8.0349760000000003
 21
9.4315680000000004
 31
0.0
  0
LINE
  5
130
100
AcDbEntity
100
AcDbLine
  8
0
 62
7
420
16777215
370
-1
 48
1.0
  6
BYLAYER
 10
-8.0349760000000003
 20
9.4315680000000004
 30
0.0
 11
-8.3486919999999998
 21
9.4968199999999996
 31
0.0
  0
LINE
  5
131
100
AcDbEntity
100
AcDbLine
  8
0
 62
7
420
16777215
370
-1
 48
1.0
  6
BYLAYER
 10
-8.3486919999999998
 20
9.4968199999999996
 30
0.0
 11
-8.6052060000000008
 21
9.6745979999999996
 31
0.0
  0
LINE
  5
132
100
AcDbEntity
100
AcDbLine
  8
0
 62
7
420
16777215
370
-1
 48
1.0
  6
BYLAYER
 10
-8.6052060000000008
 20
9.6745979999999996
 30
0.0
 11
-8.7783239999999996
 21
9.9379419999999996
 31
0.0
  0
LINE
  5
133
100
AcDbEntity
100
AcDbLine
  8
0
 62
7
420
16777215
370
-1
 48
1.0
  6
BYLAYER
 10
-8.7783239999999996
 20
9.9379419999999996
 30
0.0
 11
-8.8418500000000009
 21
10.2598900000000004
 31
0.0
  0
LINE
  5
134
100
AcDbEntity
100
AcDbLine
  8
0
 62
7
420
16777215
370
-1
 48
1.0
  6
BYLAYER
 10
-8.8418500000000009
 20
10.2598900000000004
 30
0.0
 11
-8.7783239999999996
 21
10.5825370000000003
 31
0.0
  0
LINE
  5
135
100
AcDbEntity
100
AcDbLine
  8
0
 62
7
420
16777215
370
-1
 48
1.0
  6
BYLAYER
 10
-8.7783239999999996
 20
10.5825370000000003
 30
0.0
 11
-8.6052060000000008
 21
10.8463139999999996
 31
0.0
  0
LINE
  5
136
100
AcDbEntity
100
AcDbLine
  8
0
 62
7
420
16777215
370
-1
 48
1.0
  6
BYLAYER
 10
-8.6052060000000008
 20
10.8463139999999996
 30
0.0
 11
-8.3486919999999998
 21
11.0243110000000009
 31
0.0
  0
LINE
  5
137
100
AcDbEntity
100
AcDbLine
  8
0
 62
7
420
16777215
370
-1
 48
1.0
  6
BYLAYER
 10
-8.3486919999999998
 20
11.0243110000000009
 30
0.0
 11
-8.0349760000000003
 21
11.0896229999999996
 31
0.0
  0
LINE
  5
138
100
AcDbEntity
100
AcDbLine
  8
0
 62
7
420
16777215
370
-1
 48
1.0
  6
BYLAYER
 10
-8.0349760000000003
 20
11.0896229999999996
 30
0.0
 11
-7.7802230000000003
 21
11.0475720000000006
 31
0.0
  0
LINE
  5
139
100
AcDbEntity
100
AcDbLine
  8
0
 62
7
420
16777215
370
-1
 48
1.0
  6
BYLAYER
 10
-7.7802230000000003
 20
11.0475720000000006
 30
0.0
 11
-7.5573519999999998
 21
10.9293209999999998
 31
0.0
  0
LINE
  5
13A
100
AcDbEntity
100
AcDbLine
  8
0
 62
7
420
16777215
370
-1
 48
1.0
  6
BYLAYER
 10
-7.5573519999999998
 20
10.9293209999999998
 30
0.0
 11
-7.3808870000000004
 21
10.7467229999999994
 31
0.0
  0
LINE
  5
13B
100
AcDbEntity
100
AcDbLine
  8
0
 62
7
420
16777215
370
-1
 48
1.0
  6
BYLAYER
 10
-7.3808870000000004
 20
10.7467229999999994
 30
0.0
 11
-7.2653559999999997
 21
10.5116320000000005
 31
0.0
  0
LINE
  5
13C
100
AcDbEntity
100
AcDbLine
  8
0
 62
7
420
16777215
370
-1
 48
1.0
  6
BYLAYER
 10
-4.6090809999999998
 20
10.5991210000000002
 30
0.0
 11
2.4972750000000001
 21
17.9236339999999998
 31
0.0
  0
LINE
  5
13D
100
AcDbEntity
100
AcDbLine
  8
0
 62
7
420
16777215
370
-1
 48
1.0
  6
BYLAYER
 10
2.4972750000000001
 20
17.9236339999999998
 30
0.0
 11
1.8924730000000001
 21
19.4710590000000003
 31
0.0
  0
LINE
  5
13E
100
AcDbEntity
100
AcDbLine
  8
0
 62
7
420
16777215
370
-1
 48
1.0
  6
BYLAYER
 10
1.8924730000000001
 20
19.4710590000000003
 30
0.0
 11
-4.9553669999999999
 21
12.4132449999999999
 31
0.0
  0
LINE
  5
13F
100
AcDbEntity
100
AcDbLine
  8
0
 62
7
420
16777215
370
-1
 48
1.0
  6
BYLAYER
 10
-4.9553669999999999
 20
12.4132449999999999
 30
0.0
 11
-5.0050379999999999
 21
12.4129629999999995
 31
0.0
  0
LINE
  5
140
100
AcDbEntity
100
AcDbLine
  8
0
 62
7
420
16777215
370
-1
 48
1.0
  6
BYLAYER
 10
-9.5756270000000008
 20
12.3407140000000002
 30
0.0
 11
-9.7019389999999994
 21
12.1489949999999993
 31
0.0
  0
LINE
  5
141
100
AcDbEntity
100
AcDbLine
  8
0
 62
7
420
16777215
370
-1
 48
1.0
  6
BYLAYER
 10
-9.7019389999999994
 20
12.1489949999999993
 30
0.0
 11
-9.8717489999999994
 21
12.0026489999999999
 31
0.0
  0
LINE
  5
142
100
AcDbEntity
100
AcDbLine
  8
0
 62
7
420
16777215
370
-1
 48
1.0
  6
BYLAYER
 10
-9.8717489999999994
 20
12.0026489999999999
 30
0.0
 11
-10.0742600000000007
 21
11.9092730000000007
 31
0.0
  0
LINE
  5
143
100
AcDbEntity
100
AcDbLine
  8
0
 62
7
420
16777215
370
-1
 48
1.0
  6
BYLAYER
 10
-10.0742600000000007
 20
11.9092730000000007
 30
0.0
 11
-10.2986810000000002
 21
11.8764590000000005
 31
0.0
  0
LINE
  5
144
100
AcDbEntity
100
AcDbLine
  8
0
 62
7
420
16777215
370
-1
 48
1.0
  6
BYLAYER
 10
-10.2986810000000002
 20
11.8764590000000005
 30
0.0
 11
-10.6131379999999993
 21
11.9417229999999996
 31
0.0
  0
LINE
  5
145
100
AcDbEntity
100
AcDbLine
  8
0
 62
7
420
16777215
370
-1
 48
1.0
  6
BYLAYER
 10
-10.6131379999999993
 20
11.9417229999999996
 30
0.0
 11
-10.8701810000000005
 21
12.1195930000000001
 31
0.0
  0
LINE
  5
146
100
AcDbEntity
100
AcDbLine
  8
0
 62
7
420
16777215
370
-1
 48
1.0
  6
BYLAYER
 10
-10.8701810000000005
 20
12.1195930000000001
 30
0.0
 11
-11.0436150000000008
 21
12.3831889999999998
 31
0.0
  0
LINE
  5
147
100
AcDbEntity
100
AcDbLine
  8
0
 62
7
420
16777215
370
-1
 48
1.0
  6
BYLAYER
 10
-11.0436150000000008
 20
12.3831889999999998
 30
0.0
 11
-11.1072469999999992
 21
12.7056280000000008
 31
0.0
  0
LINE
  5
148
100
AcDbEntity
100
AcDbLine
  8
0
 62
7
420
16777215
370
-1
 48
1.0
  6
BYLAYER
 10
-11.1072469999999992
 20
12.7056280000000008
 30
0.0
 11
-11.0436150000000008
 21
13.0282610000000005
 31
0.0
  0
LINE
  5
149
100
AcDbEntity
100
AcDbLine
  8
0
 62
7
420
16777215
370
-1
 48
1.0
  6
BYLAYER
 10
-11.0436150000000008
 20
13.0282610000000005
 30
0.0
 11
-10.8701810000000005
 21
13.2917330000000007
 31
0.0
  0
LINE
  5
14A
100
AcDbEntity
100
AcDbLine
  8
0
 62
7
420
16777215
370
-1
 48
1.0
  6
BYLAYER
 10
-10.8701810000000005
 20
13.2917330000000007
 30
0.0
 11
-10.6131379999999993
 21
13.4693740000000002
 31
0.0
  0
LINE
  5
14B
100
AcDbEntity
100
AcDbLine
  8
0
 62
7
420
16777215
370
-1
 48
1.0
  6
BYLAYER
 10
-10.6131379999999993
 20
13.4693740000000002
 30
0.0
 11
-10.2986810000000002
 21
13.5345169999999992
 31
0.0
  0
LINE
  5
14C
100
AcDbEntity
100
AcDbLine
  8
0
 62
7
420
16777215
370
-1
 48
1.0
  6
BYLAYER
 10
-10.2986810000000002
 20
13.5345169999999992
 30
0.0
 11
-10.0576229999999995
 21
13.497007
 31
0.0
  0
LINE
  5
14D
100
AcDbEntity
100
AcDbLine
  8
0
 62
7
420
16777215
370
-1
 48
1.0
  6
BYLAYER
 10
-10.0576229999999995
 20
13.497007
 30
0.0
 11
-9.8440569999999994
 21
13.3908660000000008
 31
0.0
  0
LINE
  5
14E
100
AcDbEntity
100
AcDbLine
  8
0
 62
7
420
16777215
370
-1
 48
1.0
  6
BYLAYER
 10
-9.8440569999999994
 20
13.3908660000000008
 30
0.0
 11
-9.6705469999999991
 21
13.2256699999999991
 31
0.0
  0
LINE
  5
14F
100
AcDbEntity
100
AcDbLine
  8
0
 62
7
420
16777215
370
-1
 48
1.0
  6
BYLAYER
 10
-9.6705469999999991
 20
13.2256699999999991
 30
0.0
 11
-9.5496630000000007
 21
13.0109949999999994
 31
0.0
  0
LINE
  5
150
100
AcDbEntity
100
AcDbLine
  8
0
 62
7
420
16777215
370
-1
 48
1.0
  6
BYLAYER
 10
-9.5496630000000007
 20
13.0109949999999994
 30
0.0
 11
-5.2358960000000003
 21
13.0759059999999998
 31
0.0
  0
LINE
  5
151
100
AcDbEntity
100
AcDbLine
  8
0
 62
7
420
16777215
370
-1
 48
1.0
  6
BYLAYER
 10
-5.2358960000000003
 20
13.0759059999999998
 30
0.0
 11
1.4993369999999999
 21
20.0188549999999985
 31
0.0
  0
LINE
  5
152
100
AcDbEntity
100
AcDbLine
  8
0
 62
7
420
16777215
370
-1
 48
1.0
  6
BYLAYER
 10
1.4993369999999999
 20
20.0188549999999985
 30
0.0
 11
-2.617721
 21
19.8283549999999984
 31
0.0
  0
LINE
  5
153
100
AcDbEntity
100
AcDbLine
  8
0
 62
7
420
16777215
370
-1
 48
1.0
  6
BYLAYER
 10
-2.617721
 20
19.8283549999999984
 30
0.0
 11
-3.5829209999999998
 21
16.619769999999999
 31
0.0
  0
LINE
  5
154
100
AcDbEntity
100
AcDbLine
  8
0
 62
7
420
16777215
370
-1
 48
1.0
  6
BYLAYER
 10
-3.5829209999999998
 20
16.619769999999999
 30
0.0
 11
-4.5937929999999998
 21
16.3366219999999984
 31
0.0
  0
LINE
  5
155
100
AcDbEntity
100
AcDbLine
  8
0
 62
7
420
16777215
370
-1
 48
1.0
  6
BYLAYER
 10
-4.5937929999999998
 20
16.3366219999999984
 30
0.0
 11
-5.5777039999999998
 21
15.9926729999999999
 31
0.0
  0
LINE
  5
156
100
AcDbEntity
100
AcDbLine
  8
0
 62
7
420
16777215
370
-1
 48
1.0
  6
BYLAYER
 10
-5.5777039999999998
 20
15.9926729999999999
 30
0.0
 11
-6.5324559999999998
 21
15.5898789999999998
 31
0.0
  0
LINE
  5
157
100
AcDbEntity
100
AcDbLine
  8
0
 62
7
420
16777215
370
-1
 48
1.0
  6
BYLAYER
 10
-6.5324559999999998
 20
15.5898789999999998
 30
0.0
 11
-7.4558559999999998
 21
15.1302009999999996
 31
0.0
  0
LINE
  5
158
100
AcDbEntity
100
AcDbLine
  8
0
 62
7
420
16777215
370
-1
 48
1.0
  6
BYLAYER
 10
-7.4558559999999998
 20
15.1302009999999996
 30
0.0
 11
-10.2885209999999994
 21
16.8909860000000016
 31
0.0
  0
LINE
  5
159
100
AcDbEntity
100
AcDbLine
  8
0
 62
7
420
16777215
370
-1
 48
1.0
  6
BYLAYER
 10
-10.2885209999999994
 20
16.8909860000000016
 30
0.0
 11
-13.6057609999999993
 21
14.159357
 31
0.0
  0
LINE
  5
15A
100
AcDbEntity
100
AcDbLine
  8
0
 62
7
420
16777215
370
-1
 48
1.0
  6
BYLAYER
 10
-13.6057609999999993
 20
14.159357
 30
0.0
 11
-12.4565520000000003
 21
11.01145
 31
0.0
  0
LINE
  5
15B
100
AcDbEntity
100
AcDbLine
  8
0
 62
7
420
16777215
370
-1
 48
1.0
  6
BYLAYER
 10
-12.4565520000000003
 20
11.01145
 30
0.0
 11
-12.8843300000000003
 21
10.465878
 31
0.0
  0
LINE
  5
15C
100
AcDbEntity
100
AcDbLine
  8
0
 62
7
420
16777215
370
-1
 48
1.0
  6
BYLAYER
 10
-12.8843300000000003
 20
10.465878
 30
0.0
 11
-13.2888249999999992
 21
9.9021050000000006
 31
0.0
  0
LINE
  5
15D
100
AcDbEntity
100
AcDbLine
  8
0
 62
7
420
16777215
370
-1
 48
1.0
  6
BYLAYER
 10
-13.2888249999999992
 20
9.9021050000000006
 30
0.0
 11
-13.6700370000000007
 21
9.3210800000000003
 31
0.0
  0
LINE
  5
15E
100
AcDbEntity
100
AcDbLine
  8
0
 62
7
420
16777215
370
-1
 48
1.0
  6
BYLAYER
 10
-13.6700370000000007
 20
9.3210800000000003
 30
0.0
 11
-14.027965
 21
8.7237570000000009
 31
0.0
  0
LINE
  5
15F
100
AcDbEntity
100
AcDbLine
  8
0
 62
7
420
16777215
370
-1
 48
1.0
  6
BYLAYER
 10
-14.027965
 20
8.7237570000000009
 30
0.0
 11
-17.3677829999999993
 21
8.7127499999999998
 31
0.0
  0
LINE
  5
160
100
AcDbEntity
100
AcDbLine
  8
0
 62
7
420
16777215
370
-1
 48
1.0
  6
BYLAYER
 10
-17.3677829999999993
 20
8.7127499999999998
 30
0.0
 11
-18.7297870000000017
 21
4.6366149999999999
 31
0.0
  0
LINE
  5
161
100
AcDbEntity
100
AcDbLine
  8
0
 62
7
420
16777215
370
-1
 48
1.0
  6
BYLAYER
 10
-18.7297870000000017
 20
4.6366149999999999
 30
0.0
 11
-16.082260999999999
 21
2.577521
 31
0.0
  0
LINE
  5
162
100
AcDbEntity
100
AcDbLine
  8
0
 62
7
420
16777215
370
-1
 48
1.0
  6
BYLAYER
 10
-16.082260999999999
 20
2.577521
 30
0.0
 11
-16.1403929999999995
 21
2.0596830000000002
 31
0.0
  0
LINE
  5
163
100
AcDbEntity
100
AcDbLine
  8
0
 62
7
420
16777215
370
-1
 48
1.0
  6
BYLAYER
 10
-16.1403929999999995
 20
2.0596830000000002
 30
0.0
 11
-16.1832619999999991
 21
1.537425
 31
0.0
  0
LINE
  5
164
100
AcDbEntity
100
AcDbLine
  8
0
 62
7
420
16777215
370
-1
 48
1.0
  6
BYLAYER
 10
-16.1832619999999991
 20
1.537425
 30
0.0
 11
-16.2097629999999988
 21
1.0107790000000001
 31
0.0
  0
LINE
  5
165
100
AcDbEntity
100
AcDbLine
  8
0
 62
7
420
16777215
370
-1
 48
1.0
  6
BYLAYER
 10
-16.2097629999999988
 20
1.0107790000000001
 30
0.0
 11
-16.2188510000000008
 21
0.479764
 31
0.0
  0
LINE
  5
166
100
AcDbEntity
100
AcDbLine
  8
0
 62
7
420
16777215
370
-1
 48
1.0
  6
BYLAYER
 10
-16.2188510000000008
 20
0.479764
 30
0.0
 11
-16.2174389999999988
 21
0.311167
 31
0.0
  0
LINE
  5
167
100
AcDbEntity
100
AcDbLine
  8
0
 62
7
420
16777215
370
-1
 48
1.0
  6
BYLAYER
 10
-16.2174389999999988
 20
0.311167
 30
0.0
 11
-16.2136010000000006
 21
0.142965
 31
0.0
  0
LINE
  5
168
100
AcDbEntity
100
AcDbLine
  8
0
 62
7
420
16777215
370
-1
 48
1.0
  6
BYLAYER
 10
-16.2136010000000006
 20
0.142965
 30
0.0
 11
-16.2080130000000011
 21
-0.02518
 31
0.0
  0
LINE
  5
169
100
AcDbEntity
100
AcDbLine
  8
0
 62
7
420
16777215
370
-1
 48
1.0
  6
BYLAYER
 10
-16.2080130000000011
 20
-0.02518
 30
0.0
 11
-16.201353000000001
 21
-0.193619
 31
0.0
  0
LINE
  5
16A
100
AcDbEntity
100
AcDbLine
  8
0
 62
7
420
16777215
370
-1
 48
1.0
  6
BYLAYER
 10
-16.201353000000001
 20
-0.193619
 30
0.0
 11
-19.026962000000001
 21
-1.9750049999999999
 31
0.0
  0
LINE
  5
16B
100
AcDbEntity
100
AcDbLine
  8
0
 62
7
420
16777215
370
-1
 48
1.0
  6
BYLAYER
 10
-19.026962000000001
 20
-1.9750049999999999
 30
0.0
 11
-18.0177349999999983
 21
-6.1524590000000003
 31
0.0
  0
LINE
  5
16C
100
AcDbEntity
100
AcDbLine
  8
0
 62
7
420
16777215
370
-1
 48
1.0
  6
BYLAYER
 10
-18.0177349999999983
 20
-6.1524590000000003
 30
0.0
 11
-14.6849729999999994
 21
-6.4933829999999997
 31
0.0
  0
LINE
  5
16D
100
AcDbEntity
100
AcDbLine
  8
0
 62
7
420
16777215
370
-1
 48
1.0
  6
BYLAYER
 10
-14.6849729999999994
 20
-6.4933829999999997
 30
0.0
 11
-14.3791930000000008
 21
-7.1199810000000001
 31
0.0
  0
LINE
  5
16E
100
AcDbEntity
100
AcDbLine
  8
0
 62
7
420
16777215
370
-1
 48
1.0
  6
BYLAYER
 10
-14.3791930000000008
 20
-7.1199810000000001
 30
0.0
 11
-14.0484910000000003
 21
-7.7317400000000003
 31
0.0
  0
LINE
  5
16F
100
AcDbEntity
100
AcDbLine
  8
0
 62
7
420
16777215
370
-1
 48
1.0
  6
BYLAYER
 10
-14.0484910000000003
 20
-7.7317400000000003
 30
0.0
 11
-13.6933399999999992
 21
-8.3277789999999996
 31
0.0
  0
LINE
  5
170
100
AcDbEntity
100
AcDbLine
  8
0
 62
7
420
16777215
370
-1
 48
1.0
  6
BYLAYER
 10
-13.6933399999999992
 20
-8.3277789999999996
 30
0.0
 11
-13.3142189999999996
 21
-8.9072300000000002
 31
0.0
  0
LINE
  5
171
100
AcDbEntity
100
AcDbLine
  8
0
 62
7
420
16777215
370
-1
 48
1.0
  6
BYLAYER
 10
-13.3142189999999996
 20
-8.9072300000000002
 30
0.0
 11
-14.7611729999999994
 21
-11.9157189999999993
 31
0.0
  0
LINE
  5
172
100
AcDbEntity
100
AcDbLine
  8
0
 62
7
420
16777215
370
-1
 48
1.0
  6
BYLAYER
 10
-14.7611729999999994
 20
-11.9157189999999993
 30
0.0
 11
-11.6886189999999992
 21
-14.9208210000000001
 31
0.0
  0
LINE
  5
173
100
AcDbEntity
100
AcDbLine
  8
0
 62
7
420
16777215
370
-1
 48
1.0
  6
BYLAYER
 10
-11.6886189999999992
 20
-14.9208210000000001
 30
0.0
 11
-8.6812590000000007
 21
-13.4391540000000003
 31
0.0
  0
LINE
  5
174
100
AcDbEntity
100
AcDbLine
  8
0
 62
7
420
16777215
370
-1
 48
1.0
  6
BYLAYER
 10
-8.6812590000000007
 20
-13.4391540000000003
 30
0.0
 11
-7.0378790000000002
 21
-14.3820589999999999
 31
0.0
  0
LINE
  5
175
100
AcDbEntity
100
AcDbLine
  8
0
 62
7
420
16777215
370
-1
 48
1.0
  6
BYLAYER
 10
-7.0378790000000002
 20
-14.3820589999999999
 30
0.0
 11
-5.727239
 21
-13.0711359999999992
 31
0.0
  0
LINE
  5
176
100
AcDbEntity
100
AcDbLine
  8
0
 62
7
420
16777215
370
-1
 48
1.0
  6
BYLAYER
 10
-5.727239
 20
-13.0711359999999992
 30
0.0
 11
-11.2548499999999994
 21
-7.7074829999999999
 31
0.0
  0
LINE
  5
177
100
AcDbEntity
100
AcDbLine
  8
0
 62
7
420
16777215
370
-1
 48
1.0
  6
BYLAYER
 10
-3.5140530000000001
 20
-10.8579299999999996
 30
0.0
 11
-7.9605374180734252
 21
-6.4206968587207225
 31
0.0
  0
LINE
  5
178
100
AcDbEntity
100
AcDbLine
  8
0
 62
7
420
16777215
370
-1
 48
1.0
  6
BYLAYER
 10
-8.3852847676752571
 20
-5.9968332309380372
 30
0.0
 11
-11.3815620000000006
 21
-3.0067900000000001
 31
0.0
  0
LINE
  5
179
100
AcDbEntity
100
AcDbLine
  8
0
 62
7
420
16777215
370
-1
 48
1.0
  6
BYLAYER
 10
-10.9760139999999993
 20
-2.6240969999999999
 30
0.0
 11
-7.9971634110932612
 21
-5.596847646490728
 31
0.0
  0
LINE
  5
17A
100
AcDbEntity
100
AcDbLine
  8
0
 62
7
420
16777215
370
-1
 48
1.0
  6
BYLAYER
 10
-7.5724229360945108
 20
-6.0207183590217372
 30
0.0
 11
-3.1200760000000001
 21
-10.4639480000000002
 31
0.0
  0
LINE
  5
17B
100
AcDbEntity
100
AcDbLine
  8
0
 62
7
420
16777215
370
-1
 48
1.0
  6
BYLAYER
 10
-7.5197402305155121
 20
-5.1048304290054496
 30
0.0
 11
-7.5921859999999999
 21
-4.9975059999999996
 31
0.0
  0
LINE
  5
17C
100
AcDbEntity
100
AcDbLine
  8
0
 62
7
420
16777215
370
-1
 48
1.0
  6
BYLAYER
 10
-6.9739449999999996
 20
-5.6211099999999998
 30
0.0
 11
-7.1005425186952733
 21
-5.5344133378168578
 31
0.0
  0
LINE
  5
17D
100
AcDbEntity
100
AcDbLine
  8
0
 62
7
420
16777215
370
-1
 48
1.0
  6
BYLAYER
 10
-10.8650950000000002
 20
-7.30701
 30
0.0
 11
-10.2426980980503277
 21
-7.9110246144089444
 31
0.0
  0
LINE
  5
17E
100
AcDbEntity
100
AcDbLine
  8
0
 62
7
420
16777215
370
-1
 48
1.0
  6
BYLAYER
 10
-9.8121232346866538
 20
-8.3288825909735866
 30
0.0
 11
-5.3324109999999996
 21
-12.6762879999999996
 31
0.0
  0
LINE
  5
17F
100
AcDbEntity
100
AcDbLine
  8
0
 62
7
420
16777215
370
-1
 48
1.0
  6
BYLAYER
 10
-3.3994759999999999
 20
5.4505629999999998
 30
0.0
 11
-5.4859179033837693
 21
5.3485840701492346
 31
0.0
  0
LINE
  5
180
100
AcDbEntity
100
AcDbLine
  8
0
 62
7
420
16777215
370
-1
 48
1.0
  6
BYLAYER
 10
-6.0855448184329823
 20
5.3192761315925647
 30
0.0
 11
-8.0996050000000004
 21
5.2208350000000001
 31
0.0
  0
LINE
  5
181
100
AcDbEntity
100
AcDbLine
  8
0
 62
7
420
16777215
370
-1
 48
1.0
  6
BYLAYER
 10
-8.1001700000000003
 20
5.7827390000000003
 30
0.0
 11
-6.0940044978476289
 21
5.8814780063054304
 31
0.0
  0
LINE
  5
182
100
AcDbEntity
100
AcDbLine
  8
0
 62
7
420
16777215
370
-1
 48
1.0
  6
BYLAYER
 10
-5.4943806556890609
 20
5.9109901588513001
 30
0.0
 11
-3.6447270000000001
 21
6.0020259999999999
 31
0.0
  0
LINE
  5
183
100
AcDbEntity
100
AcDbLine
  8
0
 62
256
370
-1
 48
1.0
  6
BYLAYER
 10
-6.069544042106064
 20
4.2559182894173126
 30
0.0
 11
-6.0855448184329815
 21
5.3192761315925656
 31
0.0
  0
LINE
  5
184
100
AcDbEntity
100
AcDbLine
  8
0
 62
256
370
-1
 48
1.0
  6
BYLAYER
 10
-5.4696119578939397
 20
4.2649457105826869
 30
0.0
 11
-5.4859179033837693
 21
5.3485840701492355
 31
0.0
  0
LINE
  5
185
100
AcDbEntity
100
AcDbLine
  8
0
 62
256
370
-1
 48
1.0
  6
BYLAYER
 10
-5.4943806556890609
 20
5.910990158851301
 30
0.0
 11
-5.5560082975757652
 21
10.0065562086530786
 31
0.0
  0
LINE
  5
186
100
AcDbEntity
100
AcDbLine
  8
0
 62
7
420
16777215
370
-1
 48
1.0
  6
BYLAYER
 10
-4.4177340000000003
 20
10.0437080000000005
 30
0.0
 11
-5.5560082975757661
 21
10.0065562086530786
 31
0.0
  0
LINE
  5
187
100
AcDbEntity
100
AcDbLine
  8
0
 62
7
420
16777215
370
-1
 48
1.0
  6
BYLAYER
 10
-6.1557816557312961
 20
9.9869803869859357
 30
0.0
 11
-7.2884979999999997
 21
9.9500100000000007
 31
0.0
  0
LINE
  5
188
100
AcDbEntity
100
AcDbLine
  8
0
 62
256
370
-1
 48
1.0
  6
BYLAYER
 10
-6.0940044978476298
 20
5.8814780063054304
 30
0.0
 11
-6.155781655731297
 21
9.9869803869859339
 31
0.0
  0
LINE
  5
189
100
AcDbEntity
100
AcDbLine
  8
0
 62
7
420
16777215
370
-1
 48
1.0
  6
BYLAYER
 10
-7.2653559999999997
 20
10.5116320000000005
 30
0.0
 11
-6.1642220366256639
 21
10.5478997468717122
 31
0.0
  0
LINE
  5
18A
100
AcDbEntity
100
AcDbLine
  8
0
 62
7
420
16777215
370
-1
 48
1.0
  6
BYLAYER
 10
-5.5644513668414621
 20
10.5676542286662372
 30
0.0
 11
-4.6090809999999998
 21
10.5991210000000002
 31
0.0
  0
LINE
  5
18B
100
AcDbEntity
100
AcDbLine
  8
0
 62
256
370
-1
 48
1.0
  6
BYLAYER
 10
-6.164222036625663
 20
10.5478997468717086
 30
0.0
 11
-6.1920040674591332
 21
12.3942001859714672
 31
0.0
  0
LINE
  5
18C
100
AcDbEntity
100
AcDbLine
  8
0
 62
7
420
16777215
370
-1
 48
1.0
  6
BYLAYER
 10
-5.0050379999999999
 20
12.4129629999999995
 30
0.0
 11
-5.5920788421547485
 21
12.4036834271036316
 31
0.0
  0
LINE
  5
18D
100
AcDbEntity
100
AcDbLine
  8
0
 62
7
420
16777215
370
-1
 48
1.0
  6
BYLAYER
 10
-6.1920040674591332
 20
12.3942001859714672
 30
0.0
 11
-9.5756270000000008
 21
12.3407140000000002
 31
0.0
  0
LINE
  5
18E
100
AcDbEntity
100
AcDbLine
  8
0
 62
256
370
-1
 48
1.0
  6
BYLAYER
 10
-5.5644513668414621
 20
10.5676542286662372
 30
0.0
 11
-5.5920788421547485
 21
12.4036834271036316
 31
0.0
  0
LINE
  5
18F
100
AcDbEntity
100
AcDbLine
  8
0
 62
7
420
16777215
370
-1
 48
1.0
  6
BYLAYER
 10
18.7111932398152767
 20
-1.5840989999999979
 30
0.0
 11
11.6431711176605717
 21
-8.8651590893397323
 31
0.0
  0
LINE
  5
190
100
AcDbEntity
100
AcDbLine
  8
0
 62
7
420
16777215
370
-1
 48
1.0
  6
BYLAYER
 10
16.6185599999999987
 20
-9.2630920000000003
 30
0.0
 11
16.3766971784741528
 21
-6.1478469746174511
 31
0.0
  0
LINE
  5
191
100
AcDbEntity
100
AcDbLine
  8
0
 62
7
420
16777215
370
-1
 48
1.0
  6
BYLAYER
 10
16.3766971784741528
 20
-6.1478469746174511
 30
0.0
 11
17.9602299999999993
 21
-4.1178900000000001
 31
0.0
  0
LINE
  5
192
100
AcDbEntity
100
AcDbLine
  8
0
 62
7
420
16777215
370
-1
 48
1.0
  6
BYLAYER
 10
17.9602299999999993
 20
-4.1178900000000001
 30
0.0
 11
19.260428000000001
 21
-2.778464
 31
0.0
  0
LINE
  5
193
100
AcDbEntity
100
AcDbLine
  8
0
 62
7
420
16777215
370
-1
 48
1.0
  6
BYLAYER
 10
19.260428000000001
 20
-2.778464
 30
0.0
 11
19.6363480000000017
 21
-2.778464
 31
0.0
  0
LINE
  5
194
100
AcDbEntity
100
AcDbLine
  8
0
 62
7
420
16777215
370
-1
 48
1.0
  6
BYLAYER
 10
19.6363480000000017
 20
-2.778464
 30
0.0
 11
19.7647590000000015
 21
-1.5840989999999999
 31
0.0
  0
LINE
  5
195
100
AcDbEntity
100
AcDbLine
  8
0
 62
7
420
16777215
370
-1
 48
1.0
  6
BYLAYER
 10
19.7647590000000015
 20
-1.5840989999999999
 30
0.0
 11
19.7256
 21
-1.5840989999999999
 31
0.0
  0
LINE
  5
196
100
AcDbEntity
100
AcDbLine
  8
0
 62
7
420
16777215
370
-1
 48
1.0
  6
BYLAYER
 10
19.7256
 20
-1.5840989999999999
 30
0.0
 11
19.6864419999999996
 21
-1.5840989999999999
 31
0.0
  0
LINE
  5
197
100
AcDbEntity
100
AcDbLine
  8
0
 62
7
420
16777215
370
-1
 48
1.0
  6
BYLAYER
 10
19.6864419999999996
 20
-1.5840989999999999
 30
0.0
 11
18.7111932398152803
 21
-1.5840989999999999
 31
0.0
  0
LINE
  5
198
100
AcDbEntity
100
AcDbLine
  8
0
 62
7
420
16777215
370
-1
 48
1.0
  6
BYLAYER
 10
8.9606974313294696
 20
-13.8651279196457295
 30
0.0
 11
11.5110577576588078
 21
-11.9332193034348144
 31
0.0
  0
LINE
  5
199
100
AcDbEntity
100
AcDbLine
  8
0
 62
7
420
16777215
370
-1
 48
1.0
  6
BYLAYER
 10
8.9756850000000004
 20
-16.329937000000001
 30
0.0
 11
8.9606974313294714
 21
-13.8651279196457313
 31
0.0
  0
LINE
  5
19A
100
AcDbEntity
100
AcDbLine
  8
0
 62
7
420
16777215
370
-1
 48
1.0
  6
BYLAYER
 10
10.0805448381655633
 20
-9.9901371618344328
 30
0.0
 11
5.3956724090687844
 21
-14.807888218444953
 31
0.0
  0
LINE
  5
19B
100
AcDbEntity
100
AcDbLine
  8
0
 62
7
420
16777215
370
-1
 48
1.0
  6
BYLAYER
 10
5.3956724090687844
 20
-14.807888218444953
 30
0.0
 11
8.9756850000000004
 21
-16.329937000000001
 31
0.0
  0
LINE
  5
19C
100
AcDbEntity
100
AcDbLine
  8
0
 62
7
420
16777215
370
-1
 48
1.0
  6
BYLAYER
 10
11.8041169999999997
 20
-9.4431499999999993
 30
0.0
 11
11.7973710000000001
 21
-9.5571420000000007
 31
0.0
  0
LINE
  5
19D
100
AcDbEntity
100
AcDbLine
  8
0
 62
7
420
16777215
370
-1
 48
1.0
  6
BYLAYER
 10
11.7973710000000001
 20
-9.5571420000000007
 30
0.0
 11
11.7773900000000005
 21
-9.6688569999999991
 31
0.0
  0
LINE
  5
19E
100
AcDbEntity
100
AcDbLine
  8
0
 62
7
420
16777215
370
-1
 48
1.0
  6
BYLAYER
 10
11.7773900000000005
 20
-9.6688569999999991
 30
0.0
 11
11.7445989999999991
 21
-9.7770810000000008
 31
0.0
  0
LINE
  5
19F
100
AcDbEntity
100
AcDbLine
  8
0
 62
7
420
16777215
370
-1
 48
1.0
  6
BYLAYER
 10
11.7445989999999991
 20
-9.7770810000000008
 30
0.0
 11
11.6994260000000008
 21
-9.8805940000000003
 31
0.0
  0
LINE
  5
1A0
100
AcDbEntity
100
AcDbLine
  8
0
 62
7
420
16777215
370
-1
 48
1.0
  6
BYLAYER
 10
11.6994260000000008
 20
-9.8805940000000003
 30
0.0
 11
14.640746
 21
-12.913354
 31
0.0
  0
LINE
  5
1A1
100
AcDbEntity
100
AcDbLine
  8
0
 62
7
420
16777215
370
-1
 48
1.0
  6
BYLAYER
 10
14.640746
 20
-12.913354
 30
0.0
 11
17.0176219999999994
 21
-9.8921650000000003
 31
0.0
  0
LINE
  5
1A2
100
AcDbEntity
100
AcDbLine
  8
0
 62
7
420
16777215
370
-1
 48
1.0
  6
BYLAYER
 10
17.0176219999999994
 20
-9.8921650000000003
 30
0.0
 11
16.6185599999999987
 21
-9.2630920000000003
 31
0.0
  0
LINE
  5
1A3
100
AcDbEntity
100
AcDbLine
  8
0
 62
7
420
16777215
370
-1
 48
1.0
  6
BYLAYER
 10
11.6431711176605717
 20
-8.8651590893397341
 30
0.0
 11
11.7754460000000005
 21
-9.2100570000000008
 31
0.0
  0
LINE
  5
1A4
100
AcDbEntity
100
AcDbLine
  8
0
 62
7
420
16777215
370
-1
 48
1.0
  6
BYLAYER
 10
11.7754460000000005
 20
-9.2100570000000008
 30
0.0
 11
11.8041309999999999
 21
-9.4431410000000007
 31
0.0
  0
LINE
  5
1A5
100
AcDbEntity
100
AcDbLine
  8
0
 62
7
420
16777215
370
-1
 48
1.0
  6
BYLAYER
 10
11.8041309999999999
 20
-9.4431410000000007
 30
0.0
 11
11.8041169999999997
 21
-9.4431499999999993
 31
0.0
  0
LINE
  5
1A6
100
AcDbEntity
100
AcDbLine
  8
0
 62
7
420
16777215
370
-1
 48
1.0
  6
BYLAYER
 10
12.0140899999999995
 20
-12.4386569999999992
 30
0.0
 11
14.1330139999999993
 21
-13.1896500000000003
 31
0.0
  0
LINE
  5
1A7
100
AcDbEntity
100
AcDbLine
  8
0
 62
7
420
16777215
370
-1
 48
1.0
  6
BYLAYER
 10
14.1330139999999993
 20
-13.1896500000000003
 30
0.0
 11
11.3079699999999992
 21
-10.2785279999999997
 31
0.0
  0
LINE
  5
1A8
100
AcDbEntity
100
AcDbLine
  8
0
 62
7
420
16777215
370
-1
 48
1.0
  6
BYLAYER
 10
11.3079699999999992
 20
-10.2785279999999997
 30
0.0
 11
11.2083089999999999
 21
-10.3247979999999995
 31
0.0
  0
LINE
  5
1A9
100
AcDbEntity
100
AcDbLine
  8
0
 62
7
420
16777215
370
-1
 48
1.0
  6
BYLAYER
 10
11.2083089999999999
 20
-10.3247979999999995
 30
0.0
 11
11.1044169999999998
 21
-10.3580780000000008
 31
0.0
  0
LINE
  5
1AA
100
AcDbEntity
100
AcDbLine
  8
0
 62
7
420
16777215
370
-1
 48
1.0
  6
BYLAYER
 10
11.1044169999999998
 20
-10.3580780000000008
 30
0.0
 11
10.9974550000000004
 21
-10.3781719999999993
 31
0.0
  0
LINE
  5
1AB
100
AcDbEntity
100
AcDbLine
  8
0
 62
7
420
16777215
370
-1
 48
1.0
  6
BYLAYER
 10
10.9974550000000004
 20
-10.3781719999999993
 30
0.0
 11
10.8885880000000004
 21
-10.3849169999999997
 31
0.0
  0
LINE
  5
1AC
100
AcDbEntity
100
AcDbLine
  8
0
 62
7
420
16777215
370
-1
 48
1.0
  6
BYLAYER
 10
10.8885880000000004
 20
-10.3849169999999997
 30
0.0
 11
10.6553620000000002
 21
-10.3537309999999998
 31
0.0
  0
LINE
  5
1AD
100
AcDbEntity
100
AcDbLine
  8
0
 62
7
420
16777215
370
-1
 48
1.0
  6
BYLAYER
 10
10.6553620000000002
 20
-10.3537309999999998
 30
0.0
 11
10.4445449999999997
 21
-10.2656080000000003
 31
0.0
  0
LINE
  5
1AE
100
AcDbEntity
100
AcDbLine
  8
0
 62
7
420
16777215
370
-1
 48
1.0
  6
BYLAYER
 10
10.4445449999999997
 20
-10.2656080000000003
 30
0.0
 11
10.0805448381655616
 21
-9.990137161834431
 31
0.0
  0
LINE
  5
1AF
100
AcDbEntity
100
AcDbLine
  8
0
 62
7
420
16777215
370
-1
 48
1.0
  6
BYLAYER
 10
10.2636289999999999
 20
-10.1286930000000002
 30
0.0
 11
10.1200969999999995
 21
-9.9511409999999998
 31
0.0
  0
LINE
  5
1B0
100
AcDbEntity
100
AcDbLine
  8
0
 62
7
420
16777215
370
-1
 48
1.0
  6
BYLAYER
 10
11.5110577576588096
 20
-11.933219303434818
 30
0.0
 11
12.0140899999999995
 21
-12.4386569999999992
 31
0.0
  0
LINE
  5
1B1
100
AcDbEntity
100
AcDbLine
  8
0
 62
7
420
16777215
370
-1
 48
1.0
  6
BYLAYER
 10
-6.0835249999999998
 20
-3.4184420000000002
 30
0.0
 11
-5.9632122707920203
 21
-3.5007219842617041
 31
0.0
  0
LINE
  5
1B2
100
AcDbEntity
100
AcDbLine
  8
0
 62
7
420
16777215
370
-1
 48
1.0
  6
BYLAYER
 10
-5.541891358209714
 20
-3.9281167895758093
 30
0.0
 11
-5.4658280000000001
 21
-4.0405730000000002
 31
0.0
  0
LINE
  5
1B3
100
AcDbEntity
100
AcDbLine
  8
0
 62
256
370
-1
 48
1.0
  6
BYLAYER
 10
-4.270001701515195
 20
-2.6173475699542457
 30
0.0
 11
-5.5418913582097149
 21
-3.9281167895758093
 31
0.0
  0
LINE
  5
1B4
100
AcDbEntity
100
AcDbLine
  8
0
 62
256
370
-1
 48
1.0
  6
BYLAYER
 10
-7.1005425186952715
 20
-5.534413337816857
 30
0.0
 11
-7.5724229360945099
 21
-6.0207183590217381
 31
0.0
  0
LINE
  5
1B5
100
AcDbEntity
100
AcDbLine
  8
0
 62
256
370
-1
 48
1.0
  6
BYLAYER
 10
-4.579653536474078
 20
-2.074870148029583
 30
0.0
 11
-5.9632122707920194
 21
-3.5007219842617046
 31
0.0
  0
LINE
  5
1B6
100
AcDbEntity
100
AcDbLine
  8
0
 62
256
370
-1
 48
1.0
  6
BYLAYER
 10
-7.5197402305155121
 20
-5.1048304290054514
 30
0.0
 11
-7.9971634110932621
 21
-5.596847646490728
 31
0.0
  0
ENDSEC
  0
SECTION
  2
OBJECTS
  0
DICTIONARY
  5
C
100
AcDbDictionary
280
0
281
1
  3
ACAD_GROUP
350
D
  3
ACAD_LAYOUT
350
1A
  3
ACAD_MLINESTYLE
350
17
  3
ACAD_PLOTSETTINGS
350
19
  3
ACAD_PLOTSTYLENAME
350
E
  3
AcDbVariableDictionary
350
1B7
  3
QCAD_OBJECTS
350
1B8
  0
DICTIONARY
  5
D
100
AcDbDictionary
280
0
281
1
  0
ACDBDICTIONARYWDFLT
  5
E
100
AcDbDictionary
281
1
  3
Normal
350
F
100
AcDbDictionaryWithDefault
340
F
  0
ACDBPLACEHOLDER
  5
F
  0
DICTIONARY
  5
17
100
AcDbDictionary
280
0
281
1
  3
Standard
350
18
  0
MLINESTYLE
  5
18
100
AcDbMlineStyle
  2
STANDARD
 70
0
  3

 62
256
 51
90.0
 52
90.0
 71
2
 49
0.5
 62
256
  6
BYLAYER
 49
-0.5
 62
256
  6
BYLAYER
  0
DICTIONARY
  5
19
100
AcDbDictionary
280
0
281
1
  0
DICTIONARY
  5
1A
100
AcDbDictionary
281
1
  3
Layout1
350
1E
  3
Layout2
350
26
  3
Model
350
22
  0
LAYOUT
  5
1E
100
AcDbPlotSettings
  1

  2
none_device
  4

  6

 40
0.0
 41
0.0
 42
0.0
 43
0.0
 44
0.0
 45
0.0
 46
0.0
 47
0.0
 48
0.0
 49
0.0
140
0.0
141
0.0
142
1.0
143
1.0
 70
688
 72
0
 73
0
 74
5
  7

 75
16
147
1.0
148
0.0
149
0.0
100
AcDbLayout
  1
Layout1
 70
1
 71
1
 10
0.0
 20
0.0
 11
420.0
 21
297.0
 12
0.0
 22
0.0
 32
0.0
 14
100000000000000000000.0
 24
100000000000000000000.0
 34
100000000000000000000.0
 15
-100000000000000000000.0
 25
-100000000000000000000.0
 35
-100000000000000000000.0
146
0.0
 13
0.0
 23
0.0
 33
0.0
 16
1.0
 26
0.0
 36
0.0
 17
0.0
 27
1.0
 37
0.0
 76
0
330
1B
  0
LAYOUT
  5
22
100
AcDbPlotSettings
  1

  2
none_device
  4

  6

 40
0.0
 41
0.0
 42
0.0
 43
0.0
 44
0.0
 45
0.0
 46
0.0
 47
0.0
 48
0.0
 49
0.0
140
0.0
141
0.0
142
1.0
143
1.0
 70
1712
 72
0
 73
0
 74
0
  7

 75
0
147
1.0
148
0.0
149
0.0
100
AcDbLayout
  1
Model
 70
1
 71
0
 10
0.0
 20
0.0
 11
12.0
 21
9.0
 12
0.0
 22
0.0
 32
0.0
 14
0.0
 24
0.0
 34
0.0
 15
0.0
 25
0.0
 35
0.0
146
0.0
 13
0.0
 23
0.0
 33
0.0
 16
1.0
 26
0.0
 36
0.0
 17
0.0
 27
1.0
 37
0.0
 76
0
330
1F
  0
LAYOUT
  5
26
100
AcDbPlotSettings
  1

  2
none_device
  4

  6

 40
0.0
 41
0.0
 42
0.0
 43
0.0
 44
0.0
 45
0.0
 46
0.0
 47
0.0
 48
0.0
 49
0.0
140
0.0
141
0.0
142
1.0
143
1.0
 70
688
 72
0
 73
0
 74
5
  7

 75
16
147
1.0
148
0.0
149
0.0
100
AcDbLayout
  1
Layout2
 70
1
 71
2
 10
0.0
 20
0.0
 11
12.0
 21
9.0
 12
0.0
 22
0.0
 32
0.0
 14
0.0
 24
0.0
 34
0.0
 15
0.0
 25
0.0
 35
0.0
146
0.0
 13
0.0
 23
0.0
 33
0.0
 16
1.0
 26
0.0
 36
0.0
 17
0.0
 27
1.0
 37
0.0
 76
0
330
23
  0
DICTIONARY
  5
1B7
100
AcDbDictionary
281
1
  3
DIMASSOC
350
1BA
  3
HIDETEXT
350
1B9
  0
DICTIONARYVAR
  5
1B9
100
DictionaryVariables
280
0
  1
2
  0
DICTIONARYVAR
  5
1BA
100
DictionaryVariables
280
0
  1
1
  0
DICTIONARY
  5
1B8
100
AcDbDictionary
281
1
  3
Grid/DisplayGrid00
350
1BB
  3
Grid/DisplayGrid01
350
1BC
  3
Grid/DisplayGrid02
350
1BD
  3
Grid/DisplayGrid03
350
1BE
  3
Grid/GridSpacingX00
350
1BF
  3
Grid/GridSpacingX01
350
1C0
  3
Grid/GridSpacingX02
350
1C1
  3
Grid/GridSpacingX03
350
1C2
  3
Grid/GridSpacingY00
350
1C3
  3
Grid/GridSpacingY01
350
1C4
  3
Grid/GridSpacingY02
350
1C5
  3
Grid/GridSpacingY03
350
1C6
  3
Grid/IsometricGrid00
350
1C7
  3
Grid/IsometricGrid01
350
1C8
  3
Grid/IsometricGrid02
350
1C9
  3
Grid/IsometricGrid03
350
1CA
  3
Grid/IsometricProjection00
350
1CB
  3
Grid/IsometricProjection01
350
1CC
  3
Grid/IsometricProjection02
350
1CD
  3
Grid/IsometricProjection03
350
1CE
  3
Grid/MetaGridSpacingX00
350
1CF
  3
Grid/MetaGridSpacingX01
350
1D0
  3
Grid/MetaGridSpacingX02
350
1D1
  3
Grid/MetaGridSpacingX03
350
1D2
  3
Grid/MetaGridSpacingY00
350
1D3
  3
Grid/MetaGridSpacingY01
350
1D4
  3
Grid/MetaGridSpacingY02
350
1D5
  3
Grid/MetaGridSpacingY03
350
1D6
  3
MultiPageSettings/Columns
350
1D7
  3
MultiPageSettings/GlueMarginsBottom
350
1D8
  3
MultiPageSettings/GlueMarginsLeft
350
1D9
  3
MultiPageSettings/GlueMarginsRight
350
1DA
  3
MultiPageSettings/GlueMarginsTop
350
1DB
  3
MultiPageSettings/PrintCropMarks
350
1DC
  3
MultiPageSettings/Rows
350
1DD
  3
PageSettings/OffsetX
350
1DE
  3
PageSettings/OffsetY
350
1DF
  3
PageSettings/PageOrientation
350
1E0
  3
PageSettings/PaperHeight
350
1E1
  3
PageSettings/PaperWidth
350
1E2
  3
PageSettings/Scale
350
1E3
  3
PageSettings/ShowPaperBorders
350
1E4
  3
UnitSettings/PaperUnit
350
1E5
  0
XRECORD
  5
1BB
330
1B8
100
AcDbXrecord
280
1
290
1
  0
XRECORD
  5
1BC
330
1B8
100
AcDbXrecord
280
1
290
1
  0
XRECORD
  5
1BD
330
1B8
100
AcDbXrecord
280
1
290
1
  0
XRECORD
  5
1BE
330
1B8
100
AcDbXrecord
280
1
290
1
  0
XRECORD
  5
1BF
330
1B8
100
AcDbXrecord
280
1
1000
auto
  0
XRECORD
  5
1C0
330
1B8
100
AcDbXrecord
280
1
1000
auto
  0
XRECORD
  5
1C1
330
1B8
100
AcDbXrecord
280
1
1000
auto
  0
XRECORD
  5
1C2
330
1B8
100
AcDbXrecord
280
1
1000
auto
  0
XRECORD
  5
1C3
330
1B8
100
AcDbXrecord
280
1
1000
auto
  0
XRECORD
  5
1C4
330
1B8
100
AcDbXrecord
280
1
1000
auto
  0
XRECORD
  5
1C5
330
1B8
100
AcDbXrecord
280
1
1000
auto
  0
XRECORD
  5
1C6
330
1B8
100
AcDbXrecord
280
1
1000
auto
  0
XRECORD
  5
1C7
330
1B8
100
AcDbXrecord
280
1
290
0
  0
XRECORD
  5
1C8
330
1B8
100
AcDbXrecord
280
1
290
0
  0
XRECORD
  5
1C9
330
1B8
100
AcDbXrecord
280
1
290
0
  0
XRECORD
  5
1CA
330
1B8
100
AcDbXrecord
280
1
290
0
  0
XRECORD
  5
1CB
330
1B8
100
AcDbXrecord
280
1
 90
0
  0
XRECORD
  5
1CC
330
1B8
100
AcDbXrecord
280
1
 90
0
  0
XRECORD
  5
1CD
330
1B8
100
AcDbXrecord
280
1
 90
0
  0
XRECORD
  5
1CE
330
1B8
100
AcDbXrecord
280
1
 90
0
  0
XRECORD
  5
1CF
330
1B8
100
AcDbXrecord
280
1
1000
auto
  0
XRECORD
  5
1D0
330
1B8
100
AcDbXrecord
280
1
1000
auto
  0
XRECORD
  5
1D1
330
1B8
100
AcDbXrecord
280
1
1000
auto
  0
XRECORD
  5
1D2
330
1B8
100
AcDbXrecord
280
1
1000
auto
  0
XRECORD
  5
1D3
330
1B8
100
AcDbXrecord
280
1
1000
auto
  0
XRECORD
  5
1D4
330
1B8
100
AcDbXrecord
280
1
1000
auto
  0
XRECORD
  5
1D5
330
1B8
100
AcDbXrecord
280
1
1000
auto
  0
XRECORD
  5
1D6
330
1B8
100
AcDbXrecord
280
1
1000
auto
  0
XRECORD
  5
1D7
330
1B8
100
AcDbXrecord
280
1
 90
1
  0
XRECORD
  5
1D8
330
1B8
100
AcDbXrecord
280
1
 40
10.0
  0
XRECORD
  5
1D9
330
1B8
100
AcDbXrecord
280
1
 40
10.0
  0
XRECORD
  5
1DA
330
1B8
100
AcDbXrecord
280
1
 40
10.0
  0
XRECORD
  5
1DB
330
1B8
100
AcDbXrecord
280
1
 40
10.0
  0
XRECORD
  5
1DC
330
1B8
100
AcDbXrecord
280
1
290
0
  0
XRECORD
  5
1DD
330
1B8
100
AcDbXrecord
280
1
 90
1
  0
XRECORD
  5
1DE
330
1B8
100
AcDbXrecord
280
1
 40
0.0
  0
XRECORD
  5
1DF
330
1B8
100
AcDbXrecord
280
1
 40
0.0
  0
XRECORD
  5
1E0
330
1B8
100
AcDbXrecord
280
1
1000
Portrait
  0
XRECORD
  5
1E1
330
1B8
100
AcDbXrecord
280
1
 40
297.0
  0
XRECORD
  5
1E2
330
1B8
100
AcDbXrecord
280
1
 40
210.0
  0
XRECORD
  5
1E3
330
1B8
100
AcDbXrecord
280
1
1000
1:1
  0
XRECORD
  5
1E4
330
1B8
100
AcDbXrecord
280
1
290
1
  0
XRECORD
  5
1E5
330
1B8
100
AcDbXrecord
280
1
 90
4
  0
ENDSEC
  0
EOF
