  0
SECTION
  2
HEADER
  9
$ACADVER
  1
AC1014
  9
$HANDSEED
  5
FFFF
  9
$MEASUREMENT
 70
     1
  0
ENDSEC
  0
SECTION
  2
TABLES
  0
TABLE
  2
VPORT
  5
8
330
0
100
AcDbSymbolTable
 70
     4
  0
VPORT
  5
2E
330
8
100
AcDbSymbolTableRecord
100
AcDbViewportTableRecord
  2
*ACTIVE
 70
     0
 10
0.0
 20
0.0
 11
1.0
 21
1.0
 12
210.0
 22
148.5
 13
0.0
 23
0.0
 14
10.0
 24
10.0
 15
10.0
 25
10.0
 16
0.0
 26
0.0
 36
1.0
 17
0.0
 27
0.0
 37
0.0
 40
341.0
 41
1.24
 42
50.0
 43
0.0
 44
0.0
 50
0.0
 51
0.0
 71
     0
 72
   100
 73
     1
 74
     3
 75
     0
 76
     0
 77
     0
 78
     0
  0
ENDTAB
  0
TABLE
  2
LTYPE
  5
5
330
0
100
AcDbSymbolTable
 70
     1
  0
LTYPE
  5
14
330
5
100
AcDbSymbolTableRecord
100
AcDbLinetypeTableRecord
  2
BYBLOCK
 70
     0
  3

 72
    65
 73
     0
 40
0.0
  0
LTYPE
  5
15
330
5
100
AcDbSymbolTableRecord
100
AcDbLinetypeTableRecord
  2
BYLAYER
 70
     0
  3

 72
    65
 73
     0
 40
0.0
  0
LTYPE
  5
16
330
5
100
AcDbSymbolTableRecord
100
AcDbLinetypeTableRecord
  2
CONTINUOUS
 70
     0
  3
Solid line
 72
    65
 73
     0
 40
0.0
  0
ENDTAB
  0
TABLE
  2
LAYER
  5
2
100
AcDbSymbolTable
 70
1
  0
LAYER
  5
50
100
AcDbSymbolTableRecord
100
AcDbLayerTableRecord
  2
0
 70
0
  6
CONTINUOUS
  0
ENDTAB
  0
TABLE
  2
STYLE
  5
3
330
0
100
AcDbSymbolTable
 70
     1
  0
STYLE
  5
11
330
3
100
AcDbSymbolTableRecord
100
AcDbTextStyleTableRecord
  2
STANDARD
 70
     0
 40
0.0
 41
1.0
 50
0.0
 71
     0
 42
2.5
  3
txt
  4

  0
ENDTAB
  0
TABLE
  2
VIEW
  5
6
330
0
100
AcDbSymbolTable
 70
     0
  0
ENDTAB
  0
TABLE
  2
UCS
  5
7
330
0
100
AcDbSymbolTable
 70
     0
  0
ENDTAB
  0
TABLE
  2
APPID
  5
9
330
0
100
AcDbSymbolTable
 70
     2
  0
APPID
  5
12
330
9
100
AcDbSymbolTableRecord
100
AcDbRegAppTableRecord
  2
ACAD
 70
     0
  0
ENDTAB
  0
TABLE
  2
DIMSTYLE
  5
A
330
0
100
AcDbSymbolTable
 70
     1
  0
DIMSTYLE
105
27
330
A
100
AcDbSymbolTableRecord
100
AcDbDimStyleTableRecord
  2
ISO-25
 70
     0
  3

  4

  5

  6

  7

 40
1.0
 41
2.5
 42
0.625
 43
3.75
 44
1.25
 45
0.0
 46
0.0
 47
0.0
 48
0.0
140
2.5
141
2.5
142
0.0
143
0.03937007874016
144
1.0
145
0.0
146
1.0
147
0.625
 71
     0
 72
     0
 73
     0
 74
     0
 75
     0
 76
     0
 77
     1
 78
     8
170
     0
171
     3
172
     1
173
     0
174
     0
175
     0
176
     0
177
     0
178
     0
270
     2
271
     2
272
     2
273
     2
274
     3
340
11
275
     0
280
     0
281
     0
282
     0
283
     0
284
     8
285
     0
286
     0
287
     3
288
     0
  0
ENDTAB
  0
TABLE
  2
BLOCK_RECORD
  5
1
330
0
100
AcDbSymbolTable
 70
     1
  0
BLOCK_RECORD
  5
1F
330
1
100
AcDbSymbolTableRecord
100
AcDbBlockTableRecord
  2
*MODEL_SPACE
  0
BLOCK_RECORD
  5
1B
330
1
100
AcDbSymbolTableRecord
100
AcDbBlockTableRecord
  2
*PAPER_SPACE
  0
ENDTAB
  0
ENDSEC
  0
SECTION
  2
BLOCKS
  0
BLOCK
  5
20
330
1F
100
AcDbEntity
  8
0
100
AcDbBlockBegin
  2
*MODEL_SPACE
 70
     0
 10
0.0
 20
0.0
 30
0.0
  3
*MODEL_SPACE
  1

  0
ENDBLK
  5
21
330
1F
100
AcDbEntity
  8
0
100
AcDbBlockEnd
  0
BLOCK
  5
1C
330
1B
100
AcDbEntity
 67
     1
  8
0
100
AcDbBlockBegin
  2
*PAPER_SPACE
  1

  0
ENDBLK
  5
1D
330
1B
100
AcDbEntity
 67
     1
  8
0
100
AcDbBlockEnd
  0
ENDSEC
  0
SECTION
  2
ENTITIES
  0
LWPOLYLINE
  5
100
100
AcDbEntity
  8
0
 62
7
100
AcDbPolyline
 90
3
 70
0
 10
8.598072
 20
1.254483
 30
0.0
 10
9.073617
 20
1.730028
 30
0.0
 10
8.598072
 20
1.254483
 30
0.0
  0
LWPOLYLINE
  5
101
100
AcDbEntity
  8
0
 62
7
100
AcDbPolyline
 90
15
 70
0
 10
9.073617
 20
1.729746
 30
0.0
 10
17.399454
 20
10.055583
 30
0.0
 10
16.992772
 20
10.893501
 30
0.0
 10
16.140461
 20
10.796135
 30
0.0
 10
6.173501
 20
0.548081
 30
0.0
 10
6.173766
 20
0.539445
 30
0.0
 10
6.174331
 20
0.530866
 30
0.0
 10
6.174895
 20
0.522286
 30
0.0
 10
6.175161
 20
0.513650
 30
0.0
 10
6.149478
 20
-0.029015
 30
0.0
 10
6.074054
 20
-0.556997
 30
0.0
 10
5.951322
 20
-1.068095
 30
0.0
 10
5.783752
 20
-1.560119
 30
0.0
 10
8.598354
 20
1.254483
 30
0.0
 10
9.073617
 20
1.729746
 30
0.0
  0
LWPOLYLINE
  5
102
100
AcDbEntity
  8
0
 62
7
100
AcDbPolyline
 90
27
 70
0
 10
11.804117
 20
-9.443150
 30
0.0
 10
11.797371
 20
-9.557142
 30
0.0
 10
11.777390
 20
-9.668857
 30
0.0
 10
11.744599
 20
-9.777081
 30
0.0
 10
11.699426
 20
-9.880594
 30
0.0
 10
14.640746
 20
-12.913354
 30
0.0
 10
17.017622
 20
-9.892165
 30
0.0
 10
16.618560
 20
-9.263092
 30
0.0
 10
15.131813
 20
-10.794430
 30
0.0
 10
13.221168
 20
-8.824519
 30
0.0
 10
13.077839
 20
-8.911350
 30
0.0
 10
12.924166
 20
-8.974977
 30
0.0
 10
12.763136
 20
-9.014107
 30
0.0
 10
12.597740
 20
-9.027428
 30
0.0
 10
12.298237
 20
-8.984000
 30
0.0
 10
12.031356
 20
-8.862046
 30
0.0
 10
11.807918
 20
-8.674049
 30
0.0
 10
11.638748
 20
-8.432504
 30
0.0
 10
11.579905
 20
-8.491488
 30
0.0
 10
11.521062
 20
-8.550473
 30
0.0
 10
11.462218
 20
-8.609457
 30
0.0
 10
11.403375
 20
-8.668441
 30
0.0
 10
11.567792
 20
-8.815324
 30
0.0
 10
11.694242
 20
-8.998323
 30
0.0
 10
11.775446
 20
-9.210057
 30
0.0
 10
11.804131
 20
-9.443141
 30
0.0
 10
11.804117
 20
-9.443150
 30
0.0
  0
LWPOLYLINE
  5
103
100
AcDbEntity
  8
0
 62
7
100
AcDbPolyline
 90
5
 70
0
 10
19.425810
 20
-0.644872
 30
0.0
 10
19.608408
 20
-1.022203
 30
0.0
 10
19.825719
 20
-1.022203
 30
0.0
 10
19.919981
 20
-0.150983
 30
0.0
 10
19.425810
 20
-0.644872
 30
0.0
  0
LWPOLYLINE
  5
104
100
AcDbEntity
  8
0
 62
7
100
AcDbPolyline
 90
16
 70
0
 10
12.014090
 20
-12.438657
 30
0.0
 10
14.133014
 20
-13.189650
 30
0.0
 10
11.307970
 20
-10.278528
 30
0.0
 10
11.208309
 20
-10.324798
 30
0.0
 10
11.104417
 20
-10.358078
 30
0.0
 10
10.997455
 20
-10.378172
 30
0.0
 10
10.888588
 20
-10.384917
 30
0.0
 10
10.655362
 20
-10.353731
 30
0.0
 10
10.444545
 20
-10.265608
 30
0.0
 10
10.263629
 20
-10.128693
 30
0.0
 10
10.120097
 20
-9.951141
 30
0.0
 10
10.047213
 20
-10.024025
 30
0.0
 10
9.974329
 20
-10.096909
 30
0.0
 10
9.901445
 20
-10.169793
 30
0.0
 10
9.828561
 20
-10.242677
 30
0.0
 10
12.014090
 20
-12.438657
 30
0.0
  0
LWPOLYLINE
  5
105
100
AcDbEntity
  8
0
 62
7
100
AcDbPolyline
 90
17
 70
0
 10
12.597725
 20
-8.465250
 30
0.0
 10
12.806909
 20
-8.421328
 30
0.0
 10
12.977916
 20
-8.301632
 30
0.0
 10
13.093302
 20
-8.124255
 30
0.0
 10
13.135641
 20
-7.907297
 30
0.0
 10
13.103372
 20
-7.715902
 30
0.0
 10
13.014215
 20
-7.553000
 30
0.0
 10
12.879657
 20
-7.430372
 30
0.0
 10
12.711179
 20
-7.359785
 30
0.0
 10
12.551300
 20
-7.519594
 30
0.0
 10
12.391421
 20
-7.679402
 30
0.0
 10
12.231542
 20
-7.839210
 30
0.0
 10
12.071663
 20
-7.999019
 30
0.0
 10
12.134573
 20
-8.183191
 30
0.0
 10
12.251298
 20
-8.331087
 30
0.0
 10
12.409720
 20
-8.429509
 30
0.0
 10
12.597725
 20
-8.465250
 30
0.0
  0
LWPOLYLINE
  5
106
100
AcDbEntity
  8
0
 62
7
100
AcDbPolyline
 90
32
 70
0
 10
18.594383
 20
-2.385619
 30
0.0
 10
18.459083
 20
-2.376334
 30
0.0
 10
18.326272
 20
-2.348817
 30
0.0
 10
18.197271
 20
-2.303577
 30
0.0
 10
18.073401
 20
-2.241115
 30
0.0
 10
13.354363
 20
-7.102390
 30
0.0
 10
13.497873
 20
-7.274357
 30
0.0
 10
13.603918
 20
-7.469736
 30
0.0
 10
13.669639
 20
-7.682741
 30
0.0
 10
13.692189
 20
-7.907570
 30
0.0
 10
13.684992
 20
-8.030574
 30
0.0
 10
13.663713
 20
-8.153104
 30
0.0
 10
13.628723
 20
-8.273728
 30
0.0
 10
13.580423
 20
-8.391017
 30
0.0
 10
13.609633
 20
-8.420933
 30
0.0
 10
13.638843
 20
-8.450848
 30
0.0
 10
13.668053
 20
-8.480764
 30
0.0
 10
13.697263
 20
-8.510679
 30
0.0
 10
15.339797
 20
-6.817064
 30
0.0
 10
16.275081
 20
-4.492117
 30
0.0
 10
17.960230
 20
-4.117890
 30
0.0
 10
19.260428
 20
-2.778464
 30
0.0
 10
19.636348
 20
-2.778464
 30
0.0
 10
19.764759
 20
-1.584099
 30
0.0
 10
19.725600
 20
-1.584099
 30
0.0
 10
19.686442
 20
-1.584099
 30
0.0
 10
19.647284
 20
-1.584099
 30
0.0
 10
19.608125
 20
-1.584099
 30
0.0
 10
19.465962
 20
-1.909242
 30
0.0
 10
19.236405
 20
-2.162550
 30
0.0
 10
18.939273
 20
-2.327010
 30
0.0
 10
18.594383
 20
-2.385619
 30
0.0
  0
LWPOLYLINE
  5
107
100
AcDbEntity
  8
0
 62
7
100
AcDbPolyline
 90
13
 70
0
 10
0.481644
 20
6.207766
 30
0.0
 10
0.938133
 20
6.189308
 30
0.0
 10
1.384436
 20
6.135144
 30
0.0
 10
1.819470
 20
6.047164
 30
0.0
 10
2.242146
 20
5.927251
 30
0.0
 10
12.125003
 20
16.112651
 30
0.0
 10
10.613139
 20
17.059506
 30
0.0
 10
0.064519
 20
6.186613
 30
0.0
 10
0.168231
 20
6.194205
 30
0.0
 10
0.272128
 20
6.201006
 30
0.0
 10
0.376502
 20
6.205889
 30
0.0
 10
0.481644
 20
6.207864
 30
0.0
 10
0.481644
 20
6.207766
 30
0.0
  0
LWPOLYLINE
  5
108
100
AcDbEntity
  8
0
 62
7
100
AcDbPolyline
 90
9
 70
0
 10
2.806591
 20
5.707668
 30
0.0
 10
3.380472
 20
5.410434
 30
0.0
 10
3.914030
 20
5.052771
 30
0.0
 10
4.402503
 20
4.638805
 30
0.0
 10
4.841130
 20
4.172661
 30
0.0
 10
12.409765
 20
11.974977
 30
0.0
 10
11.807221
 20
12.575828
 30
0.0
 10
12.566681
 20
15.769172
 30
0.0
 10
2.806591
 20
5.707668
 30
0.0
  0
LWPOLYLINE
  5
109
100
AcDbEntity
  8
0
 62
7
100
AcDbPolyline
 90
9
 70
0
 10
6.116210
 20
1.288350
 30
0.0
 10
15.265572
 20
10.697075
 30
0.0
 10
13.661421
 20
10.513912
 30
0.0
 10
12.791048
 20
11.566883
 30
0.0
 10
5.182337
 20
3.724210
 30
0.0
 10
5.516612
 20
3.168983
 30
0.0
 10
5.786222
 20
2.574648
 30
0.0
 10
5.987359
 20
1.946131
 30
0.0
 10
6.116210
 20
1.288350
 30
0.0
  0
LWPOLYLINE
  5
10a
100
AcDbEntity
  8
0
 62
7
100
AcDbPolyline
 90
291
 70
0
 10
-11.254850
 20
-7.707483
 30
0.0
 10
-11.656170
 20
-7.804003
 30
0.0
 10
-11.999030
 20
-7.734842
 30
0.0
 10
-12.279209
 20
-7.546193
 30
0.0
 10
-12.468216
 20
-7.266316
 30
0.0
 10
-12.537550
 20
-6.923470
 30
0.0
 10
-12.468216
 20
-6.581010
 30
0.0
 10
-12.279209
 20
-6.300888
 30
0.0
 10
-11.999030
 20
-6.111782
 30
0.0
 10
-11.656170
 20
-6.042372
 30
0.0
 10
-11.313636
 20
-6.111782
 30
0.0
 10
-11.033621
 20
-6.300888
 30
0.0
 10
-10.844679
 20
-6.581010
 30
0.0
 10
-10.775354
 20
-6.923470
 30
0.0
 10
-10.798101
 20
-7.119473
 30
0.0
 10
-10.865095
 20
-7.307010
 30
0.0
 10
-5.332411
 20
-12.676288
 30
0.0
 10
-3.514053
 20
-10.857930
 30
0.0
 10
-11.381562
 20
-3.006790
 30
0.0
 10
-11.517567
 20
-3.071966
 30
0.0
 10
-11.660609
 20
-3.119044
 30
0.0
 10
-11.808838
 20
-3.147602
 30
0.0
 10
-11.960399
 20
-3.157226
 30
0.0
 10
-12.421074
 20
-3.063833
 30
0.0
 10
-12.797823
 20
-2.809491
 30
0.0
 10
-13.052122
 20
-2.432967
 30
0.0
 10
-13.145456
 20
-1.973010
 30
0.0
 10
-13.052128
 20
-1.511935
 30
0.0
 10
-12.797829
 20
-1.135129
 30
0.0
 10
-12.421079
 20
-0.880928
 30
0.0
 10
-11.960405
 20
-0.787677
 30
0.0
 10
-11.499731
 20
-0.880928
 30
0.0
 10
-11.122981
 20
-1.135129
 30
0.0
 10
-10.868682
 20
-1.511935
 30
0.0
 10
-10.775354
 20
-1.973010
 30
0.0
 10
-10.788252
 20
-2.144751
 30
0.0
 10
-10.826473
 20
-2.311677
 30
0.0
 10
-10.889296
 20
-2.472041
 30
0.0
 10
-10.976014
 20
-2.624097
 30
0.0
 10
-3.120076
 20
-10.463948
 30
0.0
 10
-1.994856
 20
-9.338728
 30
0.0
 10
-5.874565
 20
-5.497965
 30
0.0
 10
-6.020841
 20
-5.587213
 30
0.0
 10
-6.175659
 20
-5.653151
 30
0.0
 10
-6.337203
 20
-5.695332
 30
0.0
 10
-6.503638
 20
-5.713309
 30
0.0
 10
-6.509988
 20
-5.713309
 30
0.0
 10
-6.516338
 20
-5.713309
 30
0.0
 10
-6.522688
 20
-5.713309
 30
0.0
 10
-6.529038
 20
-5.713309
 30
0.0
 10
-6.973945
 20
-5.621110
 30
0.0
 10
-7.340851
 20
-5.369845
 30
0.0
 10
-7.592186
 20
-4.997506
 30
0.0
 10
-7.690383
 20
-4.542087
 30
0.0
 10
-7.672462
 20
-4.308791
 30
0.0
 10
-7.611572
 20
-4.086473
 30
0.0
 10
-7.509724
 20
-3.880299
 30
0.0
 10
-7.368932
 20
-3.695421
 30
0.0
 10
-7.194228
 20
-3.542058
 30
0.0
 10
-6.996822
 20
-3.427803
 30
0.0
 10
-6.781636
 20
-3.355140
 30
0.0
 10
-6.553592
 20
-3.326556
 30
0.0
 10
-6.547101
 20
-3.326556
 30
0.0
 10
-6.540610
 20
-3.326556
 30
0.0
 10
-6.534118
 20
-3.326556
 30
0.0
 10
-6.527627
 20
-3.326556
 30
0.0
 10
-6.083525
 20
-3.418442
 30
0.0
 10
-5.717156
 20
-3.668996
 30
0.0
 10
-5.465828
 20
-4.040573
 30
0.0
 10
-5.366847
 20
-4.495521
 30
0.0
 10
-5.372859
 20
-4.648604
 30
0.0
 10
-5.398089
 20
-4.798167
 30
0.0
 10
-5.441842
 20
-4.942600
 30
0.0
 10
-5.503429
 20
-5.080285
 30
0.0
 10
-1.600295
 20
-8.944472
 30
0.0
 10
-0.769433
 20
-8.113609
 30
0.0
 10
-1.082276
 20
-8.026332
 30
0.0
 10
-1.335853
 20
-7.838302
 30
0.0
 10
-1.507303
 20
-7.572589
 30
0.0
 10
-1.573766
 20
-7.252267
 30
0.0
 10
-1.512939
 20
-6.906483
 30
0.0
 10
-1.333736
 20
-6.620654
 30
0.0
 10
-1.063305
 20
-6.424148
 30
0.0
 10
-0.728793
 20
-6.346334
 30
0.0
 10
-0.393406
 20
-6.412701
 30
0.0
 10
-0.118346
 20
-6.593843
 30
0.0
 10
0.071626
 20
-6.862826
 30
0.0
 10
0.151740
 20
-7.192718
 30
0.0
 10
1.356124
 20
-5.988194
 30
0.0
 10
2.560507
 20
-4.783669
 30
0.0
 10
2.067411
 20
-4.952738
 30
0.0
 10
1.555161
 20
-5.077039
 30
0.0
 10
1.025870
 20
-5.153716
 30
0.0
 10
0.481658
 20
-5.179907
 30
0.0
 10
-0.052120
 20
-5.155184
 30
0.0
 10
-0.571872
 20
-5.082506
 30
0.0
 10
-1.075410
 20
-4.964072
 30
0.0
 10
-1.560556
 20
-4.802079
 30
0.0
 10
-2.025119
 20
-4.598735
 30
0.0
 10
-2.466926
 20
-4.356238
 30
0.0
 10
-2.883786
 20
-4.076799
 30
0.0
 10
-3.273520
 20
-3.762612
 30
0.0
 10
-3.633946
 20
-3.415888
 30
0.0
 10
-3.962879
 20
-3.038825
 30
0.0
 10
-4.258137
 20
-2.633630
 30
0.0
 10
-4.517539
 20
-2.202502
 30
0.0
 10
-4.738906
 20
-1.747641
 30
0.0
 10
-4.920047
 20
-1.271256
 30
0.0
 10
-5.058782
 20
-0.775555
 30
0.0
 10
-5.152923
 20
-0.262743
 30
0.0
 10
-6.062525
 20
-0.307899
 30
0.0
 10
-6.165895
 20
-0.503541
 30
0.0
 10
-6.316703
 20
-0.653833
 30
0.0
 10
-6.503969
 20
-0.750257
 30
0.0
 10
-6.716716
 20
-0.784290
 30
0.0
 10
-6.992715
 20
-0.727013
 30
0.0
 10
-7.218262
 20
-0.570967
 30
0.0
 10
-7.370408
 20
-0.339829
 30
0.0
 10
-7.426223
 20
-0.057285
 30
0.0
 10
-7.370408
 20
0.226608
 30
0.0
 10
-7.218262
 20
0.458510
 30
0.0
 10
-6.992715
 20
0.614903
 30
0.0
 10
-6.716716
 20
0.672259
 30
0.0
 10
-6.517665
 20
0.642727
 30
0.0
 10
-6.339278
 20
0.558346
 30
0.0
 10
-6.190578
 20
0.425442
 30
0.0
 10
-6.080587
 20
0.250337
 30
0.0
 10
-5.200901
 20
0.294646
 30
0.0
 10
-5.207476
 20
0.403900
 30
0.0
 10
-5.211907
 20
0.513368
 30
0.0
 10
-5.200872
 20
0.868655
 30
0.0
 10
-5.168242
 20
1.218051
 30
0.0
 10
-5.114724
 20
1.560949
 30
0.0
 10
-5.041022
 20
1.896751
 30
0.0
 10
-4.947849
 20
2.224854
 30
0.0
 10
-4.835908
 20
2.544654
 30
0.0
 10
-4.705911
 20
2.855550
 30
0.0
 10
-4.558563
 20
3.156943
 30
0.0
 10
-5.008425
 20
3.137188
 30
0.0
 10
-5.128824
 20
2.914012
 30
0.0
 10
-5.304439
 20
2.742218
 30
0.0
 10
-5.522338
 20
2.631807
 30
0.0
 10
-5.769578
 20
2.592781
 30
0.0
 10
-6.086435
 20
2.658203
 30
0.0
 10
-6.345453
 20
2.836551
 30
0.0
 10
-6.520227
 20
3.100939
 30
0.0
 10
-6.584354
 20
3.424490
 30
0.0
 10
-6.520227
 20
3.749774
 30
0.0
 10
-6.345453
 20
4.015497
 30
0.0
 10
-6.086435
 20
4.194706
 30
0.0
 10
-5.769578
 20
4.260432
 30
0.0
 10
-5.518959
 20
4.219564
 30
0.0
 10
-5.297525
 20
4.104716
 30
0.0
 10
-5.119855
 20
3.927534
 30
0.0
 10
-5.000523
 20
3.699657
 30
0.0
 10
-4.210301
 20
3.735499
 30
0.0
 10
-3.550090
 20
4.529667
 30
0.0
 10
-3.169183
 20
4.878205
 30
0.0
 10
-2.757666
 20
5.191306
 30
0.0
 10
-2.317986
 20
5.466664
 30
0.0
 10
-1.852585
 20
5.701975
 30
0.0
 10
-1.363906
 20
5.894931
 30
0.0
 10
-0.854396
 20
6.043230
 30
0.0
 10
10.128281
 20
17.362881
 30
0.0
 10
8.938714
 20
18.107948
 30
0.0
 10
8.680199
 20
17.902208
 30
0.0
 10
-3.399476
 20
5.450563
 30
0.0
 10
-8.099605
 20
5.220835
 30
0.0
 10
-8.242285
 20
4.901156
 30
0.0
 10
-8.472703
 20
4.649687
 30
0.0
 10
-8.768737
 20
4.485107
 30
0.0
 10
-9.108267
 20
4.426097
 30
0.0
 10
-9.515156
 20
4.510859
 30
0.0
 10
-9.848147
 20
4.741833
 30
0.0
 10
-10.073030
 20
5.084036
 30
0.0
 10
-10.155594
 20
5.502492
 30
0.0
 10
-10.073030
 20
5.920046
 30
0.0
 10
-9.848147
 20
6.261633
 30
0.0
 10
-9.515156
 20
6.492260
 30
0.0
 10
-9.108267
 20
6.576912
 30
0.0
 10
-8.765015
 20
6.519020
 30
0.0
 10
-8.469387
 20
6.356356
 30
0.0
 10
-8.241173
 20
6.105423
 30
0.0
 10
-8.100170
 20
5.782739
 30
0.0
 10
-3.644727
 20
6.002026
 30
0.0
 10
6.137659
 20
16.084132
 30
0.0
 10
4.669257
 20
16.550646
 30
0.0
 10
-3.360247
 20
8.274197
 30
0.0
 10
-3.320510
 20
8.176331
 30
0.0
 10
-3.291701
 20
8.076322
 30
0.0
 10
-3.274175
 20
7.974993
 30
0.0
 10
-3.268248
 20
7.873159
 30
0.0
 10
-3.340176
 20
7.508559
 30
0.0
 10
-3.536111
 20
7.210817
 30
0.0
 10
-3.826295
 20
7.010075
 30
0.0
 10
-4.180950
 20
6.936463
 30
0.0
 10
-4.535850
 20
7.010075
 30
0.0
 10
-4.826002
 20
7.210817
 30
0.0
 10
-5.021808
 20
7.508559
 30
0.0
 10
-5.093656
 20
7.873159
 30
0.0
 10
-5.021808
 20
8.236943
 30
0.0
 10
-4.826002
 20
8.534265
 30
0.0
 10
-4.535850
 20
8.734854
 30
0.0
 10
-4.180950
 20
8.808443
 30
0.0
 10
-4.066610
 20
8.800711
 30
0.0
 10
-3.954147
 20
8.777766
 30
0.0
 10
-3.844597
 20
8.739962
 30
0.0
 10
-3.738990
 20
8.687630
 30
0.0
 10
4.035668
 20
16.700765
 30
0.0
 10
2.889282
 20
16.920616
 30
0.0
 10
2.719948
 20
17.352416
 30
0.0
 10
-4.368063
 20
10.046812
 30
0.0
 10
-4.417734
 20
10.043708
 30
0.0
 10
-7.288498
 20
9.950010
 30
0.0
 10
-7.410613
 20
9.737203
 30
0.0
 10
-7.584056
 20
9.573633
 30
0.0
 10
-7.796340
 20
9.468640
 30
0.0
 10
-8.034976
 20
9.431568
 30
0.0
 10
-8.348692
 20
9.496820
 30
0.0
 10
-8.605206
 20
9.674598
 30
0.0
 10
-8.778324
 20
9.937942
 30
0.0
 10
-8.841850
 20
10.259890
 30
0.0
 10
-8.778324
 20
10.582537
 30
0.0
 10
-8.605206
 20
10.846314
 30
0.0
 10
-8.348692
 20
11.024311
 30
0.0
 10
-8.034976
 20
11.089623
 30
0.0
 10
-7.780223
 20
11.047572
 30
0.0
 10
-7.557352
 20
10.929321
 30
0.0
 10
-7.380887
 20
10.746723
 30
0.0
 10
-7.265356
 20
10.511632
 30
0.0
 10
-4.609081
 20
10.599121
 30
0.0
 10
2.497275
 20
17.923634
 30
0.0
 10
1.892473
 20
19.471059
 30
0.0
 10
-4.955367
 20
12.413245
 30
0.0
 10
-5.005038
 20
12.412963
 30
0.0
 10
-9.575627
 20
12.340714
 30
0.0
 10
-9.701939
 20
12.148995
 30
0.0
 10
-9.871749
 20
12.002649
 30
0.0
 10
-10.074260
 20
11.909273
 30
0.0
 10
-10.298681
 20
11.876459
 30
0.0
 10
-10.613138
 20
11.941723
 30
0.0
 10
-10.870181
 20
12.119593
 30
0.0
 10
-11.043615
 20
12.383189
 30
0.0
 10
-11.107247
 20
12.705628
 30
0.0
 10
-11.043615
 20
13.028261
 30
0.0
 10
-10.870181
 20
13.291733
 30
0.0
 10
-10.613138
 20
13.469374
 30
0.0
 10
-10.298681
 20
13.534517
 30
0.0
 10
-10.057623
 20
13.497007
 30
0.0
 10
-9.844057
 20
13.390866
 30
0.0
 10
-9.670547
 20
13.225670
 30
0.0
 10
-9.549663
 20
13.010995
 30
0.0
 10
-5.235896
 20
13.075906
 30
0.0
 10
1.499337
 20
20.018855
 30
0.0
 10
-2.617721
 20
19.828355
 30
0.0
 10
-3.582921
 20
16.619770
 30
0.0
 10
-4.593793
 20
16.336622
 30
0.0
 10
-5.577704
 20
15.992673
 30
0.0
 10
-6.532456
 20
15.589879
 30
0.0
 10
-7.455856
 20
15.130201
 30
0.0
 10
-10.288521
 20
16.890986
 30
0.0
 10
-13.605761
 20
14.159357
 30
0.0
 10
-12.456552
 20
11.011450
 30
0.0
 10
-12.884330
 20
10.465878
 30
0.0
 10
-13.288825
 20
9.902105
 30
0.0
 10
-13.670037
 20
9.321080
 30
0.0
 10
-14.027965
 20
8.723757
 30
0.0
 10
-17.367783
 20
8.712750
 30
0.0
 10
-18.729787
 20
4.636615
 30
0.0
 10
-16.082261
 20
2.577521
 30
0.0
 10
-16.140393
 20
2.059683
 30
0.0
 10
-16.183262
 20
1.537425
 30
0.0
 10
-16.209763
 20
1.010779
 30
0.0
 10
-16.218851
 20
0.479764
 30
0.0
 10
-16.217439
 20
0.311167
 30
0.0
 10
-16.213601
 20
0.142965
 30
0.0
 10
-16.208013
 20
-0.025180
 30
0.0
 10
-16.201353
 20
-0.193619
 30
0.0
 10
-19.026962
 20
-1.975005
 30
0.0
 10
-18.017735
 20
-6.152459
 30
0.0
 10
-14.684973
 20
-6.493383
 30
0.0
 10
-14.379193
 20
-7.119981
 30
0.0
 10
-14.048491
 20
-7.731740
 30
0.0
 10
-13.693340
 20
-8.327779
 30
0.0
 10
-13.314219
 20
-8.907230
 30
0.0
 10
-14.761173
 20
-11.915719
 30
0.0
 10
-11.688619
 20
-14.920821
 30
0.0
 10
-8.681259
 20
-13.439154
 30
0.0
 10
-7.037879
 20
-14.382059
 30
0.0
 10
-5.727239
 20
-13.071136
 30
0.0
 10
-11.254850
 20
-7.707483
 30
0.0
  0
LWPOLYLINE
  5
10b
100
AcDbEntity
  8
0
 62
7
100
AcDbPolyline
 90
5
 70
0
 10
9.754054
 20
-13.264157
 30
0.0
 10
11.061025
 20
-12.274121
 30
0.0
 10
9.432603
 20
-10.638079
 30
0.0
 10
8.290450
 20
-11.780797
 30
0.0
 10
9.754054
 20
-13.264157
 30
0.0
  0
LWPOLYLINE
  5
10c
100
AcDbEntity
  8
0
 62
7
100
AcDbPolyline
 90
6
 70
0
 10
8.975685
 20
-16.329937
 30
0.0
 10
8.960163
 20
-13.777237
 30
0.0
 10
9.278228
 20
-13.576012
 30
0.0
 10
7.895903
 20
-12.174779
 30
0.0
 10
6.330981
 20
-13.739701
 30
0.0
 10
8.975685
 20
-16.329937
 30
0.0
  0
LWPOLYLINE
  5
10d
100
AcDbEntity
  8
0
 62
7
100
AcDbPolyline
 90
7
 70
0
 10
-3.230143
 20
-12.250132
 30
0.0
 10
1.614484
 20
-7.405223
 30
0.0
 10
4.521654
 20
-10.312394
 30
0.0
 10
0.645615
 20
-14.187870
 30
0.0
 10
2.583635
 20
-16.125890
 30
0.0
 10
1.614484
 20
-17.095041
 30
0.0
 10
-3.230143
 20
-12.250132
 30
0.0
  0
LWPOLYLINE
  5
10e
100
AcDbEntity
  8
0
 62
7
100
AcDbPolyline
 90
5
 70
0
 10
1.614484
 20
-9.343243
 30
0.0
 10
-1.292405
 20
-12.250132
 30
0.0
 10
-0.323254
 20
-13.219283
 30
0.0
 10
2.583635
 20
-10.312394
 30
0.0
 10
1.614484
 20
-9.343243
 30
0.0
  0
LWPOLYLINE
  5
10f
100
AcDbEntity
  8
0
 62
7
100
AcDbPolyline
 90
9
 70
0
 10
5.878579
 20
-5.079430
 30
0.0
 10
3.940841
 20
-7.017168
 30
0.0
 10
2.971690
 20
-6.048299
 30
0.0
 10
7.816317
 20
-1.203390
 30
0.0
 10
8.785468
 20
-2.172541
 30
0.0
 10
6.847448
 20
-4.110561
 30
0.0
 10
10.723488
 20
-7.986037
 30
0.0
 10
9.754337
 20
-8.955188
 30
0.0
 10
5.878579
 20
-5.079430
 30
0.0
  0
LWPOLYLINE
  5
110
100
AcDbEntity
  8
0
 62
7
100
AcDbPolyline
 90
7
 70
0
 10
9.173241
 20
0.153252
 30
0.0
 10
10.142392
 20
1.122121
 30
0.0
 10
14.017868
 20
-2.753354
 30
0.0
 10
17.893908
 20
1.122121
 30
0.0
 10
18.862777
 20
0.153252
 30
0.0
 10
14.017868
 20
-4.691657
 30
0.0
 10
9.173241
 20
0.153252
 30
0.0
  0
ENDSEC
  0
SECTION
  2
OBJECTS
  0
DICTIONARY
  5
C
330
0
100
AcDbDictionary
  3
ACAD_GROUP
350
D
  3
ACAD_MLINESTYLE
350
17
  0
DICTIONARY
  5
D
330
C
100
AcDbDictionary
  0
DICTIONARY
  5
1A
330
C
100
AcDbDictionary
  0
DICTIONARY
  5
17
330
C
100
AcDbDictionary
  3
STANDARD
350
18
  0
DICTIONARY
  5
19
330
C
100
AcDbDictionary
  0
ENDSEC
  0
EOF
