999
dxflib 3.12.2.0
  0
SECTION
  2
HEADER
  9
$ACADVER
  1
AC1015
  9
$HANDSEED
  5
FFFF
  9
$DIMADEC
 70
0
  9
$DIMASZ
 40
0.18
  9
$DIMAUNIT
 70
0
  9
$DIMAZIN
 70
0
  9
$DIMDEC
 70
4
  9
$DIMEXE
 40
0.18
  9
$DIMEXO
 40
0.0625
  9
$DIMGAP
 40
0.09
  9
$DIMLUNIT
 70
2
  9
$DIMSCALE
 40
1.0
  9
$DIMTSZ
 40
0.0
  9
$DIMTXT
 40
0.18
  9
$DIMZIN
 70
0
  9
$DWGCODEPAGE
  3
ANSI_1252
  9
$EXTMAX
 10
1000.0
 20
1000.0
 30
0.0
  9
$EXTMIN
 10
0.0
 20
0.0
 30
0.0
  9
$FILLMODE
 70
0
  9
$INSUNITS
 70
0
  9
$LTSCALE
 40
1.0
  9
$MAXACTVP
 70
32
  9
$MEASUREMENT
 70
1
  9
$PDMODE
 70
0
  9
$PDSIZE
 40
0
  9
$SPLFRAME
 70
1
  0
ENDSEC
  0
SECTION
  2
TABLES
  0
TABLE
  2
VPORT
  5
8
100
AcDbSymbolTable
 70
1
  0
VPORT
  5
30
100
AcDbSymbolTableRecord
100
AcDbViewportTableRecord
  2
*Active
 70
0
 10
0.0
 20
0.0
 11
1.0
 21
1.0
 12
286.3055555555554861
 22
148.5
 13
0.0
 23
0.0
 14
10.0
 24
10.0
 15
10.0
 25
10.0
 16
0.0
 26
0.0
 36
1.0
 17
0.0
 27
0.0
 37
0.0
 40
297.0
 41
1.92798353909465
 42
50.0
 43
0.0
 44
0.0
 50
0.0
 51
0.0
 71
0
 72
100
 73
1
 74
3
 75
1
 76
1
 77
0
 78
0
281
0
 65
1
110
0.0
120
0.0
130
0.0
111
1.0
121
0.0
131
0.0
112
0.0
122
1.0
132
0.0
 79
0
146
0.0
  0
ENDTAB
  0
TABLE
  2
LTYPE
  5
5
100
AcDbSymbolTable
 70
41
  0
LTYPE
  5
16
100
AcDbSymbolTableRecord
100
AcDbLinetypeTableRecord
  2
Continuous
 70
0
  3
Solid line
 72
65
 73
0
 40
0.0
  0
LTYPE
  5
31
100
AcDbSymbolTableRecord
100
AcDbLinetypeTableRecord
  2
ACAD_ISO15W100
 70
0
  3
ISO double-dash triple-dot __ __ . . . __ __ . .
 72
65
 73
10
 40
39.0
 49
12.0
 74
0
 49
-3.0
 74
0
 49
12.0
 74
0
 49
-3.0
 74
0
 49
0.0
 74
0
 49
-3.0
 74
0
 49
0.0
 74
0
 49
-3.0
 74
0
 49
0.0
 74
0
 49
-3.0
 74
0
  0
LTYPE
  5
32
100
AcDbSymbolTableRecord
100
AcDbLinetypeTableRecord
  2
DIVIDE
 70
0
  3
Divide ____ . . ____ . . ____ . . ____ . . ____
 72
65
 73
6
 40
31.75
 49
12.6999999999999993
 74
0
 49
-6.3499999999999996
 74
0
 49
0.0
 74
0
 49
-6.3499999999999996
 74
0
 49
0.0
 74
0
 49
-6.3499999999999996
 74
0
  0
LTYPE
  5
33
100
AcDbSymbolTableRecord
100
AcDbLinetypeTableRecord
  2
ACAD_ISO10W100
 70
0
  3
ISO dash dot __ . __ . __ . __ . __ . __ . __ . 
 72
65
 73
4
 40
18.0
 49
12.0
 74
0
 49
-3.0
 74
0
 49
0.0
 74
0
 49
-3.0
 74
0
  0
LTYPE
  5
34
100
AcDbSymbolTableRecord
100
AcDbLinetypeTableRecord
  2
ACAD_ISO04W100
 70
0
  3
ISO long-dash dot ____ . ____ . ____ . ____ . _
 72
65
 73
4
 40
30.0
 49
24.0
 74
0
 49
-3.0
 74
0
 49
0.0
 74
0
 49
-3.0
 74
0
  0
LTYPE
  5
35
100
AcDbSymbolTableRecord
100
AcDbLinetypeTableRecord
  2
CENTER2
 70
0
  3
Center (.5x) ___ _ ___ _ ___ _ ___ _ ___ _ ___
 72
65
 73
4
 40
28.5750000000000028
 49
19.0500000000000007
 74
0
 49
-3.1749999999999998
 74
0
 49
3.1749999999999998
 74
0
 49
-3.1749999999999998
 74
0
  0
LTYPE
  5
36
100
AcDbSymbolTableRecord
100
AcDbLinetypeTableRecord
  2
ACAD_ISO11W100
 70
0
  3
ISO double-dash dot __ __ . __ __ . __ __ . __ _
 72
65
 73
6
 40
33.0
 49
12.0
 74
0
 49
-3.0
 74
0
 49
12.0
 74
0
 49
-3.0
 74
0
 49
0.0
 74
0
 49
-3.0
 74
0
  0
LTYPE
  5
37
100
AcDbSymbolTableRecord
100
AcDbLinetypeTableRecord
  2
HIDDEN2
 70
0
  3
Hidden (.5x) _ _ _ _ _ _ _ _ _ _ _ _ _ _ _ _ _ 
 72
65
 73
2
 40
4.7624999999999993
 49
3.1749999999999998
 74
0
 49
-1.5874999999999999
 74
0
  0
LTYPE
  5
38
100
AcDbSymbolTableRecord
100
AcDbLinetypeTableRecord
  2
BORDERX2
 70
0
  3
Border (2x) ____  ____  .  ____  ____  .  ___
 72
65
 73
6
 40
88.8999999999999915
 49
25.3999999999999986
 74
0
 49
-12.6999999999999993
 74
0
 49
25.3999999999999986
 74
0
 49
-12.6999999999999993
 74
0
 49
0.0
 74
0
 49
-12.6999999999999993
 74
0
  0
LTYPE
  5
39
100
AcDbSymbolTableRecord
100
AcDbLinetypeTableRecord
  2
ACAD_ISO05W100
 70
0
  3
ISO long-dash double-dot ____ .. ____ .. ____ . 
 72
65
 73
6
 40
33.0
 49
24.0
 74
0
 49
-3.0
 74
0
 49
0.0
 74
0
 49
-3.0
 74
0
 49
0.0
 74
0
 49
-3.0
 74
0
  0
LTYPE
  5
3A
100
AcDbSymbolTableRecord
100
AcDbLinetypeTableRecord
  2
DASHDOTX2
 70
0
  3
Dash dot (2x) ____  .  ____  .  ____  .  ___
 72
65
 73
4
 40
50.7999999999999972
 49
25.3999999999999986
 74
0
 49
-12.6999999999999993
 74
0
 49
0.0
 74
0
 49
-12.6999999999999993
 74
0
  0
LTYPE
  5
3B
100
AcDbSymbolTableRecord
100
AcDbLinetypeTableRecord
  2
HIDDENX2
 70
0
  3
Hidden (2x) ____ ____ ____ ____ ____ ____ ____ 
 72
65
 73
2
 40
19.0499999999999972
 49
12.6999999999999993
 74
0
 49
-6.3499999999999996
 74
0
  0
LTYPE
  5
3C
100
AcDbSymbolTableRecord
100
AcDbLinetypeTableRecord
  2
CENTERX2
 70
0
  3
Center (2x) ________  __  ________  __  _____
 72
65
 73
4
 40
101.6000000000000085
 49
63.5
 74
0
 49
-12.6999999999999993
 74
0
 49
12.6999999999999993
 74
0
 49
-12.6999999999999993
 74
0
  0
LTYPE
  5
3D
100
AcDbSymbolTableRecord
100
AcDbLinetypeTableRecord
  2
BORDER2
 70
0
  3
Border (.5x) __.__.__.__.__.__.__.__.__.__.__.
 72
65
 73
6
 40
22.2249999999999979
 49
6.3499999999999996
 74
0
 49
-3.1749999999999998
 74
0
 49
6.3499999999999996
 74
0
 49
-3.1749999999999998
 74
0
 49
0.0
 74
0
 49
-3.1749999999999998
 74
0
  0
LTYPE
  5
3E
100
AcDbSymbolTableRecord
100
AcDbLinetypeTableRecord
  2
DASHDOT2
 70
0
  3
Dash dot (.5x) _._._._._._._._._._._._._._._.
 72
65
 73
4
 40
12.6999999999999993
 49
6.3499999999999996
 74
0
 49
-3.1749999999999998
 74
0
 49
0.0
 74
0
 49
-3.1749999999999998
 74
0
  0
LTYPE
  5
3F
100
AcDbSymbolTableRecord
100
AcDbLinetypeTableRecord
  2
ACAD_ISO12W100
 70
0
  3
ISO dash double-dot __ . . __ . . __ . . __ . . 
 72
65
 73
6
 40
21.0
 49
12.0
 74
0
 49
-3.0
 74
0
 49
0.0
 74
0
 49
-3.0
 74
0
 49
0.0
 74
0
 49
-3.0
 74
0
  0
LTYPE
  5
40
100
AcDbSymbolTableRecord
100
AcDbLinetypeTableRecord
  2
ACAD_ISO07W100
 70
0
  3
ISO dot . . . . . . . . . . . . . . . . . . . . 
 72
65
 73
2
 40
3.0
 49
0.0
 74
0
 49
-3.0
 74
0
  0
LTYPE
  5
41
100
AcDbSymbolTableRecord
100
AcDbLinetypeTableRecord
  2
HIDDEN
 70
0
  3
Hidden __ __ __ __ __ __ __ __ __ __ __ __ __ __
 72
65
 73
2
 40
9.5249999999999986
 49
6.3499999999999996
 74
0
 49
-3.1749999999999998
 74
0
  0
LTYPE
  5
42
100
AcDbSymbolTableRecord
100
AcDbLinetypeTableRecord
  2
ACAD_ISO06W100
 70
0
  3
ISO long-dash triple-dot ____ ... ____ ... ____
 72
65
 73
8
 40
36.0
 49
24.0
 74
0
 49
-3.0
 74
0
 49
0.0
 74
0
 49
-3.0
 74
0
 49
0.0
 74
0
 49
-3.0
 74
0
 49
0.0
 74
0
 49
-3.0
 74
0
  0
LTYPE
  5
43
100
AcDbSymbolTableRecord
100
AcDbLinetypeTableRecord
  2
CENTER
 70
0
  3
Center ____ _ ____ _ ____ _ ____ _ ____ _ ____
 72
65
 73
4
 40
50.8000000000000043
 49
31.75
 74
0
 49
-6.3499999999999996
 74
0
 49
6.3499999999999996
 74
0
 49
-6.3499999999999996
 74
0
  0
LTYPE
  5
44
100
AcDbSymbolTableRecord
100
AcDbLinetypeTableRecord
  2
DOTX2
 70
0
  3
Dot (2x) .  .  .  .  .  .  .  .  .  .  .  .  .  .
 72
65
 73
2
 40
12.6999999999999993
 49
0.0
 74
0
 49
-12.6999999999999993
 74
0
  0
LTYPE
  5
45
100
AcDbSymbolTableRecord
100
AcDbLinetypeTableRecord
  2
PHANTOM
 70
0
  3
Phantom ______  __  __  ______  __  __  ______ 
 72
65
 73
6
 40
63.5000000000000071
 49
31.75
 74
0
 49
-6.3499999999999996
 74
0
 49
6.3499999999999996
 74
0
 49
-6.3499999999999996
 74
0
 49
6.3499999999999996
 74
0
 49
-6.3499999999999996
 74
0
  0
LTYPE
  5
46
100
AcDbSymbolTableRecord
100
AcDbLinetypeTableRecord
  2
ACAD_ISO08W100
 70
0
  3
ISO long-dash short-dash ____ __ ____ __ ____ _
 72
65
 73
4
 40
36.0
 49
24.0
 74
0
 49
-3.0
 74
0
 49
6.0
 74
0
 49
-3.0
 74
0
  0
LTYPE
  5
47
100
AcDbSymbolTableRecord
100
AcDbLinetypeTableRecord
  2
DASHEDX2
 70
0
  3
Dashed (2x) ____  ____  ____  ____  ____  ___
 72
65
 73
2
 40
38.0999999999999943
 49
25.3999999999999986
 74
0
 49
-12.6999999999999993
 74
0
  0
LTYPE
  5
48
100
AcDbSymbolTableRecord
100
AcDbLinetypeTableRecord
  2
ACAD_ISO02W100
 70
0
  3
ISO dash __ __ __ __ __ __ __ __ __ __ __ __ __
 72
65
 73
2
 40
15.0
 49
12.0
 74
0
 49
-3.0
 74
0
  0
LTYPE
  5
49
100
AcDbSymbolTableRecord
100
AcDbLinetypeTableRecord
  2
PHANTOM2
 70
0
  3
Phantom (.5x) ___ _ _ ___ _ _ ___ _ _ ___ _ _
 72
65
 73
6
 40
31.7500000000000036
 49
15.875
 74
0
 49
-3.1749999999999998
 74
0
 49
3.1749999999999998
 74
0
 49
-3.1749999999999998
 74
0
 49
3.1749999999999998
 74
0
 49
-3.1749999999999998
 74
0
  0
LTYPE
  5
4A
100
AcDbSymbolTableRecord
100
AcDbLinetypeTableRecord
  2
DASHED2
 70
0
  3
Dashed (.5x) _ _ _ _ _ _ _ _ _ _ _ _ _ _ _ _ _ 
 72
65
 73
2
 40
9.5249999999999986
 49
6.3499999999999996
 74
0
 49
-3.1749999999999998
 74
0
  0
LTYPE
  5
4B
100
AcDbSymbolTableRecord
100
AcDbLinetypeTableRecord
  2
ACAD_ISO09W100
 70
0
  3
ISO long-dash double-short-dash ____ __ __ ____
 72
65
 73
6
 40
45.0
 49
24.0
 74
0
 49
-3.0
 74
0
 49
6.0
 74
0
 49
-3.0
 74
0
 49
6.0
 74
0
 49
-3.0
 74
0
  0
LTYPE
  5
4C
100
AcDbSymbolTableRecord
100
AcDbLinetypeTableRecord
  2
ACAD_ISO13W100
 70
0
  3
ISO double-dash double-dot __ __ . . __ __ . . _
 72
65
 73
8
 40
36.0
 49
12.0
 74
0
 49
-3.0
 74
0
 49
12.0
 74
0
 49
-3.0
 74
0
 49
0.0
 74
0
 49
-3.0
 74
0
 49
0.0
 74
0
 49
-3.0
 74
0
  0
LTYPE
  5
4D
100
AcDbSymbolTableRecord
100
AcDbLinetypeTableRecord
  2
DOT2
 70
0
  3
Dot (.5x) ........................................
 72
65
 73
2
 40
3.1749999999999998
 49
0.0
 74
0
 49
-3.1749999999999998
 74
0
  0
LTYPE
  5
4E
100
AcDbSymbolTableRecord
100
AcDbLinetypeTableRecord
  2
DASHED
 70
0
  3
Dashed __ __ __ __ __ __ __ __ __ __ __ __ __ _
 72
65
 73
2
 40
19.0499999999999972
 49
12.6999999999999993
 74
0
 49
-6.3499999999999996
 74
0
  0
LTYPE
  5
4F
100
AcDbSymbolTableRecord
100
AcDbLinetypeTableRecord
  2
ACAD_ISO14W100
 70
0
  3
ISO dash triple-dot __ . . . __ . . . __ . . . _
 72
65
 73
8
 40
24.0
 49
12.0
 74
0
 49
-3.0
 74
0
 49
0.0
 74
0
 49
-3.0
 74
0
 49
0.0
 74
0
 49
-3.0
 74
0
 49
0.0
 74
0
 49
-3.0
 74
0
  0
LTYPE
  5
15
100
AcDbSymbolTableRecord
100
AcDbLinetypeTableRecord
  2
BYLAYER
 70
0
  3

 72
65
 73
0
 40
0.0
  0
LTYPE
  5
50
100
AcDbSymbolTableRecord
100
AcDbLinetypeTableRecord
  2
PHANTOMX2
 70
0
  3
Phantom (2x) ____________    ____    ____   _
 72
65
 73
6
 40
127.0000000000000142
 49
63.5
 74
0
 49
-12.6999999999999993
 74
0
 49
12.6999999999999993
 74
0
 49
-12.6999999999999993
 74
0
 49
12.6999999999999993
 74
0
 49
-12.6999999999999993
 74
0
  0
LTYPE
  5
14
100
AcDbSymbolTableRecord
100
AcDbLinetypeTableRecord
  2
BYBLOCK
 70
0
  3

 72
65
 73
0
 40
0.0
  0
LTYPE
  5
51
100
AcDbSymbolTableRecord
100
AcDbLinetypeTableRecord
  2
DIVIDEX2
 70
0
  3
Divide (2x) ________  .  .  ________  .  .  _
 72
65
 73
6
 40
63.5
 49
25.3999999999999986
 74
0
 49
-12.6999999999999993
 74
0
 49
0.0
 74
0
 49
-12.6999999999999993
 74
0
 49
0.0
 74
0
 49
-12.6999999999999993
 74
0
  0
LTYPE
  5
52
100
AcDbSymbolTableRecord
100
AcDbLinetypeTableRecord
  2
BORDER
 70
0
  3
Border __ __ . __ __ . __ __ . __ __ . __ __ .
 72
65
 73
6
 40
44.4499999999999957
 49
12.6999999999999993
 74
0
 49
-6.3499999999999996
 74
0
 49
12.6999999999999993
 74
0
 49
-6.3499999999999996
 74
0
 49
0.0
 74
0
 49
-6.3499999999999996
 74
0
  0
LTYPE
  5
53
100
AcDbSymbolTableRecord
100
AcDbLinetypeTableRecord
  2
DIVIDE2
 70
0
  3
Divide (.5x) __..__..__..__..__..__..__..__.._
 72
65
 73
6
 40
15.875
 49
6.3499999999999996
 74
0
 49
-3.1749999999999998
 74
0
 49
0.0
 74
0
 49
-3.1749999999999998
 74
0
 49
0.0
 74
0
 49
-3.1749999999999998
 74
0
  0
LTYPE
  5
54
100
AcDbSymbolTableRecord
100
AcDbLinetypeTableRecord
  2
DOT
 70
0
  3
Dot . . . . . . . . . . . . . . . . . . . . . . . .
 72
65
 73
2
 40
6.3499999999999996
 49
0.0
 74
0
 49
-6.3499999999999996
 74
0
  0
LTYPE
  5
55
100
AcDbSymbolTableRecord
100
AcDbLinetypeTableRecord
  2
DASHDOT
 70
0
  3
Dash dot __ . __ . __ . __ . __ . __ . __ . __
 72
65
 73
4
 40
25.3999999999999986
 49
12.6999999999999993
 74
0
 49
-6.3499999999999996
 74
0
 49
0.0
 74
0
 49
-6.3499999999999996
 74
0
  0
LTYPE
  5
56
100
AcDbSymbolTableRecord
100
AcDbLinetypeTableRecord
  2
ACAD_ISO03W100
 70
0
  3
ISO dash space __    __    __    __    __    __
 72
65
 73
2
 40
30.0
 49
12.0
 74
0
 49
-18.0
 74
0
  0
ENDTAB
  0
TABLE
  2
LAYER
  5
2
100
AcDbSymbolTable
 70
1
  0
LAYER
  5
10
100
AcDbSymbolTableRecord
100
AcDbLayerTableRecord
  2
0
 70
0
 62
7
420
16777215
  6
Continuous
370
25
390
F
  0
ENDTAB
  0
TABLE
  2
STYLE
  5
3
100
AcDbSymbolTable
 70
1
  0
STYLE
  5
57
100
AcDbSymbolTableRecord
100
AcDbTextStyleTableRecord
  2
Standard
 70
0
 40
0.0
 41
1.0
 50
0.0
 71
0
 42
2.5
  3

  4

1001
ACAD
1000
txt
1071
0
  0
ENDTAB
  0
TABLE
  2
VIEW
  5
6
100
AcDbSymbolTable
 70
0
  0
ENDTAB
  0
TABLE
  2
UCS
  5
7
100
AcDbSymbolTable
 70
0
  0
ENDTAB
  0
TABLE
  2
APPID
  5
9
100
AcDbSymbolTable
 70
1
  0
APPID
  5
12
100
AcDbSymbolTableRecord
100
AcDbRegAppTableRecord
  2
ACAD
 70
0
  0
APPID
  5
58
100
AcDbSymbolTableRecord
100
AcDbRegAppTableRecord
  2
QCAD
 70
0
  0
ENDTAB
  0
TABLE
  2
DIMSTYLE
  5
A
100
AcDbSymbolTable
 70
1
100
AcDbDimStyleTable
 71
0
  0
DIMSTYLE
105
27
100
AcDbSymbolTableRecord
100
AcDbDimStyleTableRecord
  2
Standard
 41
0.18
 42
0.0625
 43
3.75
 44
0.18
 70
0
 73
0
 74
0
 77
1
 78
8
140
0.18
141
2.5
143
0.03937007874016
147
0.09
171
3
172
1
271
2
272
2
274
3
278
44
283
0
284
8
340
57
  0
ENDTAB
  0
TABLE
  2
BLOCK_RECORD
  5
1
100
AcDbSymbolTable
 70
1
  0
BLOCK_RECORD
  5
1F
100
AcDbSymbolTableRecord
100
AcDbBlockTableRecord
  2
*Model_Space
340
22
  0
BLOCK_RECORD
  5
1B
100
AcDbSymbolTableRecord
100
AcDbBlockTableRecord
  2
*Paper_Space
340
1E
  0
BLOCK_RECORD
  5
23
100
AcDbSymbolTableRecord
100
AcDbBlockTableRecord
  2
*Paper_Space0
340
26
  0
ENDTAB
  0
ENDSEC
  0
SECTION
  2
BLOCKS
  0
BLOCK
  5
20
100
AcDbEntity
  8
0
100
AcDbBlockBegin
  2
*Model_Space
 70
0
 10
0.0
 20
0.0
 30
0.0
  3
*Model_Space
  1

  0
ENDBLK
  5
21
100
AcDbEntity
  8
0
100
AcDbBlockEnd
  0
BLOCK
  5
1C
100
AcDbEntity
 67
1
  8
0
100
AcDbBlockBegin
  2
*Paper_Space
 70
0
 10
0.0
 20
0.0
 30
0.0
  3
*Paper_Space
  1

  0
ENDBLK
  5
1D
100
AcDbEntity
 67
1
  8
0
100
AcDbBlockEnd
  0
BLOCK
  5
24
100
AcDbEntity
  8
0
100
AcDbBlockBegin
  2
*Paper_Space0
 70
0
 10
0.0
 20
0.0
 30
0.0
  3
*Paper_Space0
  1

  0
ENDBLK
  5
25
100
AcDbEntity
  8
0
100
AcDbBlockEnd
  0
ENDSEC
  0
SECTION
  2
ENTITIES
  0
LINE
  5
59
100
AcDbEntity
  8
0
 62
256
370
-1
 48
1.0
  6
BYLAYER
100
AcDbLine
 10
120.5859169999999949
 20
64.5746100000000638
 30
0.0
 11
120.5859169999999949
 21
68.5433700000000954
 31
0.0
  0
LINE
  5
5A
100
AcDbEntity
  8
0
 62
256
370
-1
 48
1.0
  6
BYLAYER
100
AcDbLine
 10
120.5859169999999949
 20
68.5433700000000954
 30
0.0
 11
108.6796669999999949
 21
68.5433700000000954
 31
0.0
  0
LINE
  5
5B
100
AcDbEntity
  8
0
 62
256
370
-1
 48
1.0
  6
BYLAYER
100
AcDbLine
 10
108.6796669999999949
 20
68.5433700000000954
 30
0.0
 11
108.6796669999999949
 21
64.5746100000000638
 31
0.0
  0
LINE
  5
5C
100
AcDbEntity
  8
0
 62
256
370
-1
 48
1.0
  6
BYLAYER
100
AcDbLine
 10
108.6796669999999949
 20
64.5746100000000638
 30
0.0
 11
120.5859169999999949
 21
64.5746100000000638
 31
0.0
  0
LINE
  5
5D
100
AcDbEntity
  8
0
 62
256
370
-1
 48
1.0
  6
BYLAYER
100
AcDbLine
 10
104.7109189999999899
 20
52.6683600000000638
 30
0.0
 11
104.7109189999999899
 21
68.7045436650823262
 31
0.0
  0
LINE
  5
5E
100
AcDbEntity
  8
0
 62
256
370
-1
 48
1.0
  6
BYLAYER
100
AcDbLine
 10
108.518473290019756
 20
72.5121000000000322
 30
0.0
 11
124.5546679999999924
 21
72.5121000000000322
 31
0.0
  0
LINE
  5
5F
100
AcDbEntity
  8
0
 62
256
370
-1
 48
1.0
  6
BYLAYER
100
AcDbLine
 10
124.5546679999999924
 20
72.5121000000000322
 30
0.0
 11
124.5546679999999924
 21
60.6058799999999565
 31
0.0
  0
LINE
  5
60
100
AcDbEntity
  8
0
 62
256
370
-1
 48
1.0
  6
BYLAYER
100
AcDbLine
 10
124.5546679999999924
 20
60.6058799999999565
 30
0.0
 11
108.6796669999999949
 21
60.6058799999999565
 31
0.0
  0
LINE
  5
61
100
AcDbEntity
  8
0
 62
256
370
-1
 48
1.0
  6
BYLAYER
100
AcDbLine
 10
108.6796669999999949
 20
60.6058799999999565
 30
0.0
 11
108.6796669999999949
 21
52.6683599999998933
 31
0.0
  0
LINE
  5
62
100
AcDbEntity
  8
0
 62
256
370
-1
 48
1.0
  6
BYLAYER
100
AcDbLine
 10
108.6796669999999949
 20
52.6683599999998933
 30
0.0
 11
104.7109189999999899
 21
52.6683600000000638
 31
0.0
  0
LINE
  5
63
100
AcDbEntity
  8
0
 62
256
370
-1
 48
1.0
  6
BYLAYER
100
AcDbLine
 10
136.4609179999999924
 20
52.6683600000000638
 30
0.0
 11
136.4609179999999924
 21
68.5433700000000954
 31
0.0
  0
LINE
  5
64
100
AcDbEntity
  8
0
 62
256
370
-1
 48
1.0
  6
BYLAYER
100
AcDbLine
 10
136.4609179999999924
 20
68.5433700000000954
 30
0.0
 11
128.5234189999999899
 21
68.5433700000000954
 31
0.0
  0
LINE
  5
65
100
AcDbEntity
  8
0
 62
256
370
-1
 48
1.0
  6
BYLAYER
100
AcDbLine
 10
128.5234189999999899
 20
68.5433700000000954
 30
0.0
 11
128.5234189999999899
 21
72.5121000000000322
 31
0.0
  0
LINE
  5
66
100
AcDbEntity
  8
0
 62
256
370
-1
 48
1.0
  6
BYLAYER
100
AcDbLine
 10
128.5234189999999899
 20
72.5121000000000322
 30
0.0
 11
148.3671679999999924
 21
72.5121000000000322
 31
0.0
  0
LINE
  5
67
100
AcDbEntity
  8
0
 62
256
370
-1
 48
1.0
  6
BYLAYER
100
AcDbLine
 10
148.3671679999999924
 20
72.5121000000000322
 30
0.0
 11
148.3671679999999924
 21
68.5433700000000954
 31
0.0
  0
LINE
  5
68
100
AcDbEntity
  8
0
 62
256
370
-1
 48
1.0
  6
BYLAYER
100
AcDbLine
 10
148.3671679999999924
 20
68.5433700000000954
 30
0.0
 11
140.4296689999999899
 21
68.5433700000000954
 31
0.0
  0
LINE
  5
69
100
AcDbEntity
  8
0
 62
256
370
-1
 48
1.0
  6
BYLAYER
100
AcDbLine
 10
140.4296689999999899
 20
68.5433700000000954
 30
0.0
 11
140.4296689999999899
 21
52.6683600000000638
 31
0.0
  0
LINE
  5
6A
100
AcDbEntity
  8
0
 62
256
370
-1
 48
1.0
  6
BYLAYER
100
AcDbLine
 10
140.4296689999999899
 20
52.6683600000000638
 30
0.0
 11
136.4609179999999924
 21
52.6683600000000638
 31
0.0
  0
LINE
  5
6B
100
AcDbEntity
  8
0
 62
256
370
-1
 48
1.0
  6
BYLAYER
100
AcDbLine
 10
152.3359189999999899
 20
52.6683600000000638
 30
0.0
 11
152.3359189999999899
 21
72.5121000000000322
 31
0.0
  0
LINE
  5
6C
100
AcDbEntity
  8
0
 62
256
370
-1
 48
1.0
  6
BYLAYER
100
AcDbLine
 10
152.3359189999999899
 20
72.5121000000000322
 30
0.0
 11
156.3046669999999949
 21
72.5121000000000322
 31
0.0
  0
LINE
  5
6D
100
AcDbEntity
  8
0
 62
256
370
-1
 48
1.0
  6
BYLAYER
100
AcDbLine
 10
156.3046669999999949
 20
72.5121000000000322
 30
0.0
 11
156.3046669999999949
 21
56.6371200000000954
 31
0.0
  0
LINE
  5
6E
100
AcDbEntity
  8
0
 62
256
370
-1
 48
1.0
  6
BYLAYER
100
AcDbLine
 10
156.3046669999999949
 20
56.6371200000000954
 30
0.0
 11
172.1796679999999924
 21
56.6371200000000954
 31
0.0
  0
LINE
  5
6F
100
AcDbEntity
  8
0
 62
256
370
-1
 48
1.0
  6
BYLAYER
100
AcDbLine
 10
172.1796679999999924
 20
56.6371200000000954
 30
0.0
 11
172.1796679999999924
 21
52.6683600000000638
 31
0.0
  0
LINE
  5
70
100
AcDbEntity
  8
0
 62
256
370
-1
 48
1.0
  6
BYLAYER
100
AcDbLine
 10
172.1796679999999924
 20
52.6683600000000638
 30
0.0
 11
152.3359189999999899
 21
52.6683600000000638
 31
0.0
  0
LINE
  5
71
100
AcDbEntity
  8
0
 62
256
370
-1
 48
1.0
  6
BYLAYER
100
AcDbLine
 10
79.7964199999999977
 20
27.5121600000000512
 30
0.0
 11
79.7964199999999977
 21
43.7900312844175232
 31
0.0
  0
LINE
  5
72
100
AcDbEntity
  8
0
 62
256
370
-1
 48
1.0
  6
BYLAYER
100
AcDbLine
 10
83.3622868004860607
 20
47.3559000000000196
 30
0.0
 11
99.6401690000000002
 21
47.3559000000000196
 31
0.0
  0
LINE
  5
73
100
AcDbEntity
  8
0
 62
256
370
-1
 48
1.0
  6
BYLAYER
100
AcDbLine
 10
99.6401690000000002
 20
47.3559000000000196
 30
0.0
 11
99.6401690000000002
 21
43.387139999999988
 31
0.0
  0
LINE
  5
74
100
AcDbEntity
  8
0
 62
256
370
-1
 48
1.0
  6
BYLAYER
100
AcDbLine
 10
99.6401690000000002
 20
43.387139999999988
 30
0.0
 11
83.7651710000000094
 21
43.387139999999988
 31
0.0
  0
LINE
  5
75
100
AcDbEntity
  8
0
 62
256
370
-1
 48
1.0
  6
BYLAYER
100
AcDbLine
 10
83.7651710000000094
 20
43.387139999999988
 30
0.0
 11
83.7651710000000094
 21
31.480889999999988
 31
0.0
  0
LINE
  5
76
100
AcDbEntity
  8
0
 62
256
370
-1
 48
1.0
  6
BYLAYER
100
AcDbLine
 10
83.7651710000000094
 20
31.480889999999988
 30
0.0
 11
99.6401690000000002
 21
31.480889999999988
 31
0.0
  0
LINE
  5
77
100
AcDbEntity
  8
0
 62
256
370
-1
 48
1.0
  6
BYLAYER
100
AcDbLine
 10
99.6401690000000002
 20
31.480889999999988
 30
0.0
 11
99.6401690000000002
 21
27.5121600000000512
 31
0.0
  0
LINE
  5
78
100
AcDbEntity
  8
0
 62
256
370
-1
 48
1.0
  6
BYLAYER
100
AcDbLine
 10
99.6401690000000002
 20
27.5121600000000512
 30
0.0
 11
79.7964199999999977
 21
27.5121600000000512
 31
0.0
  0
LINE
  5
79
100
AcDbEntity
  8
0
 62
256
370
-1
 48
1.0
  6
BYLAYER
100
AcDbLine
 10
111.5464219999999926
 20
27.5121600000000512
 30
0.0
 11
111.5464219999999926
 21
35.4496500000000196
 31
0.0
  0
LINE
  5
7A
100
AcDbEntity
  8
0
 62
256
370
-1
 48
1.0
  6
BYLAYER
100
AcDbLine
 10
111.5464219999999926
 20
35.4496500000000196
 30
0.0
 11
103.6089199999999835
 21
35.4496500000000196
 31
0.0
  0
LINE
  5
7B
100
AcDbEntity
  8
0
 62
256
370
-1
 48
1.0
  6
BYLAYER
100
AcDbLine
 10
103.6089199999999835
 20
35.4496500000000196
 30
0.0
 11
103.6089199999999835
 21
47.3559000000000196
 31
0.0
  0
LINE
  5
7C
100
AcDbEntity
  8
0
 62
256
370
-1
 48
1.0
  6
BYLAYER
100
AcDbLine
 10
103.6089199999999835
 20
47.3559000000000196
 30
0.0
 11
107.5776709999999809
 21
47.3559000000000196
 31
0.0
  0
LINE
  5
7D
100
AcDbEntity
  8
0
 62
256
370
-1
 48
1.0
  6
BYLAYER
100
AcDbLine
 10
107.5776709999999809
 20
47.3559000000000196
 30
0.0
 11
107.5776709999999809
 21
39.4184100000000512
 31
0.0
  0
LINE
  5
7E
100
AcDbEntity
  8
0
 62
256
370
-1
 48
1.0
  6
BYLAYER
100
AcDbLine
 10
107.5776709999999809
 20
39.4184100000000512
 30
0.0
 11
119.4839209999999809
 21
39.4184100000000512
 31
0.0
  0
LINE
  5
7F
100
AcDbEntity
  8
0
 62
256
370
-1
 48
1.0
  6
BYLAYER
100
AcDbLine
 10
119.4839209999999809
 20
39.4184100000000512
 30
0.0
 11
119.4839209999999809
 21
47.3559000000000196
 31
0.0
  0
LINE
  5
80
100
AcDbEntity
  8
0
 62
256
370
-1
 48
1.0
  6
BYLAYER
100
AcDbLine
 10
119.4839209999999809
 20
47.3559000000000196
 30
0.0
 11
123.452668999999986
 21
47.3559000000000196
 31
0.0
  0
LINE
  5
81
100
AcDbEntity
  8
0
 62
256
370
-1
 48
1.0
  6
BYLAYER
100
AcDbLine
 10
123.452668999999986
 20
47.3559000000000196
 30
0.0
 11
123.452668999999986
 21
35.4496500000000196
 31
0.0
  0
LINE
  5
82
100
AcDbEntity
  8
0
 62
256
370
-1
 48
1.0
  6
BYLAYER
100
AcDbLine
 10
123.452668999999986
 20
35.4496500000000196
 30
0.0
 11
115.5151699999999835
 21
35.4496500000000196
 31
0.0
  0
LINE
  5
83
100
AcDbEntity
  8
0
 62
256
370
-1
 48
1.0
  6
BYLAYER
100
AcDbLine
 10
115.5151699999999835
 20
35.4496500000000196
 30
0.0
 11
115.5151699999999835
 21
27.5121600000000512
 31
0.0
  0
LINE
  5
84
100
AcDbEntity
  8
0
 62
256
370
-1
 48
1.0
  6
BYLAYER
100
AcDbLine
 10
115.5151699999999835
 20
27.5121600000000512
 30
0.0
 11
111.5464219999999926
 21
27.5121600000000512
 31
0.0
  0
LINE
  5
85
100
AcDbEntity
  8
0
 62
256
370
-1
 48
1.0
  6
BYLAYER
100
AcDbLine
 10
127.4214199999999835
 20
27.5121600000000512
 30
0.0
 11
127.4214199999999835
 21
47.3559000000000196
 31
0.0
  0
LINE
  5
86
100
AcDbEntity
  8
0
 62
256
370
-1
 48
1.0
  6
BYLAYER
100
AcDbLine
 10
127.4214199999999835
 20
47.3559000000000196
 30
0.0
 11
147.2651690000000144
 21
47.3559000000000196
 31
0.0
  0
LINE
  5
87
100
AcDbEntity
  8
0
 62
256
370
-1
 48
1.0
  6
BYLAYER
100
AcDbLine
 10
147.2651690000000144
 20
47.3559000000000196
 30
0.0
 11
147.2651690000000144
 21
43.387139999999988
 31
0.0
  0
LINE
  5
88
100
AcDbEntity
  8
0
 62
256
370
-1
 48
1.0
  6
BYLAYER
100
AcDbLine
 10
147.2651690000000144
 20
43.387139999999988
 30
0.0
 11
131.3901710000000094
 21
43.387139999999988
 31
0.0
  0
LINE
  5
89
100
AcDbEntity
  8
0
 62
256
370
-1
 48
1.0
  6
BYLAYER
100
AcDbLine
 10
131.3901710000000094
 20
43.387139999999988
 30
0.0
 11
131.3901710000000094
 21
31.480889999999988
 31
0.0
  0
LINE
  5
8A
100
AcDbEntity
  8
0
 62
256
370
-1
 48
1.0
  6
BYLAYER
100
AcDbLine
 10
131.3901710000000094
 20
31.480889999999988
 30
0.0
 11
147.2651690000000144
 21
31.480889999999988
 31
0.0
  0
LINE
  5
8B
100
AcDbEntity
  8
0
 62
256
370
-1
 48
1.0
  6
BYLAYER
100
AcDbLine
 10
147.2651690000000144
 20
31.480889999999988
 30
0.0
 11
147.2651690000000144
 21
27.5121600000000512
 31
0.0
  0
LINE
  5
8C
100
AcDbEntity
  8
0
 62
256
370
-1
 48
1.0
  6
BYLAYER
100
AcDbLine
 10
147.2651690000000144
 20
27.5121600000000512
 30
0.0
 11
127.4214199999999835
 21
27.5121600000000512
 31
0.0
  0
LINE
  5
8D
100
AcDbEntity
  8
0
 62
256
370
-1
 48
1.0
  6
BYLAYER
100
AcDbLine
 10
151.2339199999999835
 20
27.5121600000000512
 30
0.0
 11
151.2339199999999835
 21
47.3559000000000196
 31
0.0
  0
LINE
  5
8E
100
AcDbEntity
  8
0
 62
256
370
-1
 48
1.0
  6
BYLAYER
100
AcDbLine
 10
151.2339199999999835
 20
47.3559000000000196
 30
0.0
 11
155.2026709999999809
 21
47.3559000000000196
 31
0.0
  0
LINE
  5
8F
100
AcDbEntity
  8
0
 62
256
370
-1
 48
1.0
  6
BYLAYER
100
AcDbLine
 10
155.2026709999999809
 20
47.3559000000000196
 30
0.0
 11
155.2026709999999809
 21
31.480889999999988
 31
0.0
  0
LINE
  5
90
100
AcDbEntity
  8
0
 62
256
370
-1
 48
1.0
  6
BYLAYER
100
AcDbLine
 10
155.2026709999999809
 20
31.480889999999988
 30
0.0
 11
171.077668999999986
 21
31.480889999999988
 31
0.0
  0
LINE
  5
91
100
AcDbEntity
  8
0
 62
256
370
-1
 48
1.0
  6
BYLAYER
100
AcDbLine
 10
171.077668999999986
 20
31.480889999999988
 30
0.0
 11
171.077668999999986
 21
27.5121600000000512
 31
0.0
  0
LINE
  5
92
100
AcDbEntity
  8
0
 62
256
370
-1
 48
1.0
  6
BYLAYER
100
AcDbLine
 10
171.077668999999986
 20
27.5121600000000512
 30
0.0
 11
151.2339199999999835
 21
27.5121600000000512
 31
0.0
  0
LINE
  5
93
100
AcDbEntity
  8
0
 62
256
370
-1
 48
1.0
  6
BYLAYER
100
AcDbLine
 10
190.9214209999999809
 20
31.480889999999988
 30
0.0
 11
190.9214209999999809
 21
43.387139999999988
 31
0.0
  0
LINE
  5
94
100
AcDbEntity
  8
0
 62
256
370
-1
 48
1.0
  6
BYLAYER
100
AcDbLine
 10
190.9214209999999809
 20
43.387139999999988
 30
0.0
 11
179.0151709999999809
 21
43.387139999999988
 31
0.0
  0
LINE
  5
95
100
AcDbEntity
  8
0
 62
256
370
-1
 48
1.0
  6
BYLAYER
100
AcDbLine
 10
179.0151709999999809
 20
43.387139999999988
 30
0.0
 11
179.0151709999999809
 21
31.480889999999988
 31
0.0
  0
LINE
  5
96
100
AcDbEntity
  8
0
 62
256
370
-1
 48
1.0
  6
BYLAYER
100
AcDbLine
 10
179.0151709999999809
 20
31.480889999999988
 30
0.0
 11
190.9214209999999809
 21
31.480889999999988
 31
0.0
  0
LINE
  5
97
100
AcDbEntity
  8
0
 62
256
370
-1
 48
1.0
  6
BYLAYER
100
AcDbLine
 10
175.0464199999999551
 20
27.5121600000000512
 30
0.0
 11
175.0464199999999551
 21
47.3559000000000196
 31
0.0
  0
LINE
  5
98
100
AcDbEntity
  8
0
 62
256
370
-1
 48
1.0
  6
BYLAYER
100
AcDbLine
 10
175.0464199999999551
 20
47.3559000000000196
 30
0.0
 11
194.8901689999999576
 21
47.3559000000000196
 31
0.0
  0
LINE
  5
99
100
AcDbEntity
  8
0
 62
256
370
-1
 48
1.0
  6
BYLAYER
100
AcDbLine
 10
194.8901689999999576
 20
47.3559000000000196
 30
0.0
 11
194.8901689999999576
 21
27.5121600000000512
 31
0.0
  0
LINE
  5
9A
100
AcDbEntity
  8
0
 62
256
370
-1
 48
1.0
  6
BYLAYER
100
AcDbLine
 10
194.8901689999999576
 20
27.5121600000000512
 30
0.0
 11
175.0464199999999551
 21
27.5121600000000512
 31
0.0
  0
LINE
  5
9B
100
AcDbEntity
  8
0
 62
256
370
-1
 48
1.0
  6
BYLAYER
100
AcDbLine
 10
198.8589200000000119
 20
27.5121600000000512
 30
0.0
 11
198.8589200000000119
 21
47.3559000000000196
 31
0.0
  0
LINE
  5
9C
100
AcDbEntity
  8
0
 62
256
370
-1
 48
1.0
  6
BYLAYER
100
AcDbLine
 10
198.8589200000000119
 20
47.3559000000000196
 30
0.0
 11
218.7026690000000144
 21
47.3559000000000196
 31
0.0
  0
LINE
  5
9D
100
AcDbEntity
  8
0
 62
256
370
-1
 48
1.0
  6
BYLAYER
100
AcDbLine
 10
218.7026690000000144
 20
47.3559000000000196
 30
0.0
 11
218.7026690000000144
 21
27.5121600000000512
 31
0.0
  0
LINE
  5
9E
100
AcDbEntity
  8
0
 62
256
370
-1
 48
1.0
  6
BYLAYER
100
AcDbLine
 10
218.7026690000000144
 20
27.5121600000000512
 30
0.0
 11
214.7339209999999809
 21
27.5121600000000512
 31
0.0
  0
LINE
  5
9F
100
AcDbEntity
  8
0
 62
256
370
-1
 48
1.0
  6
BYLAYER
100
AcDbLine
 10
214.7339209999999809
 20
27.5121600000000512
 30
0.0
 11
214.7339209999999809
 21
43.387139999999988
 31
0.0
  0
LINE
  5
A0
100
AcDbEntity
  8
0
 62
256
370
-1
 48
1.0
  6
BYLAYER
100
AcDbLine
 10
214.7339209999999809
 20
43.387139999999988
 30
0.0
 11
202.8276709999999809
 21
43.387139999999988
 31
0.0
  0
LINE
  5
A1
100
AcDbEntity
  8
0
 62
256
370
-1
 48
1.0
  6
BYLAYER
100
AcDbLine
 10
202.8276709999999809
 20
43.387139999999988
 30
0.0
 11
202.8276709999999809
 21
27.5121600000000512
 31
0.0
  0
LINE
  5
A2
100
AcDbEntity
  8
0
 62
256
370
-1
 48
1.0
  6
BYLAYER
100
AcDbLine
 10
202.8276709999999809
 20
27.5121600000000512
 30
0.0
 11
198.8589200000000119
 21
27.5121600000000512
 31
0.0
  0
LINE
  5
A3
100
AcDbEntity
  8
0
 62
256
370
-1
 48
1.0
  6
BYLAYER
100
AcDbLine
 10
222.6714200000000119
 20
27.5121600000000512
 30
0.0
 11
222.6714200000000119
 21
47.3559000000000196
 31
0.0
  0
LINE
  5
A4
100
AcDbEntity
  8
0
 62
256
370
-1
 48
1.0
  6
BYLAYER
100
AcDbLine
 10
222.6714200000000119
 20
47.3559000000000196
 30
0.0
 11
242.5151690000000144
 21
47.3559000000000196
 31
0.0
  0
LINE
  5
A5
100
AcDbEntity
  8
0
 62
256
370
-1
 48
1.0
  6
BYLAYER
100
AcDbLine
 10
242.5151690000000144
 20
47.3559000000000196
 30
0.0
 11
242.5151690000000144
 21
43.387139999999988
 31
0.0
  0
LINE
  5
A6
100
AcDbEntity
  8
0
 62
256
370
-1
 48
1.0
  6
BYLAYER
100
AcDbLine
 10
242.5151690000000144
 20
43.387139999999988
 30
0.0
 11
226.6401709999999809
 21
43.387139999999988
 31
0.0
  0
LINE
  5
A7
100
AcDbEntity
  8
0
 62
256
370
-1
 48
1.0
  6
BYLAYER
100
AcDbLine
 10
226.6401709999999809
 20
43.387139999999988
 30
0.0
 11
226.6401709999999809
 21
39.4184100000000512
 31
0.0
  0
LINE
  5
A8
100
AcDbEntity
  8
0
 62
256
370
-1
 48
1.0
  6
BYLAYER
100
AcDbLine
 10
226.6401709999999809
 20
39.4184100000000512
 30
0.0
 11
234.5776699999999551
 21
39.4184100000000512
 31
0.0
  0
LINE
  5
A9
100
AcDbEntity
  8
0
 62
256
370
-1
 48
1.0
  6
BYLAYER
100
AcDbLine
 10
234.5776699999999551
 20
39.4184100000000512
 30
0.0
 11
234.5776699999999551
 21
35.4496500000000196
 31
0.0
  0
LINE
  5
AA
100
AcDbEntity
  8
0
 62
256
370
-1
 48
1.0
  6
BYLAYER
100
AcDbLine
 10
234.5776699999999551
 20
35.4496500000000196
 30
0.0
 11
226.6401709999999809
 21
35.4496500000000196
 31
0.0
  0
LINE
  5
AB
100
AcDbEntity
  8
0
 62
256
370
-1
 48
1.0
  6
BYLAYER
100
AcDbLine
 10
226.6401709999999809
 20
35.4496500000000196
 30
0.0
 11
226.6401709999999809
 21
31.480889999999988
 31
0.0
  0
LINE
  5
AC
100
AcDbEntity
  8
0
 62
256
370
-1
 48
1.0
  6
BYLAYER
100
AcDbLine
 10
226.6401709999999809
 20
31.480889999999988
 30
0.0
 11
242.5151690000000144
 21
31.480889999999988
 31
0.0
  0
LINE
  5
AD
100
AcDbEntity
  8
0
 62
256
370
-1
 48
1.0
  6
BYLAYER
100
AcDbLine
 10
242.5151690000000144
 20
31.480889999999988
 30
0.0
 11
242.5151690000000144
 21
27.5121600000000512
 31
0.0
  0
LINE
  5
AE
100
AcDbEntity
  8
0
 62
256
370
-1
 48
1.0
  6
BYLAYER
100
AcDbLine
 10
242.5151690000000144
 20
27.5121600000000512
 30
0.0
 11
222.6714200000000119
 21
27.5121600000000512
 31
0.0
  0
LINE
  5
AF
100
AcDbEntity
  8
0
 62
256
370
-1
 48
1.0
  6
BYLAYER
100
AcDbLine
 10
64.7963179999999994
 20
8.1685800000000768
 30
0.0
 11
69.7262479999999982
 21
13.098510000000033
 31
0.0
  0
LINE
  5
B0
100
AcDbEntity
  8
0
 62
256
370
-1
 48
1.0
  6
BYLAYER
100
AcDbLine
 10
69.7262479999999982
 20
13.098510000000033
 30
0.0
 11
69.6952280000000002
 21
23.7025200000000495
 31
0.0
  0
LINE
  5
B1
100
AcDbEntity
  8
0
 62
256
370
-1
 48
1.0
  6
BYLAYER
100
AcDbLine
 10
69.6952280000000002
 20
23.7025200000000495
 30
0.0
 11
73.6639790000000119
 21
23.7025200000000495
 31
0.0
  0
LINE
  5
B2
100
AcDbEntity
  8
0
 62
256
370
-1
 48
1.0
  6
BYLAYER
100
AcDbLine
 10
73.6639790000000119
 20
23.7025200000000495
 30
0.0
 11
73.6639790000000119
 21
11.7962700000000495
 31
0.0
  0
LINE
  5
B3
100
AcDbEntity
  8
0
 62
256
370
-1
 48
1.0
  6
BYLAYER
100
AcDbLine
 10
73.6639790000000119
 20
11.7962700000000495
 30
0.0
 11
65.7264770000000027
 21
3.8587499999999864
 31
0.0
  0
LINE
  5
B4
100
AcDbEntity
  8
0
 62
256
370
-1
 48
1.0
  6
BYLAYER
100
AcDbLine
 10
65.7264770000000027
 20
3.8587499999999864
 30
0.0
 11
61.7577290000000119
 21
3.8587499999999864
 31
0.0
  0
LINE
  5
B5
100
AcDbEntity
  8
0
 62
256
370
-1
 48
1.0
  6
BYLAYER
100
AcDbLine
 10
61.7577290000000119
 20
3.8587499999999864
 30
0.0
 11
53.8202300000000093
 21
11.7962700000000495
 31
0.0
  0
LINE
  5
B6
100
AcDbEntity
  8
0
 62
256
370
-1
 48
1.0
  6
BYLAYER
100
AcDbLine
 10
53.8202300000000093
 20
23.6710049862300025
 30
0.0
 11
53.8202300000000093
 21
23.7025200000000495
 31
0.0
  0
LINE
  5
B7
100
AcDbEntity
  8
0
 62
256
370
-1
 48
1.0
  6
BYLAYER
100
AcDbLine
 10
53.8202300000000093
 20
11.7962700000000495
 30
0.0
 11
53.8202300000000093
 21
17.8138273335574127
 31
0.0
  0
LINE
  5
B8
100
AcDbEntity
  8
0
 62
256
370
-1
 48
1.0
  6
BYLAYER
100
AcDbLine
 10
57.7947117705475222
 20
21.7883112386534989
 30
0.0
 11
57.8199979999999982
 21
13.3465499999999793
 31
0.0
  0
LINE
  5
B9
100
AcDbEntity
  8
0
 62
256
370
-1
 48
1.0
  6
BYLAYER
100
AcDbLine
 10
57.8199979999999982
 20
13.3465499999999793
 30
0.0
 11
63.0289819999999992
 21
8.1685799999999062
 31
0.0
  0
LINE
  5
BA
100
AcDbEntity
  8
0
 62
256
370
-1
 48
1.0
  6
BYLAYER
100
AcDbLine
 10
63.0289819999999992
 20
8.1685799999999062
 30
0.0
 11
64.7963179999999994
 21
8.1685800000000768
 31
0.0
  0
LINE
  5
BB
100
AcDbEntity
  8
0
 62
256
370
-1
 48
1.0
  6
BYLAYER
100
AcDbLine
 10
77.6327449999999999
 20
3.8587499999999864
 30
0.0
 11
77.6327449999999999
 21
7.827510000000018
 31
0.0
  0
LINE
  5
BC
100
AcDbEntity
  8
0
 62
256
370
-1
 48
1.0
  6
BYLAYER
100
AcDbLine
 10
77.6327449999999999
 20
7.827510000000018
 30
0.0
 11
93.5077430000000049
 21
7.827510000000018
 31
0.0
  0
LINE
  5
BD
100
AcDbEntity
  8
0
 62
256
370
-1
 48
1.0
  6
BYLAYER
100
AcDbLine
 10
93.5077430000000049
 20
7.827510000000018
 30
0.0
 11
93.5077430000000049
 21
11.7962700000000495
 31
0.0
  0
LINE
  5
BE
100
AcDbEntity
  8
0
 62
256
370
-1
 48
1.0
  6
BYLAYER
100
AcDbLine
 10
93.5077430000000049
 20
11.7962700000000495
 30
0.0
 11
85.5702440000000024
 21
11.7962700000000495
 31
0.0
  0
LINE
  5
BF
100
AcDbEntity
  8
0
 62
256
370
-1
 48
1.0
  6
BYLAYER
100
AcDbLine
 10
85.5702440000000024
 20
11.7962700000000495
 30
0.0
 11
85.5702440000000024
 21
15.7649999999999864
 31
0.0
  0
LINE
  5
C0
100
AcDbEntity
  8
0
 62
256
370
-1
 48
1.0
  6
BYLAYER
100
AcDbLine
 10
85.5702440000000024
 20
15.7649999999999864
 30
0.0
 11
93.5077430000000049
 21
15.7649999999999864
 31
0.0
  0
LINE
  5
C1
100
AcDbEntity
  8
0
 62
256
370
-1
 48
1.0
  6
BYLAYER
100
AcDbLine
 10
93.5077430000000049
 20
15.7649999999999864
 30
0.0
 11
93.5077430000000049
 21
19.733760000000018
 31
0.0
  0
LINE
  5
C2
100
AcDbEntity
  8
0
 62
256
370
-1
 48
1.0
  6
BYLAYER
100
AcDbLine
 10
93.5077430000000049
 20
19.733760000000018
 30
0.0
 11
77.6327449999999999
 21
19.733760000000018
 31
0.0
  0
LINE
  5
C3
100
AcDbEntity
  8
0
 62
256
370
-1
 48
1.0
  6
BYLAYER
100
AcDbLine
 10
77.6327449999999999
 20
19.733760000000018
 30
0.0
 11
77.6327449999999999
 21
23.7025200000000495
 31
0.0
  0
LINE
  5
C4
100
AcDbEntity
  8
0
 62
256
370
-1
 48
1.0
  6
BYLAYER
100
AcDbLine
 10
77.6327449999999999
 20
23.7025200000000495
 30
0.0
 11
97.4764939999999882
 21
23.7025200000000495
 31
0.0
  0
LINE
  5
C5
100
AcDbEntity
  8
0
 62
256
370
-1
 48
1.0
  6
BYLAYER
100
AcDbLine
 10
97.4764939999999882
 20
23.7025200000000495
 30
0.0
 11
97.4764939999999882
 21
3.8587499999999864
 31
0.0
  0
LINE
  5
C6
100
AcDbEntity
  8
0
 62
256
370
-1
 48
1.0
  6
BYLAYER
100
AcDbLine
 10
97.4764939999999882
 20
3.8587499999999864
 30
0.0
 11
77.6327449999999999
 21
3.8587499999999864
 31
0.0
  0
LINE
  5
C7
100
AcDbEntity
  8
0
 62
256
370
-1
 48
1.0
  6
BYLAYER
100
AcDbLine
 10
53.8202300000000164
 20
17.8138273335573913
 30
0.0
 11
57.7947117705475222
 21
21.7883112386534776
 31
0.0
  0
LINE
  5
C8
100
AcDbEntity
  8
0
 62
256
370
-1
 48
1.0
  6
BYLAYER
100
AcDbLine
 10
104.7109190000000183
 20
68.7045436650823405
 30
0.0
 11
108.518473290019756
 21
72.512100000000018
 31
0.0
  0
LINE
  5
C9
100
AcDbEntity
  8
0
 62
256
370
-1
 48
1.0
  6
BYLAYER
100
AcDbLine
 10
79.7964200000000119
 20
43.7900312844175374
 30
0.0
 11
83.3622868004860607
 21
47.3559000000000196
 31
0.0
  0
ARC
  5
CA
100
AcDbEntity
  8
0
 62
256
370
-1
 48
1.0
  6
BYLAYER
100
AcDbCircle
 10
44.2174850465087843
 20
40.0655273918117416
 30
0.0
 40
3.3289669323713875
100
AcDbArc
 50
0.6994618546433583
 51
88.8979770864654313
  0
LINE
  5
CB
100
AcDbEntity
  8
0
 62
256
370
-1
 48
1.0
  6
BYLAYER
100
AcDbLine
 10
44.2815102099200004
 20
43.39387857749999
 30
0.0
 11
44.2084852108400099
 21
43.39387857749999
 31
0.0
  0
ARC
  5
CC
100
AcDbEntity
  8
0
 62
256
370
-1
 48
1.0
  6
BYLAYER
100
AcDbCircle
 10
44.4130427029619312
 20
40.0459037064834433
 30
0.0
 40
3.4025171910804426
100
AcDbArc
 50
137.2290729774350382
 51
181.1907261694098565
  0
LINE
  5
CD
100
AcDbEntity
  8
0
 62
256
370
-1
 48
1.0
  6
BYLAYER
100
AcDbLine
 10
44.2775414599700099
 20
36.6811349120699788
 30
0.0
 11
44.3489789590700099
 21
36.6811349120699788
 31
0.0
  0
LINE
  5
CE
100
AcDbEntity
  8
0
 62
256
370
-1
 48
1.0
  6
BYLAYER
100
AcDbLine
 10
46.1174539367899996
 20
37.2867661544399809
 30
0.0
 11
56.8299038018299996
 21
26.6814725380499738
 31
0.0
  0
LINE
  5
CF
100
AcDbEntity
  8
0
 62
256
370
-1
 48
1.0
  6
BYLAYER
100
AcDbLine
 10
57.9387725378600038
 20
27.790341274079978
 30
0.0
 11
47.1604414236499991
 21
38.4615161396399827
 31
0.0
  0
ARC
  5
D0
100
AcDbEntity
  8
0
 62
256
370
-1
 48
1.0
  6
BYLAYER
100
AcDbCircle
 10
44.2084216747694114
 20
40.0214964788335408
 30
0.0
 40
3.3388559801901394
100
AcDbArc
 50
332.1460075556329343
 51
1.453112430197586
  0
ARC
  5
D1
100
AcDbEntity
  8
0
 62
256
370
-1
 48
1.0
  6
BYLAYER
100
AcDbCircle
 10
60.5809638372896728
 20
32.4145234002078411
 30
0.0
 40
2.4862493135596915
100
AcDbArc
 50
10.6571561932302181
 51
89.7758304576542088
  0
LINE
  5
D2
100
AcDbEntity
  8
0
 62
256
370
-1
 48
1.0
  6
BYLAYER
100
AcDbLine
 10
60.5906912544500074
 20
34.900753684499989
 30
0.0
 11
60.5906912544500074
 21
34.9007536844999819
 31
0.0
  0
ARC
  5
D3
100
AcDbEntity
  8
0
 62
256
370
-1
 48
1.0
  6
BYLAYER
100
AcDbCircle
 10
46.3902592265718781
 20
62.4296906673320464
 30
0.0
 40
2.3026785244725962
100
AcDbArc
 50
18.3619654008204165
 51
89.4408946938189899
  0
ARC
  5
D4
100
AcDbEntity
  8
0
 62
256
370
-1
 48
1.0
  6
BYLAYER
100
AcDbCircle
 10
46.444471588808355
 20
62.4082262393916167
 30
0.0
 40
2.3242500866535778
100
AcDbArc
 50
90.7825219656366755
 51
180.6669349785742043
  0
ARC
  5
D5
100
AcDbEntity
  8
0
 62
256
370
-1
 48
1.0
  6
BYLAYER
100
AcDbCircle
 10
46.4387417412385162
 20
62.3603016505013841
 30
0.0
 40
2.3184567176386826
100
AcDbArc
 50
179.4842240775072923
 51
269.3571346912403897
  0
ARC
  5
D6
100
AcDbEntity
  8
0
 62
256
370
-1
 48
1.0
  6
BYLAYER
100
AcDbCircle
 10
46.4033994844081406
 20
62.317129572693517
 30
0.0
 40
2.2751578330522588
100
AcDbArc
 50
270.2349461315477583
 51
340.9127221641062988
  0
LINE
  5
D7
100
AcDbEntity
  8
0
 62
256
370
-1
 48
1.0
  6
BYLAYER
100
AcDbLine
 10
48.5534726561000198
 20
61.5731345984699772
 30
0.0
 11
49.8187101401600074
 21
61.6286970977699724
 31
0.0
  0
ARC
  5
D8
100
AcDbEntity
  8
0
 62
256
370
-1
 48
1.0
  6
BYLAYER
100
AcDbCircle
 10
64.0763917679345525
 20
54.1611411995821967
 30
0.0
 40
16.0949021895610969
100
AcDbArc
 50
145.5928605802337472
 51
152.3564008396079998
  0
LINE
  5
D9
100
AcDbEntity
  8
0
 62
256
370
-1
 48
1.0
  6
BYLAYER
100
AcDbLine
 10
50.797403877830007
 20
63.255884577269974
 30
0.0
 11
48.575697655820008
 21
63.1550783285399859
 31
0.0
  0
ARC
  5
DA
100
AcDbEntity
  8
0
 62
256
370
-1
 48
1.0
  6
BYLAYER
100
AcDbCircle
 10
29.0054299844586652
 20
47.1970981651594315
 30
0.0
 40
3.3365644746768952
100
AcDbArc
 50
90.0755714977499196
 51
179.9517187039299131
  0
LINE
  5
DB
100
AcDbEntity
  8
0
 62
256
370
-1
 48
1.0
  6
BYLAYER
100
AcDbLine
 10
32.3347791104300057
 20
47.1999097795499836
 30
0.0
 11
32.3347791104300057
 21
47.1999097795499836
 31
0.0
  0
ARC
  5
DC
100
AcDbEntity
  8
0
 62
256
370
-1
 48
1.0
  6
BYLAYER
100
AcDbCircle
 10
29.8562512786450327
 20
33.2778883001195993
 30
0.0
 40
2.4776473713146889
100
AcDbArc
 50
180.026526661718691
 51
270.0285389558644624
  0
LINE
  5
DD
100
AcDbEntity
  8
0
 62
256
370
-1
 48
1.0
  6
BYLAYER
100
AcDbLine
 10
47.4414289201100061
 20
17.2922039063399922
 30
0.0
 11
32.0823666136099988
 21
32.197241218559995
 31
0.0
  0
ARC
  5
DE
100
AcDbEntity
  8
0
 62
256
370
-1
 48
1.0
  6
BYLAYER
100
AcDbCircle
 10
43.7373358422209222
 20
52.6802515895216885
 30
0.0
 40
1.9595158399762442
100
AcDbArc
 50
23.2281631517384923
 51
89.638539319906684
  0
ARC
  5
DF
100
AcDbEntity
  8
0
 62
256
370
-1
 48
1.0
  6
BYLAYER
100
AcDbCircle
 10
43.7793591729980562
 20
52.6146202459950985
 30
0.0
 40
2.0253254016306301
100
AcDbArc
 50
90.8391426982419006
 51
180.7563613089886303
  0
ARC
  5
E0
100
AcDbEntity
  8
0
 62
256
370
-1
 48
1.0
  6
BYLAYER
100
AcDbCircle
 10
43.7772445995513806
 20
52.5661483191107592
 30
0.0
 40
2.0231511272185996
100
AcDbArc
 50
179.3844120197260281
 51
269.2198462679202748
  0
ARC
  5
E1
100
AcDbEntity
  8
0
 62
256
370
-1
 48
1.0
  6
BYLAYER
100
AcDbCircle
 10
43.7349642829830785
 20
52.4966468497274548
 30
0.0
 40
1.9535176728784147
100
AcDbArc
 50
270.432128964062656
 51
341.6931320636048781
  0
LINE
  5
E2
100
AcDbEntity
  8
0
 62
256
370
-1
 48
1.0
  6
BYLAYER
100
AcDbLine
 10
45.5896101934400022
 20
51.8830347205500004
 30
0.0
 11
48.1478664112099892
 21
52.010828468939998
 31
0.0
  0
ARC
  5
E3
100
AcDbEntity
  8
0
 62
256
370
-1
 48
1.0
  6
BYLAYER
100
AcDbCircle
 10
63.9267440680802537
 20
54.1583524919666672
 30
0.0
 40
15.9243473819166645
100
AcDbArc
 50
182.0839670521606024
 51
187.7504029309828013
  0
LINE
  5
E4
100
AcDbEntity
  8
0
 62
256
370
-1
 48
1.0
  6
BYLAYER
100
AcDbLine
 10
48.0129289129099988
 20
53.5792784491799949
 30
0.0
 11
45.5380164440899975
 21
53.4530722007699808
 31
0.0
  0
LINE
  5
E5
100
AcDbEntity
  8
0
 62
256
370
-1
 48
1.0
  6
BYLAYER
100
AcDbLine
 10
79.1303097708800038
 20
48.9810847571099828
 30
0.0
 11
111.4462531137499894
 21
81.2978218499699778
 31
0.0
  0
LINE
  5
E6
100
AcDbEntity
  8
0
 62
256
370
-1
 48
1.0
  6
BYLAYER
100
AcDbLine
 10
111.4462531137499894
 20
81.2978218499699778
 30
0.0
 11
110.4318406265300041
 21
83.3869718236499864
 31
0.0
  0
LINE
  5
E7
100
AcDbEntity
  8
0
 62
256
370
-1
 48
1.0
  6
BYLAYER
100
AcDbLine
 10
110.4318406265300041
 20
83.3869718236499864
 30
0.0
 11
108.0347156567300004
 21
83.1131280770999865
 31
0.0
  0
LINE
  5
E8
100
AcDbEntity
  8
0
 62
256
370
-1
 48
1.0
  6
BYLAYER
100
AcDbLine
 10
108.0347156567300004
 20
83.1131280770999865
 30
0.0
 11
80.0018472599000035
 21
54.2904784402199851
 31
0.0
  0
LINE
  5
E9
100
AcDbEntity
  8
0
 62
256
370
-1
 48
1.0
  6
BYLAYER
100
AcDbLine
 10
80.0018472599000035
 20
54.2904784402199851
 30
0.0
 11
80.0066097598399892
 21
54.1928471914499852
 31
0.0
  0
ARC
  5
EA
100
AcDbEntity
  8
0
 62
256
370
-1
 48
1.0
  6
BYLAYER
100
AcDbCircle
 10
64.1179170844916229
 20
54.1848031841001259
 30
0.0
 40
15.8886947115779336
100
AcDbArc
 50
340.882241993802154
 51
0.029007272122876
  0
LINE
  5
EB
100
AcDbEntity
  8
0
 62
256
370
-1
 48
1.0
  6
BYLAYER
100
AcDbLine
 10
79.1303097708800038
 20
48.9810847571099828
 30
0.0
 11
79.1303097708800038
 21
48.9810847571099828
 31
0.0
  0
ARC
  5
EC
100
AcDbEntity
  8
0
 62
256
370
-1
 48
1.0
  6
BYLAYER
100
AcDbCircle
 10
29.8560909211241849
 20
33.2883043980846907
 30
0.0
 40
2.48806355270013
100
AcDbArc
 50
270.0321122341541127
 51
297.0142090666779495
  0
ARC
  5
ED
100
AcDbEntity
  8
0
 62
256
370
-1
 48
1.0
  6
BYLAYER
100
AcDbCircle
 10
29.8596411376989508
 20
33.2737908912873976
 30
0.0
 40
2.4810387190042746
100
AcDbArc
 50
90.0497836512881236
 51
179.931867019954467
  0
ARC
  5
EE
100
AcDbEntity
  8
0
 62
256
370
-1
 48
1.0
  6
BYLAYER
100
AcDbCircle
 10
29.8535689073772232
 20
33.273619598044462
 30
0.0
 40
2.481212166696551
100
AcDbArc
 50
0.0720836980991184
 51
89.9095610947828163
  0
ARC
  5
EF
100
AcDbEntity
  8
0
 62
256
370
-1
 48
1.0
  6
BYLAYER
100
AcDbCircle
 10
29.8790666571049783
 20
33.2824822539095351
 30
0.0
 40
2.4557191641266214
100
AcDbArc
 50
333.793943661316689
 51
359.8660522020523445
  0
LINE
  5
F0
100
AcDbEntity
  8
0
 62
256
370
-1
 48
1.0
  6
BYLAYER
100
AcDbLine
 10
47.4414289201100061
 20
17.2929976563299945
 30
0.0
 11
52.5579413556500086
 21
22.409510091869997
 31
0.0
  0
LINE
  5
F1
100
AcDbEntity
  8
0
 62
256
370
-1
 48
1.0
  6
BYLAYER
100
AcDbLine
 10
52.5579413556500086
 20
22.409510091869997
 30
0.0
 11
30.6298041319099994
 21
44.2924035661799991
 31
0.0
  0
ARC
  5
F2
100
AcDbEntity
  8
0
 62
256
370
-1
 48
1.0
  6
BYLAYER
100
AcDbCircle
 10
29.0068554685862878
 20
47.1937538621259662
 30
0.0
 40
3.324424146159747
100
AcDbArc
 50
269.8995845650014758
 51
299.2216460810493572
  0
ARC
  5
F3
100
AcDbEntity
  8
0
 62
256
370
-1
 48
1.0
  6
BYLAYER
100
AcDbCircle
 10
29.0067933494497936
 20
47.2072646023586771
 30
0.0
 40
3.3379347578770462
100
AcDbArc
 50
180.1262459207697475
 51
269.9010572855315218
  0
ARC
  5
F4
100
AcDbEntity
  8
0
 62
256
370
-1
 48
1.0
  6
BYLAYER
100
AcDbCircle
 10
28.9973699469830635
 20
47.1962505741030611
 30
0.0
 40
3.3374111694611521
100
AcDbArc
 50
0.0628202699201952
 51
89.9371797300839404
  0
ARC
  5
F5
100
AcDbEntity
  8
0
 62
256
370
-1
 48
1.0
  6
BYLAYER
100
AcDbCircle
 10
29.0569441416975849
 20
47.2075580123881338
 30
0.0
 40
3.2778438916016981
100
AcDbArc
 50
325.875882306514427
 51
359.8663109426531719
  0
LINE
  5
F6
100
AcDbEntity
  8
0
 62
256
370
-1
 48
1.0
  6
BYLAYER
100
AcDbLine
 10
31.770422867540006
 20
45.3687285526199986
 30
0.0
 11
53.6668100916800057
 21
23.5175850779099775
 31
0.0
  0
LINE
  5
F7
100
AcDbEntity
  8
0
 62
256
370
-1
 48
1.0
  6
BYLAYER
100
AcDbLine
 10
53.6668100916800057
 20
23.5175850779099775
 30
0.0
 11
56.8299038018299996
 21
26.6806787880599927
 31
0.0
  0
ARC
  5
F8
100
AcDbEntity
  8
0
 62
256
370
-1
 48
1.0
  6
BYLAYER
100
AcDbCircle
 10
44.2353638986514568
 20
39.8969385392185103
 30
0.0
 40
3.2186032791520356
100
AcDbArc
 50
272.0229321677273333
 51
305.7855889199315698
  0
LINE
  5
F9
100
AcDbEntity
  8
0
 62
256
370
-1
 48
1.0
  6
BYLAYER
100
AcDbLine
 10
44.3489789590700099
 20
36.6803411620799977
 30
0.0
 11
44.2775414599700099
 21
36.6803411620799977
 31
0.0
  0
ARC
  5
FA
100
AcDbEntity
  8
0
 62
256
370
-1
 48
1.0
  6
BYLAYER
100
AcDbCircle
 10
44.3395596863090162
 20
40.0082347018345388
 30
0.0
 40
3.3284713717168124
100
AcDbArc
 50
180.5823729072439505
 51
268.9323662831180854
  0
ARC
  5
FB
100
AcDbEntity
  8
0
 62
256
370
-1
 48
1.0
  6
BYLAYER
100
AcDbCircle
 10
44.292525035724239
 20
40.1542183603580014
 30
0.0
 40
3.2399565867783275
100
AcDbArc
 50
91.4863370094836625
 51
137.1981947303938227
  0
LINE
  5
FC
100
AcDbEntity
  8
0
 62
256
370
-1
 48
1.0
  6
BYLAYER
100
AcDbLine
 10
44.2084852108400099
 20
43.3930848275100089
 30
0.0
 11
44.2815102099200004
 21
43.3930848275100089
 31
0.0
  0
LINE
  5
FD
100
AcDbEntity
  8
0
 62
256
370
-1
 48
1.0
  6
BYLAYER
100
AcDbLine
 10
57.9395662878499991
 20
27.789547524089997
 30
0.0
 11
60.1279350102800123
 21
29.9787099965100055
 31
0.0
  0
ARC
  5
FE
100
AcDbEntity
  8
0
 62
256
370
-1
 48
1.0
  6
BYLAYER
100
AcDbCircle
 10
60.698306803370329
 20
32.3976919458894912
 30
0.0
 40
2.4853164091875386
100
AcDbArc
 50
181.0529104819224813
 51
256.7325606800439459
  0
ARC
  5
FF
100
AcDbEntity
  8
0
 62
256
370
-1
 48
1.0
  6
BYLAYER
100
AcDbCircle
 10
60.6845795839160473
 20
32.4293931044318668
 30
0.0
 40
2.4723804638551083
100
AcDbArc
 50
92.1947311530041418
 51
181.7933060629455326
  0
LINE
  5
100
100
AcDbEntity
  8
0
 62
256
370
-1
 48
1.0
  6
BYLAYER
100
AcDbLine
 10
63.0227412238100015
 20
32.8735162100399876
 30
0.0
 11
69.2084348958800035
 21
39.0592098821099967
 31
0.0
  0
ARC
  5
101
100
AcDbEntity
  8
0
 62
256
370
-1
 48
1.0
  6
BYLAYER
100
AcDbCircle
 10
63.9987507086705421
 20
54.0639166832980465
 30
0.0
 40
15.8833886661530741
100
AcDbArc
 50
269.9839133593379756
 51
289.1471715384167283
  0
ARC
  5
102
100
AcDbEntity
  8
0
 62
256
370
-1
 48
1.0
  6
BYLAYER
100
AcDbCircle
 10
64.0007951334076068
 20
54.182391247635465
 30
0.0
 40
16.00186392620774
100
AcDbArc
 50
187.8023650339277708
 51
269.9767122577997043
  0
LINE
  5
103
100
AcDbEntity
  8
0
 62
256
370
-1
 48
1.0
  6
BYLAYER
100
AcDbLine
 10
48.1470726612200011
 20
52.0100347189499956
 30
0.0
 11
45.588816443450014
 21
51.8822409705599981
 31
0.0
  0
ARC
  5
104
100
AcDbEntity
  8
0
 62
256
370
-1
 48
1.0
  6
BYLAYER
100
AcDbCircle
 10
43.7336241962896111
 20
52.4966033417271376
 30
0.0
 40
1.9542720887916527
100
AcDbArc
 50
270.4479802364431862
 51
341.6772807912252574
  0
ARC
  5
105
100
AcDbEntity
  8
0
 62
256
370
-1
 48
1.0
  6
BYLAYER
100
AcDbCircle
 10
43.7764508495614137
 20
52.5653545691207782
 30
0.0
 40
2.0231511272186111
100
AcDbArc
 50
179.3844120197260281
 51
269.2198462679197064
  0
ARC
  5
106
100
AcDbEntity
  8
0
 62
256
370
-1
 48
1.0
  6
BYLAYER
100
AcDbCircle
 10
43.7785654230080752
 20
52.613826496005089
 30
0.0
 40
2.0253254016306563
100
AcDbArc
 50
90.8391426982421706
 51
180.7563613089881756
  0
ARC
  5
107
100
AcDbEntity
  8
0
 62
256
370
-1
 48
1.0
  6
BYLAYER
100
AcDbCircle
 10
43.7365420922309198
 20
52.6794578395316648
 30
0.0
 40
1.9595158399762549
100
AcDbArc
 50
23.2281631517387588
 51
89.6385393199063856
  0
LINE
  5
108
100
AcDbEntity
  8
0
 62
256
370
-1
 48
1.0
  6
BYLAYER
100
AcDbLine
 10
45.5372226941000093
 20
53.4522784507799855
 30
0.0
 11
48.0121351629200035
 21
53.5776909491999831
 31
0.0
  0
ARC
  5
109
100
AcDbEntity
  8
0
 62
256
370
-1
 48
1.0
  6
BYLAYER
100
AcDbCircle
 10
63.7273780050839207
 20
54.6775054223478421
 30
0.0
 40
15.7536805053146356
100
AcDbArc
 50
181.765857413090572
 51
184.0032567519953091
  0
ARC
  5
10A
100
AcDbEntity
  8
0
 62
256
370
-1
 48
1.0
  6
BYLAYER
100
AcDbCircle
 10
63.9202856763050704
 20
54.1988963708213944
 30
0.0
 40
15.9391082318879018
100
AcDbArc
 50
152.2226483115351243
 51
180.0245980501746885
  0
LINE
  5
10B
100
AcDbEntity
  8
0
 62
256
370
-1
 48
1.0
  6
BYLAYER
100
AcDbLine
 10
49.8179163901700122
 20
61.6271095977899819
 30
0.0
 11
48.5526789061100175
 21
61.5715470984899866
 31
0.0
  0
ARC
  5
10C
100
AcDbEntity
  8
0
 62
256
370
-1
 48
1.0
  6
BYLAYER
100
AcDbCircle
 10
46.4026057344181382
 20
62.3155420727135407
 30
0.0
 40
2.2751578330522579
100
AcDbArc
 50
270.2349461315622534
 51
340.912722164106242
  0
ARC
  5
10D
100
AcDbEntity
  8
0
 62
256
370
-1
 48
1.0
  6
BYLAYER
100
AcDbCircle
 10
46.4379479912484783
 20
62.3587141505214007
 30
0.0
 40
2.3184567176386333
100
AcDbArc
 50
179.4842240775072923
 51
269.3571346912411286
  0
ARC
  5
10E
100
AcDbEntity
  8
0
 62
256
370
-1
 48
1.0
  6
BYLAYER
100
AcDbCircle
 10
46.4436778388183669
 20
62.4066387394116475
 30
0.0
 40
2.3242500866535991
100
AcDbArc
 50
90.7825219656370024
 51
180.6669349785736927
  0
ARC
  5
10F
100
AcDbEntity
  8
0
 62
256
370
-1
 48
1.0
  6
BYLAYER
100
AcDbCircle
 10
46.387596266921669
 20
62.425539706695794
 30
0.0
 40
2.3052608405666586
100
AcDbArc
 50
18.4077994831097307
 51
89.3950606115290753
  0
LINE
  5
110
100
AcDbEntity
  8
0
 62
256
370
-1
 48
1.0
  6
BYLAYER
100
AcDbLine
 10
48.5749039058300127
 20
63.1534908285599954
 30
0.0
 11
50.7974038778299999
 21
63.2542970772899906
 31
0.0
  0
ARC
  5
111
100
AcDbEntity
  8
0
 62
256
370
-1
 48
1.0
  6
BYLAYER
100
AcDbCircle
 10
63.9919898007109396
 20
54.1746898519599824
 30
0.0
 40
16.0167526372405824
100
AcDbArc
 50
103.5628000794536661
 51
145.4669236270827923
  0
LINE
  5
112
100
AcDbEntity
  8
0
 62
256
370
-1
 48
1.0
  6
BYLAYER
100
AcDbLine
 10
60.2358850089200075
 20
69.7447907455199925
 30
0.0
 11
91.1246658697699843
 21
101.5813090944299972
 31
0.0
  0
LINE
  5
113
100
AcDbEntity
  8
0
 62
256
370
-1
 48
1.0
  6
BYLAYER
100
AcDbLine
 10
91.1246658697699843
 20
101.5813090944299972
 30
0.0
 11
87.7790096619199858
 21
103.6768090680299821
 31
0.0
  0
LINE
  5
114
100
AcDbEntity
  8
0
 62
256
370
-1
 48
1.0
  6
BYLAYER
100
AcDbLine
 10
87.7790096619199858
 20
103.6768090680299821
 30
0.0
 11
87.0511409210899814
 21
103.0981653253199823
 31
0.0
  0
LINE
  5
115
100
AcDbEntity
  8
0
 62
256
370
-1
 48
1.0
  6
BYLAYER
100
AcDbLine
 10
87.0511409210899814
 20
103.0981653253199823
 30
0.0
 11
53.0778475990999965
 21
68.0787095165100027
 31
0.0
  0
LINE
  5
116
100
AcDbEntity
  8
0
 62
256
370
-1
 48
1.0
  6
BYLAYER
100
AcDbLine
 10
53.0778475990999965
 20
68.0787095165100027
 30
0.0
 11
39.85873526564
 21
67.4325970246500077
 31
0.0
  0
ARC
  5
117
100
AcDbEntity
  8
0
 62
256
370
-1
 48
1.0
  6
BYLAYER
100
AcDbCircle
 10
36.9819189502040899
 20
68.1659445840905533
 30
0.0
 40
2.968816389690629
100
AcDbArc
 50
270.771100618302853
 51
345.6989475762628672
  0
ARC
  5
118
100
AcDbEntity
  8
0
 62
256
370
-1
 48
1.0
  6
BYLAYER
100
AcDbCircle
 10
37.0689760891076077
 20
68.1899384381119376
 30
0.0
 40
2.9929120706194507
100
AcDbArc
 50
179.3333764271558266
 51
269.0982257580431565
  0
ARC
  5
119
100
AcDbEntity
  8
0
 62
256
370
-1
 48
1.0
  6
BYLAYER
100
AcDbCircle
 10
37.0667011484417657
 20
68.2563008334105348
 30
0.0
 40
2.9906008948272751
100
AcDbArc
 50
90.8588813336906469
 51
180.6042992740039779
  0
ARC
  5
11A
100
AcDbEntity
  8
0
 62
256
370
-1
 48
1.0
  6
BYLAYER
100
AcDbCircle
 10
37.0195956798957155
 20
68.3273661132194263
 30
0.0
 40
2.919200501514692
100
AcDbArc
 50
13.5830415073018997
 51
89.9553064396738051
  0
LINE
  5
11B
100
AcDbEntity
  8
0
 62
256
370
-1
 48
1.0
  6
BYLAYER
100
AcDbLine
 10
39.8571477656600024
 20
69.0129532547399833
 30
0.0
 11
52.3880788577900063
 21
69.629696996969983
 31
0.0
  0
LINE
  5
11C
100
AcDbEntity
  8
0
 62
256
370
-1
 48
1.0
  6
BYLAYER
100
AcDbLine
 10
52.3880788577900063
 20
69.629696996969983
 30
0.0
 11
79.901041011169994
 21
97.9856216397299988
 31
0.0
  0
ARC
  5
11D
100
AcDbEntity
  8
0
 62
256
370
-1
 48
1.0
  6
BYLAYER
100
AcDbCircle
 10
63.8667733447431516
 20
54.6716567736154957
 30
0.0
 40
46.1865488212923623
100
AcDbArc
 50
69.6861016078675419
 51
75.0636553899326344
  0
LINE
  5
11E
100
AcDbEntity
  8
0
 62
256
370
-1
 48
1.0
  6
BYLAYER
100
AcDbLine
 10
75.7711598132000006
 20
99.297690373199984
 30
0.0
 11
53.1881788477100059
 21
76.0193844164699897
 31
0.0
  0
ARC
  5
11F
100
AcDbEntity
  8
0
 62
256
370
-1
 48
1.0
  6
BYLAYER
100
AcDbCircle
 10
50.7778195181334837
 20
74.8727681672164067
 30
0.0
 40
2.6691873146575764
100
AcDbArc
 50
0.4013571338311072
 51
25.4405941818315178
  0
ARC
  5
120
100
AcDbEntity
  8
0
 62
256
370
-1
 48
1.0
  6
BYLAYER
100
AcDbCircle
 10
50.8431219997383295
 20
74.8607494811605676
 30
0.0
 40
2.6040005116757596
100
AcDbArc
 50
270.8104381965925427
 51
0.6758636959417124
  0
ARC
  5
121
100
AcDbEntity
  8
0
 62
256
370
-1
 48
1.0
  6
BYLAYER
100
AcDbCircle
 10
50.9157486455934389
 20
74.859738933382701
 30
0.0
 40
2.6029755966861612
100
AcDbArc
 50
179.301624750915181
 51
269.2120733565507749
  0
ARC
  5
122
100
AcDbEntity
  8
0
 62
256
370
-1
 48
1.0
  6
BYLAYER
100
AcDbCircle
 10
50.9148603298400957
 20
74.9201354236542727
 30
0.0
 40
2.6020518689661607
100
AcDbArc
 50
90.7686443353361625
 51
180.6313050595657899
  0
ARC
  5
123
100
AcDbEntity
  8
0
 62
256
370
-1
 48
1.0
  6
BYLAYER
100
AcDbCircle
 10
50.8689333421041212
 20
75.0377520222119472
 30
0.0
 40
2.4842255701255898
100
AcDbArc
 50
59.6820313558794737
 51
89.7458233245111501
  0
LINE
  5
124
100
AcDbEntity
  8
0
 62
256
370
-1
 48
1.0
  6
BYLAYER
100
AcDbLine
 10
52.1229663611299969
 20
77.1822281518199702
 30
0.0
 11
73.9899848356400156
 21
99.7191716178899838
 31
0.0
  0
ARC
  5
125
100
AcDbEntity
  8
0
 62
256
370
-1
 48
1.0
  6
BYLAYER
100
AcDbCircle
 10
64.2149867962892102
 20
57.4555298968288781
 30
0.0
 40
43.3793268527247804
100
AcDbArc
 50
76.9772626692925428
 51
81.3155003758362795
  0
LINE
  5
126
100
AcDbEntity
  8
0
 62
256
370
-1
 48
1.0
  6
BYLAYER
100
AcDbLine
 10
70.7649786262700076
 20
100.3375028600999741
 30
0.0
 11
70.289522382260003
 21
101.5519403447999736
 31
0.0
  0
LINE
  5
127
100
AcDbEntity
  8
0
 62
256
370
-1
 48
1.0
  6
BYLAYER
100
AcDbLine
 10
70.289522382260003
 20
101.5519403447999736
 30
0.0
 11
50.3529038834300025
 21
81.0057218536499875
 31
0.0
  0
LINE
  5
128
100
AcDbEntity
  8
0
 62
256
370
-1
 48
1.0
  6
BYLAYER
100
AcDbLine
 10
50.3529038834300025
 20
81.0057218536499875
 30
0.0
 11
50.2139976351800073
 21
80.9969906037599685
 31
0.0
  0
LINE
  5
129
100
AcDbEntity
  8
0
 62
256
370
-1
 48
1.0
  6
BYLAYER
100
AcDbLine
 10
50.2139976351800073
 20
80.9969906037599685
 30
0.0
 11
42.1399727369000061
 21
80.7334656070799781
 31
0.0
  0
ARC
  5
12A
100
AcDbEntity
  8
0
 62
256
370
-1
 48
1.0
  6
BYLAYER
100
AcDbCircle
 10
40.0243373636250226
 20
81.5391412306049119
 30
0.0
 40
2.2638520806348312
100
AcDbArc
 50
270.4091648386057045
 51
339.1521809924433342
  0
ARC
  5
12B
100
AcDbEntity
  8
0
 62
256
370
-1
 48
1.0
  6
BYLAYER
100
AcDbCircle
 10
40.0746443315727703
 20
81.5787154119434206
 30
0.0
 40
2.3036215349393689
100
AcDbArc
 50
179.3461573336794288
 51
269.1508293661946141
  0
ARC
  5
12C
100
AcDbEntity
  8
0
 62
256
370
-1
 48
1.0
  6
BYLAYER
100
AcDbCircle
 10
40.0760493460683307
 20
81.6338451435607624
 30
0.0
 40
2.3050570043866996
100
AcDbArc
 50
90.8835695890371085
 51
180.7169326887205045
  0
ARC
  5
12D
100
AcDbEntity
  8
0
 62
256
370
-1
 48
1.0
  6
BYLAYER
100
AcDbCircle
 10
40.023976349605654
 20
81.6627209730712025
 30
0.0
 40
2.2759671048806061
100
AcDbArc
 50
16.6023586537618435
 51
89.5839246978511312
  0
LINE
  5
12E
100
AcDbEntity
  8
0
 62
256
370
-1
 48
1.0
  6
BYLAYER
100
AcDbLine
 10
42.2050602360800085
 20
82.3130280871799727
 30
0.0
 11
49.6758351419600217
 21
82.5590905840799678
 31
0.0
  0
LINE
  5
12F
100
AcDbEntity
  8
0
 62
256
370
-1
 48
1.0
  6
BYLAYER
100
AcDbLine
 10
49.6758351419600217
 20
82.5590905840799678
 30
0.0
 11
69.6616661401700128
 21
103.1592840745499728
 31
0.0
  0
LINE
  5
130
100
AcDbEntity
  8
0
 62
256
370
-1
 48
1.0
  6
BYLAYER
100
AcDbLine
 10
69.6616661401700128
 20
103.1592840745499728
 30
0.0
 11
67.9614536615900278
 21
107.5114152697199756
 31
0.0
  0
LINE
  5
131
100
AcDbEntity
  8
0
 62
256
370
-1
 48
1.0
  6
BYLAYER
100
AcDbLine
 10
67.9614536615900278
 20
107.5114152697199756
 30
0.0
 11
48.7026976542200174
 21
87.6621092697899655
 31
0.0
  0
LINE
  5
132
100
AcDbEntity
  8
0
 62
256
370
-1
 48
1.0
  6
BYLAYER
100
AcDbLine
 10
48.7026976542200174
 20
87.6621092697899655
 30
0.0
 11
48.5629976559800127
 21
87.6613155197999703
 31
0.0
  0
LINE
  5
133
100
AcDbEntity
  8
0
 62
256
370
-1
 48
1.0
  6
BYLAYER
100
AcDbLine
 10
48.5629976559800127
 20
87.6613155197999703
 30
0.0
 11
35.7082165679300161
 21
87.4581155223599751
 31
0.0
  0
ARC
  5
134
100
AcDbEntity
  8
0
 62
256
370
-1
 48
1.0
  6
BYLAYER
100
AcDbCircle
 10
33.658856076503362
 20
88.4134239515450417
 30
0.0
 40
2.2610821786685604
100
AcDbArc
 50
270.3996911944615817
 51
335.007442356874094
  0
ARC
  5
135
100
AcDbEntity
  8
0
 62
256
370
-1
 48
1.0
  6
BYLAYER
100
AcDbCircle
 10
33.7064989727401638
 20
88.4582883831103146
 30
0.0
 40
2.3061118216306444
100
AcDbArc
 50
179.3503868952375058
 51
269.208161684710376
  0
ARC
  5
136
100
AcDbEntity
  8
0
 62
256
370
-1
 48
1.0
  6
BYLAYER
100
AcDbCircle
 10
33.7047822496222125
 20
88.5114697908444867
 30
0.0
 40
2.3044054747523948
100
AcDbArc
 50
90.749736930080644
 51
180.6722156327439848
  0
ARC
  5
137
100
AcDbEntity
  8
0
 62
256
370
-1
 48
1.0
  6
BYLAYER
100
AcDbCircle
 10
33.6643115396675725
 20
88.5577187779277182
 30
0.0
 40
2.257982774604756
100
AcDbArc
 50
20.358944073887713
 51
89.7381935964461945
  0
LINE
  5
138
100
AcDbEntity
  8
0
 62
256
370
-1
 48
1.0
  6
BYLAYER
100
AcDbLine
 10
35.7812415670100137
 20
89.343271748609979
 30
0.0
 11
47.9137101641600083
 21
89.5258342463099837
 31
0.0
  0
LINE
  5
139
100
AcDbEntity
  8
0
 62
256
370
-1
 48
1.0
  6
BYLAYER
100
AcDbLine
 10
47.9137101641600083
 20
89.5258342463099837
 30
0.0
 11
66.8565536755099998
 21
109.0528777502999844
 31
0.0
  0
LINE
  5
13A
100
AcDbEntity
  8
0
 62
256
370
-1
 48
1.0
  6
BYLAYER
100
AcDbLine
 10
66.8565536755099998
 20
109.0528777502999844
 30
0.0
 11
55.2773288213900145
 21
108.5170965070499847
 31
0.0
  0
LINE
  5
13B
100
AcDbEntity
  8
0
 62
256
370
-1
 48
1.0
  6
BYLAYER
100
AcDbLine
 10
55.2773288213900145
 20
108.5170965070499847
 30
0.0
 11
52.5619101055999991
 21
99.4929528707399982
 31
0.0
  0
ARC
  5
13C
100
AcDbEntity
  8
0
 62
256
370
-1
 48
1.0
  6
BYLAYER
100
AcDbCircle
 10
63.6645386931499928
 20
54.3745320536480392
 30
0.0
 40
46.4643977533473844
100
AcDbArc
 50
103.8245269574368166
 51
118.252733472103273
  0
LINE
  5
13D
100
AcDbEntity
  8
0
 62
256
370
-1
 48
1.0
  6
BYLAYER
100
AcDbLine
 10
41.6700727428200111
 20
95.3035404235199906
 30
0.0
 11
33.7032040931899957
 21
100.2557466111299789
 31
0.0
  0
LINE
  5
13E
100
AcDbEntity
  8
0
 62
256
370
-1
 48
1.0
  6
BYLAYER
100
AcDbLine
 10
33.7032040931899957
 20
100.2557466111299789
 30
0.0
 11
24.3734667107299998
 21
92.5730404579199728
 31
0.0
  0
LINE
  5
13F
100
AcDbEntity
  8
0
 62
256
370
-1
 48
1.0
  6
BYLAYER
100
AcDbLine
 10
24.3734667107299998
 20
92.5730404579199728
 30
0.0
 11
27.606410419999996
 21
83.719553069459991
 31
0.0
  0
ARC
  5
140
100
AcDbEntity
  8
0
 62
256
370
-1
 48
1.0
  6
BYLAYER
100
AcDbCircle
 10
63.8710932448932311
 20
54.0693971537677385
 30
0.0
 40
46.8429179942386114
100
AcDbArc
 50
140.7304240499721288
 51
150.2897359991992232
  0
LINE
  5
141
100
AcDbEntity
  8
0
 62
256
370
-1
 48
1.0
  6
BYLAYER
100
AcDbLine
 10
23.1860167256899956
 20
77.2854156505199796
 30
0.0
 11
13.7935730940199974
 21
77.2544594009099939
 31
0.0
  0
LINE
  5
142
100
AcDbEntity
  8
0
 62
256
370
-1
 48
1.0
  6
BYLAYER
100
AcDbLine
 10
13.7935730940199974
 20
77.2544594009099939
 30
0.0
 11
9.9629356422800015
 21
65.7903282953399895
 31
0.0
  0
LINE
  5
143
100
AcDbEntity
  8
0
 62
256
370
-1
 48
1.0
  6
BYLAYER
100
AcDbLine
 10
9.9629356422800015
 20
65.7903282953399895
 30
0.0
 11
17.4091042984699982
 21
59.9991283682999921
 31
0.0
  0
ARC
  5
144
100
AcDbEntity
  8
0
 62
256
370
-1
 48
1.0
  6
BYLAYER
100
AcDbCircle
 10
63.8602304708308139
 20
54.0119823859403283
 30
0.0
 40
46.8353823481208309
100
AcDbArc
 50
172.6555648899876587
 51
179.8933215280082436
  0
ARC
  5
145
100
AcDbEntity
  8
0
 62
256
370
-1
 48
1.0
  6
BYLAYER
100
AcDbCircle
 10
62.6841072104444379
 20
54.3380512826243347
 30
0.0
 40
45.6598027197136531
100
AcDbArc
 50
180.2997408899187235
 51
182.6772407715142492
  0
LINE
  5
146
100
AcDbEntity
  8
0
 62
256
370
-1
 48
1.0
  6
BYLAYER
100
AcDbLine
 10
17.0741418026899936
 20
52.2052972164899813
 30
0.0
 11
9.1271169028099948
 21
47.1951472796099836
 31
0.0
  0
LINE
  5
147
100
AcDbEntity
  8
0
 62
256
370
-1
 48
1.0
  6
BYLAYER
100
AcDbLine
 10
9.1271169028099948
 20
47.1951472796099836
 30
0.0
 11
11.9655668670499935
 21
35.4460599276299746
 31
0.0
  0
LINE
  5
148
100
AcDbEntity
  8
0
 62
256
370
-1
 48
1.0
  6
BYLAYER
100
AcDbLine
 10
11.9655668670499935
 20
35.4460599276299746
 30
0.0
 11
21.3397542489499941
 21
34.4872099397099845
 31
0.0
  0
ARC
  5
149
100
AcDbEntity
  8
0
 62
256
370
-1
 48
1.0
  6
BYLAYER
100
AcDbCircle
 10
63.7838479507136498
 20
54.1008643533000111
 30
0.0
 40
46.756780573728868
100
AcDbArc
 50
204.8019241944031421
 51
214.3800420417300643
  0
LINE
  5
14A
100
AcDbEntity
  8
0
 62
256
370
-1
 48
1.0
  6
BYLAYER
100
AcDbLine
 10
25.1949979503799995
 20
27.6982662752399804
 30
0.0
 11
21.1254417516499942
 21
19.2368913818399747
 31
0.0
  0
LINE
  5
14B
100
AcDbEntity
  8
0
 62
256
370
-1
 48
1.0
  6
BYLAYER
100
AcDbLine
 10
21.1254417516499942
 20
19.2368913818399747
 30
0.0
 11
29.7669978927799974
 21
10.7850414883199974
 31
0.0
  0
LINE
  5
14C
100
AcDbEntity
  8
0
 62
256
370
-1
 48
1.0
  6
BYLAYER
100
AcDbLine
 10
29.7669978927799974
 20
10.7850414883199974
 30
0.0
 11
38.2244040362300055
 21
14.9522289358199814
 31
0.0
  0
ARC
  5
14D
100
AcDbEntity
  8
0
 62
256
370
-1
 48
1.0
  6
BYLAYER
100
AcDbCircle
 10
63.876914178095106
 20
54.3541954500607432
 30
0.0
 40
47.0166591940329397
100
AcDbArc
 50
236.9340037308784872
 51
243.0720206237658658
  0
LINE
  5
14E
100
AcDbEntity
  8
0
 62
256
370
-1
 48
1.0
  6
BYLAYER
100
AcDbLine
 10
42.5844727312999964
 20
12.4352477175299967
 30
0.0
 11
46.3309726840999971
 21
16.1817476703299832
 31
0.0
  0
LINE
  5
14F
100
AcDbEntity
  8
0
 62
256
370
-1
 48
1.0
  6
BYLAYER
100
AcDbLine
 10
46.3309726840999971
 20
16.1817476703299832
 30
0.0
 11
30.9861978774199969
 21
31.0717037327399836
 31
0.0
  0
LINE
  5
150
100
AcDbEntity
  8
0
 62
256
370
-1
 48
1.0
  6
BYLAYER
100
AcDbLine
 10
76.2561410570900051
 20
64.4838158117999853
 30
0.0
 11
97.5429282889100193
 21
86.427828035339985
 31
0.0
  0
ARC
  5
151
100
AcDbEntity
  8
0
 62
256
370
-1
 48
1.0
  6
BYLAYER
100
AcDbCircle
 10
62.377769350510988
 20
52.8425076778857701
 30
0.0
 40
48.6267636870447362
100
AcDbArc
 50
43.6836141897296386
 51
46.5044608848130565
  0
LINE
  5
152
100
AcDbEntity
  8
0
 62
256
370
-1
 48
1.0
  6
BYLAYER
100
AcDbLine
 10
95.8474783102700059
 20
88.1177217640499748
 30
0.0
 11
97.9842532833500002
 21
97.0990029008999613
 31
0.0
  0
LINE
  5
153
100
AcDbEntity
  8
0
 62
256
370
-1
 48
1.0
  6
BYLAYER
100
AcDbLine
 10
97.9842532833500002
 20
97.0990029008999613
 30
0.0
 11
70.5332036291900124
 21
68.8018157573999787
 31
0.0
  0
ARC
  5
154
100
AcDbEntity
  8
0
 62
256
370
-1
 48
1.0
  6
BYLAYER
100
AcDbCircle
 10
63.9770556978202762
 20
54.1610113704903995
 30
0.0
 40
16.0417028021888299
100
AcDbArc
 50
40.0531574624179427
 51
65.8771787444520953
  0
LINE
  5
155
100
AcDbEntity
  8
0
 62
256
370
-1
 48
1.0
  6
BYLAYER
100
AcDbLine
 10
76.2561410570900193
 20
64.4838158117999853
 30
0.0
 11
76.2561410570900051
 21
64.4838158117999853
 31
0.0
  0
LINE
  5
156
100
AcDbEntity
  8
0
 62
256
370
-1
 48
1.0
  6
BYLAYER
100
AcDbLine
 10
105.5748844377199873
 20
82.8337280806199914
 30
0.0
 11
101.0640032445500083
 21
82.3185843371099821
 31
0.0
  0
ARC
  5
157
100
AcDbEntity
  8
0
 62
256
370
-1
 48
1.0
  6
BYLAYER
100
AcDbCircle
 10
64.8390751859364372
 20
54.8679451979927961
 30
0.0
 40
45.4508856019083609
100
AcDbArc
 50
37.1542347364486787
 51
41.9992225990466608
  0
LINE
  5
158
100
AcDbEntity
  8
0
 62
256
370
-1
 48
1.0
  6
BYLAYER
100
AcDbLine
 10
98.6160782753899952
 20
85.2800655497999855
 30
0.0
 11
77.2157847950000047
 21
63.2225470776899812
 31
0.0
  0
ARC
  5
159
100
AcDbEntity
  8
0
 62
256
370
-1
 48
1.0
  6
BYLAYER
100
AcDbCircle
 10
64.0840569216222491
 20
54.259120762716222
 30
0.0
 40
15.8992228817766765
100
AcDbArc
 50
7.6356172068788464
 51
34.3165786323762774
  0
LINE
  5
15A
100
AcDbEntity
  8
0
 62
256
370
-1
 48
1.0
  6
BYLAYER
100
AcDbLine
 10
79.8423035119100177
 20
56.3716909139999842
 30
0.0
 11
105.5748844377199873
 21
82.8337280806199914
 31
0.0
  0
LINE
  5
15B
100
AcDbEntity
  8
0
 62
256
370
-1
 48
1.0
  6
BYLAYER
100
AcDbLine
 10
68.9464973991800036
 20
69.4177657496399831
 30
0.0
 11
96.7412407990099865
 21
98.0649966387299941
 31
0.0
  0
LINE
  5
15C
100
AcDbEntity
  8
0
 62
256
370
-1
 48
1.0
  6
BYLAYER
100
AcDbLine
 10
96.7412407990099865
 20
98.0649966387299941
 30
0.0
 11
92.4899158525699931
 21
100.7280278551799881
 31
0.0
  0
LINE
  5
15D
100
AcDbEntity
  8
0
 62
256
370
-1
 48
1.0
  6
BYLAYER
100
AcDbLine
 10
92.4899158525699931
 20
100.7280278551799881
 30
0.0
 11
62.8227162263300016
 21
70.1480157404399733
 31
0.0
  0
ARC
  5
15E
100
AcDbEntity
  8
0
 62
256
370
-1
 48
1.0
  6
BYLAYER
100
AcDbCircle
 10
64.215574118288842
 20
54.2887561952325939
 30
0.0
 40
15.9203067316381475
100
AcDbArc
 50
90.7906894851004154
 51
95.0191897653511006
  0
ARC
  5
15F
100
AcDbEntity
  8
0
 62
256
370
-1
 48
1.0
  6
BYLAYER
100
AcDbCircle
 10
63.9878010527576038
 20
54.2459380427682589
 30
0.0
 40
15.9616109908437185
100
AcDbArc
 50
71.9007551701155307
 51
89.9710044445284325
  0
LINE
  5
160
100
AcDbEntity
  8
0
 62
256
370
-1
 48
1.0
  6
BYLAYER
100
AcDbLine
 10
68.9464973991799894
 20
69.4177657496399689
 30
0.0
 11
68.9464973991800036
 21
69.4177657496399831
 31
0.0
  0
LINE
  5
161
100
AcDbEntity
  8
0
 62
256
370
-1
 48
1.0
  6
BYLAYER
100
AcDbLine
 10
51.5149538687899877
 20
76.0328781662999944
 30
0.0
 11
51.5149538687900019
 21
76.0328781662999944
 31
0.0
  0
ENDSEC
  0
SECTION
  2
OBJECTS
  0
DICTIONARY
  5
C
100
AcDbDictionary
280
0
281
1
  3
ACAD_GROUP
350
D
  3
ACAD_LAYOUT
350
1A
  3
ACAD_MLINESTYLE
350
17
  3
ACAD_PLOTSETTINGS
350
19
  3
ACAD_PLOTSTYLENAME
350
E
  3
AcDbVariableDictionary
350
162
  3
QCAD_OBJECTS
350
163
  0
DICTIONARY
  5
D
100
AcDbDictionary
280
0
281
1
  0
ACDBDICTIONARYWDFLT
  5
E
100
AcDbDictionary
281
1
  3
Normal
350
F
100
AcDbDictionaryWithDefault
340
F
  0
ACDBPLACEHOLDER
  5
F
  0
DICTIONARY
  5
17
100
AcDbDictionary
280
0
281
1
  3
Standard
350
18
  0
MLINESTYLE
  5
18
100
AcDbMlineStyle
  2
STANDARD
 70
0
  3

 62
256
 51
90.0
 52
90.0
 71
2
 49
0.5
 62
256
  6
BYLAYER
 49
-0.5
 62
256
  6
BYLAYER
  0
DICTIONARY
  5
19
100
AcDbDictionary
280
0
281
1
  0
DICTIONARY
  5
1A
100
AcDbDictionary
281
1
  3
Layout1
350
1E
  3
Layout2
350
26
  3
Model
350
22
  0
LAYOUT
  5
1E
100
AcDbPlotSettings
  1

  2
none_device
  4

  6

 40
0.0
 41
0.0
 42
0.0
 43
0.0
 44
0.0
 45
0.0
 46
0.0
 47
0.0
 48
0.0
 49
0.0
140
0.0
141
0.0
142
1.0
143
1.0
 70
688
 72
0
 73
0
 74
5
  7

 75
16
147
1.0
148
0.0
149
0.0
100
AcDbLayout
  1
Layout1
 70
1
 71
1
 10
0.0
 20
0.0
 11
420.0
 21
297.0
 12
0.0
 22
0.0
 32
0.0
 14
100000000000000000000.0
 24
100000000000000000000.0
 34
100000000000000000000.0
 15
-100000000000000000000.0
 25
-100000000000000000000.0
 35
-100000000000000000000.0
146
0.0
 13
0.0
 23
0.0
 33
0.0
 16
1.0
 26
0.0
 36
0.0
 17
0.0
 27
1.0
 37
0.0
 76
0
330
1B
  0
LAYOUT
  5
22
100
AcDbPlotSettings
  1

  2
none_device
  4

  6

 40
0.0
 41
0.0
 42
0.0
 43
0.0
 44
0.0
 45
0.0
 46
0.0
 47
0.0
 48
0.0
 49
0.0
140
0.0
141
0.0
142
1.0
143
1.0
 70
1712
 72
0
 73
0
 74
0
  7

 75
0
147
1.0
148
0.0
149
0.0
100
AcDbLayout
  1
Model
 70
1
 71
0
 10
0.0
 20
0.0
 11
12.0
 21
9.0
 12
0.0
 22
0.0
 32
0.0
 14
0.0
 24
0.0
 34
0.0
 15
0.0
 25
0.0
 35
0.0
146
0.0
 13
0.0
 23
0.0
 33
0.0
 16
1.0
 26
0.0
 36
0.0
 17
0.0
 27
1.0
 37
0.0
 76
0
330
1F
  0
LAYOUT
  5
26
100
AcDbPlotSettings
  1

  2
none_device
  4

  6

 40
0.0
 41
0.0
 42
0.0
 43
0.0
 44
0.0
 45
0.0
 46
0.0
 47
0.0
 48
0.0
 49
0.0
140
0.0
141
0.0
142
1.0
143
1.0
 70
688
 72
0
 73
0
 74
5
  7

 75
16
147
1.0
148
0.0
149
0.0
100
AcDbLayout
  1
Layout2
 70
1
 71
2
 10
0.0
 20
0.0
 11
12.0
 21
9.0
 12
0.0
 22
0.0
 32
0.0
 14
0.0
 24
0.0
 34
0.0
 15
0.0
 25
0.0
 35
0.0
146
0.0
 13
0.0
 23
0.0
 33
0.0
 16
1.0
 26
0.0
 36
0.0
 17
0.0
 27
1.0
 37
0.0
 76
0
330
23
  0
DICTIONARY
  5
162
100
AcDbDictionary
281
1
  3
DIMASSOC
350
165
  3
HIDETEXT
350
164
  0
DICTIONARYVAR
  5
164
100
DictionaryVariables
280
0
  1
2
  0
DICTIONARYVAR
  5
165
100
DictionaryVariables
280
0
  1
1
  0
DICTIONARY
  5
163
100
AcDbDictionary
281
1
  3
ColorSettings/BackgroundColor
350
166
  3
ColorSettings/ColorMode
350
167
  3
Grid/DisplayGrid00
350
168
  3
Grid/DisplayGrid01
350
169
  3
Grid/DisplayGrid02
350
16A
  3
Grid/DisplayGrid03
350
16B
  3
Grid/GridSpacingX00
350
16C
  3
Grid/GridSpacingX01
350
16D
  3
Grid/GridSpacingX02
350
16E
  3
Grid/GridSpacingX03
350
16F
  3
Grid/GridSpacingY00
350
170
  3
Grid/GridSpacingY01
350
171
  3
Grid/GridSpacingY02
350
172
  3
Grid/GridSpacingY03
350
173
  3
Grid/IsometricGrid00
350
174
  3
Grid/IsometricGrid01
350
175
  3
Grid/IsometricGrid02
350
176
  3
Grid/IsometricGrid03
350
177
  3
Grid/IsometricProjection00
350
178
  3
Grid/IsometricProjection01
350
179
  3
Grid/IsometricProjection02
350
17A
  3
Grid/IsometricProjection03
350
17B
  3
Grid/MetaGridSpacingX00
350
17C
  3
Grid/MetaGridSpacingX01
350
17D
  3
Grid/MetaGridSpacingX02
350
17E
  3
Grid/MetaGridSpacingX03
350
17F
  3
Grid/MetaGridSpacingY00
350
180
  3
Grid/MetaGridSpacingY01
350
181
  3
Grid/MetaGridSpacingY02
350
182
  3
Grid/MetaGridSpacingY03
350
183
  3
MultiPageSettings/Columns
350
184
  3
MultiPageSettings/GlueMarginsBottom
350
185
  3
MultiPageSettings/GlueMarginsLeft
350
186
  3
MultiPageSettings/GlueMarginsRight
350
187
  3
MultiPageSettings/GlueMarginsTop
350
188
  3
MultiPageSettings/PrintCropMarks
350
189
  3
MultiPageSettings/Rows
350
18A
  3
PageSettings/OffsetX
350
18B
  3
PageSettings/OffsetY
350
18C
  3
PageSettings/PageOrientation
350
18D
  3
PageSettings/PaperHeight
350
18E
  3
PageSettings/PaperWidth
350
18F
  3
PageSettings/Scale
350
190
  3
PageSettings/ShowPaperBorders
350
191
  3
QCADVersion
350
192
  3
UnitSettings/PaperUnit
350
193
  3
ViewportCenter
350
194
  3
ViewportHeight
350
195
  3
ViewportWidth
350
196
  0
XRECORD
  5
166
330
163
100
AcDbXrecord
280
1
1000
White
  0
XRECORD
  5
167
330
163
100
AcDbXrecord
280
1
1000
FullColor
  0
XRECORD
  5
168
330
163
100
AcDbXrecord
280
1
290
1
  0
XRECORD
  5
169
330
163
100
AcDbXrecord
280
1
290
1
  0
XRECORD
  5
16A
330
163
100
AcDbXrecord
280
1
290
1
  0
XRECORD
  5
16B
330
163
100
AcDbXrecord
280
1
290
1
  0
XRECORD
  5
16C
330
163
100
AcDbXrecord
280
1
1000
auto
  0
XRECORD
  5
16D
330
163
100
AcDbXrecord
280
1
1000
auto
  0
XRECORD
  5
16E
330
163
100
AcDbXrecord
280
1
1000
auto
  0
XRECORD
  5
16F
330
163
100
AcDbXrecord
280
1
1000
auto
  0
XRECORD
  5
170
330
163
100
AcDbXrecord
280
1
1000
auto
  0
XRECORD
  5
171
330
163
100
AcDbXrecord
280
1
1000
auto
  0
XRECORD
  5
172
330
163
100
AcDbXrecord
280
1
1000
auto
  0
XRECORD
  5
173
330
163
100
AcDbXrecord
280
1
1000
auto
  0
XRECORD
  5
174
330
163
100
AcDbXrecord
280
1
290
0
  0
XRECORD
  5
175
330
163
100
AcDbXrecord
280
1
290
0
  0
XRECORD
  5
176
330
163
100
AcDbXrecord
280
1
290
0
  0
XRECORD
  5
177
330
163
100
AcDbXrecord
280
1
290
0
  0
XRECORD
  5
178
330
163
100
AcDbXrecord
280
1
 90
0
  0
XRECORD
  5
179
330
163
100
AcDbXrecord
280
1
 90
0
  0
XRECORD
  5
17A
330
163
100
AcDbXrecord
280
1
 90
0
  0
XRECORD
  5
17B
330
163
100
AcDbXrecord
280
1
 90
0
  0
XRECORD
  5
17C
330
163
100
AcDbXrecord
280
1
1000
auto
  0
XRECORD
  5
17D
330
163
100
AcDbXrecord
280
1
1000
auto
  0
XRECORD
  5
17E
330
163
100
AcDbXrecord
280
1
1000
auto
  0
XRECORD
  5
17F
330
163
100
AcDbXrecord
280
1
1000
auto
  0
XRECORD
  5
180
330
163
100
AcDbXrecord
280
1
1000
auto
  0
XRECORD
  5
181
330
163
100
AcDbXrecord
280
1
1000
auto
  0
XRECORD
  5
182
330
163
100
AcDbXrecord
280
1
1000
auto
  0
XRECORD
  5
183
330
163
100
AcDbXrecord
280
1
1000
auto
  0
XRECORD
  5
184
330
163
100
AcDbXrecord
280
1
 90
1
  0
XRECORD
  5
185
330
163
100
AcDbXrecord
280
1
 40
10.0
  0
XRECORD
  5
186
330
163
100
AcDbXrecord
280
1
 40
10.0
  0
XRECORD
  5
187
330
163
100
AcDbXrecord
280
1
 40
10.0
  0
XRECORD
  5
188
330
163
100
AcDbXrecord
280
1
 40
10.0
  0
XRECORD
  5
189
330
163
100
AcDbXrecord
280
1
290
0
  0
XRECORD
  5
18A
330
163
100
AcDbXrecord
280
1
 90
1
  0
XRECORD
  5
18B
330
163
100
AcDbXrecord
280
1
 40
0.0
  0
XRECORD
  5
18C
330
163
100
AcDbXrecord
280
1
 40
0.0
  0
XRECORD
  5
18D
330
163
100
AcDbXrecord
280
1
1000
Portrait
  0
XRECORD
  5
18E
330
163
100
AcDbXrecord
280
1
 40
297.0
  0
XRECORD
  5
18F
330
163
100
AcDbXrecord
280
1
 40
210.0
  0
XRECORD
  5
190
330
163
100
AcDbXrecord
280
1
1000
1:1
  0
XRECORD
  5
191
330
163
100
AcDbXrecord
280
1
290
1
  0
XRECORD
  5
192
330
163
100
AcDbXrecord
280
1
1000
3.16.0
  0
XRECORD
  5
193
330
163
100
AcDbXrecord
280
1
 90
4
  0
XRECORD
  5
195
330
163
100
AcDbXrecord
280
1
 40
35.9316680720639852
  0
XRECORD
  5
196
330
163
100
AcDbXrecord
280
1
 40
78.8541232656315856
  0
ENDSEC
  0
EOF
