solid OpenSCAD_Model
  facet normal 0.97872 0.0615763 0.195744
    outer loop
      vertex 4.96057 0.626666 0
      vertex 4 0 5
      vertex 5 0 0
    endloop
  endfacet
  facet normal 0.932658 -0.30304 0.195744
    outer loop
      vertex 4.84292 -1.24345 0
      vertex 3.71911 -1.4725 5
      vertex 4.64888 -1.84062 0
    endloop
  endfacet
  facet normal -0.755608 0.625093 0.195744
    outer loop
      vertex -3.64484 3.42274 0
      vertex -4.04508 2.93893 0
      vertex -3.23607 2.35114 5
    endloop
  endfacet
  facet normal -0.472434 0.859354 0.195744
    outer loop
      vertex -2.1289 4.52413 0
      vertex -2.14331 3.37731 5
      vertex -1.70312 3.61931 5
    endloop
  endfacet
  facet normal -0.97872 0.0615763 0.195744
    outer loop
      vertex -4.96057 0.626666 0
      vertex -5 0 0
      vertex -4 0 5
    endloop
  endfacet
  facet normal -0.243879 0.949846 0.195744
    outer loop
      vertex -0.936906 4.91144 0
      vertex -1.54508 4.75528 0
      vertex -1.23607 3.80423 5
    endloop
  endfacet
  facet normal 0.755608 0.625093 0.195744
    outer loop
      vertex 3.64484 3.42274 0
      vertex 3.23607 2.35114 5
      vertex 4.04508 2.93893 0
    endloop
  endfacet
  facet normal 0.755608 -0.625093 0.195744
    outer loop
      vertex 4.04508 -2.93893 0
      vertex 3.23607 -2.35114 5
      vertex 3.64484 -3.42274 0
    endloop
  endfacet
  facet normal 0.755607 -0.625093 0.195744
    outer loop
      vertex 3.23607 -2.35114 5
      vertex 2.91587 -2.73819 5
      vertex 3.64484 -3.42274 0
    endloop
  endfacet
  facet normal -0.755607 0.625093 0.195744
    outer loop
      vertex -2.91587 2.73819 5
      vertex -3.64484 3.42274 0
      vertex -3.23607 2.35114 5
    endloop
  endfacet
  facet normal -0.671304 0.714867 0.195744
    outer loop
      vertex -3.18712 3.85257 0
      vertex -3.64484 3.42274 0
      vertex -2.91587 2.73819 5
    endloop
  endfacet
  facet normal -0.887323 0.417543 0.195744
    outer loop
      vertex -4.38153 2.40877 0
      vertex -4.64888 1.84062 0
      vertex -3.71911 1.4725 5
    endloop
  endfacet
  facet normal -0.671304 -0.714867 0.195744
    outer loop
      vertex -2.91587 -2.73819 5
      vertex -3.64484 -3.42274 0
      vertex -3.18712 -3.85257 0
    endloop
  endfacet
  facet normal 0.243879 0.949846 0.195744
    outer loop
      vertex 1.54508 4.75528 0
      vertex 0.936906 4.91144 0
      vertex 1.23607 3.80423 5
    endloop
  endfacet
  facet normal 0.361004 0.91179 0.195744
    outer loop
      vertex 1.54508 4.75528 0
      vertex 1.23607 3.80423 5
      vertex 2.1289 4.52413 0
    endloop
  endfacet
  facet normal -0.361004 0.91179 0.195744
    outer loop
      vertex -1.54508 4.75528 0
      vertex -2.1289 4.52413 0
      vertex -1.23607 3.80423 5
    endloop
  endfacet
  facet normal 0.243879 0.949846 0.195744
    outer loop
      vertex 0.936906 4.91144 0
      vertex 0.749525 3.92915 5
      vertex 1.23607 3.80423 5
    endloop
  endfacet
  facet normal 0.887323 0.417543 0.195744
    outer loop
      vertex 4.38153 2.40877 0
      vertex 3.71911 1.4725 5
      vertex 4.64888 1.84062 0
    endloop
  endfacet
  facet normal 0.576415 0.793366 0.195744
    outer loop
      vertex 3.18712 3.85257 0
      vertex 2.14331 3.37731 5
      vertex 2.5497 3.08205 5
    endloop
  endfacet
  facet normal 0.243879 -0.949846 0.195744
    outer loop
      vertex 1.23607 -3.80423 5
      vertex 0.936906 -4.91144 0
      vertex 1.54508 -4.75528 0
    endloop
  endfacet
  facet normal 0.932658 -0.303039 0.195744
    outer loop
      vertex 3.87433 -0.994759 5
      vertex 3.71911 -1.4725 5
      vertex 4.84292 -1.24345 0
    endloop
  endfacet
  facet normal 0.97872 -0.0615763 0.195744
    outer loop
      vertex 5 0 0
      vertex 4 0 5
      vertex 4.96057 -0.626666 0
    endloop
  endfacet
  facet normal -0.932658 0.30304 0.195744
    outer loop
      vertex -4.64888 1.84062 0
      vertex -4.84292 1.24345 0
      vertex -3.71911 1.4725 5
    endloop
  endfacet
  facet normal -0.827995 0.52546 0.195744
    outer loop
      vertex -4.04508 2.93893 0
      vertex -4.38153 2.40877 0
      vertex -3.50523 1.92701 5
    endloop
  endfacet
  facet normal -0.887323 0.417543 0.195744
    outer loop
      vertex -3.50523 1.92701 5
      vertex -4.38153 2.40877 0
      vertex -3.71911 1.4725 5
    endloop
  endfacet
  facet normal -0.671304 -0.714868 0.195744
    outer loop
      vertex -2.91587 -2.73819 5
      vertex -3.18712 -3.85257 0
      vertex -2.5497 -3.08205 5
    endloop
  endfacet
  facet normal -0.472434 -0.859354 0.195744
    outer loop
      vertex -2.14331 -3.37731 5
      vertex -2.67913 -4.22164 0
      vertex -2.1289 -4.52413 0
    endloop
  endfacet
  facet normal -0.827995 -0.52546 0.195744
    outer loop
      vertex -3.50523 -1.92701 5
      vertex -4.04508 -2.93893 0
      vertex -3.23607 -2.35114 5
    endloop
  endfacet
  facet normal -0.122908 0.972922 0.195744
    outer loop
      vertex -0.313952 4.99013 0
      vertex -0.936906 4.91144 0
      vertex -0.749525 3.92915 5
    endloop
  endfacet
  facet normal -0.243879 0.949846 0.195744
    outer loop
      vertex -0.936906 4.91144 0
      vertex -1.23607 3.80423 5
      vertex -0.749525 3.92915 5
    endloop
  endfacet
  facet normal 0.122908 0.972922 0.195744
    outer loop
      vertex 0.313952 4.99013 0
      vertex 0.251162 3.99211 5
      vertex 0.749525 3.92915 5
    endloop
  endfacet
  facet normal 0.122908 0.972922 0.195744
    outer loop
      vertex 0.936906 4.91144 0
      vertex 0.313952 4.99013 0
      vertex 0.749525 3.92915 5
    endloop
  endfacet
  facet normal 0.963285 0.183756 0.195744
    outer loop
      vertex 4.84292 1.24345 0
      vertex 3.87433 0.994759 5
      vertex 4.96057 0.626666 0
    endloop
  endfacet
  facet normal 0.932658 0.303039 0.195744
    outer loop
      vertex 4.84292 1.24345 0
      vertex 3.71911 1.4725 5
      vertex 3.87433 0.994759 5
    endloop
  endfacet
  facet normal 0.887323 0.417543 0.195744
    outer loop
      vertex 4.38153 2.40877 0
      vertex 3.50523 1.92701 5
      vertex 3.71911 1.4725 5
    endloop
  endfacet
  facet normal 0.827995 0.52546 0.195744
    outer loop
      vertex 4.04508 2.93893 0
      vertex 3.23607 2.35114 5
      vertex 3.50523 1.92701 5
    endloop
  endfacet
  facet normal 0.827995 0.52546 0.195744
    outer loop
      vertex 4.04508 2.93893 0
      vertex 3.50523 1.92701 5
      vertex 4.38153 2.40877 0
    endloop
  endfacet
  facet normal 0.472434 0.859354 0.195744
    outer loop
      vertex 2.67913 4.22164 0
      vertex 2.1289 4.52413 0
      vertex 2.14331 3.37731 5
    endloop
  endfacet
  facet normal 0.576414 0.793367 0.195744
    outer loop
      vertex 2.67913 4.22164 0
      vertex 2.14331 3.37731 5
      vertex 3.18712 3.85257 0
    endloop
  endfacet
  facet normal 0.472434 0.859354 0.195744
    outer loop
      vertex 2.1289 4.52413 0
      vertex 1.70312 3.61931 5
      vertex 2.14331 3.37731 5
    endloop
  endfacet
  facet normal 0.361004 0.911789 0.195744
    outer loop
      vertex 2.1289 4.52413 0
      vertex 1.23607 3.80423 5
      vertex 1.70312 3.61931 5
    endloop
  endfacet
  facet normal 0.755607 0.625093 0.195744
    outer loop
      vertex 3.64484 3.42274 0
      vertex 2.91587 2.73819 5
      vertex 3.23607 2.35114 5
    endloop
  endfacet
  facet normal 0.671304 0.714867 0.195744
    outer loop
      vertex 3.18712 3.85257 0
      vertex 2.91587 2.73819 5
      vertex 3.64484 3.42274 0
    endloop
  endfacet
  facet normal -0.122908 -0.972922 0.195744
    outer loop
      vertex -0.251162 -3.99211 5
      vertex -0.749525 -3.92915 5
      vertex -0.313952 -4.99013 0
    endloop
  endfacet
  facet normal -0.361004 -0.91179 0.195744
    outer loop
      vertex -1.23607 -3.80423 5
      vertex -2.1289 -4.52413 0
      vertex -1.54508 -4.75528 0
    endloop
  endfacet
  facet normal 0.361004 -0.911789 0.195744
    outer loop
      vertex 1.70312 -3.61931 5
      vertex 1.23607 -3.80423 5
      vertex 2.1289 -4.52413 0
    endloop
  endfacet
  facet normal 0.361004 -0.91179 0.195744
    outer loop
      vertex 2.1289 -4.52413 0
      vertex 1.23607 -3.80423 5
      vertex 1.54508 -4.75528 0
    endloop
  endfacet
  facet normal 0.472434 -0.859354 0.195744
    outer loop
      vertex 2.14331 -3.37731 5
      vertex 2.1289 -4.52413 0
      vertex 2.67913 -4.22164 0
    endloop
  endfacet
  facet normal 0.671304 -0.714867 0.195744
    outer loop
      vertex 3.64484 -3.42274 0
      vertex 2.91587 -2.73819 5
      vertex 3.18712 -3.85257 0
    endloop
  endfacet
  facet normal 0.887323 -0.417543 0.195744
    outer loop
      vertex 3.71911 -1.4725 5
      vertex 3.50523 -1.92701 5
      vertex 4.38153 -2.40877 0
    endloop
  endfacet
  facet normal 0.963285 -0.183756 0.195744
    outer loop
      vertex 4.96057 -0.626666 0
      vertex 3.87433 -0.994759 5
      vertex 4.84292 -1.24345 0
    endloop
  endfacet
  facet normal -0.361004 0.911789 0.195744
    outer loop
      vertex -1.23607 3.80423 5
      vertex -2.1289 4.52413 0
      vertex -1.70312 3.61931 5
    endloop
  endfacet
  facet normal -0.576414 0.793367 0.195744
    outer loop
      vertex -2.67913 4.22164 0
      vertex -3.18712 3.85257 0
      vertex -2.14331 3.37731 5
    endloop
  endfacet
  facet normal -0.472434 0.859354 0.195744
    outer loop
      vertex -2.1289 4.52413 0
      vertex -2.67913 4.22164 0
      vertex -2.14331 3.37731 5
    endloop
  endfacet
  facet normal -0.576415 0.793366 0.195744
    outer loop
      vertex -2.14331 3.37731 5
      vertex -3.18712 3.85257 0
      vertex -2.5497 3.08205 5
    endloop
  endfacet
  facet normal -0.671304 0.714868 0.195744
    outer loop
      vertex -2.5497 3.08205 5
      vertex -3.18712 3.85257 0
      vertex -2.91587 2.73819 5
    endloop
  endfacet
  facet normal -0.932658 0.303039 0.195744
    outer loop
      vertex -3.71911 1.4725 5
      vertex -4.84292 1.24345 0
      vertex -3.87433 0.994759 5
    endloop
  endfacet
  facet normal -0.963285 0.183756 0.195744
    outer loop
      vertex -4.84292 1.24345 0
      vertex -4.96057 0.626666 0
      vertex -3.87433 0.994759 5
    endloop
  endfacet
  facet normal 0 0 1
    outer loop
      vertex 3.5 0 5
      vertex 4 0 5
      vertex 3.96846 0.501332 5
    endloop
  endfacet
  facet normal 0 0 1
    outer loop
      vertex 3.4724 0.438665 5
      vertex 3.96846 0.501332 5
      vertex 3.87433 0.994759 5
    endloop
  endfacet
  facet normal 0 0 1
    outer loop
      vertex 4 0 5
      vertex 3.5 0 5
      vertex 3.96846 -0.501332 5
    endloop
  endfacet
  facet normal 0 0 1
    outer loop
      vertex 3.39004 0.870414 5
      vertex 3.87433 0.994759 5
      vertex 3.71911 1.4725 5
    endloop
  endfacet
  facet normal -0 0 1
    outer loop
      vertex 3.4724 -0.438665 5
      vertex 3.96846 -0.501332 5
      vertex 3.5 0 5
    endloop
  endfacet
  facet normal 0 0 1
    outer loop
      vertex 3.25422 1.28843 5
      vertex 3.71911 1.4725 5
      vertex 3.50523 1.92701 5
    endloop
  endfacet
  facet normal 0 0 1
    outer loop
      vertex 3.96846 -0.501332 5
      vertex 3.4724 -0.438665 5
      vertex 3.87433 -0.994759 5
    endloop
  endfacet
  facet normal -0 0 1
    outer loop
      vertex 3.39004 -0.870414 5
      vertex 3.87433 -0.994759 5
      vertex 3.4724 -0.438665 5
    endloop
  endfacet
  facet normal 0 0 1
    outer loop
      vertex 3.96846 0.501332 5
      vertex 3.4724 0.438665 5
      vertex 3.5 0 5
    endloop
  endfacet
  facet normal 0 0 1
    outer loop
      vertex 3.87433 0.994759 5
      vertex 3.39004 0.870414 5
      vertex 3.4724 0.438665 5
    endloop
  endfacet
  facet normal 0 0 1
    outer loop
      vertex 3.71911 1.4725 5
      vertex 3.25422 1.28843 5
      vertex 3.39004 0.870414 5
    endloop
  endfacet
  facet normal 0 0 1
    outer loop
      vertex 3.06707 1.68614 5
      vertex 3.50523 1.92701 5
      vertex 3.23607 2.35114 5
    endloop
  endfacet
  facet normal 0 0 1
    outer loop
      vertex 3.50523 1.92701 5
      vertex 3.06707 1.68614 5
      vertex 3.25422 1.28843 5
    endloop
  endfacet
  facet normal 0 0 1
    outer loop
      vertex 2.83156 2.05725 5
      vertex 3.23607 2.35114 5
      vertex 2.91587 2.73819 5
    endloop
  endfacet
  facet normal 0 0 1
    outer loop
      vertex 3.23607 2.35114 5
      vertex 2.83156 2.05725 5
      vertex 3.06707 1.68614 5
    endloop
  endfacet
  facet normal 0 0 1
    outer loop
      vertex 2.91587 2.73819 5
      vertex 2.55139 2.39591 5
      vertex 2.83156 2.05725 5
    endloop
  endfacet
  facet normal 0 0 1
    outer loop
      vertex 2.5497 3.08205 5
      vertex 2.55139 2.39591 5
      vertex 2.91587 2.73819 5
    endloop
  endfacet
  facet normal 0 0 1
    outer loop
      vertex 2.5497 3.08205 5
      vertex 2.23098 2.6968 5
      vertex 2.55139 2.39591 5
    endloop
  endfacet
  facet normal 0 0 1
    outer loop
      vertex 2.14331 3.37731 5
      vertex 2.23098 2.6968 5
      vertex 2.5497 3.08205 5
    endloop
  endfacet
  facet normal 0 0 1
    outer loop
      vertex 2.14331 3.37731 5
      vertex 1.87539 2.95515 5
      vertex 2.23098 2.6968 5
    endloop
  endfacet
  facet normal 0 0 1
    outer loop
      vertex 1.70312 3.61931 5
      vertex 1.87539 2.95515 5
      vertex 2.14331 3.37731 5
    endloop
  endfacet
  facet normal 0 0 1
    outer loop
      vertex 1.70312 3.61931 5
      vertex 1.49023 3.16689 5
      vertex 1.87539 2.95515 5
    endloop
  endfacet
  facet normal 0 0 1
    outer loop
      vertex 1.23607 3.80423 5
      vertex 1.49023 3.16689 5
      vertex 1.70312 3.61931 5
    endloop
  endfacet
  facet normal 0 0 1
    outer loop
      vertex 1.23607 3.80423 5
      vertex 1.08156 3.3287 5
      vertex 1.49023 3.16689 5
    endloop
  endfacet
  facet normal 0 0 1
    outer loop
      vertex 0.749525 3.92915 5
      vertex 1.08156 3.3287 5
      vertex 1.23607 3.80423 5
    endloop
  endfacet
  facet normal 0 0 1
    outer loop
      vertex 0.749525 3.92915 5
      vertex 0.655834 3.438 5
      vertex 1.08156 3.3287 5
    endloop
  endfacet
  facet normal 0 0 1
    outer loop
      vertex 0.251162 3.99211 5
      vertex 0.655834 3.438 5
      vertex 0.749525 3.92915 5
    endloop
  endfacet
  facet normal 0 0 1
    outer loop
      vertex 0.251162 3.99211 5
      vertex 0.219767 3.49309 5
      vertex 0.655834 3.438 5
    endloop
  endfacet
  facet normal 0 0 1
    outer loop
      vertex 0.251162 3.99211 5
      vertex -0.219767 3.49309 5
      vertex 0.219767 3.49309 5
    endloop
  endfacet
  facet normal -0 0 1
    outer loop
      vertex -0.251162 3.99211 5
      vertex -0.219767 3.49309 5
      vertex 0.251162 3.99211 5
    endloop
  endfacet
  facet normal 0 0 1
    outer loop
      vertex -0.251162 3.99211 5
      vertex -0.655834 3.438 5
      vertex -0.219767 3.49309 5
    endloop
  endfacet
  facet normal -0 0 1
    outer loop
      vertex -0.749525 3.92915 5
      vertex -0.655834 3.438 5
      vertex -0.251162 3.99211 5
    endloop
  endfacet
  facet normal 0 0 1
    outer loop
      vertex -0.749525 3.92915 5
      vertex -1.08156 3.3287 5
      vertex -0.655834 3.438 5
    endloop
  endfacet
  facet normal -0 0 1
    outer loop
      vertex -1.23607 3.80423 5
      vertex -1.08156 3.3287 5
      vertex -0.749525 3.92915 5
    endloop
  endfacet
  facet normal 0 0 1
    outer loop
      vertex -1.23607 3.80423 5
      vertex -1.49023 3.16689 5
      vertex -1.08156 3.3287 5
    endloop
  endfacet
  facet normal -0 0 1
    outer loop
      vertex -1.70312 3.61931 5
      vertex -1.49023 3.16689 5
      vertex -1.23607 3.80423 5
    endloop
  endfacet
  facet normal 0 0 1
    outer loop
      vertex -1.70312 3.61931 5
      vertex -1.87539 2.95515 5
      vertex -1.49023 3.16689 5
    endloop
  endfacet
  facet normal -0 0 1
    outer loop
      vertex -2.14331 3.37731 5
      vertex -1.87539 2.95515 5
      vertex -1.70312 3.61931 5
    endloop
  endfacet
  facet normal 0 0 1
    outer loop
      vertex -2.14331 3.37731 5
      vertex -2.23098 2.6968 5
      vertex -1.87539 2.95515 5
    endloop
  endfacet
  facet normal -0 0 1
    outer loop
      vertex -2.5497 3.08205 5
      vertex -2.23098 2.6968 5
      vertex -2.14331 3.37731 5
    endloop
  endfacet
  facet normal 0 0 1
    outer loop
      vertex -2.5497 3.08205 5
      vertex -2.55139 2.39591 5
      vertex -2.23098 2.6968 5
    endloop
  endfacet
  facet normal -0 0 1
    outer loop
      vertex -2.91587 2.73819 5
      vertex -2.55139 2.39591 5
      vertex -2.5497 3.08205 5
    endloop
  endfacet
  facet normal 0 0 1
    outer loop
      vertex -2.55139 2.39591 5
      vertex -2.91587 2.73819 5
      vertex -2.83156 2.05725 5
    endloop
  endfacet
  facet normal -0 0 1
    outer loop
      vertex -3.23607 2.35114 5
      vertex -2.83156 2.05725 5
      vertex -2.91587 2.73819 5
    endloop
  endfacet
  facet normal 0 0 1
    outer loop
      vertex -2.83156 2.05725 5
      vertex -3.23607 2.35114 5
      vertex -3.06707 1.68614 5
    endloop
  endfacet
  facet normal -0 0 1
    outer loop
      vertex -3.50523 1.92701 5
      vertex -3.06707 1.68614 5
      vertex -3.23607 2.35114 5
    endloop
  endfacet
  facet normal 0 0 1
    outer loop
      vertex -3.06707 1.68614 5
      vertex -3.50523 1.92701 5
      vertex -3.25422 1.28843 5
    endloop
  endfacet
  facet normal -0 0 1
    outer loop
      vertex -3.71911 1.4725 5
      vertex -3.25422 1.28843 5
      vertex -3.50523 1.92701 5
    endloop
  endfacet
  facet normal -0 0 1
    outer loop
      vertex -3.87433 0.994759 5
      vertex -3.39004 0.870414 5
      vertex -3.71911 1.4725 5
    endloop
  endfacet
  facet normal 0 0 1
    outer loop
      vertex -3.25422 1.28843 5
      vertex -3.71911 1.4725 5
      vertex -3.39004 0.870414 5
    endloop
  endfacet
  facet normal 0 0 1
    outer loop
      vertex 3.87433 -0.994759 5
      vertex 3.39004 -0.870414 5
      vertex 3.71911 -1.4725 5
    endloop
  endfacet
  facet normal -0 0 1
    outer loop
      vertex 3.25422 -1.28843 5
      vertex 3.71911 -1.4725 5
      vertex 3.39004 -0.870414 5
    endloop
  endfacet
  facet normal 0 0 1
    outer loop
      vertex 3.71911 -1.4725 5
      vertex 3.25422 -1.28843 5
      vertex 3.50523 -1.92701 5
    endloop
  endfacet
  facet normal -0 0 1
    outer loop
      vertex 3.06707 -1.68614 5
      vertex 3.50523 -1.92701 5
      vertex 3.25422 -1.28843 5
    endloop
  endfacet
  facet normal 0 0 1
    outer loop
      vertex 3.50523 -1.92701 5
      vertex 3.06707 -1.68614 5
      vertex 3.23607 -2.35114 5
    endloop
  endfacet
  facet normal -0 0 1
    outer loop
      vertex 2.83156 -2.05725 5
      vertex 3.23607 -2.35114 5
      vertex 3.06707 -1.68614 5
    endloop
  endfacet
  facet normal 0 0 1
    outer loop
      vertex 3.23607 -2.35114 5
      vertex 2.83156 -2.05725 5
      vertex 2.91587 -2.73819 5
    endloop
  endfacet
  facet normal -0 0 1
    outer loop
      vertex 2.55139 -2.39591 5
      vertex 2.91587 -2.73819 5
      vertex 2.83156 -2.05725 5
    endloop
  endfacet
  facet normal 0 0 1
    outer loop
      vertex 2.55139 -2.39591 5
      vertex 2.5497 -3.08205 5
      vertex 2.91587 -2.73819 5
    endloop
  endfacet
  facet normal -0 0 1
    outer loop
      vertex 2.23098 -2.6968 5
      vertex 2.5497 -3.08205 5
      vertex 2.55139 -2.39591 5
    endloop
  endfacet
  facet normal 0 0 1
    outer loop
      vertex 2.23098 -2.6968 5
      vertex 2.14331 -3.37731 5
      vertex 2.5497 -3.08205 5
    endloop
  endfacet
  facet normal -0 0 1
    outer loop
      vertex 1.87539 -2.95515 5
      vertex 2.14331 -3.37731 5
      vertex 2.23098 -2.6968 5
    endloop
  endfacet
  facet normal 0 0 1
    outer loop
      vertex 1.87539 -2.95515 5
      vertex 1.70312 -3.61931 5
      vertex 2.14331 -3.37731 5
    endloop
  endfacet
  facet normal -0 0 1
    outer loop
      vertex 1.49023 -3.16689 5
      vertex 1.70312 -3.61931 5
      vertex 1.87539 -2.95515 5
    endloop
  endfacet
  facet normal 0 0 1
    outer loop
      vertex 1.49023 -3.16689 5
      vertex 1.23607 -3.80423 5
      vertex 1.70312 -3.61931 5
    endloop
  endfacet
  facet normal -0 0 1
    outer loop
      vertex 1.08156 -3.3287 5
      vertex 1.23607 -3.80423 5
      vertex 1.49023 -3.16689 5
    endloop
  endfacet
  facet normal 0 0 1
    outer loop
      vertex 1.08156 -3.3287 5
      vertex 0.749525 -3.92915 5
      vertex 1.23607 -3.80423 5
    endloop
  endfacet
  facet normal -0 0 1
    outer loop
      vertex 0.655834 -3.438 5
      vertex 0.749525 -3.92915 5
      vertex 1.08156 -3.3287 5
    endloop
  endfacet
  facet normal 0 0 1
    outer loop
      vertex 0.655834 -3.438 5
      vertex 0.251162 -3.99211 5
      vertex 0.749525 -3.92915 5
    endloop
  endfacet
  facet normal -0 0 1
    outer loop
      vertex 0.219767 -3.49309 5
      vertex 0.251162 -3.99211 5
      vertex 0.655834 -3.438 5
    endloop
  endfacet
  facet normal -0 0 1
    outer loop
      vertex -0.219767 -3.49309 5
      vertex 0.251162 -3.99211 5
      vertex 0.219767 -3.49309 5
    endloop
  endfacet
  facet normal 0 0 1
    outer loop
      vertex -0.219767 -3.49309 5
      vertex -0.251162 -3.99211 5
      vertex 0.251162 -3.99211 5
    endloop
  endfacet
  facet normal 0 0 1
    outer loop
      vertex -0.655834 -3.438 5
      vertex -0.251162 -3.99211 5
      vertex -0.219767 -3.49309 5
    endloop
  endfacet
  facet normal 0 0 1
    outer loop
      vertex -0.655834 -3.438 5
      vertex -0.749525 -3.92915 5
      vertex -0.251162 -3.99211 5
    endloop
  endfacet
  facet normal 0 0 1
    outer loop
      vertex -1.08156 -3.3287 5
      vertex -0.749525 -3.92915 5
      vertex -0.655834 -3.438 5
    endloop
  endfacet
  facet normal 0 0 1
    outer loop
      vertex -1.08156 -3.3287 5
      vertex -1.23607 -3.80423 5
      vertex -0.749525 -3.92915 5
    endloop
  endfacet
  facet normal 0 0 1
    outer loop
      vertex -1.49023 -3.16689 5
      vertex -1.23607 -3.80423 5
      vertex -1.08156 -3.3287 5
    endloop
  endfacet
  facet normal 0 0 1
    outer loop
      vertex -1.49023 -3.16689 5
      vertex -1.70312 -3.61931 5
      vertex -1.23607 -3.80423 5
    endloop
  endfacet
  facet normal 0 0 1
    outer loop
      vertex -1.87539 -2.95515 5
      vertex -1.70312 -3.61931 5
      vertex -1.49023 -3.16689 5
    endloop
  endfacet
  facet normal 0 0 1
    outer loop
      vertex -1.87539 -2.95515 5
      vertex -2.14331 -3.37731 5
      vertex -1.70312 -3.61931 5
    endloop
  endfacet
  facet normal 0 0 1
    outer loop
      vertex -2.23098 -2.6968 5
      vertex -2.14331 -3.37731 5
      vertex -1.87539 -2.95515 5
    endloop
  endfacet
  facet normal 0 0 1
    outer loop
      vertex -2.23098 -2.6968 5
      vertex -2.5497 -3.08205 5
      vertex -2.14331 -3.37731 5
    endloop
  endfacet
  facet normal 0 0 1
    outer loop
      vertex -2.55139 -2.39591 5
      vertex -2.5497 -3.08205 5
      vertex -2.23098 -2.6968 5
    endloop
  endfacet
  facet normal 0 0 1
    outer loop
      vertex -2.91587 -2.73819 5
      vertex -2.55139 -2.39591 5
      vertex -2.83156 -2.05725 5
    endloop
  endfacet
  facet normal 0 0 1
    outer loop
      vertex -2.55139 -2.39591 5
      vertex -2.91587 -2.73819 5
      vertex -2.5497 -3.08205 5
    endloop
  endfacet
  facet normal 0 0 1
    outer loop
      vertex -3.23607 -2.35114 5
      vertex -2.83156 -2.05725 5
      vertex -3.06707 -1.68614 5
    endloop
  endfacet
  facet normal 0 0 1
    outer loop
      vertex -2.83156 -2.05725 5
      vertex -3.23607 -2.35114 5
      vertex -2.91587 -2.73819 5
    endloop
  endfacet
  facet normal 0 0 1
    outer loop
      vertex -3.50523 -1.92701 5
      vertex -3.06707 -1.68614 5
      vertex -3.25422 -1.28843 5
    endloop
  endfacet
  facet normal 0 0 1
    outer loop
      vertex -3.71911 -1.4725 5
      vertex -3.25422 -1.28843 5
      vertex -3.39004 -0.870414 5
    endloop
  endfacet
  facet normal 0 0 1
    outer loop
      vertex -3.87433 -0.994759 5
      vertex -3.39004 -0.870414 5
      vertex -3.4724 -0.438665 5
    endloop
  endfacet
  facet normal 0 0 1
    outer loop
      vertex -3.06707 -1.68614 5
      vertex -3.50523 -1.92701 5
      vertex -3.23607 -2.35114 5
    endloop
  endfacet
  facet normal 0 0 1
    outer loop
      vertex -3.96846 -0.501332 5
      vertex -3.4724 -0.438665 5
      vertex -3.5 0 5
    endloop
  endfacet
  facet normal 0 0 1
    outer loop
      vertex -3.39004 0.870414 5
      vertex -3.87433 0.994759 5
      vertex -3.4724 0.438665 5
    endloop
  endfacet
  facet normal -0 0 1
    outer loop
      vertex -3.96846 0.501332 5
      vertex -3.4724 0.438665 5
      vertex -3.87433 0.994759 5
    endloop
  endfacet
  facet normal 0 0 1
    outer loop
      vertex -3.25422 -1.28843 5
      vertex -3.71911 -1.4725 5
      vertex -3.50523 -1.92701 5
    endloop
  endfacet
  facet normal 0 0 1
    outer loop
      vertex -3.4724 0.438665 5
      vertex -3.96846 0.501332 5
      vertex -3.5 0 5
    endloop
  endfacet
  facet normal 0 0 1
    outer loop
      vertex -3.39004 -0.870414 5
      vertex -3.87433 -0.994759 5
      vertex -3.71911 -1.4725 5
    endloop
  endfacet
  facet normal 0 0 1
    outer loop
      vertex -4 0 5
      vertex -3.5 0 5
      vertex -3.96846 0.501332 5
    endloop
  endfacet
  facet normal 0 0 1
    outer loop
      vertex -3.4724 -0.438665 5
      vertex -3.96846 -0.501332 5
      vertex -3.87433 -0.994759 5
    endloop
  endfacet
  facet normal 0 0 1
    outer loop
      vertex -3.5 0 5
      vertex -4 0 5
      vertex -3.96846 -0.501332 5
    endloop
  endfacet
  facet normal -0.827995 0.52546 0.195744
    outer loop
      vertex -3.23607 2.35114 5
      vertex -4.04508 2.93893 0
      vertex -3.50523 1.92701 5
    endloop
  endfacet
  facet normal -0.361004 -0.911789 0.195744
    outer loop
      vertex -1.70312 -3.61931 5
      vertex -2.1289 -4.52413 0
      vertex -1.23607 -3.80423 5
    endloop
  endfacet
  facet normal 0 0 -1
    outer loop
      vertex 3.5 0 0
      vertex 5 0 0
      vertex 4.96057 -0.626666 0
    endloop
  endfacet
  facet normal 0 0 -1
    outer loop
      vertex 3.4724 -0.438665 0
      vertex 4.96057 -0.626666 0
      vertex 4.84292 -1.24345 0
    endloop
  endfacet
  facet normal 0 0 -1
    outer loop
      vertex 5 0 0
      vertex 3.5 0 0
      vertex 4.96057 0.626666 0
    endloop
  endfacet
  facet normal 0 0 -1
    outer loop
      vertex 3.39004 -0.870414 0
      vertex 4.84292 -1.24345 0
      vertex 4.64888 -1.84062 0
    endloop
  endfacet
  facet normal 0 0 -1
    outer loop
      vertex 3.4724 0.438665 0
      vertex 4.96057 0.626666 0
      vertex 3.5 0 0
    endloop
  endfacet
  facet normal 0 0 -1
    outer loop
      vertex 3.25422 -1.28843 0
      vertex 4.64888 -1.84062 0
      vertex 4.38153 -2.40877 0
    endloop
  endfacet
  facet normal -0 0 -1
    outer loop
      vertex 4.96057 0.626666 0
      vertex 3.4724 0.438665 0
      vertex 4.84292 1.24345 0
    endloop
  endfacet
  facet normal 0 0 -1
    outer loop
      vertex 3.06707 -1.68614 0
      vertex 4.38153 -2.40877 0
      vertex 4.04508 -2.93893 0
    endloop
  endfacet
  facet normal 0 0 -1
    outer loop
      vertex 3.39004 0.870414 0
      vertex 4.84292 1.24345 0
      vertex 3.4724 0.438665 0
    endloop
  endfacet
  facet normal 0 0 -1
    outer loop
      vertex 2.83156 -2.05725 0
      vertex 4.04508 -2.93893 0
      vertex 3.64484 -3.42274 0
    endloop
  endfacet
  facet normal -0 0 -1
    outer loop
      vertex 4.84292 1.24345 0
      vertex 3.39004 0.870414 0
      vertex 4.64888 1.84062 0
    endloop
  endfacet
  facet normal 0 0 -1
    outer loop
      vertex 3.25422 1.28843 0
      vertex 4.64888 1.84062 0
      vertex 3.39004 0.870414 0
    endloop
  endfacet
  facet normal 0 0 -1
    outer loop
      vertex 4.96057 -0.626666 0
      vertex 3.4724 -0.438665 0
      vertex 3.5 0 0
    endloop
  endfacet
  facet normal 0 0 -1
    outer loop
      vertex 4.84292 -1.24345 0
      vertex 3.39004 -0.870414 0
      vertex 3.4724 -0.438665 0
    endloop
  endfacet
  facet normal 0 0 -1
    outer loop
      vertex 4.64888 -1.84062 0
      vertex 3.25422 -1.28843 0
      vertex 3.39004 -0.870414 0
    endloop
  endfacet
  facet normal 0 0 -1
    outer loop
      vertex 2.55139 -2.39591 0
      vertex 3.64484 -3.42274 0
      vertex 3.18712 -3.85257 0
    endloop
  endfacet
  facet normal 0 0 -1
    outer loop
      vertex 4.38153 -2.40877 0
      vertex 3.06707 -1.68614 0
      vertex 3.25422 -1.28843 0
    endloop
  endfacet
  facet normal 0 0 -1
    outer loop
      vertex 4.04508 -2.93893 0
      vertex 2.83156 -2.05725 0
      vertex 3.06707 -1.68614 0
    endloop
  endfacet
  facet normal 0 0 -1
    outer loop
      vertex 2.23098 -2.6968 0
      vertex 3.18712 -3.85257 0
      vertex 2.67913 -4.22164 0
    endloop
  endfacet
  facet normal 0 0 -1
    outer loop
      vertex 3.64484 -3.42274 0
      vertex 2.55139 -2.39591 0
      vertex 2.83156 -2.05725 0
    endloop
  endfacet
  facet normal 0 0 -1
    outer loop
      vertex 3.18712 -3.85257 0
      vertex 2.23098 -2.6968 0
      vertex 2.55139 -2.39591 0
    endloop
  endfacet
  facet normal 0 0 -1
    outer loop
      vertex 1.87539 -2.95515 0
      vertex 2.67913 -4.22164 0
      vertex 2.1289 -4.52413 0
    endloop
  endfacet
  facet normal 0 0 -1
    outer loop
      vertex 2.67913 -4.22164 0
      vertex 1.87539 -2.95515 0
      vertex 2.23098 -2.6968 0
    endloop
  endfacet
  facet normal 0 0 -1
    outer loop
      vertex 1.49023 -3.16689 0
      vertex 2.1289 -4.52413 0
      vertex 1.54508 -4.75528 0
    endloop
  endfacet
  facet normal 0 0 -1
    outer loop
      vertex 2.1289 -4.52413 0
      vertex 1.49023 -3.16689 0
      vertex 1.87539 -2.95515 0
    endloop
  endfacet
  facet normal 0 0 -1
    outer loop
      vertex 1.54508 -4.75528 0
      vertex 1.08156 -3.3287 0
      vertex 1.49023 -3.16689 0
    endloop
  endfacet
  facet normal 0 0 -1
    outer loop
      vertex 0.936906 -4.91144 0
      vertex 1.08156 -3.3287 0
      vertex 1.54508 -4.75528 0
    endloop
  endfacet
  facet normal 0 0 -1
    outer loop
      vertex 0.936906 -4.91144 0
      vertex 0.655834 -3.438 0
      vertex 1.08156 -3.3287 0
    endloop
  endfacet
  facet normal 0 0 -1
    outer loop
      vertex 0.313952 -4.99013 0
      vertex 0.655834 -3.438 0
      vertex 0.936906 -4.91144 0
    endloop
  endfacet
  facet normal 0 0 -1
    outer loop
      vertex 0.313952 -4.99013 0
      vertex 0.219767 -3.49309 0
      vertex 0.655834 -3.438 0
    endloop
  endfacet
  facet normal 0 0 -1
    outer loop
      vertex 0.313952 -4.99013 0
      vertex -0.219767 -3.49309 0
      vertex 0.219767 -3.49309 0
    endloop
  endfacet
  facet normal 0 0 -1
    outer loop
      vertex -0.313952 -4.99013 0
      vertex -0.219767 -3.49309 0
      vertex 0.313952 -4.99013 0
    endloop
  endfacet
  facet normal 0 0 -1
    outer loop
      vertex -0.313952 -4.99013 0
      vertex -0.655834 -3.438 0
      vertex -0.219767 -3.49309 0
    endloop
  endfacet
  facet normal 0 0 -1
    outer loop
      vertex -0.936906 -4.91144 0
      vertex -0.655834 -3.438 0
      vertex -0.313952 -4.99013 0
    endloop
  endfacet
  facet normal 0 0 -1
    outer loop
      vertex -0.936906 -4.91144 0
      vertex -1.08156 -3.3287 0
      vertex -0.655834 -3.438 0
    endloop
  endfacet
  facet normal 0 0 -1
    outer loop
      vertex -1.54508 -4.75528 0
      vertex -1.08156 -3.3287 0
      vertex -0.936906 -4.91144 0
    endloop
  endfacet
  facet normal -0 0 -1
    outer loop
      vertex -1.08156 -3.3287 0
      vertex -1.54508 -4.75528 0
      vertex -1.49023 -3.16689 0
    endloop
  endfacet
  facet normal 0 0 -1
    outer loop
      vertex -2.1289 -4.52413 0
      vertex -1.49023 -3.16689 0
      vertex -1.54508 -4.75528 0
    endloop
  endfacet
  facet normal -0 0 -1
    outer loop
      vertex -1.49023 -3.16689 0
      vertex -2.1289 -4.52413 0
      vertex -1.87539 -2.95515 0
    endloop
  endfacet
  facet normal 0 0 -1
    outer loop
      vertex -2.67913 -4.22164 0
      vertex -1.87539 -2.95515 0
      vertex -2.1289 -4.52413 0
    endloop
  endfacet
  facet normal -0 0 -1
    outer loop
      vertex -1.87539 -2.95515 0
      vertex -2.67913 -4.22164 0
      vertex -2.23098 -2.6968 0
    endloop
  endfacet
  facet normal 0 0 -1
    outer loop
      vertex -3.18712 -3.85257 0
      vertex -2.23098 -2.6968 0
      vertex -2.67913 -4.22164 0
    endloop
  endfacet
  facet normal -0 0 -1
    outer loop
      vertex -2.23098 -2.6968 0
      vertex -3.18712 -3.85257 0
      vertex -2.55139 -2.39591 0
    endloop
  endfacet
  facet normal 0 0 -1
    outer loop
      vertex -3.64484 -3.42274 0
      vertex -2.55139 -2.39591 0
      vertex -3.18712 -3.85257 0
    endloop
  endfacet
  facet normal -0 0 -1
    outer loop
      vertex -2.55139 -2.39591 0
      vertex -3.64484 -3.42274 0
      vertex -2.83156 -2.05725 0
    endloop
  endfacet
  facet normal 0 0 -1
    outer loop
      vertex -4.04508 -2.93893 0
      vertex -2.83156 -2.05725 0
      vertex -3.64484 -3.42274 0
    endloop
  endfacet
  facet normal -0 0 -1
    outer loop
      vertex -2.83156 -2.05725 0
      vertex -4.04508 -2.93893 0
      vertex -3.06707 -1.68614 0
    endloop
  endfacet
  facet normal 0 0 -1
    outer loop
      vertex -4.38153 -2.40877 0
      vertex -3.06707 -1.68614 0
      vertex -4.04508 -2.93893 0
    endloop
  endfacet
  facet normal 0 0 -1
    outer loop
      vertex -4.64888 -1.84062 0
      vertex -3.25422 -1.28843 0
      vertex -4.38153 -2.40877 0
    endloop
  endfacet
  facet normal -0 0 -1
    outer loop
      vertex -3.06707 -1.68614 0
      vertex -4.38153 -2.40877 0
      vertex -3.25422 -1.28843 0
    endloop
  endfacet
  facet normal -0 0 -1
    outer loop
      vertex 4.64888 1.84062 0
      vertex 3.25422 1.28843 0
      vertex 4.38153 2.40877 0
    endloop
  endfacet
  facet normal 0 0 -1
    outer loop
      vertex 3.06707 1.68614 0
      vertex 4.38153 2.40877 0
      vertex 3.25422 1.28843 0
    endloop
  endfacet
  facet normal -0 0 -1
    outer loop
      vertex 4.38153 2.40877 0
      vertex 3.06707 1.68614 0
      vertex 4.04508 2.93893 0
    endloop
  endfacet
  facet normal 0 0 -1
    outer loop
      vertex 2.83156 2.05725 0
      vertex 4.04508 2.93893 0
      vertex 3.06707 1.68614 0
    endloop
  endfacet
  facet normal -0 0 -1
    outer loop
      vertex 4.04508 2.93893 0
      vertex 2.83156 2.05725 0
      vertex 3.64484 3.42274 0
    endloop
  endfacet
  facet normal 0 0 -1
    outer loop
      vertex 2.55139 2.39591 0
      vertex 3.64484 3.42274 0
      vertex 2.83156 2.05725 0
    endloop
  endfacet
  facet normal -0 0 -1
    outer loop
      vertex 3.64484 3.42274 0
      vertex 2.55139 2.39591 0
      vertex 3.18712 3.85257 0
    endloop
  endfacet
  facet normal 0 0 -1
    outer loop
      vertex 2.23098 2.6968 0
      vertex 3.18712 3.85257 0
      vertex 2.55139 2.39591 0
    endloop
  endfacet
  facet normal -0 0 -1
    outer loop
      vertex 3.18712 3.85257 0
      vertex 2.23098 2.6968 0
      vertex 2.67913 4.22164 0
    endloop
  endfacet
  facet normal 0 0 -1
    outer loop
      vertex 1.87539 2.95515 0
      vertex 2.67913 4.22164 0
      vertex 2.23098 2.6968 0
    endloop
  endfacet
  facet normal -0 0 -1
    outer loop
      vertex 2.67913 4.22164 0
      vertex 1.87539 2.95515 0
      vertex 2.1289 4.52413 0
    endloop
  endfacet
  facet normal 0 0 -1
    outer loop
      vertex 1.49023 3.16689 0
      vertex 2.1289 4.52413 0
      vertex 1.87539 2.95515 0
    endloop
  endfacet
  facet normal -0 0 -1
    outer loop
      vertex 2.1289 4.52413 0
      vertex 1.49023 3.16689 0
      vertex 1.54508 4.75528 0
    endloop
  endfacet
  facet normal 0 0 -1
    outer loop
      vertex 1.08156 3.3287 0
      vertex 1.54508 4.75528 0
      vertex 1.49023 3.16689 0
    endloop
  endfacet
  facet normal 0 0 -1
    outer loop
      vertex 1.08156 3.3287 0
      vertex 0.936906 4.91144 0
      vertex 1.54508 4.75528 0
    endloop
  endfacet
  facet normal 0 0 -1
    outer loop
      vertex 0.655834 3.438 0
      vertex 0.936906 4.91144 0
      vertex 1.08156 3.3287 0
    endloop
  endfacet
  facet normal 0 0 -1
    outer loop
      vertex 0.655834 3.438 0
      vertex 0.313952 4.99013 0
      vertex 0.936906 4.91144 0
    endloop
  endfacet
  facet normal 0 0 -1
    outer loop
      vertex 0.219767 3.49309 0
      vertex 0.313952 4.99013 0
      vertex 0.655834 3.438 0
    endloop
  endfacet
  facet normal 0 0 -1
    outer loop
      vertex -0.219767 3.49309 0
      vertex 0.313952 4.99013 0
      vertex 0.219767 3.49309 0
    endloop
  endfacet
  facet normal 0 0 -1
    outer loop
      vertex -0.219767 3.49309 0
      vertex -0.313952 4.99013 0
      vertex 0.313952 4.99013 0
    endloop
  endfacet
  facet normal 0 0 -1
    outer loop
      vertex -0.655834 3.438 0
      vertex -0.313952 4.99013 0
      vertex -0.219767 3.49309 0
    endloop
  endfacet
  facet normal 0 0 -1
    outer loop
      vertex -0.655834 3.438 0
      vertex -0.936906 4.91144 0
      vertex -0.313952 4.99013 0
    endloop
  endfacet
  facet normal 0 0 -1
    outer loop
      vertex -1.08156 3.3287 0
      vertex -0.936906 4.91144 0
      vertex -0.655834 3.438 0
    endloop
  endfacet
  facet normal 0 0 -1
    outer loop
      vertex -1.54508 4.75528 0
      vertex -1.08156 3.3287 0
      vertex -1.49023 3.16689 0
    endloop
  endfacet
  facet normal 0 0 -1
    outer loop
      vertex -1.08156 3.3287 0
      vertex -1.54508 4.75528 0
      vertex -0.936906 4.91144 0
    endloop
  endfacet
  facet normal 0 0 -1
    outer loop
      vertex -2.1289 4.52413 0
      vertex -1.49023 3.16689 0
      vertex -1.87539 2.95515 0
    endloop
  endfacet
  facet normal 0 0 -1
    outer loop
      vertex -1.49023 3.16689 0
      vertex -2.1289 4.52413 0
      vertex -1.54508 4.75528 0
    endloop
  endfacet
  facet normal 0 0 -1
    outer loop
      vertex -2.67913 4.22164 0
      vertex -1.87539 2.95515 0
      vertex -2.23098 2.6968 0
    endloop
  endfacet
  facet normal 0 0 -1
    outer loop
      vertex -3.18712 3.85257 0
      vertex -2.23098 2.6968 0
      vertex -2.55139 2.39591 0
    endloop
  endfacet
  facet normal 0 0 -1
    outer loop
      vertex -1.87539 2.95515 0
      vertex -2.67913 4.22164 0
      vertex -2.1289 4.52413 0
    endloop
  endfacet
  facet normal 0 0 -1
    outer loop
      vertex -3.64484 3.42274 0
      vertex -2.55139 2.39591 0
      vertex -2.83156 2.05725 0
    endloop
  endfacet
  facet normal 0 0 -1
    outer loop
      vertex -4.04508 2.93893 0
      vertex -2.83156 2.05725 0
      vertex -3.06707 1.68614 0
    endloop
  endfacet
  facet normal 0 0 -1
    outer loop
      vertex -2.23098 2.6968 0
      vertex -3.18712 3.85257 0
      vertex -2.67913 4.22164 0
    endloop
  endfacet
  facet normal 0 0 -1
    outer loop
      vertex -4.38153 2.40877 0
      vertex -3.06707 1.68614 0
      vertex -3.25422 1.28843 0
    endloop
  endfacet
  facet normal 0 0 -1
    outer loop
      vertex -4.64888 1.84062 0
      vertex -3.25422 1.28843 0
      vertex -3.39004 0.870414 0
    endloop
  endfacet
  facet normal 0 0 -1
    outer loop
      vertex -4.84292 1.24345 0
      vertex -3.39004 0.870414 0
      vertex -3.4724 0.438665 0
    endloop
  endfacet
  facet normal 0 0 -1
    outer loop
      vertex -2.55139 2.39591 0
      vertex -3.64484 3.42274 0
      vertex -3.18712 3.85257 0
    endloop
  endfacet
  facet normal 0 0 -1
    outer loop
      vertex -4.96057 0.626666 0
      vertex -3.4724 0.438665 0
      vertex -3.5 0 0
    endloop
  endfacet
  facet normal -0 0 -1
    outer loop
      vertex -3.25422 -1.28843 0
      vertex -4.64888 -1.84062 0
      vertex -3.39004 -0.870414 0
    endloop
  endfacet
  facet normal 0 0 -1
    outer loop
      vertex -4.84292 -1.24345 0
      vertex -3.39004 -0.870414 0
      vertex -4.64888 -1.84062 0
    endloop
  endfacet
  facet normal 0 0 -1
    outer loop
      vertex -2.83156 2.05725 0
      vertex -4.04508 2.93893 0
      vertex -3.64484 3.42274 0
    endloop
  endfacet
  facet normal -0 0 -1
    outer loop
      vertex -3.39004 -0.870414 0
      vertex -4.84292 -1.24345 0
      vertex -3.4724 -0.438665 0
    endloop
  endfacet
  facet normal 0 0 -1
    outer loop
      vertex -3.06707 1.68614 0
      vertex -4.38153 2.40877 0
      vertex -4.04508 2.93893 0
    endloop
  endfacet
  facet normal 0 0 -1
    outer loop
      vertex -4.96057 -0.626666 0
      vertex -3.4724 -0.438665 0
      vertex -4.84292 -1.24345 0
    endloop
  endfacet
  facet normal 0 0 -1
    outer loop
      vertex -3.25422 1.28843 0
      vertex -4.64888 1.84062 0
      vertex -4.38153 2.40877 0
    endloop
  endfacet
  facet normal -0 0 -1
    outer loop
      vertex -3.4724 -0.438665 0
      vertex -4.96057 -0.626666 0
      vertex -3.5 0 0
    endloop
  endfacet
  facet normal 0 0 -1
    outer loop
      vertex -3.39004 0.870414 0
      vertex -4.84292 1.24345 0
      vertex -4.64888 1.84062 0
    endloop
  endfacet
  facet normal 0 0 -1
    outer loop
      vertex -5 0 0
      vertex -3.5 0 0
      vertex -4.96057 -0.626666 0
    endloop
  endfacet
  facet normal 0 0 -1
    outer loop
      vertex -3.4724 0.438665 0
      vertex -4.96057 0.626666 0
      vertex -4.84292 1.24345 0
    endloop
  endfacet
  facet normal 0 0 -1
    outer loop
      vertex -3.5 0 0
      vertex -5 0 0
      vertex -4.96057 0.626666 0
    endloop
  endfacet
  facet normal -0.963285 -0.183756 0.195744
    outer loop
      vertex -3.87433 -0.994759 5
      vertex -4.96057 -0.626666 0
      vertex -4.84292 -1.24345 0
    endloop
  endfacet
  facet normal -0.887323 -0.417543 0.195744
    outer loop
      vertex -3.71911 -1.4725 5
      vertex -4.64888 -1.84062 0
      vertex -4.38153 -2.40877 0
    endloop
  endfacet
  facet normal -0.122908 0.972922 0.195744
    outer loop
      vertex -0.313952 4.99013 0
      vertex -0.749525 3.92915 5
      vertex -0.251162 3.99211 5
    endloop
  endfacet
  facet normal 0.932658 0.30304 0.195744
    outer loop
      vertex 4.64888 1.84062 0
      vertex 3.71911 1.4725 5
      vertex 4.84292 1.24345 0
    endloop
  endfacet
  facet normal 0.963285 0.183756 0.195744
    outer loop
      vertex 4.96057 0.626666 0
      vertex 3.87433 0.994759 5
      vertex 3.96846 0.501332 5
    endloop
  endfacet
  facet normal 0.671304 0.714868 0.195744
    outer loop
      vertex 3.18712 3.85257 0
      vertex 2.5497 3.08205 5
      vertex 2.91587 2.73819 5
    endloop
  endfacet
  facet normal 0 -0.980655 0.195744
    outer loop
      vertex -0.313952 -4.99013 0
      vertex 0.251162 -3.99211 5
      vertex -0.251162 -3.99211 5
    endloop
  endfacet
  facet normal 0 -0.980655 0.195744
    outer loop
      vertex 0.251162 -3.99211 5
      vertex -0.313952 -4.99013 0
      vertex 0.313952 -4.99013 0
    endloop
  endfacet
  facet normal 0.122908 -0.972922 0.195744
    outer loop
      vertex 0.749525 -3.92915 5
      vertex 0.313952 -4.99013 0
      vertex 0.936906 -4.91144 0
    endloop
  endfacet
  facet normal 0.243879 -0.949846 0.195744
    outer loop
      vertex 1.23607 -3.80423 5
      vertex 0.749525 -3.92915 5
      vertex 0.936906 -4.91144 0
    endloop
  endfacet
  facet normal -0.122908 -0.972922 0.195744
    outer loop
      vertex -0.749525 -3.92915 5
      vertex -0.936906 -4.91144 0
      vertex -0.313952 -4.99013 0
    endloop
  endfacet
  facet normal -0.243879 -0.949846 0.195744
    outer loop
      vertex -0.749525 -3.92915 5
      vertex -1.23607 -3.80423 5
      vertex -0.936906 -4.91144 0
    endloop
  endfacet
  facet normal 0.576415 -0.793366 0.195744
    outer loop
      vertex 2.5497 -3.08205 5
      vertex 2.14331 -3.37731 5
      vertex 3.18712 -3.85257 0
    endloop
  endfacet
  facet normal 0.472434 -0.859354 0.195744
    outer loop
      vertex 2.14331 -3.37731 5
      vertex 1.70312 -3.61931 5
      vertex 2.1289 -4.52413 0
    endloop
  endfacet
  facet normal 0.576414 -0.793367 0.195744
    outer loop
      vertex 3.18712 -3.85257 0
      vertex 2.14331 -3.37731 5
      vertex 2.67913 -4.22164 0
    endloop
  endfacet
  facet normal 0.827995 -0.52546 0.195744
    outer loop
      vertex 4.38153 -2.40877 0
      vertex 3.50523 -1.92701 5
      vertex 4.04508 -2.93893 0
    endloop
  endfacet
  facet normal 0.887323 -0.417543 0.195744
    outer loop
      vertex 4.64888 -1.84062 0
      vertex 3.71911 -1.4725 5
      vertex 4.38153 -2.40877 0
    endloop
  endfacet
  facet normal 0.963285 -0.183756 0.195744
    outer loop
      vertex 3.96846 -0.501332 5
      vertex 3.87433 -0.994759 5
      vertex 4.96057 -0.626666 0
    endloop
  endfacet
  facet normal 0.97872 -0.0615771 0.195744
    outer loop
      vertex 4 0 5
      vertex 3.96846 -0.501332 5
      vertex 4.96057 -0.626666 0
    endloop
  endfacet
  facet normal -0.963285 0.183756 0.195744
    outer loop
      vertex -3.87433 0.994759 5
      vertex -4.96057 0.626666 0
      vertex -3.96846 0.501332 5
    endloop
  endfacet
  facet normal -0.97872 0.0615771 0.195744
    outer loop
      vertex -3.96846 0.501332 5
      vertex -4.96057 0.626666 0
      vertex -4 0 5
    endloop
  endfacet
  facet normal -0.576415 -0.793366 0.195744
    outer loop
      vertex -2.5497 -3.08205 5
      vertex -3.18712 -3.85257 0
      vertex -2.14331 -3.37731 5
    endloop
  endfacet
  facet normal -0.576414 -0.793367 0.195744
    outer loop
      vertex -2.14331 -3.37731 5
      vertex -3.18712 -3.85257 0
      vertex -2.67913 -4.22164 0
    endloop
  endfacet
  facet normal -0.472434 -0.859354 0.195744
    outer loop
      vertex -1.70312 -3.61931 5
      vertex -2.14331 -3.37731 5
      vertex -2.1289 -4.52413 0
    endloop
  endfacet
  facet normal -0.97872 -0.0615771 0.195744
    outer loop
      vertex -4 0 5
      vertex -4.96057 -0.626666 0
      vertex -3.96846 -0.501332 5
    endloop
  endfacet
  facet normal -0.97872 -0.0615763 0.195744
    outer loop
      vertex -4 0 5
      vertex -5 0 0
      vertex -4.96057 -0.626666 0
    endloop
  endfacet
  facet normal -0.932658 -0.303039 0.195744
    outer loop
      vertex -3.87433 -0.994759 5
      vertex -4.84292 -1.24345 0
      vertex -3.71911 -1.4725 5
    endloop
  endfacet
  facet normal -0.932658 -0.30304 0.195744
    outer loop
      vertex -3.71911 -1.4725 5
      vertex -4.84292 -1.24345 0
      vertex -4.64888 -1.84062 0
    endloop
  endfacet
  facet normal -0.827995 -0.52546 0.195744
    outer loop
      vertex -3.50523 -1.92701 5
      vertex -4.38153 -2.40877 0
      vertex -4.04508 -2.93893 0
    endloop
  endfacet
  facet normal -0.887323 -0.417543 0.195744
    outer loop
      vertex -3.71911 -1.4725 5
      vertex -4.38153 -2.40877 0
      vertex -3.50523 -1.92701 5
    endloop
  endfacet
  facet normal -0.755608 -0.625093 0.195744
    outer loop
      vertex -3.23607 -2.35114 5
      vertex -4.04508 -2.93893 0
      vertex -3.64484 -3.42274 0
    endloop
  endfacet
  facet normal -0.755607 -0.625093 0.195744
    outer loop
      vertex -3.23607 -2.35114 5
      vertex -3.64484 -3.42274 0
      vertex -2.91587 -2.73819 5
    endloop
  endfacet
  facet normal 0 0.980655 0.195744
    outer loop
      vertex 0.313952 4.99013 0
      vertex -0.251162 3.99211 5
      vertex 0.251162 3.99211 5
    endloop
  endfacet
  facet normal 0 0.980655 0.195744
    outer loop
      vertex -0.251162 3.99211 5
      vertex 0.313952 4.99013 0
      vertex -0.313952 4.99013 0
    endloop
  endfacet
  facet normal 0.97872 0.0615771 0.195744
    outer loop
      vertex 4.96057 0.626666 0
      vertex 3.96846 0.501332 5
      vertex 4 0 5
    endloop
  endfacet
  facet normal 0.122908 -0.972922 0.195744
    outer loop
      vertex 0.749525 -3.92915 5
      vertex 0.251162 -3.99211 5
      vertex 0.313952 -4.99013 0
    endloop
  endfacet
  facet normal -0.243879 -0.949846 0.195744
    outer loop
      vertex -1.23607 -3.80423 5
      vertex -1.54508 -4.75528 0
      vertex -0.936906 -4.91144 0
    endloop
  endfacet
  facet normal 0.671304 -0.714868 0.195744
    outer loop
      vertex 2.91587 -2.73819 5
      vertex 2.5497 -3.08205 5
      vertex 3.18712 -3.85257 0
    endloop
  endfacet
  facet normal 0.827995 -0.52546 0.195744
    outer loop
      vertex 3.50523 -1.92701 5
      vertex 3.23607 -2.35114 5
      vertex 4.04508 -2.93893 0
    endloop
  endfacet
  facet normal -0.963285 -0.183756 0.195744
    outer loop
      vertex -3.96846 -0.501332 5
      vertex -4.96057 -0.626666 0
      vertex -3.87433 -0.994759 5
    endloop
  endfacet
  facet normal -0.998027 -0.0627924 0
    outer loop
      vertex 3.5 0 0
      vertex 3.4724 0.438665 5
      vertex 3.4724 0.438665 0
    endloop
  endfacet
  facet normal -0.998027 -0.0627924 0
    outer loop
      vertex 3.4724 0.438665 5
      vertex 3.5 0 0
      vertex 3.5 0 5
    endloop
  endfacet
  facet normal 0.998027 -0.0627924 0
    outer loop
      vertex -3.5 0 5
      vertex -3.4724 0.438665 0
      vertex -3.4724 0.438665 5
    endloop
  endfacet
  facet normal 0.998027 -0.0627924 0
    outer loop
      vertex -3.4724 0.438665 0
      vertex -3.5 0 5
      vertex -3.5 0 0
    endloop
  endfacet
  facet normal 0 -1 0
    outer loop
      vertex -0.219767 3.49309 0
      vertex 0.219767 3.49309 5
      vertex -0.219767 3.49309 5
    endloop
  endfacet
  facet normal 0 -1 -0
    outer loop
      vertex 0.219767 3.49309 5
      vertex -0.219767 3.49309 0
      vertex 0.219767 3.49309 0
    endloop
  endfacet
  facet normal -0.684547 -0.728968 0
    outer loop
      vertex 2.23098 2.6968 0
      vertex 2.55139 2.39591 5
      vertex 2.23098 2.6968 5
    endloop
  endfacet
  facet normal -0.684547 -0.728968 -0
    outer loop
      vertex 2.55139 2.39591 5
      vertex 2.23098 2.6968 0
      vertex 2.55139 2.39591 0
    endloop
  endfacet
  facet normal 0.684547 -0.728968 0
    outer loop
      vertex -2.55139 2.39591 0
      vertex -2.23098 2.6968 5
      vertex -2.55139 2.39591 5
    endloop
  endfacet
  facet normal 0.684547 -0.728968 0
    outer loop
      vertex -2.23098 2.6968 5
      vertex -2.55139 2.39591 0
      vertex -2.23098 2.6968 0
    endloop
  endfacet
  facet normal 0.368125 -0.929776 0
    outer loop
      vertex -1.49023 3.16689 0
      vertex -1.08156 3.3287 5
      vertex -1.49023 3.16689 5
    endloop
  endfacet
  facet normal 0.368125 -0.929776 0
    outer loop
      vertex -1.08156 3.3287 5
      vertex -1.49023 3.16689 0
      vertex -1.08156 3.3287 0
    endloop
  endfacet
  facet normal -0.904827 -0.425779 0
    outer loop
      vertex 3.25422 1.28843 0
      vertex 3.06707 1.68614 5
      vertex 3.06707 1.68614 0
    endloop
  endfacet
  facet normal -0.904827 -0.425779 0
    outer loop
      vertex 3.06707 1.68614 5
      vertex 3.25422 1.28843 0
      vertex 3.25422 1.28843 5
    endloop
  endfacet
  facet normal -0.982287 -0.187381 0
    outer loop
      vertex 3.4724 0.438665 0
      vertex 3.39004 0.870414 5
      vertex 3.39004 0.870414 0
    endloop
  endfacet
  facet normal -0.982287 -0.187381 0
    outer loop
      vertex 3.39004 0.870414 5
      vertex 3.4724 0.438665 0
      vertex 3.4724 0.438665 5
    endloop
  endfacet
  facet normal -0.844328 -0.535826 0
    outer loop
      vertex 3.06707 1.68614 0
      vertex 2.83156 2.05725 5
      vertex 2.83156 2.05725 0
    endloop
  endfacet
  facet normal -0.844328 -0.535826 0
    outer loop
      vertex 2.83156 2.05725 5
      vertex 3.06707 1.68614 0
      vertex 3.06707 1.68614 5
    endloop
  endfacet
  facet normal -0.368125 -0.929776 0
    outer loop
      vertex 1.08156 3.3287 0
      vertex 1.49023 3.16689 5
      vertex 1.08156 3.3287 5
    endloop
  endfacet
  facet normal -0.368125 -0.929776 -0
    outer loop
      vertex 1.49023 3.16689 5
      vertex 1.08156 3.3287 0
      vertex 1.49023 3.16689 0
    endloop
  endfacet
  facet normal -0.587784 -0.809018 0
    outer loop
      vertex 1.87539 2.95515 0
      vertex 2.23098 2.6968 5
      vertex 1.87539 2.95515 5
    endloop
  endfacet
  facet normal -0.587784 -0.809018 -0
    outer loop
      vertex 2.23098 2.6968 5
      vertex 1.87539 2.95515 0
      vertex 2.23098 2.6968 0
    endloop
  endfacet
  facet normal 0.844328 -0.535826 0
    outer loop
      vertex -3.06707 1.68614 5
      vertex -2.83156 2.05725 0
      vertex -2.83156 2.05725 5
    endloop
  endfacet
  facet normal 0.844328 -0.535826 0
    outer loop
      vertex -2.83156 2.05725 0
      vertex -3.06707 1.68614 5
      vertex -3.06707 1.68614 0
    endloop
  endfacet
  facet normal 0.770513 -0.637425 0
    outer loop
      vertex -2.83156 2.05725 5
      vertex -2.55139 2.39591 0
      vertex -2.55139 2.39591 5
    endloop
  endfacet
  facet normal 0.770513 -0.637425 0
    outer loop
      vertex -2.55139 2.39591 0
      vertex -2.83156 2.05725 5
      vertex -2.83156 2.05725 0
    endloop
  endfacet
  facet normal 0.951057 -0.309017 0
    outer loop
      vertex -3.39004 0.870414 5
      vertex -3.25422 1.28843 0
      vertex -3.25422 1.28843 5
    endloop
  endfacet
  facet normal 0.951057 -0.309017 0
    outer loop
      vertex -3.25422 1.28843 0
      vertex -3.39004 0.870414 5
      vertex -3.39004 0.870414 0
    endloop
  endfacet
  facet normal 0.587784 -0.809018 0
    outer loop
      vertex -2.23098 2.6968 0
      vertex -1.87539 2.95515 5
      vertex -2.23098 2.6968 5
    endloop
  endfacet
  facet normal 0.587784 -0.809018 0
    outer loop
      vertex -1.87539 2.95515 5
      vertex -2.23098 2.6968 0
      vertex -1.87539 2.95515 0
    endloop
  endfacet
  facet normal 0.125335 -0.992114 0
    outer loop
      vertex -0.655834 3.438 0
      vertex -0.219767 3.49309 5
      vertex -0.655834 3.438 5
    endloop
  endfacet
  facet normal 0.125335 -0.992114 0
    outer loop
      vertex -0.219767 3.49309 5
      vertex -0.655834 3.438 0
      vertex -0.219767 3.49309 0
    endloop
  endfacet
  facet normal -0.998027 0.0627924 0
    outer loop
      vertex 3.4724 -0.438665 0
      vertex 3.5 0 5
      vertex 3.5 0 0
    endloop
  endfacet
  facet normal -0.998027 0.0627924 0
    outer loop
      vertex 3.5 0 5
      vertex 3.4724 -0.438665 0
      vertex 3.4724 -0.438665 5
    endloop
  endfacet
  facet normal 0.248689 0.968583 -0
    outer loop
      vertex -0.655834 -3.438 0
      vertex -1.08156 -3.3287 5
      vertex -0.655834 -3.438 5
    endloop
  endfacet
  facet normal 0.248689 0.968583 0
    outer loop
      vertex -1.08156 -3.3287 5
      vertex -0.655834 -3.438 0
      vertex -1.08156 -3.3287 0
    endloop
  endfacet
  facet normal 0.904827 0.425779 0
    outer loop
      vertex -3.06707 -1.68614 5
      vertex -3.25422 -1.28843 0
      vertex -3.25422 -1.28843 5
    endloop
  endfacet
  facet normal 0.904827 0.425779 0
    outer loop
      vertex -3.25422 -1.28843 0
      vertex -3.06707 -1.68614 5
      vertex -3.06707 -1.68614 0
    endloop
  endfacet
  facet normal -0.125335 0.992114 0
    outer loop
      vertex 0.655834 -3.438 0
      vertex 0.219767 -3.49309 5
      vertex 0.655834 -3.438 5
    endloop
  endfacet
  facet normal -0.125335 0.992114 0
    outer loop
      vertex 0.219767 -3.49309 5
      vertex 0.655834 -3.438 0
      vertex 0.219767 -3.49309 0
    endloop
  endfacet
  facet normal -0.951057 -0.309017 0
    outer loop
      vertex 3.39004 0.870414 0
      vertex 3.25422 1.28843 5
      vertex 3.25422 1.28843 0
    endloop
  endfacet
  facet normal -0.951057 -0.309017 0
    outer loop
      vertex 3.25422 1.28843 5
      vertex 3.39004 0.870414 0
      vertex 3.39004 0.870414 5
    endloop
  endfacet
  facet normal -0.770513 -0.637425 0
    outer loop
      vertex 2.83156 2.05725 0
      vertex 2.55139 2.39591 5
      vertex 2.55139 2.39591 0
    endloop
  endfacet
  facet normal -0.770513 -0.637425 0
    outer loop
      vertex 2.55139 2.39591 5
      vertex 2.83156 2.05725 0
      vertex 2.83156 2.05725 5
    endloop
  endfacet
  facet normal -0.248689 -0.968583 0
    outer loop
      vertex 0.655834 3.438 0
      vertex 1.08156 3.3287 5
      vertex 0.655834 3.438 5
    endloop
  endfacet
  facet normal -0.248689 -0.968583 -0
    outer loop
      vertex 1.08156 3.3287 5
      vertex 0.655834 3.438 0
      vertex 1.08156 3.3287 0
    endloop
  endfacet
  facet normal -0.125335 -0.992114 0
    outer loop
      vertex 0.219767 3.49309 0
      vertex 0.655834 3.438 5
      vertex 0.219767 3.49309 5
    endloop
  endfacet
  facet normal -0.125335 -0.992114 -0
    outer loop
      vertex 0.655834 3.438 5
      vertex 0.219767 3.49309 0
      vertex 0.655834 3.438 0
    endloop
  endfacet
  facet normal -0.481754 -0.876306 0
    outer loop
      vertex 1.49023 3.16689 0
      vertex 1.87539 2.95515 5
      vertex 1.49023 3.16689 5
    endloop
  endfacet
  facet normal -0.481754 -0.876306 -0
    outer loop
      vertex 1.87539 2.95515 5
      vertex 1.49023 3.16689 0
      vertex 1.87539 2.95515 0
    endloop
  endfacet
  facet normal 0.904827 -0.425779 0
    outer loop
      vertex -3.25422 1.28843 5
      vertex -3.06707 1.68614 0
      vertex -3.06707 1.68614 5
    endloop
  endfacet
  facet normal 0.904827 -0.425779 0
    outer loop
      vertex -3.06707 1.68614 0
      vertex -3.25422 1.28843 5
      vertex -3.25422 1.28843 0
    endloop
  endfacet
  facet normal 0.481754 -0.876306 0
    outer loop
      vertex -1.87539 2.95515 0
      vertex -1.49023 3.16689 5
      vertex -1.87539 2.95515 5
    endloop
  endfacet
  facet normal 0.481754 -0.876306 0
    outer loop
      vertex -1.49023 3.16689 5
      vertex -1.87539 2.95515 0
      vertex -1.49023 3.16689 0
    endloop
  endfacet
  facet normal 0.248689 -0.968583 0
    outer loop
      vertex -1.08156 3.3287 0
      vertex -0.655834 3.438 5
      vertex -1.08156 3.3287 5
    endloop
  endfacet
  facet normal 0.248689 -0.968583 0
    outer loop
      vertex -0.655834 3.438 5
      vertex -1.08156 3.3287 0
      vertex -0.655834 3.438 0
    endloop
  endfacet
  facet normal -0.951057 0.309017 0
    outer loop
      vertex 3.25422 -1.28843 0
      vertex 3.39004 -0.870414 5
      vertex 3.39004 -0.870414 0
    endloop
  endfacet
  facet normal -0.951057 0.309017 0
    outer loop
      vertex 3.39004 -0.870414 5
      vertex 3.25422 -1.28843 0
      vertex 3.25422 -1.28843 5
    endloop
  endfacet
  facet normal -0.982287 0.187381 0
    outer loop
      vertex 3.39004 -0.870414 0
      vertex 3.4724 -0.438665 5
      vertex 3.4724 -0.438665 0
    endloop
  endfacet
  facet normal -0.982287 0.187381 0
    outer loop
      vertex 3.4724 -0.438665 5
      vertex 3.39004 -0.870414 0
      vertex 3.39004 -0.870414 5
    endloop
  endfacet
  facet normal 0.951057 0.309017 0
    outer loop
      vertex -3.25422 -1.28843 5
      vertex -3.39004 -0.870414 0
      vertex -3.39004 -0.870414 5
    endloop
  endfacet
  facet normal 0.951057 0.309017 0
    outer loop
      vertex -3.39004 -0.870414 0
      vertex -3.25422 -1.28843 5
      vertex -3.25422 -1.28843 0
    endloop
  endfacet
  facet normal -0.368125 0.929776 0
    outer loop
      vertex 1.49023 -3.16689 0
      vertex 1.08156 -3.3287 5
      vertex 1.49023 -3.16689 5
    endloop
  endfacet
  facet normal -0.368125 0.929776 0
    outer loop
      vertex 1.08156 -3.3287 5
      vertex 1.49023 -3.16689 0
      vertex 1.08156 -3.3287 0
    endloop
  endfacet
  facet normal -0.248689 0.968583 0
    outer loop
      vertex 1.08156 -3.3287 0
      vertex 0.655834 -3.438 5
      vertex 1.08156 -3.3287 5
    endloop
  endfacet
  facet normal -0.248689 0.968583 0
    outer loop
      vertex 0.655834 -3.438 5
      vertex 1.08156 -3.3287 0
      vertex 0.655834 -3.438 0
    endloop
  endfacet
  facet normal 0.982287 -0.187381 0
    outer loop
      vertex -3.4724 0.438665 5
      vertex -3.39004 0.870414 0
      vertex -3.39004 0.870414 5
    endloop
  endfacet
  facet normal 0.982287 -0.187381 0
    outer loop
      vertex -3.39004 0.870414 0
      vertex -3.4724 0.438665 5
      vertex -3.4724 0.438665 0
    endloop
  endfacet
  facet normal -0.684547 0.728968 0
    outer loop
      vertex 2.55139 -2.39591 0
      vertex 2.23098 -2.6968 5
      vertex 2.55139 -2.39591 5
    endloop
  endfacet
  facet normal -0.684547 0.728968 0
    outer loop
      vertex 2.23098 -2.6968 5
      vertex 2.55139 -2.39591 0
      vertex 2.23098 -2.6968 0
    endloop
  endfacet
  facet normal -0.844328 0.535826 0
    outer loop
      vertex 2.83156 -2.05725 0
      vertex 3.06707 -1.68614 5
      vertex 3.06707 -1.68614 0
    endloop
  endfacet
  facet normal -0.844328 0.535826 0
    outer loop
      vertex 3.06707 -1.68614 5
      vertex 2.83156 -2.05725 0
      vertex 2.83156 -2.05725 5
    endloop
  endfacet
  facet normal 0 1 -0
    outer loop
      vertex 0.219767 -3.49309 0
      vertex -0.219767 -3.49309 5
      vertex 0.219767 -3.49309 5
    endloop
  endfacet
  facet normal 0 1 0
    outer loop
      vertex -0.219767 -3.49309 5
      vertex 0.219767 -3.49309 0
      vertex -0.219767 -3.49309 0
    endloop
  endfacet
  facet normal 0.368125 0.929776 -0
    outer loop
      vertex -1.08156 -3.3287 0
      vertex -1.49023 -3.16689 5
      vertex -1.08156 -3.3287 5
    endloop
  endfacet
  facet normal 0.368125 0.929776 0
    outer loop
      vertex -1.49023 -3.16689 5
      vertex -1.08156 -3.3287 0
      vertex -1.49023 -3.16689 0
    endloop
  endfacet
  facet normal 0.770513 0.637425 0
    outer loop
      vertex -2.55139 -2.39591 5
      vertex -2.83156 -2.05725 0
      vertex -2.83156 -2.05725 5
    endloop
  endfacet
  facet normal 0.770513 0.637425 0
    outer loop
      vertex -2.83156 -2.05725 0
      vertex -2.55139 -2.39591 5
      vertex -2.55139 -2.39591 0
    endloop
  endfacet
  facet normal 0.998027 0.0627924 0
    outer loop
      vertex -3.4724 -0.438665 5
      vertex -3.5 0 0
      vertex -3.5 0 5
    endloop
  endfacet
  facet normal 0.998027 0.0627924 0
    outer loop
      vertex -3.5 0 0
      vertex -3.4724 -0.438665 5
      vertex -3.4724 -0.438665 0
    endloop
  endfacet
  facet normal 0.982287 0.187381 0
    outer loop
      vertex -3.39004 -0.870414 5
      vertex -3.4724 -0.438665 0
      vertex -3.4724 -0.438665 5
    endloop
  endfacet
  facet normal 0.982287 0.187381 0
    outer loop
      vertex -3.4724 -0.438665 0
      vertex -3.39004 -0.870414 5
      vertex -3.39004 -0.870414 0
    endloop
  endfacet
  facet normal -0.481754 0.876306 0
    outer loop
      vertex 1.87539 -2.95515 0
      vertex 1.49023 -3.16689 5
      vertex 1.87539 -2.95515 5
    endloop
  endfacet
  facet normal -0.481754 0.876306 0
    outer loop
      vertex 1.49023 -3.16689 5
      vertex 1.87539 -2.95515 0
      vertex 1.49023 -3.16689 0
    endloop
  endfacet
  facet normal -0.904827 0.425779 0
    outer loop
      vertex 3.06707 -1.68614 0
      vertex 3.25422 -1.28843 5
      vertex 3.25422 -1.28843 0
    endloop
  endfacet
  facet normal -0.904827 0.425779 0
    outer loop
      vertex 3.25422 -1.28843 5
      vertex 3.06707 -1.68614 0
      vertex 3.06707 -1.68614 5
    endloop
  endfacet
  facet normal 0.125335 0.992114 -0
    outer loop
      vertex -0.219767 -3.49309 0
      vertex -0.655834 -3.438 5
      vertex -0.219767 -3.49309 5
    endloop
  endfacet
  facet normal 0.125335 0.992114 0
    outer loop
      vertex -0.655834 -3.438 5
      vertex -0.219767 -3.49309 0
      vertex -0.655834 -3.438 0
    endloop
  endfacet
  facet normal 0.587784 0.809018 -0
    outer loop
      vertex -1.87539 -2.95515 0
      vertex -2.23098 -2.6968 5
      vertex -1.87539 -2.95515 5
    endloop
  endfacet
  facet normal 0.587784 0.809018 0
    outer loop
      vertex -2.23098 -2.6968 5
      vertex -1.87539 -2.95515 0
      vertex -2.23098 -2.6968 0
    endloop
  endfacet
  facet normal 0.684547 0.728968 -0
    outer loop
      vertex -2.23098 -2.6968 0
      vertex -2.55139 -2.39591 5
      vertex -2.23098 -2.6968 5
    endloop
  endfacet
  facet normal 0.684547 0.728968 0
    outer loop
      vertex -2.55139 -2.39591 5
      vertex -2.23098 -2.6968 0
      vertex -2.55139 -2.39591 0
    endloop
  endfacet
  facet normal -0.587784 0.809018 0
    outer loop
      vertex 2.23098 -2.6968 0
      vertex 1.87539 -2.95515 5
      vertex 2.23098 -2.6968 5
    endloop
  endfacet
  facet normal -0.587784 0.809018 0
    outer loop
      vertex 1.87539 -2.95515 5
      vertex 2.23098 -2.6968 0
      vertex 1.87539 -2.95515 0
    endloop
  endfacet
  facet normal -0.770513 0.637425 0
    outer loop
      vertex 2.55139 -2.39591 0
      vertex 2.83156 -2.05725 5
      vertex 2.83156 -2.05725 0
    endloop
  endfacet
  facet normal -0.770513 0.637425 0
    outer loop
      vertex 2.83156 -2.05725 5
      vertex 2.55139 -2.39591 0
      vertex 2.55139 -2.39591 5
    endloop
  endfacet
  facet normal 0.844328 0.535826 0
    outer loop
      vertex -2.83156 -2.05725 5
      vertex -3.06707 -1.68614 0
      vertex -3.06707 -1.68614 5
    endloop
  endfacet
  facet normal 0.844328 0.535826 0
    outer loop
      vertex -3.06707 -1.68614 0
      vertex -2.83156 -2.05725 5
      vertex -2.83156 -2.05725 0
    endloop
  endfacet
  facet normal 0.481754 0.876306 -0
    outer loop
      vertex -1.49023 -3.16689 0
      vertex -1.87539 -2.95515 5
      vertex -1.49023 -3.16689 5
    endloop
  endfacet
  facet normal 0.481754 0.876306 0
    outer loop
      vertex -1.87539 -2.95515 5
      vertex -1.49023 -3.16689 0
      vertex -1.87539 -2.95515 0
    endloop
  endfacet
endsolid OpenSCAD_Model
