999
dxfrw 0.6.3
  0
SECTION
  2
HEADER
  9
$ACADVER
  1
AC1015
  9
$DWGCODEPAGE
  3
ANSI_1252
  9
$INSBASE
 10
0
 20
0
 30
0
  9
$EXTMIN
 10
-10
 20
-10
 30
0
  9
$EXTMAX
 10
10
 20
10
 30
0
  9
$LIMMIN
 10
0
 20
0
  9
$LIMMAX
 10
210
 20
297
  9
$ORTHOMODE
 70
    0
  9
$REGENMODE
 70
    1
  9
$FILLMODE
 70
    1
  9
$QTEXTMODE
 70
    0
  9
$MIRRTEXT
 70
    0
  9
$LTSCALE
 40
19.36
  9
$ATTMODE
 70
    0
  9
$TEXTSIZE
 40
2.5
  9
$TRACEWID
 40
15.68
  9
$TEXTSTYLE
  7
STANDARD
  9
$CLAYER
  8
0
  9
$CELTYPE
  6
BYLAYER
  9
$CECOLOR
 62
  256
  9
$CELTSCALE
 40
1
  9
$DISPSILH
 70
    0
  9
$DIMSCALE
 40
1
  9
$DIMASZ
 40
3.5
  9
$DIMEXO
 40
2.2
  9
$DIMDLI
 40
13.376
  9
$DIMRND
 40
0
  9
$DIMDLE
 40
0
  9
$DIMEXE
 40
6.336
  9
$DIMTP
 40
0.005
  9
$DIMTM
 40
0.005
  9
$DIMTXT
 40
3.5
  9
$DIMCEN
 40
3.168
  9
$DIMTSZ
 40
0
  9
$DIMTOL
 70
    1
  9
$DIMLIM
 70
    0
  9
$DIMTIH
 70
    0
  9
$DIMTOH
 70
    0
  9
$DIMSE1
 70
    0
  9
$DIMSE2
 70
    0
  9
$DIMTAD
 70
    1
  9
$DIMZIN
 70
    8
  9
$DIMBLK
  1
_FILLED
  9
$DIMASO
 70
    1
  9
$DIMSHO
 70
    1
  9
$DIMPOST
  1

  9
$DIMAPOST
  1

  9
$DIMALT
 70
    0
  9
$DIMALTD
 70
    3
  9
$DIMALTF
 40
0.03937
  9
$DIMLFAC
 40
1
  9
$DIMTOFL
 70
    1
  9
$DIMTVP
 40
0
  9
$DIMTIX
 70
    0
  9
$DIMSOXD
 70
    0
  9
$DIMSAH
 70
    0
  9
$DIMBLK1
  1

  9
$DIMBLK2
  1

  9
$DIMSTYLE
  2
Standard
  9
$DIMCLRD
 70
    0
  9
$DIMCLRE
 70
    0
  9
$DIMCLRT
 70
    0
  9
$DIMTFAC
 40
1
  9
$DIMGAP
 40
0.625
  9
$DIMJUST
 70
    0
  9
$DIMSD1
 70
    0
  9
$DIMSD2
 70
    0
  9
$DIMTOLJ
 70
    0
  9
$DIMTZIN
 70
    8
  9
$DIMALTZ
 70
    0
  9
$DIMALTTZ
 70
    0
  9
$DIMUPT
 70
    0
  9
$DIMDEC
 70
    3
  9
$DIMTDEC
 70
    2
  9
$DIMALTU
 70
    2
  9
$DIMALTTD
 70
    3
  9
$DIMTXSTY
  7
STANDARD
  9
$DIMAUNIT
 70
    0
  9
$DIMADEC
 70
    0
  9
$DIMALTRND
 40
0
  9
$DIMAZIN
 70
    0
  9
$DIMDSEP
 70
   44
  9
$DIMATFIT
 70
    3
  9
$DIMFRAC
 70
    0
  9
$DIMLDRBLK
  1
STANDARD
  9
$DIMLUNIT
 70
    2
  9
$DIMLWD
 70
   -2
  9
$DIMLWE
 70
   -2
  9
$DIMTMOVE
 70
    0
  9
$LUNITS
 70
    2
  9
$LUPREC
 70
    4
  9
$SKETCHINC
 40
1
  9
$FILLETRAD
 40
0
  9
$AUNITS
 70
    0
  9
$AUPREC
 70
    2
  9
$MENU
  1
.
  9
$ELEVATION
 40
0
  9
$PELEVATION
 40
0
  9
$THICKNESS
 40
0
  9
$LIMCHECK
 70
    0
  9
$CHAMFERA
 40
0
  9
$CHAMFERB
 40
0
  9
$CHAMFERC
 40
0
  9
$CHAMFERD
 40
0
  9
$SKPOLY
 70
    0
  9
$USRTIMER
 70
    1
  9
$ANGBASE
 50
0
  9
$ANGDIR
 70
    0
  9
$PDMODE
 70
    3
  9
$PDSIZE
 40
0.3125
  9
$PLINEWID
 40
0
  9
$SPLFRAME
 70
    0
  9
$SPLINETYPE
 70
    2
  9
$SPLINESEGS
 70
    8
  9
$HANDSEED
  5
20000
  9
$SURFTAB1
 70
    6
  9
$SURFTAB2
 70
    6
  9
$SURFTYPE
 70
    6
  9
$SURFU
 70
    6
  9
$SURFV
 70
    6
  9
$UCSBASE
  2

  9
$UCSNAME
  2

  9
$UCSORG
 10
0
 20
0
 30
0
  9
$UCSXDIR
 10
1
 20
0
 30
0
  9
$UCSYDIR
 10
0
 20
1
 30
0
  9
$UCSORTHOREF
  2

  9
$UCSORTHOVIEW
 70
    0
  9
$UCSORGTOP
 10
0
 20
0
 30
0
  9
$UCSORGBOTTOM
 10
0
 20
0
 30
0
  9
$UCSORGLEFT
 10
0
 20
0
 30
0
  9
$UCSORGRIGHT
 10
0
 20
0
 30
0
  9
$UCSORGFRONT
 10
0
 20
0
 30
0
  9
$UCSORGBACK
 10
0
 20
0
 30
0
  9
$PUCSBASE
  2

  9
$PUCSNAME
  2

  9
$PUCSORG
 10
0
 20
0
 30
0
  9
$PUCSXDIR
 10
1
 20
0
 30
0
  9
$PUCSYDIR
 10
0
 20
1
 30
0
  9
$PUCSORTHOREF
  2

  9
$PUCSORTHOVIEW
 70
    0
  9
$PUCSORGTOP
 10
0
 20
0
 30
0
  9
$PUCSORGBOTTOM
 10
0
 20
0
 30
0
  9
$PUCSORGLEFT
 10
0
 20
0
 30
0
  9
$PUCSORGRIGHT
 10
0
 20
0
 30
0
  9
$PUCSORGFRONT
 10
0
 20
0
 30
0
  9
$PUCSORGBACK
 10
0
 20
0
 30
0
  9
$USERI1
 70
    0
  9
$USERI2
 70
    0
  9
$USERI3
 70
    0
  9
$USERI4
 70
    0
  9
$USERI5
 70
    0
  9
$USERR1
 40
0
  9
$USERR2
 40
0
  9
$USERR3
 40
0
  9
$USERR4
 40
0
  9
$USERR5
 40
0
  9
$WORLDVIEW
 70
    1
  9
$SHADEDGE
 70
    3
  9
$SHADEDIF
 70
   70
  9
$TILEMODE
 70
    1
  9
$MAXACTVP
 70
   64
  9
$PINSBASE
 10
0
 20
0
 30
0
  9
$PLIMCHECK
 70
    0
  9
$PEXTMIN
 10
0
 20
0
 30
0
  9
$PEXTMAX
 10
0
 20
0
 30
0
  9
$GRIDMODE
 70
    0
  9
$SNAPSTYLE
 70
    0
  9
$VIEWCTR
 10
105
 20
148.5
  9
$PLIMMIN
 10
0
 20
0
  9
$PLIMMAX
 10
297
 20
210
  9
$UNITMODE
 70
    0
  9
$VISRETAIN
 70
    1
  9
$PLINEGEN
 70
    0
  9
$PSLTSCALE
 70
    1
  9
$TREEDEPTH
 70
 3020
  9
$CMLSTYLE
  2
Standard
  9
$CMLJUST
 70
    0
  9
$CMLSCALE
 40
20
  9
$PROXYGRAPHICS
 70
    1
  9
$MEASUREMENT
 70
    1
  9
$CELWEIGHT
370
   -1
  9
$ENDCAPS
280
    0
  9
$JOINSTYLE
280
    0
  9
$LWDISPLAY
290
    0
  9
$INSUNITS
 70
    4
  9
$HYPERLINKBASE
  1

  9
$STYLESHEET
  1

  9
$XEDIT
290
    1
  9
$CEPSNTYPE
380
    0
  9
$PSTYLEMODE
290
    1
  9
$EXTNAMES
290
    1
  9
$PSVPSCALE
 40
1
  9
$OLESTARTUP
290
    0
  0
ENDSEC
  0
SECTION
  2
CLASSES
  0
ENDSEC
  0
SECTION
  2
TABLES
  0
TABLE
  2
VPORT
  5
8
330
0
100
AcDbSymbolTable
 70
    1
  0
VPORT
  5
31
330
2
100
AcDbSymbolTableRecord
100
AcDbViewportTableRecord
  2
*ACTIVE
 70
    0
 10
0
 20
0
 11
1
 21
1
 12
28.98068187874165
 22
6.024372515086406
 13
0
 23
0
 14
10
 24
10
 15
10
 25
10
 16
0
 26
0
 36
1
 17
0
 27
0
 37
0
 40
41.82559948800078
 41
2.172588832487309
 42
50
 43
0
 44
0
 50
0
 51
0
 71
    0
 72
  100
 73
    1
 74
    3
 75
    0
 76
    0
 77
    0
 78
    0
281
    0
 65
    1
110
0
120
0
130
0
111
1
121
0
131
0
112
0
122
1
132
0
 79
    0
146
0
  0
ENDTAB
  0
TABLE
  2
LTYPE
  5
5
330
0
100
AcDbSymbolTable
 70
    4
  0
LTYPE
  5
14
330
5
100
AcDbSymbolTableRecord
100
AcDbLinetypeTableRecord
  2
ByBlock
 70
    0
  3

 72
   65
 73
    0
 40
0
  0
LTYPE
  5
15
330
5
100
AcDbSymbolTableRecord
100
AcDbLinetypeTableRecord
  2
ByLayer
 70
    0
  3

 72
   65
 73
    0
 40
0
  0
LTYPE
  5
16
330
5
100
AcDbSymbolTableRecord
100
AcDbLinetypeTableRecord
  2
Continuous
 70
    0
  3
Solid line
 72
   65
 73
    0
 40
0
  0
LTYPE
  5
32
330
5
100
AcDbSymbolTableRecord
100
AcDbLinetypeTableRecord
  2
DOT
 70
    0
  3
Dot . . . . . . . . . . . . . . . . . . . . . .
 72
   65
 73
    2
 40
6.35
 49
0
 74
    0
 49
-6.35
 74
    0
  0
LTYPE
  5
33
330
5
100
AcDbSymbolTableRecord
100
AcDbLinetypeTableRecord
  2
DOTTINY
 70
    0
  3
Dot (.15x) .....................................
 72
   65
 73
    2
 40
0.9525
 49
0
 74
    0
 49
-0.9525
 74
    0
  0
LTYPE
  5
34
330
5
100
AcDbSymbolTableRecord
100
AcDbLinetypeTableRecord
  2
DOT2
 70
    0
  3
Dot (.5x) .....................................
 72
   65
 73
    2
 40
3.175
 49
0
 74
    0
 49
-3.175
 74
    0
  0
LTYPE
  5
35
330
5
100
AcDbSymbolTableRecord
100
AcDbLinetypeTableRecord
  2
DOTX2
 70
    0
  3
Dot (2x) .  .  .  .  .  .  .  .  .  .  .  .  .
 72
   65
 73
    2
 40
12.7
 49
0
 74
    0
 49
-12.7
 74
    0
  0
LTYPE
  5
36
330
5
100
AcDbSymbolTableRecord
100
AcDbLinetypeTableRecord
  2
DASHED
 70
    0
  3
Dashed _ _ _ _ _ _ _ _ _ _ _ _ _ _ _ _ _
 72
   65
 73
    2
 40
19.05
 49
12.7
 74
    0
 49
-6.35
 74
    0
  0
LTYPE
  5
37
330
5
100
AcDbSymbolTableRecord
100
AcDbLinetypeTableRecord
  2
DASHEDTINY
 70
    0
  3
Dashed (.15x) _ _ _ _ _ _ _ _ _ _ _ _ _ _ _ _ _
 72
   65
 73
    2
 40
2.8575
 49
1.905
 74
    0
 49
-0.9525
 74
    0
  0
LTYPE
  5
38
330
5
100
AcDbSymbolTableRecord
100
AcDbLinetypeTableRecord
  2
DASHED2
 70
    0
  3
Dashed (.5x) _ _ _ _ _ _ _ _ _ _ _ _ _ _ _ _ _
 72
   65
 73
    2
 40
9.524999999999999
 49
6.35
 74
    0
 49
-3.175
 74
    0
  0
LTYPE
  5
39
330
5
100
AcDbSymbolTableRecord
100
AcDbLinetypeTableRecord
  2
DASHEDX2
 70
    0
  3
Dashed (2x) ____  ____  ____  ____  ____  ___
 72
   65
 73
    2
 40
38.09999999999999
 49
25.4
 74
    0
 49
-12.7
 74
    0
  0
LTYPE
  5
3A
330
5
100
AcDbSymbolTableRecord
100
AcDbLinetypeTableRecord
  2
DASHDOT
 70
    0
  3
Dash dot __ . __ . __ . __ . __ . __ . __ . __
 72
   65
 73
    4
 40
25.4
 49
12.7
 74
    0
 49
-6.35
 74
    0
 49
0
 74
    0
 49
-6.35
 74
    0
  0
LTYPE
  5
3B
330
5
100
AcDbSymbolTableRecord
100
AcDbLinetypeTableRecord
  2
DASHDOTTINY
 70
    0
  3
Dash dot (.15x) _._._._._._._._._._._._._._._.
 72
   65
 73
    4
 40
3.81
 49
1.905
 74
    0
 49
-0.9525
 74
    0
 49
0
 74
    0
 49
-0.9525
 74
    0
  0
LTYPE
  5
3C
330
5
100
AcDbSymbolTableRecord
100
AcDbLinetypeTableRecord
  2
DASHDOT2
 70
    0
  3
Dash dot (.5x) _._._._._._._._._._._._._._._.
 72
   65
 73
    4
 40
12.7
 49
6.35
 74
    0
 49
-3.175
 74
    0
 49
0
 74
    0
 49
-3.175
 74
    0
  0
LTYPE
  5
3D
330
5
100
AcDbSymbolTableRecord
100
AcDbLinetypeTableRecord
  2
DASHDOTX2
 70
    0
  3
Dash dot (2x) ____  .  ____  .  ____  .  ___
 72
   65
 73
    4
 40
50.8
 49
25.4
 74
    0
 49
-12.7
 74
    0
 49
0
 74
    0
 49
-12.7
 74
    0
  0
LTYPE
  5
3E
330
5
100
AcDbSymbolTableRecord
100
AcDbLinetypeTableRecord
  2
DIVIDE
 70
    0
  3
Divide ____ . . ____ . . ____ . . ____ . . ____
 72
   65
 73
    6
 40
31.75
 49
12.7
 74
    0
 49
-6.35
 74
    0
 49
0
 74
    0
 49
-6.35
 74
    0
 49
0
 74
    0
 49
-6.35
 74
    0
  0
LTYPE
  5
3F
330
5
100
AcDbSymbolTableRecord
100
AcDbLinetypeTableRecord
  2
DIVIDETINY
 70
    0
  3
Divide (.15x) __..__..__..__..__..__..__..__.._
 72
   65
 73
    6
 40
4.7625
 49
1.905
 74
    0
 49
-0.9525
 74
    0
 49
0
 74
    0
 49
-0.9525
 74
    0
 49
0
 74
    0
 49
-0.9525
 74
    0
  0
LTYPE
  5
40
330
5
100
AcDbSymbolTableRecord
100
AcDbLinetypeTableRecord
  2
DIVIDE2
 70
    0
  3
Divide (.5x) __..__..__..__..__..__..__..__.._
 72
   65
 73
    6
 40
15.875
 49
6.35
 74
    0
 49
-3.175
 74
    0
 49
0
 74
    0
 49
-3.175
 74
    0
 49
0
 74
    0
 49
-3.175
 74
    0
  0
LTYPE
  5
41
330
5
100
AcDbSymbolTableRecord
100
AcDbLinetypeTableRecord
  2
DIVIDEX2
 70
    0
  3
Divide (2x) ________  .  .  ________  .  .  _
 72
   65
 73
    6
 40
63.5
 49
25.4
 74
    0
 49
-12.7
 74
    0
 49
0
 74
    0
 49
-12.7
 74
    0
 49
0
 74
    0
 49
-12.7
 74
    0
  0
LTYPE
  5
42
330
5
100
AcDbSymbolTableRecord
100
AcDbLinetypeTableRecord
  2
BORDER
 70
    0
  3
Border __ __ . __ __ . __ __ . __ __ . __ __ .
 72
   65
 73
    6
 40
44.45
 49
12.7
 74
    0
 49
-6.35
 74
    0
 49
12.7
 74
    0
 49
-6.35
 74
    0
 49
0
 74
    0
 49
-6.35
 74
    0
  0
LTYPE
  5
43
330
5
100
AcDbSymbolTableRecord
100
AcDbLinetypeTableRecord
  2
BORDERTINY
 70
    0
  3
Border (.15x) __.__.__.__.__.__.__.__.__.__.__.
 72
   65
 73
    6
 40
6.6675
 49
1.905
 74
    0
 49
-0.9525
 74
    0
 49
1.905
 74
    0
 49
-0.9525
 74
    0
 49
0
 74
    0
 49
-0.9525
 74
    0
  0
LTYPE
  5
44
330
5
100
AcDbSymbolTableRecord
100
AcDbLinetypeTableRecord
  2
BORDER2
 70
    0
  3
Border (.5x) __.__.__.__.__.__.__.__.__.__.__.
 72
   65
 73
    6
 40
22.225
 49
6.35
 74
    0
 49
-3.175
 74
    0
 49
6.35
 74
    0
 49
-3.175
 74
    0
 49
0
 74
    0
 49
-3.175
 74
    0
  0
LTYPE
  5
45
330
5
100
AcDbSymbolTableRecord
100
AcDbLinetypeTableRecord
  2
BORDERX2
 70
    0
  3
Border (2x) ____  ____  .  ____  ____  .  ___
 72
   65
 73
    6
 40
88.89999999999999
 49
25.4
 74
    0
 49
-12.7
 74
    0
 49
25.4
 74
    0
 49
-12.7
 74
    0
 49
0
 74
    0
 49
-12.7
 74
    0
  0
LTYPE
  5
46
330
5
100
AcDbSymbolTableRecord
100
AcDbLinetypeTableRecord
  2
CENTER
 70
    0
  3
Center ____ _ ____ _ ____ _ ____ _ ____ _ ____
 72
   65
 73
    4
 40
50.8
 49
31.75
 74
    0
 49
-6.35
 74
    0
 49
6.35
 74
    0
 49
-6.35
 74
    0
  0
LTYPE
  5
47
330
5
100
AcDbSymbolTableRecord
100
AcDbLinetypeTableRecord
  2
CENTERTINY
 70
    0
  3
Center (.15x) ___ _ ___ _ ___ _ ___ _ ___ _ ___
 72
   65
 73
    4
 40
7.619999999999999
 49
4.7625
 74
    0
 49
-0.9525
 74
    0
 49
0.9525
 74
    0
 49
-0.9525
 74
    0
  0
LTYPE
  5
48
330
5
100
AcDbSymbolTableRecord
100
AcDbLinetypeTableRecord
  2
CENTER2
 70
    0
  3
Center (.5x) ___ _ ___ _ ___ _ ___ _ ___ _ ___
 72
   65
 73
    4
 40
28.575
 49
19.05
 74
    0
 49
-3.175
 74
    0
 49
3.175
 74
    0
 49
-3.175
 74
    0
  0
LTYPE
  5
49
330
5
100
AcDbSymbolTableRecord
100
AcDbLinetypeTableRecord
  2
CENTERX2
 70
    0
  3
Center (2x) ________  __  ________  __  _____
 72
   65
 73
    4
 40
101.6
 49
63.5
 74
    0
 49
-12.7
 74
    0
 49
12.7
 74
    0
 49
-12.7
 74
    0
  0
ENDTAB
  0
TABLE
  2
LAYER
  5
2
330
0
100
AcDbSymbolTable
 70
    1
  0
LAYER
  5
10
330
2
100
AcDbSymbolTableRecord
100
AcDbLayerTableRecord
  2
0
 70
    0
 62
    7
  6
CONTINUOUS
370
   -3
390
F
  0
LAYER
  5
4A
330
2
100
AcDbSymbolTableRecord
100
AcDbLayerTableRecord
  2
00_PROFIL_DATUM
 70
    0
 62
    7
  6
CONTINUOUS
370
   -3
390
F
  0
LAYER
  5
4B
330
2
100
AcDbSymbolTableRecord
100
AcDbLayerTableRecord
  2
00_PROFIL_END_CSYS
 70
    0
 62
    7
  6
CONTINUOUS
370
   -3
390
F
  0
LAYER
  5
4C
330
2
100
AcDbSymbolTableRecord
100
AcDbLayerTableRecord
  2
00_PROFIL_QUILT
 70
    0
 62
    7
  6
CONTINUOUS
370
   -3
390
F
  0
LAYER
  5
4D
330
2
100
AcDbSymbolTableRecord
100
AcDbLayerTableRecord
  2
00_PROFIL_SLOT_CURVE
 70
    0
 62
    7
  6
CONTINUOUS
370
   -3
390
F
  0
LAYER
  5
4E
330
2
100
AcDbSymbolTableRecord
100
AcDbLayerTableRecord
  2
DEFAULT_1
 70
    0
 62
    7
  6
CENTER
370
   -3
390
F
  0
LAYER
  5
4F
330
2
100
AcDbSymbolTableRecord
100
AcDbLayerTableRecord
  2
DEFAULT_2
 70
    0
 62
    8
  6
DASHED
370
   -3
390
F
  0
LAYER
  5
50
330
2
100
AcDbSymbolTableRecord
100
AcDbLayerTableRecord
  2
DEFAULT_3
 70
    0
 62
    7
  6
CONTINUOUS
370
   -3
390
F
  0
LAYER
  5
51
330
2
100
AcDbSymbolTableRecord
100
AcDbLayerTableRecord
  2
ZEICHNUNGSBEMASSUNGEN
 70
    0
 62
    7
  6
CONTINUOUS
370
   -3
390
F
  0
LAYER
  5
52
330
2
100
AcDbSymbolTableRecord
100
AcDbLayerTableRecord
  2
Z_DIM_3D
 70
    0
 62
    7
  6
CONTINUOUS
370
   -3
390
F
  0
ENDTAB
  0
TABLE
  2
STYLE
  5
3
330
0
100
AcDbSymbolTable
 70
    3
  0
STYLE
  5
53
330
2
100
AcDbSymbolTableRecord
100
AcDbTextStyleTableRecord
  2
textstyle_9
 70
    0
 40
0
 41
1
 50
0
 71
    0
 42
1
  3
textstyle_9
  4

  0
STYLE
  5
54
330
2
100
AcDbSymbolTableRecord
100
AcDbTextStyleTableRecord
  2
standard
 70
    0
 40
0
 41
1
 50
0
 71
    0
 42
1
  3
standard
  4

  0
STYLE
  5
55
330
2
100
AcDbSymbolTableRecord
100
AcDbTextStyleTableRecord
  2
textstyle_8
 70
    0
 40
0
 41
1
 50
0
 71
    0
 42
1
  3
textstyle_8
  4

  0
ENDTAB
  0
TABLE
  2
VIEW
  5
6
330
0
100
AcDbSymbolTable
 70
    0
  0
ENDTAB
  0
TABLE
  2
UCS
  5
7
330
0
100
AcDbSymbolTable
 70
    0
  0
ENDTAB
  0
TABLE
  2
APPID
  5
9
330
0
100
AcDbSymbolTable
 70
    1
  0
APPID
  5
12
330
9
100
AcDbSymbolTableRecord
100
AcDbRegAppTableRecord
  2
ACAD
 70
    0
  0
APPID
  5
56
330
9
100
AcDbSymbolTableRecord
100
AcDbRegAppTableRecord
  2
LibreCad
 70
    0
  0
ENDTAB
  0
TABLE
  2
DIMSTYLE
  5
A
330
0
100
AcDbSymbolTable
 70
    1
100
AcDbDimStyleTable
 71
    1
  0
DIMSTYLE
105
57
330
A
100
AcDbSymbolTableRecord
100
AcDbDimStyleTableRecord
  2
Standard
 70
    0
 40
1
 41
3.5
 42
2.2
 43
0.38
 44
6.336
 45
0
 46
0
 47
0
 48
0
 49
1
140
3.5
141
0.09
142
0
143
25.4
144
1
145
0
146
1
147
0.625
148
0
 71
    0
 72
    0
 73
    0
 74
    1
 75
    0
 76
    0
 77
    0
 78
    8
 79
    0
170
    0
171
    2
172
    0
173
    0
174
    0
175
    0
176
    0
177
    0
178
    0
179
    0
271
    3
272
    4
273
    2
274
    2
275
    0
276
    0
277
    2
278
   44
279
    0
280
    0
281
    0
282
    0
283
    1
284
    0
285
    0
286
    0
288
    0
289
    3
340
STANDARD
341

371
   -2
372
   -2
  0
ENDTAB
  0
TABLE
  2
BLOCK_RECORD
  5
1
330
0
100
AcDbSymbolTable
 70
    2
  0
BLOCK_RECORD
  5
1F
330
1
100
AcDbSymbolTableRecord
100
AcDbBlockTableRecord
  2
*Model_Space
  0
BLOCK_RECORD
  5
1E
330
1
100
AcDbSymbolTableRecord
100
AcDbBlockTableRecord
  2
*Paper_Space
  0
BLOCK_RECORD
  5
58
330
1
100
AcDbSymbolTableRecord
100
AcDbBlockTableRecord
  2
SYMBOL_21_BL1
  0
BLOCK_RECORD
  5
5B
330
1
100
AcDbSymbolTableRecord
100
AcDbBlockTableRecord
  2
SYMBOL_17_BL0
  0
BLOCK_RECORD
  5
5E
330
1
100
AcDbSymbolTableRecord
100
AcDbBlockTableRecord
  2
_FILLED
  0
BLOCK_RECORD
  5
61
330
1
100
AcDbSymbolTableRecord
100
AcDbBlockTableRecord
  2
*T1
  0
BLOCK_RECORD
  5
64
330
1
100
AcDbSymbolTableRecord
100
AcDbBlockTableRecord
  2
*T2
  0
ENDTAB
  0
ENDSEC
  0
SECTION
  2
BLOCKS
  0
BLOCK
  5
20
330
1F
100
AcDbEntity
  8
0
100
AcDbBlockBegin
  2
*Model_Space
 70
    0
 10
0
 20
0
 30
0
  3
*Model_Space
  1

  0
ENDBLK
  5
21
330
1F
100
AcDbEntity
  8
0
100
AcDbBlockEnd
  0
BLOCK
  5
1C
330
1B
100
AcDbEntity
  8
0
100
AcDbBlockBegin
  2
*Paper_Space
 70
    0
 10
0
 20
0
 30
0
  3
*Paper_Space
  1

  0
ENDBLK
  5
1D
330
1F
100
AcDbEntity
  8
0
100
AcDbBlockEnd
  0
BLOCK
  5
59
330
58
100
AcDbEntity
  8
0
100
AcDbBlockBegin
  2
SYMBOL_21_BL1
 70
    0
 10
88.62004600429999
 20
17.8101999469
  3
SYMBOL_21_BL1
  1

  0
LINE
  5
67
100
AcDbEntity
  8
0
  6
CONTINUOUS
 62
    2
370
   -1
100
AcDbLine
 10
70.4780943136
 20
19.4573385891
 11
71.7295845022
 21
19.4573385891
  0
LINE
  5
68
100
AcDbEntity
  8
0
  6
CONTINUOUS
 62
    2
370
   -1
100
AcDbLine
 10
71.7295845022
 20
19.4573385891
 11
72.1219847767
 21
20.1951421968
  0
LINE
  5
69
100
AcDbEntity
  8
0
  6
CONTINUOUS
 62
    2
370
   -1
100
AcDbLine
 10
72.1219847767
 20
20.1951421968
 11
74.72206589709999
 21
20.1951421968
  0
LINE
  5
6A
100
AcDbEntity
  8
0
  6
CONTINUOUS
 62
    2
370
   -1
100
AcDbLine
 10
74.72206589709999
 20
20.1951421968
 11
75.1144661716
 21
19.4573385891
  0
LINE
  5
6B
100
AcDbEntity
  8
0
  6
CONTINUOUS
 62
    2
370
   -1
100
AcDbLine
 10
75.1144661716
 20
19.4573385891
 11
76.3659563602
 21
19.4573385891
  0
LINE
  5
6C
100
AcDbEntity
  8
0
  6
CONTINUOUS
 62
    2
370
   -1
100
AcDbLine
 10
76.3659563602
 20
19.4573385891
 11
74.35260574900001
 21
23.2429051174
  0
LINE
  5
6D
100
AcDbEntity
  8
0
  6
CONTINUOUS
 62
    2
370
   -1
100
AcDbLine
 10
70.4780943136
 20
19.4573385891
 11
72.49144492480001
 21
23.2429051174
  0
LINE
  5
6E
100
AcDbEntity
  8
0
  6
CONTINUOUS
 62
    2
370
   -1
100
AcDbLine
 10
72.6220714602
 20
21.135421252
 11
73.42202533690001
 21
22.6395202415
  0
LINE
  5
6F
100
AcDbEntity
  8
0
  6
CONTINUOUS
 62
    2
370
   -1
100
AcDbLine
 10
73.42202533690001
 20
22.6395202415
 11
74.22197921359999
 21
21.135421252
  0
LINE
  5
70
100
AcDbEntity
  8
0
  6
CONTINUOUS
 62
    2
370
   -1
100
AcDbLine
 10
74.22197921359999
 20
21.135421252
 11
72.6220714602
 21
21.135421252
  0
ARC
  5
71
100
AcDbEntity
  8
0
  6
CONTINUOUS
 62
    2
370
   -1
100
AcDbCircle
 10
73.42202533690001
 20
22.6963332586
 40
1.0792222663
100
AcDbArc
 50
30.4276380954
 51
149.5723619046
  0
LINE
  5
72
100
AcDbEntity
  8
0
  6
CONTINUOUS
 62
    2
370
   -1
100
AcDbLine
 10
76.81482948510001
 20
23.7755540953
 11
77.8764348699
 21
23.7755540953
  0
LINE
  5
73
100
AcDbEntity
  8
0
  6
CONTINUOUS
 62
    2
370
   -1
100
AcDbLine
 10
77.8764348699
 20
23.7755540953
 11
77.8764348699
 21
20.5189439739
  0
LINE
  5
74
100
AcDbEntity
  8
0
  6
CONTINUOUS
 62
    2
370
   -1
100
AcDbLine
 10
77.8764348699
 20
20.5189439739
 11
81.1513217701
 21
20.5189439739
  0
LINE
  5
75
100
AcDbEntity
  8
0
  6
CONTINUOUS
 62
    2
370
   -1
100
AcDbLine
 10
81.1513217701
 20
20.5189439739
 11
81.1513217701
 21
19.4573385891
  0
LINE
  5
76
100
AcDbEntity
  8
0
  6
CONTINUOUS
 62
    2
370
   -1
100
AcDbLine
 10
81.1513217701
 20
19.4573385891
 11
77.8764348699
 21
19.4573385891
  0
LINE
  5
77
100
AcDbEntity
  8
0
  6
CONTINUOUS
 62
    2
370
   -1
100
AcDbLine
 10
76.81482948510001
 20
23.7755540953
 11
76.81482948510001
 21
20.5189439739
  0
ARC
  5
78
100
AcDbEntity
  8
0
  6
CONTINUOUS
 62
    2
370
   -1
100
AcDbCircle
 10
77.8764348699
 20
20.5189439739
 40
1.0616053848
100
AcDbArc
 50
180
 51
270
  0
LINE
  5
79
100
AcDbEntity
  8
0
  6
CONTINUOUS
 62
    2
370
   -1
100
AcDbLine
 10
86.3753785599
 20
23.609028486
 11
85.1238883713
 21
23.609028486
  0
LINE
  5
7A
100
AcDbEntity
  8
0
  6
CONTINUOUS
 62
    2
370
   -1
100
AcDbLine
 10
81.739006702
 20
23.609028486
 11
80.48751651329999
 21
23.609028486
  0
LINE
  5
7B
100
AcDbEntity
  8
0
  6
CONTINUOUS
 62
    2
370
   -1
100
AcDbLine
 10
80.48751651329999
 20
23.609028486
 11
82.5008671245
 21
19.8234619578
  0
LINE
  5
7C
100
AcDbEntity
  8
0
  6
CONTINUOUS
 62
    2
370
   -1
100
AcDbLine
 10
86.3753785599
 20
23.609028486
 11
84.3620279487
 21
19.8234619578
  0
LINE
  5
7D
100
AcDbEntity
  8
0
  6
CONTINUOUS
 62
    2
370
   -1
100
AcDbLine
 10
85.1238883713
 20
23.609028486
 11
83.4314475366
 21
20.4268468336
  0
LINE
  5
7E
100
AcDbEntity
  8
0
  6
CONTINUOUS
 62
    2
370
   -1
100
AcDbLine
 10
83.4314475366
 20
20.4268468336
 11
81.739006702
 21
23.609028486
  0
ARC
  5
7F
100
AcDbEntity
  8
0
  6
CONTINUOUS
 62
    2
370
   -1
100
AcDbCircle
 10
83.4314475366
 20
20.3700338165
 40
1.0792222663
100
AcDbArc
 50
210.4276380954
 51
329.5723619046
  0
LINE
  5
80
100
AcDbEntity
  8
0
  6
CONTINUOUS
 62
    2
370
   -1
100
AcDbLine
 10
85.11958245770001
 20
19.4573385891
 11
86.37107264629999
 21
19.4573385891
  0
LINE
  5
81
100
AcDbEntity
  8
0
  6
CONTINUOUS
 62
    2
370
   -1
100
AcDbLine
 10
86.37107264629999
 20
19.4573385891
 11
86.7634729208
 21
20.1951421968
  0
LINE
  5
82
100
AcDbEntity
  8
0
  6
CONTINUOUS
 62
    2
370
   -1
100
AcDbLine
 10
86.7634729208
 20
20.1951421968
 11
89.3635540412
 21
20.1951421968
  0
LINE
  5
83
100
AcDbEntity
  8
0
  6
CONTINUOUS
 62
    2
370
   -1
100
AcDbLine
 10
89.3635540412
 20
20.1951421968
 11
89.7559543157
 21
19.4573385891
  0
LINE
  5
84
100
AcDbEntity
  8
0
  6
CONTINUOUS
 62
    2
370
   -1
100
AcDbLine
 10
89.7559543157
 20
19.4573385891
 11
91.0074445043
 21
19.4573385891
  0
LINE
  5
85
100
AcDbEntity
  8
0
  6
CONTINUOUS
 62
    2
370
   -1
100
AcDbLine
 10
91.0074445043
 20
19.4573385891
 11
88.9940938931
 21
23.2429051174
  0
LINE
  5
86
100
AcDbEntity
  8
0
  6
CONTINUOUS
 62
    2
370
   -1
100
AcDbLine
 10
85.11958245770001
 20
19.4573385891
 11
87.1329330689
 21
23.2429051174
  0
LINE
  5
87
100
AcDbEntity
  8
0
  6
CONTINUOUS
 62
    2
370
   -1
100
AcDbLine
 10
87.2635596043
 20
21.135421252
 11
88.063513481
 21
22.6395202415
  0
LINE
  5
88
100
AcDbEntity
  8
0
  6
CONTINUOUS
 62
    2
370
   -1
100
AcDbLine
 10
88.063513481
 20
22.6395202415
 11
88.8634673577
 21
21.135421252
  0
LINE
  5
89
100
AcDbEntity
  8
0
  6
CONTINUOUS
 62
    2
370
   -1
100
AcDbLine
 10
88.8634673577
 20
21.135421252
 11
87.2635596043
 21
21.135421252
  0
ARC
  5
8A
100
AcDbEntity
  8
0
  6
CONTINUOUS
 62
    2
370
   -1
100
AcDbCircle
 10
88.063513481
 20
22.6963332586
 40
1.0792222663
100
AcDbArc
 50
30.4276380954
 51
149.5723619046
  0
LINE
  5
8B
100
AcDbEntity
  8
0
  6
CONTINUOUS
 62
    2
370
   -1
100
AcDbLine
 10
91.5386462101
 20
19.4573385891
 11
91.5386462101
 21
23.7755540953
  0
LINE
  5
8C
100
AcDbEntity
  8
0
  6
CONTINUOUS
 62
    2
370
   -1
100
AcDbLine
 10
91.5386462101
 20
23.7755540953
 11
96.5497172116
 21
23.7755540953
  0
LINE
  5
8D
100
AcDbEntity
  8
0
  6
CONTINUOUS
 62
    2
370
   -1
100
AcDbLine
 10
92.6673893773
 20
22.7702787921
 11
92.6673893773
 21
22.1394997651
  0
LINE
  5
8E
100
AcDbEntity
  8
0
  6
CONTINUOUS
 62
    2
370
   -1
100
AcDbLine
 10
92.6673893773
 20
22.1394997651
 11
96.5497172116
 21
22.1394997651
  0
LINE
  5
8F
100
AcDbEntity
  8
0
  6
CONTINUOUS
 62
    2
370
   -1
100
AcDbLine
 10
96.5497172116
 20
22.1394997651
 11
96.5497172116
 21
22.7702787921
  0
LINE
  5
90
100
AcDbEntity
  8
0
  6
CONTINUOUS
 62
    2
370
   -1
100
AcDbLine
 10
96.5497172116
 20
22.7702787921
 11
92.6673893773
 21
22.7702787921
  0
LINE
  5
91
100
AcDbEntity
  8
0
  6
CONTINUOUS
 62
    2
370
   -1
100
AcDbLine
 10
92.6673893773
 20
21.135421252
 11
92.6673893773
 21
19.4573385891
  0
LINE
  5
92
100
AcDbEntity
  8
0
  6
CONTINUOUS
 62
    2
370
   -1
100
AcDbLine
 10
92.6673893773
 20
19.4573385891
 11
91.5386462101
 21
19.4573385891
  0
LINE
  5
93
100
AcDbEntity
  8
0
  6
CONTINUOUS
 62
    2
370
   -1
100
AcDbLine
 10
92.6673893773
 20
21.135421252
 11
96.5497172116
 21
21.135421252
  0
LINE
  5
94
100
AcDbEntity
  8
0
  6
CONTINUOUS
 62
    2
370
   -1
100
AcDbLine
 10
96.5497172116
 20
21.135421252
 11
96.5497172116
 21
19.4573385891
  0
LINE
  5
95
100
AcDbEntity
  8
0
  6
CONTINUOUS
 62
    2
370
   -1
100
AcDbLine
 10
96.5497172116
 20
19.4573385891
 11
97.6763188445
 21
19.4573385891
  0
LINE
  5
96
100
AcDbEntity
  8
0
  6
CONTINUOUS
 62
    2
370
   -1
100
AcDbLine
 10
97.6763188445
 20
19.4573385891
 11
97.6763188445
 21
21.135421252
  0
ARC
  5
97
100
AcDbEntity
  8
0
  6
CONTINUOUS
 62
    2
370
   -1
100
AcDbCircle
 10
96.5429293903
 20
20.8219064264
 40
1.1759520401
100
AcDbArc
 50
15.4623506651
 51
43.9099264435
  0
ARC
  5
98
100
AcDbEntity
  8
0
  6
CONTINUOUS
 62
    2
370
   -1
100
AcDbCircle
 10
96.3406528795
 20
22.4611842114
 40
1.3308929659
100
AcDbArc
 50
321.7622828693
 51
80.96221645910001
  0
LINE
  5
99
100
AcDbEntity
  8
0
  6
CONTINUOUS
 62
    2
370
   -1
100
AcDbLine
 10
98.3892507546
 20
19.4573385891
 11
98.3892507546
 21
23.7755540953
  0
LINE
  5
9A
100
AcDbEntity
  8
0
  6
CONTINUOUS
 62
    2
370
   -1
100
AcDbLine
 10
99.6891757156
 20
19.4573385891
 11
99.6891757156
 21
23.7755540953
  0
LINE
  5
9B
100
AcDbEntity
  8
0
  6
CONTINUOUS
 62
    2
370
   -1
100
AcDbLine
 10
98.3892507546
 20
23.7755540953
 11
99.6891757156
 21
23.7755540953
  0
LINE
  5
9C
100
AcDbEntity
  8
0
  6
CONTINUOUS
 62
    2
370
   -1
100
AcDbLine
 10
99.6891757156
 20
19.4573385891
 11
98.3892507546
 21
19.4573385891
  0
LINE
  5
9D
100
AcDbEntity
  8
0
  6
CONTINUOUS
 62
    2
370
   -1
100
AcDbLine
 10
88.4756967555
 20
24.2348609149
 11
89.33693611309999
 21
25.3101999469
  0
LINE
  5
9E
100
AcDbEntity
  8
0
  6
CONTINUOUS
 62
    2
370
   -1
100
AcDbLine
 10
87.70824630600001
 20
24.2348609149
 11
88.3223815426
 21
25.3101999469
  0
LINE
  5
9F
100
AcDbEntity
  8
0
  6
CONTINUOUS
 62
    2
370
   -1
100
AcDbLine
 10
87.70824630600001
 20
24.2348609149
 11
88.4756967555
 21
24.2348609149
  0
LINE
  5
A0
100
AcDbEntity
  8
0
  6
CONTINUOUS
 62
    2
370
   -1
100
AcDbLine
 10
88.3223815426
 20
25.3101999469
 11
89.33693611309999
 21
25.3101999469
  0
ARC
  5
A1
100
AcDbEntity
  8
0
  6
CONTINUOUS
 62
    2
370
   -1
100
AcDbCircle
 10
101.52694075
 20
22.4554876736
 40
1.321921117
100
AcDbArc
 50
93.0354420085
 51
266.9645579915
  0
LINE
  5
A2
100
AcDbEntity
  8
0
  6
CONTINUOUS
 62
    2
370
   -1
100
AcDbLine
 10
101.4569401645
 20
23.7755540953
 11
106.3256215426
 21
23.7755540953
  0
LINE
  5
A3
100
AcDbEntity
  8
0
  6
CONTINUOUS
 62
    2
370
   -1
100
AcDbLine
 10
106.3256215426
 20
23.7755540953
 11
106.3256215426
 21
22.8411605438
  0
LINE
  5
A4
100
AcDbEntity
  8
0
  6
CONTINUOUS
 62
    2
370
   -1
100
AcDbLine
 10
106.3256215426
 20
22.8411605438
 11
101.7756537686
 21
22.8411605438
  0
LINE
  5
A5
100
AcDbEntity
  8
0
  6
CONTINUOUS
 62
    2
370
   -1
100
AcDbLine
 10
101.7756537686
 20
22.8411605438
 11
101.7756537686
 21
22.1394997651
  0
LINE
  5
A6
100
AcDbEntity
  8
0
  6
CONTINUOUS
 62
    2
370
   -1
100
AcDbLine
 10
101.7756537686
 20
22.1394997651
 11
105.3506778218
 21
22.1394997651
  0
LINE
  5
A7
100
AcDbEntity
  8
0
  6
CONTINUOUS
 62
    2
370
   -1
100
AcDbLine
 10
100.4841567602
 20
19.4573385891
 11
105.3506778218
 21
19.4573385891
  0
LINE
  5
A8
100
AcDbEntity
  8
0
  6
CONTINUOUS
 62
    2
370
   -1
100
AcDbLine
 10
100.4841567602
 20
19.4573385891
 11
100.4841567602
 21
20.4058036937
  0
LINE
  5
A9
100
AcDbEntity
  8
0
  6
CONTINUOUS
 62
    2
370
   -1
100
AcDbLine
 10
100.4841567602
 20
20.4058036937
 11
105.4163687095
 21
20.4058036937
  0
LINE
  5
AA
100
AcDbEntity
  8
0
  6
CONTINUOUS
 62
    2
370
   -1
100
AcDbLine
 10
105.4163687095
 20
20.4058036937
 11
105.4163687095
 21
21.135421252
  0
LINE
  5
AB
100
AcDbEntity
  8
0
  6
CONTINUOUS
 62
    2
370
   -1
100
AcDbLine
 10
105.4163687095
 20
21.135421252
 11
101.4569401645
 21
21.135421252
  0
ARC
  5
AC
100
AcDbEntity
  8
0
  6
CONTINUOUS
 62
    2
370
   -1
100
AcDbCircle
 10
105.2585192043
 20
20.7984191771
 40
1.3442434133
100
AcDbArc
 50
273.931166751
 51
86.06883324899999
  0
LINE
  5
AD
100
AcDbEntity
  8
0
  6
CONTINUOUS
 62
    2
370
   -1
100
AcDbLine
 10
70.4780943136
 20
17.728438391
 11
106.6027626176
 21
17.728438391
  0
LINE
  5
AE
100
AcDbEntity
  8
0
  6
CONTINUOUS
 62
    2
370
   -1
100
AcDbLine
 10
106.6027626176
 20
17.728438391
 11
106.6027626176
 21
14.2446394955
  0
LINE
  5
AF
100
AcDbEntity
  8
0
  6
CONTINUOUS
 62
    2
370
   -1
100
AcDbLine
 10
106.6027626176
 20
14.2446394955
 11
70.4780943136
 21
14.2446394955
  0
LINE
  5
B0
100
AcDbEntity
  8
0
  6
CONTINUOUS
 62
    2
370
   -1
100
AcDbLine
 10
70.4780943136
 20
14.2446394955
 11
70.4780943136
 21
17.728438391
  0
LINE
  5
B1
100
AcDbEntity
  8
0
  6
CONTINUOUS
 62
    2
370
   -1
100
AcDbLine
 10
106.6027626176
 20
17.728438391
 11
70.4780943136
 21
17.728438391
  0
LINE
  5
B2
100
AcDbEntity
  8
0
  6
CONTINUOUS
 62
    2
370
   -1
100
AcDbLine
 10
70.4780943136
 20
17.728438391
 11
70.4780943136
 21
14.2446394955
  0
LINE
  5
B3
100
AcDbEntity
  8
0
  6
CONTINUOUS
 62
    2
370
   -1
100
AcDbLine
 10
70.4780943136
 20
14.2446394955
 11
106.6027626176
 21
14.2446394955
  0
LINE
  5
B4
100
AcDbEntity
  8
0
  6
CONTINUOUS
 62
    2
370
   -1
100
AcDbLine
 10
106.6027626176
 20
14.2446394955
 11
106.6027626176
 21
17.728438391
  0
LINE
  5
B5
100
AcDbEntity
  8
0
  6
CONTINUOUS
 62
    2
370
   -1
100
AcDbLine
 10
106.4240363417
 20
14.2446394955
 11
106.6027626176
 21
14.4233657715
  0
LINE
  5
B6
100
AcDbEntity
  8
0
  6
CONTINUOUS
 62
    2
370
   -1
100
AcDbLine
 10
106.2294753569
 20
14.2446394955
 11
106.6027626176
 21
14.6179267563
  0
LINE
  5
B7
100
AcDbEntity
  8
0
  6
CONTINUOUS
 62
    2
370
   -1
100
AcDbLine
 10
106.0349143721
 20
14.2446394955
 11
106.6027626176
 21
14.8124877411
  0
LINE
  5
B8
100
AcDbEntity
  8
0
  6
CONTINUOUS
 62
    2
370
   -1
100
AcDbLine
 10
105.8403533873
 20
14.2446394955
 11
106.6027626176
 21
15.0070487259
  0
LINE
  5
B9
100
AcDbEntity
  8
0
  6
CONTINUOUS
 62
    2
370
   -1
100
AcDbLine
 10
105.6457924025
 20
14.2446394955
 11
106.6027626176
 21
15.2016097107
  0
LINE
  5
BA
100
AcDbEntity
  8
0
  6
CONTINUOUS
 62
    2
370
   -1
100
AcDbLine
 10
105.4512314177
 20
14.2446394955
 11
106.6027626176
 21
15.3961706955
  0
LINE
  5
BB
100
AcDbEntity
  8
0
  6
CONTINUOUS
 62
    2
370
   -1
100
AcDbLine
 10
105.2566704329
 20
14.2446394955
 11
106.6027626176
 21
15.5907316803
  0
LINE
  5
BC
100
AcDbEntity
  8
0
  6
CONTINUOUS
 62
    2
370
   -1
100
AcDbLine
 10
105.0621094481
 20
14.2446394955
 11
106.6027626176
 21
15.7852926651
  0
LINE
  5
BD
100
AcDbEntity
  8
0
  6
CONTINUOUS
 62
    2
370
   -1
100
AcDbLine
 10
104.8675484633
 20
14.2446394955
 11
106.6027626176
 21
15.9798536499
  0
LINE
  5
BE
100
AcDbEntity
  8
0
  6
CONTINUOUS
 62
    2
370
   -1
100
AcDbLine
 10
104.6729874785
 20
14.2446394955
 11
106.6027626176
 21
16.1744146347
  0
LINE
  5
BF
100
AcDbEntity
  8
0
  6
CONTINUOUS
 62
    2
370
   -1
100
AcDbLine
 10
104.4784264937
 20
14.2446394955
 11
106.6027626176
 21
16.3689756195
  0
LINE
  5
C0
100
AcDbEntity
  8
0
  6
CONTINUOUS
 62
    2
370
   -1
100
AcDbLine
 10
104.2838655089
 20
14.2446394955
 11
106.6027626176
 21
16.5635366043
  0
LINE
  5
C1
100
AcDbEntity
  8
0
  6
CONTINUOUS
 62
    2
370
   -1
100
AcDbLine
 10
104.0893045241
 20
14.2446394955
 11
106.6027626176
 21
16.7580975891
  0
LINE
  5
C2
100
AcDbEntity
  8
0
  6
CONTINUOUS
 62
    2
370
   -1
100
AcDbLine
 10
103.8947435393
 20
14.2446394955
 11
106.6027626176
 21
16.9526585739
  0
LINE
  5
C3
100
AcDbEntity
  8
0
  6
CONTINUOUS
 62
    2
370
   -1
100
AcDbLine
 10
103.7001825545
 20
14.2446394955
 11
106.6027626176
 21
17.1472195587
  0
LINE
  5
C4
100
AcDbEntity
  8
0
  6
CONTINUOUS
 62
    2
370
   -1
100
AcDbLine
 10
103.5056215697
 20
14.2446394955
 11
106.6027626176
 21
17.3417805435
  0
LINE
  5
C5
100
AcDbEntity
  8
0
  6
CONTINUOUS
 62
    2
370
   -1
100
AcDbLine
 10
103.3110605849
 20
14.2446394955
 11
106.6027626176
 21
17.5363415283
  0
LINE
  5
C6
100
AcDbEntity
  8
0
  6
CONTINUOUS
 62
    2
370
   -1
100
AcDbLine
 10
103.1164996001
 20
14.2446394955
 11
106.6002984955
 21
17.728438391
  0
LINE
  5
C7
100
AcDbEntity
  8
0
  6
CONTINUOUS
 62
    2
370
   -1
100
AcDbLine
 10
102.9219386153
 20
14.2446394955
 11
106.4057375107
 21
17.728438391
  0
LINE
  5
C8
100
AcDbEntity
  8
0
  6
CONTINUOUS
 62
    2
370
   -1
100
AcDbLine
 10
102.7273776305
 20
14.2446394955
 11
106.2111765259
 21
17.728438391
  0
LINE
  5
C9
100
AcDbEntity
  8
0
  6
CONTINUOUS
 62
    2
370
   -1
100
AcDbLine
 10
102.5328166457
 20
14.2446394955
 11
106.0166155411
 21
17.728438391
  0
LINE
  5
CA
100
AcDbEntity
  8
0
  6
CONTINUOUS
 62
    2
370
   -1
100
AcDbLine
 10
102.3382556609
 20
14.2446394955
 11
105.8220545563
 21
17.728438391
  0
LINE
  5
CB
100
AcDbEntity
  8
0
  6
CONTINUOUS
 62
    2
370
   -1
100
AcDbLine
 10
102.1436946761
 20
14.2446394955
 11
105.6274935715
 21
17.728438391
  0
LINE
  5
CC
100
AcDbEntity
  8
0
  6
CONTINUOUS
 62
    2
370
   -1
100
AcDbLine
 10
101.9491336913
 20
14.2446394955
 11
105.4329325867
 21
17.728438391
  0
LINE
  5
CD
100
AcDbEntity
  8
0
  6
CONTINUOUS
 62
    2
370
   -1
100
AcDbLine
 10
101.7545727065
 20
14.2446394955
 11
105.2383716019
 21
17.728438391
  0
LINE
  5
CE
100
AcDbEntity
  8
0
  6
CONTINUOUS
 62
    2
370
   -1
100
AcDbLine
 10
101.5600117217
 20
14.2446394955
 11
105.0438106171
 21
17.728438391
  0
LINE
  5
CF
100
AcDbEntity
  8
0
  6
CONTINUOUS
 62
    2
370
   -1
100
AcDbLine
 10
101.3654507369
 20
14.2446394955
 11
104.8492496323
 21
17.728438391
  0
LINE
  5
D0
100
AcDbEntity
  8
0
  6
CONTINUOUS
 62
    2
370
   -1
100
AcDbLine
 10
101.1708897521
 20
14.2446394955
 11
104.6546886475
 21
17.728438391
  0
LINE
  5
D1
100
AcDbEntity
  8
0
  6
CONTINUOUS
 62
    2
370
   -1
100
AcDbLine
 10
100.9763287673
 20
14.2446394955
 11
104.4601276628
 21
17.728438391
  0
LINE
  5
D2
100
AcDbEntity
  8
0
  6
CONTINUOUS
 62
    2
370
   -1
100
AcDbLine
 10
100.7817677825
 20
14.2446394955
 11
104.265566678
 21
17.728438391
  0
LINE
  5
D3
100
AcDbEntity
  8
0
  6
CONTINUOUS
 62
    2
370
   -1
100
AcDbLine
 10
100.5872067977
 20
14.2446394955
 11
104.0710056932
 21
17.728438391
  0
LINE
  5
D4
100
AcDbEntity
  8
0
  6
CONTINUOUS
 62
    2
370
   -1
100
AcDbLine
 10
100.3926458129
 20
14.2446394955
 11
103.8764447084
 21
17.728438391
  0
LINE
  5
D5
100
AcDbEntity
  8
0
  6
CONTINUOUS
 62
    2
370
   -1
100
AcDbLine
 10
100.1980848281
 20
14.2446394955
 11
103.6818837236
 21
17.728438391
  0
LINE
  5
D6
100
AcDbEntity
  8
0
  6
CONTINUOUS
 62
    2
370
   -1
100
AcDbLine
 10
100.0035238433
 20
14.2446394955
 11
103.4873227388
 21
17.728438391
  0
LINE
  5
D7
100
AcDbEntity
  8
0
  6
CONTINUOUS
 62
    2
370
   -1
100
AcDbLine
 10
99.8089628585
 20
14.2446394955
 11
103.292761754
 21
17.728438391
  0
LINE
  5
D8
100
AcDbEntity
  8
0
  6
CONTINUOUS
 62
    2
370
   -1
100
AcDbLine
 10
99.6144018737
 20
14.2446394955
 11
103.0982007692
 21
17.728438391
  0
LINE
  5
D9
100
AcDbEntity
  8
0
  6
CONTINUOUS
 62
    2
370
   -1
100
AcDbLine
 10
99.4198408889
 20
14.2446394955
 11
102.9036397844
 21
17.728438391
  0
LINE
  5
DA
100
AcDbEntity
  8
0
  6
CONTINUOUS
 62
    2
370
   -1
100
AcDbLine
 10
99.22527990410001
 20
14.2446394955
 11
102.7090787996
 21
17.728438391
  0
LINE
  5
DB
100
AcDbEntity
  8
0
  6
CONTINUOUS
 62
    2
370
   -1
100
AcDbLine
 10
99.0307189193
 20
14.2446394955
 11
102.5145178148
 21
17.728438391
  0
LINE
  5
DC
100
AcDbEntity
  8
0
  6
CONTINUOUS
 62
    2
370
   -1
100
AcDbLine
 10
98.83615793449999
 20
14.2446394955
 11
102.31995683
 21
17.728438391
  0
LINE
  5
DD
100
AcDbEntity
  8
0
  6
CONTINUOUS
 62
    2
370
   -1
100
AcDbLine
 10
98.6415969497
 20
14.2446394955
 11
102.1253958452
 21
17.728438391
  0
LINE
  5
DE
100
AcDbEntity
  8
0
  6
CONTINUOUS
 62
    2
370
   -1
100
AcDbLine
 10
98.4470359649
 20
14.2446394955
 11
101.9308348604
 21
17.728438391
  0
LINE
  5
DF
100
AcDbEntity
  8
0
  6
CONTINUOUS
 62
    2
370
   -1
100
AcDbLine
 10
98.2524749801
 20
14.2446394955
 11
101.7362738756
 21
17.728438391
  0
LINE
  5
E0
100
AcDbEntity
  8
0
  6
CONTINUOUS
 62
    2
370
   -1
100
AcDbLine
 10
98.0579139953
 20
14.2446394955
 11
101.5417128908
 21
17.728438391
  0
LINE
  5
E1
100
AcDbEntity
  8
0
  6
CONTINUOUS
 62
    2
370
   -1
100
AcDbLine
 10
97.86335301050001
 20
14.2446394955
 11
101.347151906
 21
17.728438391
  0
LINE
  5
E2
100
AcDbEntity
  8
0
  6
CONTINUOUS
 62
    2
370
   -1
100
AcDbLine
 10
97.6687920257
 20
14.2446394955
 11
101.1525909212
 21
17.728438391
  0
LINE
  5
E3
100
AcDbEntity
  8
0
  6
CONTINUOUS
 62
    2
370
   -1
100
AcDbLine
 10
97.47423104089999
 20
14.2446394955
 11
100.9580299364
 21
17.728438391
  0
LINE
  5
E4
100
AcDbEntity
  8
0
  6
CONTINUOUS
 62
    2
370
   -1
100
AcDbLine
 10
97.2796700561
 20
14.2446394955
 11
100.7634689516
 21
17.728438391
  0
LINE
  5
E5
100
AcDbEntity
  8
0
  6
CONTINUOUS
 62
    2
370
   -1
100
AcDbLine
 10
97.0851090713
 20
14.2446394955
 11
100.5689079668
 21
17.728438391
  0
LINE
  5
E6
100
AcDbEntity
  8
0
  6
CONTINUOUS
 62
    2
370
   -1
100
AcDbLine
 10
96.8905480865
 20
14.2446394955
 11
100.374346982
 21
17.728438391
  0
LINE
  5
E7
100
AcDbEntity
  8
0
  6
CONTINUOUS
 62
    2
370
   -1
100
AcDbLine
 10
96.6959871017
 20
14.2446394955
 11
100.1797859972
 21
17.728438391
  0
LINE
  5
E8
100
AcDbEntity
  8
0
  6
CONTINUOUS
 62
    2
370
   -1
100
AcDbLine
 10
96.50142611690001
 20
14.2446394955
 11
99.98522501239999
 21
17.728438391
  0
LINE
  5
E9
100
AcDbEntity
  8
0
  6
CONTINUOUS
 62
    2
370
   -1
100
AcDbLine
 10
96.3068651321
 20
14.2446394955
 11
99.7906640276
 21
17.728438391
  0
LINE
  5
EA
100
AcDbEntity
  8
0
  6
CONTINUOUS
 62
    2
370
   -1
100
AcDbLine
 10
96.11230414729999
 20
14.2446394955
 11
99.5961030428
 21
17.728438391
  0
LINE
  5
EB
100
AcDbEntity
  8
0
  6
CONTINUOUS
 62
    2
370
   -1
100
AcDbLine
 10
95.9177431625
 20
14.2446394955
 11
99.401542058
 21
17.728438391
  0
LINE
  5
EC
100
AcDbEntity
  8
0
  6
CONTINUOUS
 62
    2
370
   -1
100
AcDbLine
 10
95.7231821777
 20
14.2446394955
 11
99.2069810732
 21
17.728438391
  0
LINE
  5
ED
100
AcDbEntity
  8
0
  6
CONTINUOUS
 62
    2
370
   -1
100
AcDbLine
 10
95.5286211929
 20
14.2446394955
 11
99.01242008840001
 21
17.728438391
  0
LINE
  5
EE
100
AcDbEntity
  8
0
  6
CONTINUOUS
 62
    2
370
   -1
100
AcDbLine
 10
95.3340602081
 20
14.2446394955
 11
98.8178591036
 21
17.728438391
  0
LINE
  5
EF
100
AcDbEntity
  8
0
  6
CONTINUOUS
 62
    2
370
   -1
100
AcDbLine
 10
95.13949922330001
 20
14.2446394955
 11
98.62329811879999
 21
17.728438391
  0
LINE
  5
F0
100
AcDbEntity
  8
0
  6
CONTINUOUS
 62
    2
370
   -1
100
AcDbLine
 10
94.9449382385
 20
14.2446394955
 11
98.428737134
 21
17.728438391
  0
LINE
  5
F1
100
AcDbEntity
  8
0
  6
CONTINUOUS
 62
    2
370
   -1
100
AcDbLine
 10
94.75037725369999
 20
14.2446394955
 11
98.2341761492
 21
17.728438391
  0
LINE
  5
F2
100
AcDbEntity
  8
0
  6
CONTINUOUS
 62
    2
370
   -1
100
AcDbLine
 10
94.5558162689
 20
14.2446394955
 11
98.0396151644
 21
17.728438391
  0
LINE
  5
F3
100
AcDbEntity
  8
0
  6
CONTINUOUS
 62
    2
370
   -1
100
AcDbLine
 10
94.3612552841
 20
14.2446394955
 11
97.8450541796
 21
17.728438391
  0
LINE
  5
F4
100
AcDbEntity
  8
0
  6
CONTINUOUS
 62
    2
370
   -1
100
AcDbLine
 10
94.1666942993
 20
14.2446394955
 11
97.65049319480001
 21
17.728438391
  0
LINE
  5
F5
100
AcDbEntity
  8
0
  6
CONTINUOUS
 62
    2
370
   -1
100
AcDbLine
 10
93.9721333145
 20
14.2446394955
 11
97.45593221
 21
17.728438391
  0
LINE
  5
F6
100
AcDbEntity
  8
0
  6
CONTINUOUS
 62
    2
370
   -1
100
AcDbLine
 10
93.77757232970001
 20
14.2446394955
 11
97.26137122519999
 21
17.728438391
  0
LINE
  5
F7
100
AcDbEntity
  8
0
  6
CONTINUOUS
 62
    2
370
   -1
100
AcDbLine
 10
93.5830113449
 20
14.2446394955
 11
97.0668102404
 21
17.728438391
  0
LINE
  5
F8
100
AcDbEntity
  8
0
  6
CONTINUOUS
 62
    2
370
   -1
100
AcDbLine
 10
93.38845036009999
 20
14.2446394955
 11
96.8722492556
 21
17.728438391
  0
LINE
  5
F9
100
AcDbEntity
  8
0
  6
CONTINUOUS
 62
    2
370
   -1
100
AcDbLine
 10
93.1938893753
 20
14.2446394955
 11
96.6776882708
 21
17.728438391
  0
LINE
  5
FA
100
AcDbEntity
  8
0
  6
CONTINUOUS
 62
    2
370
   -1
100
AcDbLine
 10
92.9993283905
 20
14.2446394955
 11
96.483127286
 21
17.728438391
  0
LINE
  5
FB
100
AcDbEntity
  8
0
  6
CONTINUOUS
 62
    2
370
   -1
100
AcDbLine
 10
92.80476740570001
 20
14.2446394955
 11
96.28856630120001
 21
17.728438391
  0
LINE
  5
FC
100
AcDbEntity
  8
0
  6
CONTINUOUS
 62
    2
370
   -1
100
AcDbLine
 10
92.6102064209
 20
14.2446394955
 11
96.0940053164
 21
17.728438391
  0
LINE
  5
FD
100
AcDbEntity
  8
0
  6
CONTINUOUS
 62
    2
370
   -1
100
AcDbLine
 10
92.41564543609999
 20
14.2446394955
 11
95.89944433159999
 21
17.728438391
  0
LINE
  5
FE
100
AcDbEntity
  8
0
  6
CONTINUOUS
 62
    2
370
   -1
100
AcDbLine
 10
92.2210844513
 20
14.2446394955
 11
95.7048833468
 21
17.728438391
  0
LINE
  5
FF
100
AcDbEntity
  8
0
  6
CONTINUOUS
 62
    2
370
   -1
100
AcDbLine
 10
92.0265234665
 20
14.2446394955
 11
95.510322362
 21
17.728438391
  0
LINE
  5
100
100
AcDbEntity
  8
0
  6
CONTINUOUS
 62
    2
370
   -1
100
AcDbLine
 10
91.8319624817
 20
14.2446394955
 11
95.3157613772
 21
17.728438391
  0
LINE
  5
101
100
AcDbEntity
  8
0
  6
CONTINUOUS
 62
    2
370
   -1
100
AcDbLine
 10
91.6374014969
 20
14.2446394955
 11
95.1212003924
 21
17.728438391
  0
LINE
  5
102
100
AcDbEntity
  8
0
  6
CONTINUOUS
 62
    2
370
   -1
100
AcDbLine
 10
91.44284051210001
 20
14.2446394955
 11
94.92663940760001
 21
17.728438391
  0
LINE
  5
103
100
AcDbEntity
  8
0
  6
CONTINUOUS
 62
    2
370
   -1
100
AcDbLine
 10
91.2482795273
 20
14.2446394955
 11
94.7320784228
 21
17.728438391
  0
LINE
  5
104
100
AcDbEntity
  8
0
  6
CONTINUOUS
 62
    2
370
   -1
100
AcDbLine
 10
91.05371854249999
 20
14.2446394955
 11
94.53751743799999
 21
17.728438391
  0
LINE
  5
105
100
AcDbEntity
  8
0
  6
CONTINUOUS
 62
    2
370
   -1
100
AcDbLine
 10
90.8591575577
 20
14.2446394955
 11
94.3429564532
 21
17.728438391
  0
LINE
  5
106
100
AcDbEntity
  8
0
  6
CONTINUOUS
 62
    2
370
   -1
100
AcDbLine
 10
90.6645965729
 20
14.2446394955
 11
94.1483954684
 21
17.728438391
  0
LINE
  5
107
100
AcDbEntity
  8
0
  6
CONTINUOUS
 62
    2
370
   -1
100
AcDbLine
 10
90.4700355881
 20
14.2446394955
 11
93.95383448360001
 21
17.728438391
  0
LINE
  5
108
100
AcDbEntity
  8
0
  6
CONTINUOUS
 62
    2
370
   -1
100
AcDbLine
 10
90.2754746033
 20
14.2446394955
 11
93.7592734988
 21
17.728438391
  0
LINE
  5
109
100
AcDbEntity
  8
0
  6
CONTINUOUS
 62
    2
370
   -1
100
AcDbLine
 10
90.08091361850001
 20
14.2446394955
 11
93.56471251400001
 21
17.728438391
  0
LINE
  5
10A
100
AcDbEntity
  8
0
  6
CONTINUOUS
 62
    2
370
   -1
100
AcDbLine
 10
89.8863526337
 20
14.2446394955
 11
93.3701515292
 21
17.728438391
  0
LINE
  5
10B
100
AcDbEntity
  8
0
  6
CONTINUOUS
 62
    2
370
   -1
100
AcDbLine
 10
89.69179164889999
 20
14.2446394955
 11
93.17559054439999
 21
17.728438391
  0
LINE
  5
10C
100
AcDbEntity
  8
0
  6
CONTINUOUS
 62
    2
370
   -1
100
AcDbLine
 10
89.4972306641
 20
14.2446394955
 11
92.9810295596
 21
17.728438391
  0
LINE
  5
10D
100
AcDbEntity
  8
0
  6
CONTINUOUS
 62
    2
370
   -1
100
AcDbLine
 10
89.3026696793
 20
14.2446394955
 11
92.7864685748
 21
17.728438391
  0
LINE
  5
10E
100
AcDbEntity
  8
0
  6
CONTINUOUS
 62
    2
370
   -1
100
AcDbLine
 10
89.1081086945
 20
14.2446394955
 11
92.59190759000001
 21
17.728438391
  0
LINE
  5
10F
100
AcDbEntity
  8
0
  6
CONTINUOUS
 62
    2
370
   -1
100
AcDbLine
 10
88.9135477097
 20
14.2446394955
 11
92.3973466052
 21
17.728438391
  0
LINE
  5
110
100
AcDbEntity
  8
0
  6
CONTINUOUS
 62
    2
370
   -1
100
AcDbLine
 10
88.71898672490001
 20
14.2446394955
 11
92.20278562039999
 21
17.728438391
  0
LINE
  5
111
100
AcDbEntity
  8
0
  6
CONTINUOUS
 62
    2
370
   -1
100
AcDbLine
 10
88.5244257401
 20
14.2446394955
 11
92.0082246356
 21
17.728438391
  0
LINE
  5
112
100
AcDbEntity
  8
0
  6
CONTINUOUS
 62
    2
370
   -1
100
AcDbLine
 10
88.32986475529999
 20
14.2446394955
 11
91.8136636508
 21
17.728438391
  0
LINE
  5
113
100
AcDbEntity
  8
0
  6
CONTINUOUS
 62
    2
370
   -1
100
AcDbLine
 10
88.1353037705
 20
14.2446394955
 11
91.619102666
 21
17.728438391
  0
LINE
  5
114
100
AcDbEntity
  8
0
  6
CONTINUOUS
 62
    2
370
   -1
100
AcDbLine
 10
87.9407427857
 20
14.2446394955
 11
91.4245416812
 21
17.728438391
  0
LINE
  5
115
100
AcDbEntity
  8
0
  6
CONTINUOUS
 62
    2
370
   -1
100
AcDbLine
 10
87.7461818009
 20
14.2446394955
 11
91.22998069640001
 21
17.728438391
  0
LINE
  5
116
100
AcDbEntity
  8
0
  6
CONTINUOUS
 62
    2
370
   -1
100
AcDbLine
 10
87.5516208161
 20
14.2446394955
 11
91.0354197116
 21
17.728438391
  0
LINE
  5
117
100
AcDbEntity
  8
0
  6
CONTINUOUS
 62
    2
370
   -1
100
AcDbLine
 10
87.35705983130001
 20
14.2446394955
 11
90.84085872679999
 21
17.728438391
  0
LINE
  5
118
100
AcDbEntity
  8
0
  6
CONTINUOUS
 62
    2
370
   -1
100
AcDbLine
 10
87.1624988465
 20
14.2446394955
 11
90.646297742
 21
17.728438391
  0
LINE
  5
119
100
AcDbEntity
  8
0
  6
CONTINUOUS
 62
    2
370
   -1
100
AcDbLine
 10
86.96793786169999
 20
14.2446394955
 11
90.4517367572
 21
17.728438391
  0
LINE
  5
11A
100
AcDbEntity
  8
0
  6
CONTINUOUS
 62
    2
370
   -1
100
AcDbLine
 10
86.7733768769
 20
14.2446394955
 11
90.2571757724
 21
17.728438391
  0
LINE
  5
11B
100
AcDbEntity
  8
0
  6
CONTINUOUS
 62
    2
370
   -1
100
AcDbLine
 10
86.5788158921
 20
14.2446394955
 11
90.0626147876
 21
17.728438391
  0
LINE
  5
11C
100
AcDbEntity
  8
0
  6
CONTINUOUS
 62
    2
370
   -1
100
AcDbLine
 10
86.3842549073
 20
14.2446394955
 11
89.86805380280001
 21
17.728438391
  0
LINE
  5
11D
100
AcDbEntity
  8
0
  6
CONTINUOUS
 62
    2
370
   -1
100
AcDbLine
 10
86.1896939225
 20
14.2446394955
 11
89.673492818
 21
17.728438391
  0
LINE
  5
11E
100
AcDbEntity
  8
0
  6
CONTINUOUS
 62
    2
370
   -1
100
AcDbLine
 10
85.99513293770001
 20
14.2446394955
 11
89.47893183319999
 21
17.728438391
  0
LINE
  5
11F
100
AcDbEntity
  8
0
  6
CONTINUOUS
 62
    2
370
   -1
100
AcDbLine
 10
85.8005719529
 20
14.2446394955
 11
89.2843708484
 21
17.728438391
  0
LINE
  5
120
100
AcDbEntity
  8
0
  6
CONTINUOUS
 62
    2
370
   -1
100
AcDbLine
 10
85.60601096809999
 20
14.2446394955
 11
89.0898098636
 21
17.728438391
  0
LINE
  5
121
100
AcDbEntity
  8
0
  6
CONTINUOUS
 62
    2
370
   -1
100
AcDbLine
 10
85.4114499833
 20
14.2446394955
 11
88.8952488788
 21
17.728438391
  0
LINE
  5
122
100
AcDbEntity
  8
0
  6
CONTINUOUS
 62
    2
370
   -1
100
AcDbLine
 10
85.2168889985
 20
14.2446394955
 11
88.700687894
 21
17.728438391
  0
LINE
  5
123
100
AcDbEntity
  8
0
  6
CONTINUOUS
 62
    2
370
   -1
100
AcDbLine
 10
85.0223280137
 20
14.2446394955
 11
88.50612690920001
 21
17.728438391
  0
LINE
  5
124
100
AcDbEntity
  8
0
  6
CONTINUOUS
 62
    2
370
   -1
100
AcDbLine
 10
84.8277670289
 20
14.2446394955
 11
88.3115659244
 21
17.728438391
  0
LINE
  5
125
100
AcDbEntity
  8
0
  6
CONTINUOUS
 62
    2
370
   -1
100
AcDbLine
 10
84.63320604410001
 20
14.2446394955
 11
88.11700493959999
 21
17.728438391
  0
LINE
  5
126
100
AcDbEntity
  8
0
  6
CONTINUOUS
 62
    2
370
   -1
100
AcDbLine
 10
84.4386450593
 20
14.2446394955
 11
87.9224439548
 21
17.728438391
  0
LINE
  5
127
100
AcDbEntity
  8
0
  6
CONTINUOUS
 62
    2
370
   -1
100
AcDbLine
 10
84.24408407449999
 20
14.2446394955
 11
87.72788297
 21
17.728438391
  0
LINE
  5
128
100
AcDbEntity
  8
0
  6
CONTINUOUS
 62
    2
370
   -1
100
AcDbLine
 10
84.0495230897
 20
14.2446394955
 11
87.5333219852
 21
17.728438391
  0
LINE
  5
129
100
AcDbEntity
  8
0
  6
CONTINUOUS
 62
    2
370
   -1
100
AcDbLine
 10
83.8549621049
 20
14.2446394955
 11
87.3387610004
 21
17.728438391
  0
LINE
  5
12A
100
AcDbEntity
  8
0
  6
CONTINUOUS
 62
    2
370
   -1
100
AcDbLine
 10
83.6604011201
 20
14.2446394955
 11
87.14420001560001
 21
17.728438391
  0
LINE
  5
12B
100
AcDbEntity
  8
0
  6
CONTINUOUS
 62
    2
370
   -1
100
AcDbLine
 10
83.4658401353
 20
14.2446394955
 11
86.9496390308
 21
17.728438391
  0
LINE
  5
12C
100
AcDbEntity
  8
0
  6
CONTINUOUS
 62
    2
370
   -1
100
AcDbLine
 10
83.27127915050001
 20
14.2446394955
 11
86.75507804599999
 21
17.728438391
  0
LINE
  5
12D
100
AcDbEntity
  8
0
  6
CONTINUOUS
 62
    2
370
   -1
100
AcDbLine
 10
83.0767181657
 20
14.2446394955
 11
86.5605170612
 21
17.728438391
  0
LINE
  5
12E
100
AcDbEntity
  8
0
  6
CONTINUOUS
 62
    2
370
   -1
100
AcDbLine
 10
82.88215718089999
 20
14.2446394955
 11
86.3659560764
 21
17.728438391
  0
LINE
  5
12F
100
AcDbEntity
  8
0
  6
CONTINUOUS
 62
    2
370
   -1
100
AcDbLine
 10
82.6875961961
 20
14.2446394955
 11
86.1713950916
 21
17.728438391
  0
LINE
  5
130
100
AcDbEntity
  8
0
  6
CONTINUOUS
 62
    2
370
   -1
100
AcDbLine
 10
82.4930352113
 20
14.2446394955
 11
85.9768341068
 21
17.728438391
  0
LINE
  5
131
100
AcDbEntity
  8
0
  6
CONTINUOUS
 62
    2
370
   -1
100
AcDbLine
 10
82.29847422650001
 20
14.2446394955
 11
85.78227312200001
 21
17.728438391
  0
LINE
  5
132
100
AcDbEntity
  8
0
  6
CONTINUOUS
 62
    2
370
   -1
100
AcDbLine
 10
82.1039132417
 20
14.2446394955
 11
85.5877121372
 21
17.728438391
  0
LINE
  5
133
100
AcDbEntity
  8
0
  6
CONTINUOUS
 62
    2
370
   -1
100
AcDbLine
 10
81.90935225689999
 20
14.2446394955
 11
85.39315115239999
 21
17.728438391
  0
LINE
  5
134
100
AcDbEntity
  8
0
  6
CONTINUOUS
 62
    2
370
   -1
100
AcDbLine
 10
81.7147912721
 20
14.2446394955
 11
85.1985901676
 21
17.728438391
  0
LINE
  5
135
100
AcDbEntity
  8
0
  6
CONTINUOUS
 62
    2
370
   -1
100
AcDbLine
 10
81.5202302873
 20
14.2446394955
 11
85.0040291828
 21
17.728438391
  0
LINE
  5
136
100
AcDbEntity
  8
0
  6
CONTINUOUS
 62
    2
370
   -1
100
AcDbLine
 10
81.3256693025
 20
14.2446394955
 11
84.809468198
 21
17.728438391
  0
LINE
  5
137
100
AcDbEntity
  8
0
  6
CONTINUOUS
 62
    2
370
   -1
100
AcDbLine
 10
81.1311083177
 20
14.2446394955
 11
84.6149072132
 21
17.728438391
  0
LINE
  5
138
100
AcDbEntity
  8
0
  6
CONTINUOUS
 62
    2
370
   -1
100
AcDbLine
 10
80.93654733290001
 20
14.2446394955
 11
84.42034622840001
 21
17.728438391
  0
LINE
  5
139
100
AcDbEntity
  8
0
  6
CONTINUOUS
 62
    2
370
   -1
100
AcDbLine
 10
80.7419863481
 20
14.2446394955
 11
84.2257852436
 21
17.728438391
  0
LINE
  5
13A
100
AcDbEntity
  8
0
  6
CONTINUOUS
 62
    2
370
   -1
100
AcDbLine
 10
80.54742536329999
 20
14.2446394955
 11
84.03122425879999
 21
17.728438391
  0
LINE
  5
13B
100
AcDbEntity
  8
0
  6
CONTINUOUS
 62
    2
370
   -1
100
AcDbLine
 10
80.3528643785
 20
14.2446394955
 11
83.836663274
 21
17.728438391
  0
LINE
  5
13C
100
AcDbEntity
  8
0
  6
CONTINUOUS
 62
    2
370
   -1
100
AcDbLine
 10
80.1583033937
 20
14.2446394955
 11
83.6421022892
 21
17.728438391
  0
LINE
  5
13D
100
AcDbEntity
  8
0
  6
CONTINUOUS
 62
    2
370
   -1
100
AcDbLine
 10
79.9637424089
 20
14.2446394955
 11
83.4475413044
 21
17.728438391
  0
LINE
  5
13E
100
AcDbEntity
  8
0
  6
CONTINUOUS
 62
    2
370
   -1
100
AcDbLine
 10
79.7691814241
 20
14.2446394955
 11
83.2529803196
 21
17.728438391
  0
LINE
  5
13F
100
AcDbEntity
  8
0
  6
CONTINUOUS
 62
    2
370
   -1
100
AcDbLine
 10
79.57462043930001
 20
14.2446394955
 11
83.05841933480001
 21
17.728438391
  0
LINE
  5
140
100
AcDbEntity
  8
0
  6
CONTINUOUS
 62
    2
370
   -1
100
AcDbLine
 10
79.3800594545
 20
14.2446394955
 11
82.86385835
 21
17.728438391
  0
LINE
  5
141
100
AcDbEntity
  8
0
  6
CONTINUOUS
 62
    2
370
   -1
100
AcDbLine
 10
79.18549846969999
 20
14.2446394955
 11
82.66929736519999
 21
17.728438391
  0
LINE
  5
142
100
AcDbEntity
  8
0
  6
CONTINUOUS
 62
    2
370
   -1
100
AcDbLine
 10
78.9909374849
 20
14.2446394955
 11
82.4747363804
 21
17.728438391
  0
LINE
  5
143
100
AcDbEntity
  8
0
  6
CONTINUOUS
 62
    2
370
   -1
100
AcDbLine
 10
78.7963765001
 20
14.2446394955
 11
82.2801753956
 21
17.728438391
  0
LINE
  5
144
100
AcDbEntity
  8
0
  6
CONTINUOUS
 62
    2
370
   -1
100
AcDbLine
 10
78.6018155153
 20
14.2446394955
 11
82.08561441080001
 21
17.728438391
  0
LINE
  5
145
100
AcDbEntity
  8
0
  6
CONTINUOUS
 62
    2
370
   -1
100
AcDbLine
 10
78.4072545305
 20
14.2446394955
 11
81.891053426
 21
17.728438391
  0
LINE
  5
146
100
AcDbEntity
  8
0
  6
CONTINUOUS
 62
    2
370
   -1
100
AcDbLine
 10
78.21269354570001
 20
14.2446394955
 11
81.69649244119999
 21
17.728438391
  0
LINE
  5
147
100
AcDbEntity
  8
0
  6
CONTINUOUS
 62
    2
370
   -1
100
AcDbLine
 10
78.0181325609
 20
14.2446394955
 11
81.5019314564
 21
17.728438391
  0
LINE
  5
148
100
AcDbEntity
  8
0
  6
CONTINUOUS
 62
    2
370
   -1
100
AcDbLine
 10
77.82357157609999
 20
14.2446394955
 11
81.3073704716
 21
17.728438391
  0
LINE
  5
149
100
AcDbEntity
  8
0
  6
CONTINUOUS
 62
    2
370
   -1
100
AcDbLine
 10
77.6290105913
 20
14.2446394955
 11
81.1128094868
 21
17.728438391
  0
LINE
  5
14A
100
AcDbEntity
  8
0
  6
CONTINUOUS
 62
    2
370
   -1
100
AcDbLine
 10
77.4344496065
 20
14.2446394955
 11
80.918248502
 21
17.728438391
  0
LINE
  5
14B
100
AcDbEntity
  8
0
  6
CONTINUOUS
 62
    2
370
   -1
100
AcDbLine
 10
77.2398886217
 20
14.2446394955
 11
80.72368751720001
 21
17.728438391
  0
LINE
  5
14C
100
AcDbEntity
  8
0
  6
CONTINUOUS
 62
    2
370
   -1
100
AcDbLine
 10
77.0453276369
 20
14.2446394955
 11
80.5291265324
 21
17.728438391
  0
LINE
  5
14D
100
AcDbEntity
  8
0
  6
CONTINUOUS
 62
    2
370
   -1
100
AcDbLine
 10
76.85076665210001
 20
14.2446394955
 11
80.33456554759999
 21
17.728438391
  0
LINE
  5
14E
100
AcDbEntity
  8
0
  6
CONTINUOUS
 62
    2
370
   -1
100
AcDbLine
 10
76.6562056673
 20
14.2446394955
 11
80.1400045628
 21
17.728438391
  0
LINE
  5
14F
100
AcDbEntity
  8
0
  6
CONTINUOUS
 62
    2
370
   -1
100
AcDbLine
 10
76.46164468249999
 20
14.2446394955
 11
79.945443578
 21
17.728438391
  0
LINE
  5
150
100
AcDbEntity
  8
0
  6
CONTINUOUS
 62
    2
370
   -1
100
AcDbLine
 10
76.2670836977
 20
14.2446394955
 11
79.7508825932
 21
17.728438391
  0
LINE
  5
151
100
AcDbEntity
  8
0
  6
CONTINUOUS
 62
    2
370
   -1
100
AcDbLine
 10
76.0725227129
 20
14.2446394955
 11
79.5563216084
 21
17.728438391
  0
LINE
  5
152
100
AcDbEntity
  8
0
  6
CONTINUOUS
 62
    2
370
   -1
100
AcDbLine
 10
75.8779617281
 20
14.2446394955
 11
79.36176062360001
 21
17.728438391
  0
LINE
  5
153
100
AcDbEntity
  8
0
  6
CONTINUOUS
 62
    2
370
   -1
100
AcDbLine
 10
75.6834007433
 20
14.2446394955
 11
79.1671996388
 21
17.728438391
  0
LINE
  5
154
100
AcDbEntity
  8
0
  6
CONTINUOUS
 62
    2
370
   -1
100
AcDbLine
 10
75.48883975850001
 20
14.2446394955
 11
78.97263865399999
 21
17.728438391
  0
LINE
  5
155
100
AcDbEntity
  8
0
  6
CONTINUOUS
 62
    2
370
   -1
100
AcDbLine
 10
75.2942787737
 20
14.2446394955
 11
78.7780776692
 21
17.728438391
  0
LINE
  5
156
100
AcDbEntity
  8
0
  6
CONTINUOUS
 62
    2
370
   -1
100
AcDbLine
 10
75.09971778889999
 20
14.2446394955
 11
78.5835166844
 21
17.728438391
  0
LINE
  5
157
100
AcDbEntity
  8
0
  6
CONTINUOUS
 62
    2
370
   -1
100
AcDbLine
 10
74.9051568041
 20
14.2446394955
 11
78.3889556996
 21
17.728438391
  0
LINE
  5
158
100
AcDbEntity
  8
0
  6
CONTINUOUS
 62
    2
370
   -1
100
AcDbLine
 10
74.7105958193
 20
14.2446394955
 11
78.1943947148
 21
17.728438391
  0
LINE
  5
159
100
AcDbEntity
  8
0
  6
CONTINUOUS
 62
    2
370
   -1
100
AcDbLine
 10
74.5160348345
 20
14.2446394955
 11
77.99983373000001
 21
17.728438391
  0
LINE
  5
15A
100
AcDbEntity
  8
0
  6
CONTINUOUS
 62
    2
370
   -1
100
AcDbLine
 10
74.3214738497
 20
14.2446394955
 11
77.8052727452
 21
17.728438391
  0
LINE
  5
15B
100
AcDbEntity
  8
0
  6
CONTINUOUS
 62
    2
370
   -1
100
AcDbLine
 10
74.12691286490001
 20
14.2446394955
 11
77.61071176039999
 21
17.728438391
  0
LINE
  5
15C
100
AcDbEntity
  8
0
  6
CONTINUOUS
 62
    2
370
   -1
100
AcDbLine
 10
73.9323518801
 20
14.2446394955
 11
77.4161507756
 21
17.728438391
  0
LINE
  5
15D
100
AcDbEntity
  8
0
  6
CONTINUOUS
 62
    2
370
   -1
100
AcDbLine
 10
73.73779089529999
 20
14.2446394955
 11
77.2215897908
 21
17.728438391
  0
LINE
  5
15E
100
AcDbEntity
  8
0
  6
CONTINUOUS
 62
    2
370
   -1
100
AcDbLine
 10
73.5432299105
 20
14.2446394955
 11
77.027028806
 21
17.728438391
  0
LINE
  5
15F
100
AcDbEntity
  8
0
  6
CONTINUOUS
 62
    2
370
   -1
100
AcDbLine
 10
73.3486689257
 20
14.2446394955
 11
76.8324678212
 21
17.728438391
  0
LINE
  5
160
100
AcDbEntity
  8
0
  6
CONTINUOUS
 62
    2
370
   -1
100
AcDbLine
 10
73.1541079409
 20
14.2446394955
 11
76.63790683640001
 21
17.728438391
  0
LINE
  5
161
100
AcDbEntity
  8
0
  6
CONTINUOUS
 62
    2
370
   -1
100
AcDbLine
 10
72.9595469561
 20
14.2446394955
 11
76.4433458516
 21
17.728438391
  0
LINE
  5
162
100
AcDbEntity
  8
0
  6
CONTINUOUS
 62
    2
370
   -1
100
AcDbLine
 10
72.76498597130001
 20
14.2446394955
 11
76.24878486679999
 21
17.728438391
  0
LINE
  5
163
100
AcDbEntity
  8
0
  6
CONTINUOUS
 62
    2
370
   -1
100
AcDbLine
 10
72.5704249865
 20
14.2446394955
 11
76.054223882
 21
17.728438391
  0
LINE
  5
164
100
AcDbEntity
  8
0
  6
CONTINUOUS
 62
    2
370
   -1
100
AcDbLine
 10
72.37586400169999
 20
14.2446394955
 11
75.8596628972
 21
17.728438391
  0
LINE
  5
165
100
AcDbEntity
  8
0
  6
CONTINUOUS
 62
    2
370
   -1
100
AcDbLine
 10
72.1813030169
 20
14.2446394955
 11
75.6651019124
 21
17.728438391
  0
LINE
  5
166
100
AcDbEntity
  8
0
  6
CONTINUOUS
 62
    2
370
   -1
100
AcDbLine
 10
71.9867420321
 20
14.2446394955
 11
75.4705409276
 21
17.728438391
  0
LINE
  5
167
100
AcDbEntity
  8
0
  6
CONTINUOUS
 62
    2
370
   -1
100
AcDbLine
 10
71.79218104730001
 20
14.2446394955
 11
75.27597994280001
 21
17.728438391
  0
LINE
  5
168
100
AcDbEntity
  8
0
  6
CONTINUOUS
 62
    2
370
   -1
100
AcDbLine
 10
71.5976200625
 20
14.2446394955
 11
75.081418958
 21
17.728438391
  0
LINE
  5
169
100
AcDbEntity
  8
0
  6
CONTINUOUS
 62
    2
370
   -1
100
AcDbLine
 10
71.40305907769999
 20
14.2446394955
 11
74.88685797319999
 21
17.728438391
  0
LINE
  5
16A
100
AcDbEntity
  8
0
  6
CONTINUOUS
 62
    2
370
   -1
100
AcDbLine
 10
71.2084980929
 20
14.2446394955
 11
74.6922969884
 21
17.728438391
  0
LINE
  5
16B
100
AcDbEntity
  8
0
  6
CONTINUOUS
 62
    2
370
   -1
100
AcDbLine
 10
71.0139371081
 20
14.2446394955
 11
74.4977360036
 21
17.728438391
  0
LINE
  5
16C
100
AcDbEntity
  8
0
  6
CONTINUOUS
 62
    2
370
   -1
100
AcDbLine
 10
70.8193761233
 20
14.2446394955
 11
74.3031750188
 21
17.728438391
  0
LINE
  5
16D
100
AcDbEntity
  8
0
  6
CONTINUOUS
 62
    2
370
   -1
100
AcDbLine
 10
70.6248151385
 20
14.2446394955
 11
74.108614034
 21
17.728438391
  0
LINE
  5
16E
100
AcDbEntity
  8
0
  6
CONTINUOUS
 62
    2
370
   -1
100
AcDbLine
 10
70.4780943136
 20
14.2924796554
 11
73.91405304920001
 21
17.728438391
  0
LINE
  5
16F
100
AcDbEntity
  8
0
  6
CONTINUOUS
 62
    2
370
   -1
100
AcDbLine
 10
70.4780943136
 20
14.4870406402
 11
73.7194920644
 21
17.728438391
  0
LINE
  5
170
100
AcDbEntity
  8
0
  6
CONTINUOUS
 62
    2
370
   -1
100
AcDbLine
 10
70.4780943136
 20
14.681601625
 11
73.52493107959999
 21
17.728438391
  0
LINE
  5
171
100
AcDbEntity
  8
0
  6
CONTINUOUS
 62
    2
370
   -1
100
AcDbLine
 10
70.4780943136
 20
14.8761626098
 11
73.3303700948
 21
17.728438391
  0
LINE
  5
172
100
AcDbEntity
  8
0
  6
CONTINUOUS
 62
    2
370
   -1
100
AcDbLine
 10
70.4780943136
 20
15.0707235946
 11
73.13580911
 21
17.728438391
  0
LINE
  5
173
100
AcDbEntity
  8
0
  6
CONTINUOUS
 62
    2
370
   -1
100
AcDbLine
 10
70.4780943136
 20
15.2652845794
 11
72.9412481252
 21
17.728438391
  0
LINE
  5
174
100
AcDbEntity
  8
0
  6
CONTINUOUS
 62
    2
370
   -1
100
AcDbLine
 10
70.4780943136
 20
15.4598455642
 11
72.7466871404
 21
17.728438391
  0
LINE
  5
175
100
AcDbEntity
  8
0
  6
CONTINUOUS
 62
    2
370
   -1
100
AcDbLine
 10
70.4780943136
 20
15.654406549
 11
72.55212615560001
 21
17.728438391
  0
LINE
  5
176
100
AcDbEntity
  8
0
  6
CONTINUOUS
 62
    2
370
   -1
100
AcDbLine
 10
70.4780943136
 20
15.8489675338
 11
72.3575651708
 21
17.728438391
  0
LINE
  5
177
100
AcDbEntity
  8
0
  6
CONTINUOUS
 62
    2
370
   -1
100
AcDbLine
 10
70.4780943136
 20
16.0435285186
 11
72.16300418599999
 21
17.728438391
  0
LINE
  5
178
100
AcDbEntity
  8
0
  6
CONTINUOUS
 62
    2
370
   -1
100
AcDbLine
 10
70.4780943136
 20
16.2380895034
 11
71.9684432012
 21
17.728438391
  0
LINE
  5
179
100
AcDbEntity
  8
0
  6
CONTINUOUS
 62
    2
370
   -1
100
AcDbLine
 10
70.4780943136
 20
16.4326504882
 11
71.7738822164
 21
17.728438391
  0
LINE
  5
17A
100
AcDbEntity
  8
0
  6
CONTINUOUS
 62
    2
370
   -1
100
AcDbLine
 10
70.4780943136
 20
16.627211473
 11
71.57932123160001
 21
17.728438391
  0
LINE
  5
17B
100
AcDbEntity
  8
0
  6
CONTINUOUS
 62
    2
370
   -1
100
AcDbLine
 10
70.4780943136
 20
16.8217724578
 11
71.3847602468
 21
17.728438391
  0
LINE
  5
17C
100
AcDbEntity
  8
0
  6
CONTINUOUS
 62
    2
370
   -1
100
AcDbLine
 10
70.4780943136
 20
17.0163334426
 11
71.19019926199999
 21
17.728438391
  0
LINE
  5
17D
100
AcDbEntity
  8
0
  6
CONTINUOUS
 62
    2
370
   -1
100
AcDbLine
 10
70.4780943136
 20
17.2108944274
 11
70.9956382772
 21
17.728438391
  0
LINE
  5
17E
100
AcDbEntity
  8
0
  6
CONTINUOUS
 62
    2
370
   -1
100
AcDbLine
 10
70.4780943136
 20
17.4054554122
 11
70.8010772924
 21
17.728438391
  0
LINE
  5
17F
100
AcDbEntity
  8
0
  6
CONTINUOUS
 62
    2
370
   -1
100
AcDbLine
 10
70.4780943136
 20
17.600016397
 11
70.6065163076
 21
17.728438391
  0
LINE
  5
180
100
AcDbEntity
  8
0
  6
CONTINUOUS
 62
    2
370
   -1
100
AcDbLine
 10
70.4780943136
 20
12.4923186558
 11
70.4780943136
 21
10.3101999469
  0
LINE
  5
181
100
AcDbEntity
  8
0
  6
CONTINUOUS
 62
    2
370
   -1
100
AcDbLine
 10
70.4780943136
 20
10.3101999469
 11
70.9323366169
 21
10.3101999469
  0
LINE
  5
182
100
AcDbEntity
  8
0
  6
CONTINUOUS
 62
    2
370
   -1
100
AcDbLine
 10
70.9323366169
 20
10.3101999469
 11
70.9323366169
 21
11.0937492589
  0
LINE
  5
183
100
AcDbEntity
  8
0
  6
CONTINUOUS
 62
    2
370
   -1
100
AcDbLine
 10
70.9323366169
 20
11.0937492589
 11
71.6304973331
 21
11.0937492589
  0
LINE
  5
184
100
AcDbEntity
  8
0
  6
CONTINUOUS
 62
    2
370
   -1
100
AcDbLine
 10
70.9323366169
 20
11.5487229953
 11
70.9323366169
 21
12.0373449195
  0
LINE
  5
185
100
AcDbEntity
  8
0
  6
CONTINUOUS
 62
    2
370
   -1
100
AcDbLine
 10
70.9323366169
 20
12.0373449195
 11
71.58283341790001
 21
12.0373449195
  0
LINE
  5
186
100
AcDbEntity
  8
0
  6
CONTINUOUS
 62
    2
370
   -1
100
AcDbLine
 10
70.9323366169
 20
11.5487229953
 11
71.58283341790001
 21
11.5487229953
  0
LINE
  5
187
100
AcDbEntity
  8
0
  6
CONTINUOUS
 62
    2
370
   -1
100
AcDbLine
 10
70.4780943136
 20
12.4923186558
 11
71.6304973331
 21
12.4923186558
  0
ARC
  5
188
100
AcDbEntity
  8
0
  6
CONTINUOUS
 62
    2
370
   -1
100
AcDbCircle
 10
71.58283341790001
 20
11.7930339574
 40
0.2443109621
100
AcDbArc
 50
270
 51
90
  0
ARC
  5
189
100
AcDbEntity
  8
0
  6
CONTINUOUS
 62
    2
370
   -1
100
AcDbCircle
 10
71.6304973331
 20
11.7930339574
 40
0.6992846985
100
AcDbArc
 50
270
 51
90
  0
LINE
  5
18A
100
AcDbEntity
  8
0
  6
CONTINUOUS
 62
    2
370
   -1
100
AcDbLine
 10
73.1429404837
 20
12.4923186558
 11
73.1429404837
 21
10.3101999469
  0
LINE
  5
18B
100
AcDbEntity
  8
0
  6
CONTINUOUS
 62
    2
370
   -1
100
AcDbLine
 10
73.1429404837
 20
10.3101999469
 11
73.59718278699999
 21
10.3101999469
  0
LINE
  5
18C
100
AcDbEntity
  8
0
  6
CONTINUOUS
 62
    2
370
   -1
100
AcDbLine
 10
73.59718278699999
 20
10.3101999469
 11
73.59718278699999
 21
11.0937492589
  0
LINE
  5
18D
100
AcDbEntity
  8
0
  6
CONTINUOUS
 62
    2
370
   -1
100
AcDbLine
 10
73.59718278699999
 20
11.0937492589
 11
74.0868211889
 21
11.0937492589
  0
LINE
  5
18E
100
AcDbEntity
  8
0
  6
CONTINUOUS
 62
    2
370
   -1
100
AcDbLine
 10
73.59718278699999
 20
11.5487229953
 11
73.59718278699999
 21
12.0373449195
  0
LINE
  5
18F
100
AcDbEntity
  8
0
  6
CONTINUOUS
 62
    2
370
   -1
100
AcDbLine
 10
73.59718278699999
 20
12.0373449195
 11
74.2476795879
 21
12.0373449195
  0
LINE
  5
190
100
AcDbEntity
  8
0
  6
CONTINUOUS
 62
    2
370
   -1
100
AcDbLine
 10
73.59718278699999
 20
11.5487229953
 11
74.2476795879
 21
11.5487229953
  0
LINE
  5
191
100
AcDbEntity
  8
0
  6
CONTINUOUS
 62
    2
370
   -1
100
AcDbLine
 10
73.1429404837
 20
12.4923186558
 11
74.2953435032
 21
12.4923186558
  0
ARC
  5
192
100
AcDbEntity
  8
0
  6
CONTINUOUS
 62
    2
370
   -1
100
AcDbCircle
 10
74.2476795879
 20
11.7930339574
 40
0.2443109621
100
AcDbArc
 50
270
 51
90
  0
ARC
  5
193
100
AcDbEntity
  8
0
  6
CONTINUOUS
 62
    2
370
   -1
100
AcDbCircle
 10
74.2953435032
 20
11.7930339574
 40
0.6992846985
100
AcDbArc
 50
297.0215125503
 51
90
  0
LINE
  5
194
100
AcDbEntity
  8
0
  6
CONTINUOUS
 62
    2
370
   -1
100
AcDbLine
 10
74.0868211889
 20
11.0937492589
 11
74.5187536939
 21
10.3101999469
  0
LINE
  5
195
100
AcDbEntity
  8
0
  6
CONTINUOUS
 62
    2
370
   -1
100
AcDbLine
 10
74.6130460303
 20
11.170085971
 11
75.0870592401
 21
10.3101999469
  0
LINE
  5
196
100
AcDbEntity
  8
0
  6
CONTINUOUS
 62
    2
370
   -1
100
AcDbLine
 10
75.0870592401
 20
10.3101999469
 11
74.5187536939
 21
10.3101999469
  0
ELLIPSE
  5
197
100
AcDbEntity
  8
0
  6
CONTINUOUS
 62
    2
370
   -1
100
AcDbEllipse
 10
76.8433935393
 20
11.4012593013
 30
0
 11
0
 21
1.0910593545
 31
0
 40
0.9483959516
 41
0
 42
6.283185307179586
  0
ELLIPSE
  5
198
100
AcDbEntity
  8
0
  6
CONTINUOUS
 62
    2
370
   -1
100
AcDbEllipse
 10
76.8433935393
 20
11.4073583701
 30
0
 11
0
 21
0.682268406
 31
0
 40
0.8027740214
 41
0
 42
6.283185307179586
  0
LINE
  5
199
100
AcDbEntity
  8
0
  6
CONTINUOUS
 62
    2
370
   -1
100
AcDbLine
 10
78.7356519304
 20
12.4923186558
 11
80.4399874338
 21
12.4923186558
  0
LINE
  5
19A
100
AcDbEntity
  8
0
  6
CONTINUOUS
 62
    2
370
   -1
100
AcDbLine
 10
80.4399874338
 20
12.4923186558
 11
80.4399874338
 21
12.0373449195
  0
LINE
  5
19B
100
AcDbEntity
  8
0
  6
CONTINUOUS
 62
    2
370
   -1
100
AcDbLine
 10
80.4399874338
 20
12.0373449195
 11
79.21229108270001
 21
12.0373449195
  0
LINE
  5
19C
100
AcDbEntity
  8
0
  6
CONTINUOUS
 62
    2
370
   -1
100
AcDbLine
 10
79.21229108270001
 20
12.0373449195
 11
79.21229108270001
 21
11.6706195061
  0
LINE
  5
19D
100
AcDbEntity
  8
0
  6
CONTINUOUS
 62
    2
370
   -1
100
AcDbLine
 10
79.21229108270001
 20
11.6706195061
 11
79.92425612380001
 21
11.6706195061
  0
LINE
  5
19E
100
AcDbEntity
  8
0
  6
CONTINUOUS
 62
    2
370
   -1
100
AcDbLine
 10
79.92425612380001
 20
11.6706195061
 11
79.92425612380001
 21
11.2396114516
  0
LINE
  5
19F
100
AcDbEntity
  8
0
  6
CONTINUOUS
 62
    2
370
   -1
100
AcDbLine
 10
79.92425612380001
 20
11.2396114516
 11
79.21229108270001
 21
11.2396114516
  0
LINE
  5
1A0
100
AcDbEntity
  8
0
  6
CONTINUOUS
 62
    2
370
   -1
100
AcDbLine
 10
79.21229108270001
 20
11.2396114516
 11
79.21229108270001
 21
10.3101999469
  0
LINE
  5
1A1
100
AcDbEntity
  8
0
  6
CONTINUOUS
 62
    2
370
   -1
100
AcDbLine
 10
79.21229108270001
 20
10.3101999469
 11
78.7356519304
 21
10.3101999469
  0
LINE
  5
1A2
100
AcDbEntity
  8
0
  6
CONTINUOUS
 62
    2
370
   -1
100
AcDbLine
 10
78.7356519304
 20
10.3101999469
 11
78.7356519304
 21
12.4923186558
  0
LINE
  5
1A3
100
AcDbEntity
  8
0
  6
CONTINUOUS
 62
    2
370
   -1
100
AcDbLine
 10
81.2535974945
 20
12.4923186558
 11
81.7314514208
 21
12.4923186558
  0
LINE
  5
1A4
100
AcDbEntity
  8
0
  6
CONTINUOUS
 62
    2
370
   -1
100
AcDbLine
 10
81.7314514208
 20
12.4923186558
 11
81.7314514208
 21
10.3101999469
  0
LINE
  5
1A5
100
AcDbEntity
  8
0
  6
CONTINUOUS
 62
    2
370
   -1
100
AcDbLine
 10
81.7314514208
 20
10.3101999469
 11
81.2535974945
 21
10.3101999469
  0
LINE
  5
1A6
100
AcDbEntity
  8
0
  6
CONTINUOUS
 62
    2
370
   -1
100
AcDbLine
 10
81.2535974945
 20
10.3101999469
 11
81.2535974945
 21
12.4923186558
  0
LINE
  5
1A7
100
AcDbEntity
  8
0
  6
CONTINUOUS
 62
    2
370
   -1
100
AcDbLine
 10
82.74993402299999
 20
12.4923186558
 11
82.74993402299999
 21
10.3101999469
  0
LINE
  5
1A8
100
AcDbEntity
  8
0
  6
CONTINUOUS
 62
    2
370
   -1
100
AcDbLine
 10
82.74993402299999
 20
10.3101999469
 11
84.4288228386
 21
10.3101999469
  0
LINE
  5
1A9
100
AcDbEntity
  8
0
  6
CONTINUOUS
 62
    2
370
   -1
100
AcDbLine
 10
84.4288228386
 20
10.3101999469
 11
84.4288228386
 21
10.7868390992
  0
LINE
  5
1AA
100
AcDbEntity
  8
0
  6
CONTINUOUS
 62
    2
370
   -1
100
AcDbLine
 10
84.4288228386
 20
10.7868390992
 11
83.22591023530001
 21
10.7868390992
  0
LINE
  5
1AB
100
AcDbEntity
  8
0
  6
CONTINUOUS
 62
    2
370
   -1
100
AcDbLine
 10
83.22591023530001
 20
10.7868390992
 11
83.22591023530001
 21
12.4923186558
  0
LINE
  5
1AC
100
AcDbEntity
  8
0
  6
CONTINUOUS
 62
    2
370
   -1
100
AcDbLine
 10
83.22591023530001
 20
12.4923186558
 11
82.74993402299999
 21
12.4923186558
  0
ELLIPSE
  5
1AD
100
AcDbEntity
  8
0
  6
CONTINUOUS
 62
    2
370
   -1
100
AcDbEllipse
 10
89.9507694225
 20
11.7999520126
 30
0
 11
-0.8152689369
 21
0
 31
0
 40
0.7942957527
 41
4.7123889804
 42
7.853981634
  0
ELLIPSE
  5
1AE
100
AcDbEntity
  8
0
  6
CONTINUOUS
 62
    2
370
   -1
100
AcDbEllipse
 10
89.9507694225
 20
11.7999520126
 30
0
 11
-1.027278938
 21
0
 31
0
 40
0.6303688608
 41
3.6081640083
 42
4.7123889804
  0
ELLIPSE
  5
1AF
100
AcDbEntity
  8
0
  6
CONTINUOUS
 62
    2
370
   -1
100
AcDbEllipse
 10
89.9507694225
 20
11.8108696542
 30
0
 11
-0.3092004729
 21
0
 31
0
 40
0.6617740729
 41
4.7123889804
 42
7.853981634
  0
ARC
  5
1B0
100
AcDbEntity
  8
0
  6
CONTINUOUS
 62
    2
370
   -1
100
AcDbCircle
 10
89.9509702294
 20
11.2056646291
 40
0.8098259063
100
AcDbArc
 50
46.7274435202
 51
90.01420723850001
  0
LINE
  5
1B1
100
AcDbEntity
  8
0
  6
CONTINUOUS
 62
    2
370
   -1
100
AcDbLine
 10
90.506081339
 20
11.7952998167
 11
90.868248505
 21
12.0912439215
  0
ELLIPSE
  5
1B2
100
AcDbEntity
  8
0
  6
CONTINUOUS
 62
    2
370
   -1
100
AcDbEllipse
 10
90.0421369898
 20
10.9577646008
 30
0
 11
0.8152689369
 21
0
 31
0
 40
0.7942957527
 41
4.7123889804
 42
7.853981634
  0
ELLIPSE
  5
1B3
100
AcDbEntity
  8
0
  6
CONTINUOUS
 62
    2
370
   -1
100
AcDbEllipse
 10
90.0421369898
 20
10.9577646008
 30
0
 11
1.027278938
 21
0
 31
0
 40
0.6303688608
 41
3.6081640083
 42
4.7123889804
  0
ELLIPSE
  5
1B4
100
AcDbEntity
  8
0
  6
CONTINUOUS
 62
    2
370
   -1
100
AcDbEllipse
 10
90.0421369898
 20
10.9468469592
 30
0
 11
0.3092004729
 21
0
 31
0
 40
0.6617740729
 41
4.7123889804
 42
7.853981634
  0
ARC
  5
1B5
100
AcDbEntity
  8
0
  6
CONTINUOUS
 62
    2
370
   -1
100
AcDbCircle
 10
90.0419361829
 20
11.5520519843
 40
0.8098259063
100
AcDbArc
 50
226.7274435202
 51
270.0142072385
  0
LINE
  5
1B6
100
AcDbEntity
  8
0
  6
CONTINUOUS
 62
    2
370
   -1
100
AcDbLine
 10
89.4868250733
 20
10.9624167966
 11
89.1246579073
 21
10.6664726919
  0
LINE
  5
1B7
100
AcDbEntity
  8
0
  6
CONTINUOUS
 62
    2
370
   -1
100
AcDbLine
 10
89.9507694225
 20
11.1523873587
 11
90.0421369898
 21
11.1514678155
  0
LINE
  5
1B8
100
AcDbEntity
  8
0
  6
CONTINUOUS
 62
    2
370
   -1
100
AcDbLine
 10
89.9507694225
 20
11.6062487979
 11
90.0421369898
 21
11.6053292547
  0
LINE
  5
1B9
100
AcDbEntity
  8
0
  6
CONTINUOUS
 62
    2
370
   -1
100
AcDbLine
 10
85.2311884649
 20
10.3101999469
 11
85.2311884649
 21
12.4923186558
  0
LINE
  5
1BA
100
AcDbEntity
  8
0
  6
CONTINUOUS
 62
    2
370
   -1
100
AcDbLine
 10
85.2311884649
 20
12.4923186558
 11
86.89894231309999
 21
12.4923186558
  0
LINE
  5
1BB
100
AcDbEntity
  8
0
  6
CONTINUOUS
 62
    2
370
   -1
100
AcDbLine
 10
86.89894231309999
 20
12.4923186558
 11
86.89894231309999
 21
12.0373449195
  0
LINE
  5
1BC
100
AcDbEntity
  8
0
  6
CONTINUOUS
 62
    2
370
   -1
100
AcDbLine
 10
86.89894231309999
 20
12.0373449195
 11
85.7230345383
 21
12.0373449195
  0
LINE
  5
1BD
100
AcDbEntity
  8
0
  6
CONTINUOUS
 62
    2
370
   -1
100
AcDbLine
 10
85.7230345383
 20
12.0373449195
 11
85.7230345383
 21
11.6706195061
  0
LINE
  5
1BE
100
AcDbEntity
  8
0
  6
CONTINUOUS
 62
    2
370
   -1
100
AcDbLine
 10
85.7230345383
 20
11.6706195061
 11
86.3901361217
 21
11.6706195061
  0
LINE
  5
1BF
100
AcDbEntity
  8
0
  6
CONTINUOUS
 62
    2
370
   -1
100
AcDbLine
 10
86.3901361217
 20
11.6706195061
 11
86.3901361217
 21
11.2712958572
  0
LINE
  5
1C0
100
AcDbEntity
  8
0
  6
CONTINUOUS
 62
    2
370
   -1
100
AcDbLine
 10
86.3901361217
 20
11.2712958572
 11
85.7230345383
 21
11.2712958572
  0
LINE
  5
1C1
100
AcDbEntity
  8
0
  6
CONTINUOUS
 62
    2
370
   -1
100
AcDbLine
 10
85.7230345383
 20
11.2712958572
 11
85.7230345383
 21
10.7868390992
  0
LINE
  5
1C2
100
AcDbEntity
  8
0
  6
CONTINUOUS
 62
    2
370
   -1
100
AcDbLine
 10
85.7230345383
 20
10.7868390992
 11
86.89894231309999
 21
10.7868390992
  0
LINE
  5
1C3
100
AcDbEntity
  8
0
  6
CONTINUOUS
 62
    2
370
   -1
100
AcDbLine
 10
86.89894231309999
 20
10.7868390992
 11
86.89894231309999
 21
10.3101999469
  0
LINE
  5
1C4
100
AcDbEntity
  8
0
  6
CONTINUOUS
 62
    2
370
   -1
100
AcDbLine
 10
86.89894231309999
 20
10.3101999469
 11
85.2311884649
 21
10.3101999469
  0
ELLIPSE
  5
1C5
100
AcDbEntity
  8
0
  6
CONTINUOUS
 62
    2
370
   -1
100
AcDbEllipse
 10
95.00747752079999
 20
11.7999520126
 30
0
 11
-0.8152689369
 21
0
 31
0
 40
0.7942957527
 41
4.7123889804
 42
7.853981634
  0
ELLIPSE
  5
1C6
100
AcDbEntity
  8
0
  6
CONTINUOUS
 62
    2
370
   -1
100
AcDbEllipse
 10
95.00747752079999
 20
11.7999520126
 30
0
 11
-1.027278938
 21
0
 31
0
 40
0.6303688608
 41
3.6081640083
 42
4.7123889804
  0
ELLIPSE
  5
1C7
100
AcDbEntity
  8
0
  6
CONTINUOUS
 62
    2
370
   -1
100
AcDbEllipse
 10
95.00747752079999
 20
11.8108696542
 30
0
 11
-0.3092004729
 21
0
 31
0
 40
0.6617740729
 41
4.7123889804
 42
7.853981634
  0
ARC
  5
1C8
100
AcDbEntity
  8
0
  6
CONTINUOUS
 62
    2
370
   -1
100
AcDbCircle
 10
95.00767832770001
 20
11.2056646291
 40
0.8098259063
100
AcDbArc
 50
46.7274435202
 51
90.01420723850001
  0
LINE
  5
1C9
100
AcDbEntity
  8
0
  6
CONTINUOUS
 62
    2
370
   -1
100
AcDbLine
 10
95.5627894373
 20
11.7952998167
 11
95.9249566033
 21
12.0912439215
  0
ELLIPSE
  5
1CA
100
AcDbEntity
  8
0
  6
CONTINUOUS
 62
    2
370
   -1
100
AcDbEllipse
 10
95.09884508810001
 20
10.9577646008
 30
0
 11
0.8152689369
 21
0
 31
0
 40
0.7942957527
 41
4.7123889804
 42
7.853981634
  0
ELLIPSE
  5
1CB
100
AcDbEntity
  8
0
  6
CONTINUOUS
 62
    2
370
   -1
100
AcDbEllipse
 10
95.09884508810001
 20
10.9577646008
 30
0
 11
1.027278938
 21
0
 31
0
 40
0.6303688608
 41
3.6081640083
 42
4.7123889804
  0
ELLIPSE
  5
1CC
100
AcDbEntity
  8
0
  6
CONTINUOUS
 62
    2
370
   -1
100
AcDbEllipse
 10
95.09884508810001
 20
10.9468469592
 30
0
 11
0.3092004729
 21
0
 31
0
 40
0.6617740729
 41
4.7123889804
 42
7.853981634
  0
ARC
  5
1CD
100
AcDbEntity
  8
0
  6
CONTINUOUS
 62
    2
370
   -1
100
AcDbCircle
 10
95.0986442812
 20
11.5520519843
 40
0.8098259063
100
AcDbArc
 50
226.7274435202
 51
270.0142072385
  0
LINE
  5
1CE
100
AcDbEntity
  8
0
  6
CONTINUOUS
 62
    2
370
   -1
100
AcDbLine
 10
94.5435331716
 20
10.9624167966
 11
94.1813660056
 21
10.6664726919
  0
LINE
  5
1CF
100
AcDbEntity
  8
0
  6
CONTINUOUS
 62
    2
370
   -1
100
AcDbLine
 10
95.00747752079999
 20
11.1523873587
 11
95.09884508810001
 21
11.1514678155
  0
LINE
  5
1D0
100
AcDbEntity
  8
0
  6
CONTINUOUS
 62
    2
370
   -1
100
AcDbLine
 10
95.00747752079999
 20
11.6062487979
 11
95.09884508810001
 21
11.6053292547
  0
ELLIPSE
  5
1D1
100
AcDbEntity
  8
0
  6
CONTINUOUS
 62
    2
370
   -1
100
AcDbEllipse
 10
105.8445186124
 20
11.7999520126
 30
0
 11
-0.8152689369
 21
0
 31
0
 40
0.7942957527
 41
4.7123889804
 42
7.853981634
  0
ELLIPSE
  5
1D2
100
AcDbEntity
  8
0
  6
CONTINUOUS
 62
    2
370
   -1
100
AcDbEllipse
 10
105.8445186124
 20
11.7999520126
 30
0
 11
-1.027278938
 21
0
 31
0
 40
0.6303688608
 41
3.6081640083
 42
4.7123889804
  0
ELLIPSE
  5
1D3
100
AcDbEntity
  8
0
  6
CONTINUOUS
 62
    2
370
   -1
100
AcDbEllipse
 10
105.8445186124
 20
11.8108696542
 30
0
 11
-0.3092004729
 21
0
 31
0
 40
0.6617740729
 41
4.7123889804
 42
7.853981634
  0
ARC
  5
1D4
100
AcDbEntity
  8
0
  6
CONTINUOUS
 62
    2
370
   -1
100
AcDbCircle
 10
105.8447194193
 20
11.2056646291
 40
0.8098259063
100
AcDbArc
 50
46.7274435202
 51
90.01420723850001
  0
LINE
  5
1D5
100
AcDbEntity
  8
0
  6
CONTINUOUS
 62
    2
370
   -1
100
AcDbLine
 10
106.3998305289
 20
11.7952998167
 11
106.7619976949
 21
12.0912439215
  0
ELLIPSE
  5
1D6
100
AcDbEntity
  8
0
  6
CONTINUOUS
 62
    2
370
   -1
100
AcDbEllipse
 10
105.9358861797
 20
10.9577646008
 30
0
 11
0.8152689369
 21
0
 31
0
 40
0.7942957527
 41
4.7123889804
 42
7.853981634
  0
ELLIPSE
  5
1D7
100
AcDbEntity
  8
0
  6
CONTINUOUS
 62
    2
370
   -1
100
AcDbEllipse
 10
105.9358861797
 20
10.9577646008
 30
0
 11
1.027278938
 21
0
 31
0
 40
0.6303688608
 41
3.6081640083
 42
4.7123889804
  0
ELLIPSE
  5
1D8
100
AcDbEntity
  8
0
  6
CONTINUOUS
 62
    2
370
   -1
100
AcDbEllipse
 10
105.9358861797
 20
10.9468469592
 30
0
 11
0.3092004729
 21
0
 31
0
 40
0.6617740729
 41
4.7123889804
 42
7.853981634
  0
ARC
  5
1D9
100
AcDbEntity
  8
0
  6
CONTINUOUS
 62
    2
370
   -1
100
AcDbCircle
 10
105.9356853727
 20
11.5520519843
 40
0.8098259063
100
AcDbArc
 50
226.7274435202
 51
270.0142072385
  0
LINE
  5
1DA
100
AcDbEntity
  8
0
  6
CONTINUOUS
 62
    2
370
   -1
100
AcDbLine
 10
105.3805742632
 20
10.9624167966
 11
105.0184070971
 21
10.6664726919
  0
LINE
  5
1DB
100
AcDbEntity
  8
0
  6
CONTINUOUS
 62
    2
370
   -1
100
AcDbLine
 10
105.8445186124
 20
11.1523873587
 11
105.9358861797
 21
11.1514678155
  0
LINE
  5
1DC
100
AcDbEntity
  8
0
  6
CONTINUOUS
 62
    2
370
   -1
100
AcDbLine
 10
105.8445186124
 20
11.6062487979
 11
105.9358861797
 21
11.6053292547
  0
LINE
  5
1DD
100
AcDbEntity
  8
0
  6
CONTINUOUS
 62
    2
370
   -1
100
AcDbLine
 10
99.2617118773
 20
10.3101999469
 11
99.2617118773
 21
12.4923186558
  0
LINE
  5
1DE
100
AcDbEntity
  8
0
  6
CONTINUOUS
 62
    2
370
   -1
100
AcDbLine
 10
99.2617118773
 20
12.4923186558
 11
100.9294657256
 21
12.4923186558
  0
LINE
  5
1DF
100
AcDbEntity
  8
0
  6
CONTINUOUS
 62
    2
370
   -1
100
AcDbLine
 10
100.9294657256
 20
12.4923186558
 11
100.9294657256
 21
12.0373449195
  0
LINE
  5
1E0
100
AcDbEntity
  8
0
  6
CONTINUOUS
 62
    2
370
   -1
100
AcDbLine
 10
100.9294657256
 20
12.0373449195
 11
99.7535579507
 21
12.0373449195
  0
LINE
  5
1E1
100
AcDbEntity
  8
0
  6
CONTINUOUS
 62
    2
370
   -1
100
AcDbLine
 10
99.7535579507
 20
12.0373449195
 11
99.7535579507
 21
11.6706195061
  0
LINE
  5
1E2
100
AcDbEntity
  8
0
  6
CONTINUOUS
 62
    2
370
   -1
100
AcDbLine
 10
99.7535579507
 20
11.6706195061
 11
100.4206595341
 21
11.6706195061
  0
LINE
  5
1E3
100
AcDbEntity
  8
0
  6
CONTINUOUS
 62
    2
370
   -1
100
AcDbLine
 10
100.4206595341
 20
11.6706195061
 11
100.4206595341
 21
11.2712958572
  0
LINE
  5
1E4
100
AcDbEntity
  8
0
  6
CONTINUOUS
 62
    2
370
   -1
100
AcDbLine
 10
100.4206595341
 20
11.2712958572
 11
99.7535579507
 21
11.2712958572
  0
LINE
  5
1E5
100
AcDbEntity
  8
0
  6
CONTINUOUS
 62
    2
370
   -1
100
AcDbLine
 10
99.7535579507
 20
11.2712958572
 11
99.7535579507
 21
10.7868390992
  0
LINE
  5
1E6
100
AcDbEntity
  8
0
  6
CONTINUOUS
 62
    2
370
   -1
100
AcDbLine
 10
99.7535579507
 20
10.7868390992
 11
100.9294657256
 21
10.7868390992
  0
LINE
  5
1E7
100
AcDbEntity
  8
0
  6
CONTINUOUS
 62
    2
370
   -1
100
AcDbLine
 10
100.9294657256
 20
10.7868390992
 11
100.9294657256
 21
10.3101999469
  0
LINE
  5
1E8
100
AcDbEntity
  8
0
  6
CONTINUOUS
 62
    2
370
   -1
100
AcDbLine
 10
100.9294657256
 20
10.3101999469
 11
99.2617118773
 21
10.3101999469
  0
LINE
  5
1E9
100
AcDbEntity
  8
0
  6
CONTINUOUS
 62
    2
370
   -1
100
AcDbLine
 10
91.371613368
 20
12.4923186558
 11
91.93605713629999
 21
12.4923186558
  0
LINE
  5
1EA
100
AcDbEntity
  8
0
  6
CONTINUOUS
 62
    2
370
   -1
100
AcDbLine
 10
91.93605713629999
 20
12.4923186558
 11
92.51734586480001
 21
11.5413709069
  0
LINE
  5
1EB
100
AcDbEntity
  8
0
  6
CONTINUOUS
 62
    2
370
   -1
100
AcDbLine
 10
92.51734586480001
 20
11.5413709069
 11
93.09863459340001
 21
12.4923186558
  0
LINE
  5
1EC
100
AcDbEntity
  8
0
  6
CONTINUOUS
 62
    2
370
   -1
100
AcDbLine
 10
93.09863459340001
 20
12.4923186558
 11
93.6630783616
 21
12.4923186558
  0
LINE
  5
1ED
100
AcDbEntity
  8
0
  6
CONTINUOUS
 62
    2
370
   -1
100
AcDbLine
 10
93.6630783616
 20
12.4923186558
 11
92.74957963670001
 21
11.1614526808
  0
LINE
  5
1EE
100
AcDbEntity
  8
0
  6
CONTINUOUS
 62
    2
370
   -1
100
AcDbLine
 10
92.74957963670001
 20
11.1614526808
 11
92.74957963670001
 21
10.3101999469
  0
LINE
  5
1EF
100
AcDbEntity
  8
0
  6
CONTINUOUS
 62
    2
370
   -1
100
AcDbLine
 10
92.74957963670001
 20
10.3101999469
 11
92.285112093
 21
10.3101999469
  0
LINE
  5
1F0
100
AcDbEntity
  8
0
  6
CONTINUOUS
 62
    2
370
   -1
100
AcDbLine
 10
92.285112093
 20
10.3101999469
 11
92.285112093
 21
11.1614526808
  0
LINE
  5
1F1
100
AcDbEntity
  8
0
  6
CONTINUOUS
 62
    2
370
   -1
100
AcDbLine
 10
92.285112093
 20
11.1614526808
 11
91.371613368
 21
12.4923186558
  0
LINE
  5
1F2
100
AcDbEntity
  8
0
  6
CONTINUOUS
 62
    2
370
   -1
100
AcDbLine
 10
97.2709030127
 20
10.3101999469
 11
97.2709030127
 21
12.0373449195
  0
LINE
  5
1F3
100
AcDbEntity
  8
0
  6
CONTINUOUS
 62
    2
370
   -1
100
AcDbLine
 10
97.2709030127
 20
12.0373449195
 11
96.5831920398
 21
12.0373449195
  0
LINE
  5
1F4
100
AcDbEntity
  8
0
  6
CONTINUOUS
 62
    2
370
   -1
100
AcDbLine
 10
96.5831920398
 20
12.0373449195
 11
96.5831920398
 21
12.4923186558
  0
LINE
  5
1F5
100
AcDbEntity
  8
0
  6
CONTINUOUS
 62
    2
370
   -1
100
AcDbLine
 10
96.5831920398
 20
12.4923186558
 11
98.42710229470001
 21
12.4923186558
  0
LINE
  5
1F6
100
AcDbEntity
  8
0
  6
CONTINUOUS
 62
    2
370
   -1
100
AcDbLine
 10
98.42710229470001
 20
12.4923186558
 11
98.42710229470001
 21
12.0373449195
  0
LINE
  5
1F7
100
AcDbEntity
  8
0
  6
CONTINUOUS
 62
    2
370
   -1
100
AcDbLine
 10
98.42710229470001
 20
12.0373449195
 11
97.75449380969999
 21
12.0373449195
  0
LINE
  5
1F8
100
AcDbEntity
  8
0
  6
CONTINUOUS
 62
    2
370
   -1
100
AcDbLine
 10
97.75449380969999
 20
12.0373449195
 11
97.75449380969999
 21
10.3101999469
  0
LINE
  5
1F9
100
AcDbEntity
  8
0
  6
CONTINUOUS
 62
    2
370
   -1
100
AcDbLine
 10
97.75449380969999
 20
10.3101999469
 11
97.2709030127
 21
10.3101999469
  0
LINE
  5
1FA
100
AcDbEntity
  8
0
  6
CONTINUOUS
 62
    2
370
   -1
100
AcDbLine
 10
101.8297835087
 20
10.3101999469
 11
101.8297835087
 21
12.4923186558
  0
LINE
  5
1FB
100
AcDbEntity
  8
0
  6
CONTINUOUS
 62
    2
370
   -1
100
AcDbLine
 10
102.945852062
 20
11.1939837906
 11
102.3035867107
 21
12.4923186558
  0
LINE
  5
1FC
100
AcDbEntity
  8
0
  6
CONTINUOUS
 62
    2
370
   -1
100
AcDbLine
 10
102.945852062
 20
11.1939837906
 11
103.5881174133
 21
12.4923186558
  0
LINE
  5
1FD
100
AcDbEntity
  8
0
  6
CONTINUOUS
 62
    2
370
   -1
100
AcDbLine
 10
104.0619206153
 20
10.3101999469
 11
104.0619206153
 21
12.4923186558
  0
LINE
  5
1FE
100
AcDbEntity
  8
0
  6
CONTINUOUS
 62
    2
370
   -1
100
AcDbLine
 10
102.321358342
 20
11.5153099999
 11
102.945852062
 21
10.3101999469
  0
LINE
  5
1FF
100
AcDbEntity
  8
0
  6
CONTINUOUS
 62
    2
370
   -1
100
AcDbLine
 10
102.321358342
 20
11.5153099999
 11
102.321358342
 21
10.3101999469
  0
LINE
  5
200
100
AcDbEntity
  8
0
  6
CONTINUOUS
 62
    2
370
   -1
100
AcDbLine
 10
102.321358342
 20
10.3101999469
 11
101.8297835087
 21
10.3101999469
  0
LINE
  5
201
100
AcDbEntity
  8
0
  6
CONTINUOUS
 62
    2
370
   -1
100
AcDbLine
 10
103.570345782
 20
11.5153099999
 11
102.945852062
 21
10.3101999469
  0
LINE
  5
202
100
AcDbEntity
  8
0
  6
CONTINUOUS
 62
    2
370
   -1
100
AcDbLine
 10
103.570345782
 20
11.5153099999
 11
103.570345782
 21
10.3101999469
  0
LINE
  5
203
100
AcDbEntity
  8
0
  6
CONTINUOUS
 62
    2
370
   -1
100
AcDbLine
 10
103.570345782
 20
10.3101999469
 11
104.0619206153
 21
10.3101999469
  0
LINE
  5
204
100
AcDbEntity
  8
0
  6
CONTINUOUS
 62
    2
370
   -1
100
AcDbLine
 10
101.8297835087
 20
12.4923186558
 11
102.3035867107
 21
12.4923186558
  0
LINE
  5
205
100
AcDbEntity
  8
0
  6
CONTINUOUS
 62
    2
370
   -1
100
AcDbLine
 10
103.5881174133
 20
12.4923186558
 11
104.0619206153
 21
12.4923186558
  0
ENDBLK
  5
5A
330
58
100
AcDbEntity
  8
0
100
AcDbBlockEnd
  0
BLOCK
  5
5C
330
5B
100
AcDbEntity
  8
0
100
AcDbBlockBegin
  2
SYMBOL_17_BL0
 70
    0
 10
101.6151124181
 20
49.814115924
  3
SYMBOL_17_BL0
  1

  0
LINE
  5
206
100
AcDbEntity
  8
DEFAULT_1
  6
CENTER
 62
    2
370
   -1
100
AcDbLine
 10
105.3663603302
 20
46.814115924
 11
105.3663603302
 21
52.814115924
  0
LINE
  5
207
100
AcDbEntity
  8
DEFAULT_1
  6
CENTER
 62
    2
370
   -1
100
AcDbLine
 10
102.3663603302
 20
49.814115924
 11
108.3663603302
 21
49.814115924
  0
LINE
  5
208
100
AcDbEntity
  8
DEFAULT_1
  6
CENTER
 62
    2
370
   -1
100
AcDbLine
 10
94.8638645061
 20
49.8423185616
 11
101.5338993119
 21
49.8423185616
  0
LINE
  5
209
100
AcDbEntity
  8
0
  6
CONTINUOUS
 62
    7
370
   -1
100
AcDbLine
 10
105.3663603302
 20
49.814115924
 11
105.3663603302
 21
49.8449211647
  0
LINE
  5
20A
100
AcDbEntity
  8
0
  6
CONTINUOUS
 62
    7
370
   -1
100
AcDbLine
 10
101.1471896998
 20
47.189115924
 11
101.1471896998
 21
52.439115924
  0
CIRCLE
  5
20B
100
AcDbEntity
  8
0
  6
CONTINUOUS
 62
    7
370
   -1
100
AcDbCircle
 10
105.3663603302
 20
49.814115924
 40
1.5
  0
LINE
  5
20C
100
AcDbEntity
  8
0
  6
CONTINUOUS
 62
    7
370
   -1
100
AcDbLine
 10
95.42801906939999
 20
48.314115924
 11
95.42801906939999
 21
51.314115924
  0
CIRCLE
  5
20D
100
AcDbEntity
  8
0
  6
CONTINUOUS
 62
    7
370
   -1
100
AcDbCircle
 10
105.3663603302
 20
49.814115924
 40
2.625
  0
LINE
  5
20E
100
AcDbEntity
  8
0
  6
CONTINUOUS
 62
    7
370
   -1
100
AcDbLine
 10
95.42801906939999
 20
51.314115924
 11
101.1471896998
 21
52.439115924
  0
LINE
  5
20F
100
AcDbEntity
  8
0
  6
CONTINUOUS
 62
    7
370
   -1
100
AcDbLine
 10
95.42801906939999
 20
48.314115924
 11
101.1471896998
 21
47.189115924
  0
ENDBLK
  5
5D
330
5B
100
AcDbEntity
  8
0
100
AcDbBlockEnd
  0
BLOCK
  5
5F
330
5E
100
AcDbEntity
  8
0
100
AcDbBlockBegin
  2
_FILLED
 70
    0
 10
0
 20
0
  3
_FILLED
  1

  0
SOLID
  5
210
100
AcDbEntity
  8
0
  6
ByBlock
 62
    0
370
   -1
100
AcDbTrace
 10
0
 20
0
 30
0
 11
-1
 21
0.125
 31
0
 12
-1
 22
-0.125
 32
0
 13
-1
 23
-0.125
 33
0
  0
ENDBLK
  5
60
330
5E
100
AcDbEntity
  8
0
100
AcDbBlockEnd
  0
BLOCK
  5
62
330
61
100
AcDbEntity
  8
0
100
AcDbBlockBegin
  2
*T1
 70
    0
 10
0
 20
0
  3
*T1
  1

  0
LINE
  5
211
100
AcDbEntity
  8
0
  6
CONTINUOUS
 62
    2
370
   -1
100
AcDbLine
 10
0
 20
0
 11
133.15
 21
0
  0
LINE
  5
212
100
AcDbEntity
  8
0
  6
CONTINUOUS
 62
    2
370
   -1
100
AcDbLine
 10
0
 20
0
 11
0
 21
-63.3
  0
LINE
  5
213
100
AcDbEntity
  8
0
  6
CONTINUOUS
 62
    2
370
   -1
100
AcDbLine
 10
0
 20
-4.25
 11
133.15
 21
-4.25
  0
LINE
  5
214
100
AcDbEntity
  8
0
  6
CONTINUOUS
 62
    2
370
   -1
100
AcDbLine
 10
0
 20
-12.75
 11
133.15
 21
-12.75
  0
LINE
  5
215
100
AcDbEntity
  8
0
  6
CONTINUOUS
 62
    2
370
   -1
100
AcDbLine
 10
0
 20
-25.05
 11
133.15
 21
-25.05
  0
LINE
  5
216
100
AcDbEntity
  8
0
  6
CONTINUOUS
 62
    2
370
   -1
100
AcDbLine
 10
0
 20
-33.55
 11
44.2
 21
-33.55
  0
LINE
  5
217
100
AcDbEntity
  8
0
  6
CONTINUOUS
 62
    2
370
   -1
100
AcDbLine
 10
0
 20
-37.8
 11
44.2
 21
-37.8
  0
LINE
  5
218
100
AcDbEntity
  8
0
  6
CONTINUOUS
 62
    2
370
   -1
100
AcDbLine
 10
0
 20
-42.05
 11
44.2
 21
-42.05
  0
LINE
  5
219
100
AcDbEntity
  8
0
  6
CONTINUOUS
 62
    2
370
   -1
100
AcDbLine
 10
44.2
 20
-46.3
 11
133.15
 21
-46.3
  0
LINE
  5
21A
100
AcDbEntity
  8
0
  6
CONTINUOUS
 62
    2
370
   -1
100
AcDbLine
 10
120.15
 20
-54.8
 11
133.15
 21
-54.8
  0
LINE
  5
21B
100
AcDbEntity
  8
0
  6
CONTINUOUS
 62
    2
370
   -1
100
AcDbLine
 10
0
 20
-59.05
 11
133.15
 21
-59.05
  0
LINE
  5
21C
100
AcDbEntity
  8
0
  6
CONTINUOUS
 62
    2
370
   -1
100
AcDbLine
 10
0
 20
-63.3
 11
133.15
 21
-63.3
  0
LINE
  5
21D
100
AcDbEntity
  8
0
  6
CONTINUOUS
 62
    2
370
   -1
100
AcDbLine
 10
10.4
 20
-25.05
 11
10.4
 21
-42.05
  0
LINE
  5
21E
100
AcDbEntity
  8
0
  6
CONTINUOUS
 62
    2
370
   -1
100
AcDbLine
 10
26
 20
-4.25
 11
26
 21
-42.05
  0
LINE
  5
21F
100
AcDbEntity
  8
0
  6
CONTINUOUS
 62
    2
370
   -1
100
AcDbLine
 10
44.2
 20
0
 11
44.2
 21
-4.25
  0
LINE
  5
220
100
AcDbEntity
  8
0
  6
CONTINUOUS
 62
    2
370
   -1
100
AcDbLine
 10
44.2
 20
-12.75
 11
44.2
 21
-59.05
  0
LINE
  5
221
100
AcDbEntity
  8
0
  6
CONTINUOUS
 62
    2
370
   -1
100
AcDbLine
 10
105.45
 20
-12.75
 11
105.45
 21
-25.05
  0
LINE
  5
222
100
AcDbEntity
  8
0
  6
CONTINUOUS
 62
    2
370
   -1
100
AcDbLine
 10
120.15
 20
-46.3
 11
120.15
 21
-63.3
  0
LINE
  5
223
100
AcDbEntity
  8
0
  6
CONTINUOUS
 62
    2
370
   -1
100
AcDbLine
 10
133.15
 20
0
 11
133.15
 21
-63.3
  0
MTEXT
  5
224
100
AcDbEntity
  8
0
  6
CONTINUOUS
 62
    5
370
   -1
100
AcDbMText
 10
1.225
 20
-1.125
 30
0
 40
2
 41
9.555555555555742
 71
    1
 72
    1
  1
Ang.Nr.:
  7
textstyle_8
210
0
220
0
230
1
 50
0
 73
    1
 44
0.9
  0
MTEXT
  5
225
100
AcDbEntity
  8
0
  6
CONTINUOUS
 62
    5
370
   -1
100
AcDbMText
 10
45.425
 20
-1.125
 30
0
 40
2
 41
12
 71
    1
 72
    1
  1
Auftr.Nr.:
  7
textstyle_8
210
0
220
0
230
1
 50
0
 73
    1
 44
0.9
  0
MTEXT
  5
226
100
AcDbEntity
  8
0
  6
CONTINUOUS
 62
    5
370
   -1
100
AcDbMText
 10
1.225
 20
-5.125
 30
0
 40
2.5
 41
19.44444573016268
 71
    1
 72
    1
  1
Format/size
  7
standard
210
0
220
0
230
1
 50
0
 73
    1
 44
0.9
  0
MTEXT
  5
227
100
AcDbEntity
  8
0
  6
CONTINUOUS
 62
    5
370
   -1
100
AcDbMText
 10
27.225
 20
-5.125
 30
0
 40
2.5
 41
74.58333590477042
 71
    1
 72
    1
  1
Dateiname des Modells / filename of model
  7
standard
210
0
220
0
230
1
 50
0
 73
    1
 44
0.9
  0
MTEXT
  5
228
100
AcDbEntity
  8
0
  6
CONTINUOUS
 62
    5
370
   -1
100
AcDbMText
 10
1.225
 20
-9.375
 30
0
 40
2.5
 41
3.888888888888889
 71
    1
 72
    1
  1
A4
  7
textstyle_8
210
0
220
0
230
1
 50
0
 73
    1
 44
0.9
  0
MTEXT
  5
229
100
AcDbEntity
  8
0
  6
CONTINUOUS
 62
    5
370
   -1
100
AcDbMText
 10
27.225
 20
-9.375
 30
0
 40
2.5
 41
23.05555555555571
 71
    1
 72
    1
  1
PRO5_20201N
  7
textstyle_8
210
0
220
0
230
1
 50
0
 73
    1
 44
0.9
  0
MTEXT
  5
22A
100
AcDbEntity
  8
0
  6
CONTINUOUS
 62
    5
370
   -1
100
AcDbMText
 10
1.225
 20
-13.625
 30
0
 40
2.5
 41
23.88889146032535
 71
    1
 72
    1
  1
Mastab/scale
  7
standard
210
0
220
0
230
1
 50
0
 73
    1
 44
0.9
  0
MTEXT
  5
22B
100
AcDbEntity
  8
0
  6
CONTINUOUS
 62
    5
370
   -1
100
AcDbMText
 10
45.425
 20
-13.625
 30
0
 40
2.5
 41
26.38889017460712
 71
    1
 72
    1
  1
Kunde/customer
  7
standard
210
0
220
0
230
1
 50
0
 73
    1
 44
0.9
  0
MTEXT
  5
22C
100
AcDbEntity
  8
0
  6
CONTINUOUS
 62
    5
370
   -1
100
AcDbMText
 10
106.675
 20
-13.625
 30
0
 40
2.5
 41
22.22222479365857
 71
    1
 72
    1
  1
Masse/weight
  7
standard
210
0
220
0
230
1
 50
0
 73
    1
 44
0.9
  0
MTEXT
  5
22D
100
AcDbEntity
  8
0
  6
CONTINUOUS
 62
    5
370
   -1
100
AcDbMText
 10
1.225
 20
-20.275
 30
0
 40
2.5
 41
28.61111111111154
 71
    1
 72
    1
  1
 \Ftrium.ttf;\H3.5;2:1
  7
standard
210
0
220
0
230
1
 50
0
 73
    1
 44
0.9
  0
MTEXT
  5
22E
100
AcDbEntity
  8
0
  6
CONTINUOUS
 62
    5
370
   -1
100
AcDbMText
 10
18.2
 20
-26.175
 30
0
 40
2.5
 41
9.444444444444832
 71
    2
 72
    1
  1
Datum\Pdate
  7
standard
210
0
220
0
230
1
 50
0
 73
    1
 44
0.9
  0
MTEXT
  5
22F
100
AcDbEntity
  8
0
  6
CONTINUOUS
 62
    5
370
   -1
100
AcDbMText
 10
27.225
 20
-28.05
 30
0
 40
2.5
 41
7.777777777778009
 71
    1
 72
    1
  1
  Name
  7
standard
210
0
220
0
230
1
 50
0
 73
    1
 44
0.9
  0
MTEXT
  5
230
100
AcDbEntity
  8
0
  6
CONTINUOUS
 62
    5
370
   -1
100
AcDbMText
 10
45.425
 20
-25.925
 30
0
 40
2.5
 41
26.11111111111169
 71
    1
 72
    1
  1
Benennung/title
  7
standard
210
0
220
0
230
1
 50
0
 73
    1
 44
0.9
  0
MTEXT
  5
231
100
AcDbEntity
  8
0
  6
CONTINUOUS
 62
    5
370
   -1
100
AcDbMText
 10
45.425
 20
-31.05
 30
0
 40
5
 41
59.0277777777781
 71
    1
 72
    1
  1
Profil 5 20x20 1N
  7
textstyle_8
210
0
220
0
230
1
 50
0
 73
    1
 44
0.9
  0
MTEXT
  5
232
100
AcDbEntity
  8
0
  6
CONTINUOUS
 62
    5
370
   -1
100
AcDbMText
 10
1.225
 20
-34.425
 30
0
 40
2.5
 41
7.777777777777895
 71
    1
 72
    1
  1
Bear.
  7
standard
210
0
220
0
230
1
 50
0
 73
    1
 44
0.9
  0
MTEXT
  5
233
100
AcDbEntity
  8
0
  6
CONTINUOUS
 62
    5
370
   -1
100
AcDbMText
 10
1.225
 20
-38.675
 30
0
 40
2.5
 41
7.777777777777934
 71
    1
 72
    1
  1
Gepr.
  7
standard
210
0
220
0
230
1
 50
0
 73
    1
 44
0.9
  0
MTEXT
  5
234
100
AcDbEntity
  8
0
  6
CONTINUOUS
 62
    5
370
   -1
100
AcDbMText
 10
18.2
 20
-38.925
 30
0
 40
2
 41
0.8888888888888888
 71
    2
 72
    1
  1
-
  7
textstyle_9
210
0
220
0
230
1
 50
0
 73
    1
 44
0.9
  0
MTEXT
  5
235
100
AcDbEntity
  8
0
  6
CONTINUOUS
 62
    5
370
   -1
100
AcDbMText
 10
35.1
 20
-38.925
 30
0
 40
2
 41
0.8888888888888888
 71
    2
 72
    1
  1
-
  7
textstyle_9
210
0
220
0
230
1
 50
0
 73
    1
 44
0.9
  0
MTEXT
  5
236
100
AcDbEntity
  8
0
  6
CONTINUOUS
 62
    5
370
   -1
100
AcDbMText
 10
45.425
 20
-47.175
 30
0
 40
2.5
 41
51.31944573016373
 71
    1
 72
    1
  1
Zeichnungsnummer/drawing no.
  7
standard
210
0
220
0
230
1
 50
0
 73
    1
 44
0.9
  0
MTEXT
  5
237
100
AcDbEntity
  8
0
  6
CONTINUOUS
 62
    5
370
   -1
100
AcDbMText
 10
121.375
 20
-47.425
 30
0
 40
2.5
 41
8.612063541172761
 71
    1
 72
    1
  1
Blatt\Psheet
  7
standard
210
0
220
0
230
1
 50
0
 73
    1
 44
0.9
  0
MTEXT
  5
238
100
AcDbEntity
  8
0
  6
CONTINUOUS
 62
    5
370
   -1
100
AcDbMText
 10
45.425
 20
-52.3
 30
0
 40
5
 41
60.55555555555587
 71
    1
 72
    1
  1
PRO5_20201N-001
  7
textstyle_8
210
0
220
0
230
1
 50
0
 73
    1
 44
0.9
  0
MTEXT
  5
239
100
AcDbEntity
  8
0
  6
CONTINUOUS
 62
    5
370
   -1
100
AcDbMText
 10
126.65
 20
-55.175
 30
0
 40
3.5
 41
0.7777777777777778
 71
    2
 72
    1
  1
1
  7
textstyle_8
210
0
220
0
230
1
 50
0
 73
    1
 44
0.9
  0
MTEXT
  5
23A
100
AcDbEntity
  8
0
  6
CONTINUOUS
 62
    5
370
   -1
100
AcDbMText
 10
1.225
 20
-60.175
 30
0
 40
2
 41
25.50000000000025
 71
    1
 72
    1
  1
CAD: Pro/ENGINEER
  7
textstyle_8
210
0
220
0
230
1
 50
0
 73
    1
 44
0.9
  0
MTEXT
  5
23B
100
AcDbEntity
  8
0
  6
CONTINUOUS
 62
    5
370
   -1
100
AcDbMText
 10
121.375
 20
-59.425
 30
0
 40
3.5
 41
31.79166666666689
 71
    1
 72
    1
  1
1\Ftxt;\H2.5; Bl.
  7
textstyle_8
210
0
220
0
230
1
 50
0
 73
    1
 44
0.9
  0
ENDBLK
  5
63
330
61
100
AcDbEntity
  8
0
100
AcDbBlockEnd
  0
BLOCK
  5
65
330
64
100
AcDbEntity
  8
0
100
AcDbBlockBegin
  2
*T2
 70
    0
 10
0
 20
0
  3
*T2
  1

  0
LINE
  5
23C
100
AcDbEntity
  8
0
  6
CONTINUOUS
 62
    2
370
   -1
100
AcDbLine
 10
0
 20
0
 11
133.15
 21
0
  0
LINE
  5
23D
100
AcDbEntity
  8
0
  6
CONTINUOUS
 62
    2
370
   -1
100
AcDbLine
 10
0
 20
0
 11
0
 21
12
  0
LINE
  5
23E
100
AcDbEntity
  8
0
  6
CONTINUOUS
 62
    2
370
   -1
100
AcDbLine
 10
0
 20
7
 11
133.15
 21
7
  0
LINE
  5
23F
100
AcDbEntity
  8
0
  6
CONTINUOUS
 62
    2
370
   -1
100
AcDbLine
 10
0
 20
12
 11
133.15
 21
12
  0
LINE
  5
240
100
AcDbEntity
  8
0
  6
CONTINUOUS
 62
    2
370
   -1
100
AcDbLine
 10
12.5
 20
0
 11
12.5
 21
12
  0
LINE
  5
241
100
AcDbEntity
  8
0
  6
CONTINUOUS
 62
    2
370
   -1
100
AcDbLine
 10
99
 20
0
 11
99
 21
12
  0
LINE
  5
242
100
AcDbEntity
  8
0
  6
CONTINUOUS
 62
    2
370
   -1
100
AcDbLine
 10
121
 20
0
 11
121
 21
12
  0
LINE
  5
243
100
AcDbEntity
  8
0
  6
CONTINUOUS
 62
    2
370
   -1
100
AcDbLine
 10
133.15
 20
0
 11
133.15
 21
12
  0
MTEXT
  5
244
100
AcDbEntity
  8
0
  6
CONTINUOUS
 62
    5
370
   -1
100
AcDbMText
 10
3.725
 20
4.75
 30
0
 40
2.5
 41
4.722222222222222
 71
    1
 72
    1
  1
Idx.
  7
standard
210
0
220
0
230
1
 50
0
 73
    1
 44
0.9
  0
MTEXT
  5
245
100
AcDbEntity
  8
0
  6
CONTINUOUS
 62
    5
370
   -1
100
AcDbMText
 10
13.725
 20
4.75
 30
0
 40
2.5
 41
15.00000000000035
 71
    1
 72
    1
  1
nderung
  7
standard
210
0
220
0
230
1
 50
0
 73
    1
 44
0.9
  0
MTEXT
  5
246
100
AcDbEntity
  8
0
  6
CONTINUOUS
 62
    5
370
   -1
100
AcDbMText
 10
100.225
 20
4.75
 30
0
 40
2.5
 41
9.444444444444834
 71
    1
 72
    1
  1
Datum
  7
standard
210
0
220
0
230
1
 50
0
 73
    1
 44
0.9
  0
MTEXT
  5
247
100
AcDbEntity
  8
0
  6
CONTINUOUS
 62
    5
370
   -1
100
AcDbMText
 10
122.225
 20
4.75
 30
0
 40
2.5
 41
7.77777777777801
 71
    1
 72
    1
  1
Name
  7
standard
210
0
220
0
230
1
 50
0
 73
    1
 44
0.9
  0
ENDBLK
  5
66
330
64
100
AcDbEntity
  8
0
100
AcDbBlockEnd
  0
ENDSEC
  0
SECTION
  2
ENTITIES
  0
LINE
  5
248
100
AcDbEntity
  8
0
  6
CONTINUOUS
 62
    7
370
   -1
100
AcDbLine
 10
-10
 20
8
 11
-10
 21
3.199999999999989
  0
LINE
  5
249
100
AcDbEntity
  8
0
  6
CONTINUOUS
 62
    7
370
   -1
100
AcDbLine
 10
-10
 20
-3.200000000000017
 11
-10
 21
-8
  0
LINE
  5
24A
100
AcDbEntity
  8
0
  6
CONTINUOUS
 62
    7
370
   -1
100
AcDbLine
 10
-8.199999999999989
 20
4.869999999999976
 11
-8.199999999999989
 21
2.799999999999983
  0
LINE
  5
24B
100
AcDbEntity
  8
0
  6
CONTINUOUS
 62
    7
370
   -1
100
AcDbLine
 10
-8.199999999999989
 20
-2.800000000000011
 11
-8.199999999999989
 21
-4.870000000000005
  0
LINE
  5
24C
100
AcDbEntity
  8
0
  6
CONTINUOUS
 62
    7
370
   -1
100
AcDbLine
 10
-3.650000000000006
 20
-2.030294372500009
 11
-3.650000000000006
 21
2.030294372499981
  0
LINE
  5
24D
100
AcDbEntity
  8
0
  6
CONTINUOUS
 62
    7
370
   -1
100
AcDbLine
 10
2.030294372500009
 20
-3.650000000000006
 11
-2.030294372499995
 21
-3.650000000000006
  0
LINE
  5
24E
100
AcDbEntity
  8
0
  6
CONTINUOUS
 62
    7
370
   -1
100
AcDbLine
 10
-2.5
 20
9.299999999999983
 11
-2.5
 21
8.5
  0
LINE
  5
24F
100
AcDbEntity
  8
0
  6
CONTINUOUS
 62
    7
370
   -1
100
AcDbLine
 10
9.299999999999997
 20
-2.5
 11
8.5
 21
-2.5
  0
LINE
  5
250
100
AcDbEntity
  8
0
  6
CONTINUOUS
 62
    7
370
   -1
100
AcDbLine
 10
-9.299999999999997
 20
-2.5
 11
-8.5
 21
-2.5
  0
LINE
  5
251
100
AcDbEntity
  8
0
  6
CONTINUOUS
 62
    7
370
   -1
100
AcDbLine
 10
-6.69774603255
 20
-5.492253967450011
 11
-3.942893218799995
 21
-2.737401153700006
  0
LINE
  5
252
100
AcDbEntity
  8
0
  6
CONTINUOUS
 62
    7
370
   -1
100
AcDbLine
 10
2.737401153700006
 20
3.942893218799981
 11
5.492253967449997
 21
6.697746032549986
  0
LINE
  5
253
100
AcDbEntity
  8
0
  6
CONTINUOUS
 62
    7
370
   -1
100
AcDbLine
 10
5.492253967449997
 20
-6.697746032549986
 11
2.737401153700006
 21
-3.942893218800009
  0
LINE
  5
254
100
AcDbEntity
  8
0
  6
CONTINUOUS
 62
    7
370
   -1
100
AcDbLine
 10
-3.942893218799995
 20
2.737401153700006
 11
-6.69774603255
 21
5.492253967450011
  0
LINE
  5
255
100
AcDbEntity
  8
0
  6
CONTINUOUS
 62
    7
370
   -1
100
AcDbLine
 10
6.69774603255
 20
5.492253967450011
 11
3.942893218800009
 21
2.737401153700006
  0
LINE
  5
256
100
AcDbEntity
  8
0
  6
CONTINUOUS
 62
    7
370
   -1
100
AcDbLine
 10
-2.737401153700006
 20
-3.942893218800009
 11
-5.492253967449997
 21
-6.697746032549986
  0
LINE
  5
257
100
AcDbEntity
  8
0
  6
CONTINUOUS
 62
    7
370
   -1
100
AcDbLine
 10
-5.492253967449997
 20
6.697746032549986
 11
-2.737401153700006
 21
3.942893218799981
  0
LINE
  5
258
100
AcDbEntity
  8
0
  6
CONTINUOUS
 62
    7
370
   -1
100
AcDbLine
 10
3.942893218800009
 20
-2.737401153700006
 11
6.69774603255
 21
-5.492253967450011
  0
LINE
  5
259
100
AcDbEntity
  8
0
  6
CONTINUOUS
 62
    7
370
   -1
100
AcDbLine
 10
2.5
 20
9.299999999999983
 11
2.5
 21
8.5
  0
LINE
  5
25A
100
AcDbEntity
  8
0
  6
CONTINUOUS
 62
    7
370
   -1
100
AcDbLine
 10
9.299999999999997
 20
2.5
 11
8.5
 21
2.5
  0
LINE
  5
25B
100
AcDbEntity
  8
0
  6
CONTINUOUS
 62
    7
370
   -1
100
AcDbLine
 10
-9.299999999999997
 20
2.5
 11
-8.5
 21
2.5
  0
LINE
  5
25C
100
AcDbEntity
  8
0
  6
CONTINUOUS
 62
    7
370
   -1
100
AcDbLine
 10
3.650000000000006
 20
2.030294372499981
 11
3.650000000000006
 21
-2.030294372500009
  0
LINE
  5
25D
100
AcDbEntity
  8
0
  6
CONTINUOUS
 62
    7
370
   -1
100
AcDbLine
 10
-2.030294372499995
 20
3.650000000000006
 11
2.030294372500009
 21
3.650000000000006
  0
LINE
  5
25E
100
AcDbEntity
  8
0
  6
CONTINUOUS
 62
    7
370
   -1
100
AcDbLine
 10
8.200000000000003
 20
-4.870000000000005
 11
8.200000000000003
 21
-2.800000000000011
  0
LINE
  5
25F
100
AcDbEntity
  8
0
  6
CONTINUOUS
 62
    7
370
   -1
100
AcDbLine
 10
8.200000000000003
 20
2.799999999999983
 11
8.200000000000003
 21
4.869999999999976
  0
LINE
  5
260
100
AcDbEntity
  8
0
  6
CONTINUOUS
 62
    7
370
   -1
100
AcDbLine
 10
4.870000000000005
 20
8.199999999999989
 11
2.800000000000011
 21
8.199999999999989
  0
LINE
  5
261
100
AcDbEntity
  8
0
  6
CONTINUOUS
 62
    7
370
   -1
100
AcDbLine
 10
-2.799999999999997
 20
8.199999999999989
 11
-4.870000000000005
 21
8.199999999999989
  0
LINE
  5
262
100
AcDbEntity
  8
0
  6
CONTINUOUS
 62
    7
370
   -1
100
AcDbLine
 10
10
 20
-8
 11
10
 21
-3.200000000000017
  0
LINE
  5
263
100
AcDbEntity
  8
0
  6
CONTINUOUS
 62
    7
370
   -1
100
AcDbLine
 10
10
 20
3.199999999999989
 11
10
 21
8
  0
LINE
  5
264
100
AcDbEntity
  8
0
  6
CONTINUOUS
 62
    7
370
   -1
100
AcDbLine
 10
8
 20
10
 11
3.200000000000003
 21
10
  0
LINE
  5
265
100
AcDbEntity
  8
0
  6
CONTINUOUS
 62
    7
370
   -1
100
AcDbLine
 10
-3.199999999999989
 20
10
 11
-8
 21
10
  0
CIRCLE
  5
266
100
AcDbEntity
  8
0
  6
CONTINUOUS
 62
    7
370
   -1
100
AcDbCircle
 10
0
 20
0
 40
2.15
  0
ARC
  5
267
100
AcDbEntity
  8
0
  6
CONTINUOUS
 62
    7
370
   -1
100
AcDbCircle
 10
-8
 20
8
 40
2
100
AcDbArc
 50
90
 51
180
  0
ARC
  5
268
100
AcDbEntity
  8
0
  6
CONTINUOUS
 62
    7
370
   -1
100
AcDbCircle
 10
-8
 20
-8
 40
2
100
AcDbArc
 50
180
 51
270
  0
ARC
  5
269
100
AcDbEntity
  8
0
  6
CONTINUOUS
 62
    7
370
   -1
100
AcDbCircle
 10
8
 20
-8
 40
2
100
AcDbArc
 50
270
 51
360
  0
ARC
  5
26A
100
AcDbEntity
  8
0
  6
CONTINUOUS
 62
    7
370
   -1
100
AcDbCircle
 10
8
 20
8
 40
2
100
AcDbArc
 50
0
 51
90
  0
ARC
  5
26B
100
AcDbEntity
  8
0
  6
CONTINUOUS
 62
    7
370
   -1
100
AcDbCircle
 10
2.030294372500009
 20
4.650000000000006
 40
1
100
AcDbArc
 50
270
 51
315
  0
ARC
  5
26C
100
AcDbEntity
  8
0
  6
CONTINUOUS
 62
    7
370
   -1
100
AcDbCircle
 10
-2.030294372499995
 20
4.650000000000006
 40
1
100
AcDbArc
 50
225
 51
270
  0
ARC
  5
26D
100
AcDbEntity
  8
0
  6
CONTINUOUS
 62
    7
370
   -1
100
AcDbCircle
 10
-4.650000000000006
 20
2.030294372499981
 40
1
100
AcDbArc
 50
0
 51
45
  0
ARC
  5
26E
100
AcDbEntity
  8
0
  6
CONTINUOUS
 62
    7
370
   -1
100
AcDbCircle
 10
-4.650000000000006
 20
-2.030294372500009
 40
1
100
AcDbArc
 50
315
 51
360
  0
ARC
  5
26F
100
AcDbEntity
  8
0
  6
CONTINUOUS
 62
    7
370
   -1
100
AcDbCircle
 10
4.650000000000006
 20
-2.030294372500009
 40
1
100
AcDbArc
 50
180
 51
225
  0
ARC
  5
270
100
AcDbEntity
  8
0
  6
CONTINUOUS
 62
    7
370
   -1
100
AcDbCircle
 10
2.030294372500009
 20
-4.650000000000006
 40
1
100
AcDbArc
 50
45
 51
90
  0
ARC
  5
271
100
AcDbEntity
  8
0
  6
CONTINUOUS
 62
    7
370
   -1
100
AcDbCircle
 10
-2.030294372499995
 20
-4.650000000000006
 40
1
100
AcDbArc
 50
90
 51
135
  0
ARC
  5
272
100
AcDbEntity
  8
0
  6
CONTINUOUS
 62
    7
370
   -1
100
AcDbCircle
 10
4.650000000000006
 20
2.030294372499981
 40
1
100
AcDbArc
 50
135
 51
180
  0
ARC
  5
273
100
AcDbEntity
  8
0
  6
CONTINUOUS
 62
    7
370
   -1
100
AcDbCircle
 10
4.870000000000005
 20
7.319999999999993
 40
0.88
100
AcDbArc
 50
315
 51
90
  0
ARC
  5
274
100
AcDbEntity
  8
0
  6
CONTINUOUS
 62
    7
370
   -1
100
AcDbCircle
 10
-4.870000000000005
 20
7.319999999999993
 40
0.88
100
AcDbArc
 50
90
 51
225
  0
ARC
  5
275
100
AcDbEntity
  8
0
  6
CONTINUOUS
 62
    7
370
   -1
100
AcDbCircle
 10
-7.319999999999993
 20
4.869999999999976
 40
0.88
100
AcDbArc
 50
45
 51
180
  0
ARC
  5
276
100
AcDbEntity
  8
0
  6
CONTINUOUS
 62
    7
370
   -1
100
AcDbCircle
 10
-7.319999999999993
 20
-4.870000000000005
 40
0.88
100
AcDbArc
 50
180
 51
315
  0
ARC
  5
277
100
AcDbEntity
  8
0
  6
CONTINUOUS
 62
    7
370
   -1
100
AcDbCircle
 10
7.320000000000007
 20
-4.870000000000005
 40
0.88
100
AcDbArc
 50
225
 51
360
  0
ARC
  5
278
100
AcDbEntity
  8
0
  6
CONTINUOUS
 62
    7
370
   -1
100
AcDbCircle
 10
4.870000000000005
 20
-7.320000000000022
 40
0.88
100
AcDbArc
 50
270
 51
45
  0
ARC
  5
279
100
AcDbEntity
  8
0
  6
CONTINUOUS
 62
    7
370
   -1
100
AcDbCircle
 10
-4.870000000000005
 20
-7.320000000000022
 40
0.88
100
AcDbArc
 50
135
 51
270
  0
ARC
  5
27A
100
AcDbEntity
  8
0
  6
CONTINUOUS
 62
    7
370
   -1
100
AcDbCircle
 10
7.320000000000007
 20
4.869999999999976
 40
0.88
100
AcDbArc
 50
0
 51
135
  0
ARC
  5
27B
100
AcDbEntity
  8
0
  6
CONTINUOUS
 62
    7
370
   -1
100
AcDbCircle
 10
9.299999999999997
 20
3.199999999999989
 40
0.7
100
AcDbArc
 50
270
 51
360
  0
ARC
  5
27C
100
AcDbEntity
  8
0
  6
CONTINUOUS
 62
    7
370
   -1
100
AcDbCircle
 10
9.299999999999997
 20
-3.200000000000017
 40
0.7
100
AcDbArc
 50
0
 51
90
  0
ARC
  5
27D
100
AcDbEntity
  8
0
  6
CONTINUOUS
 62
    7
370
   -1
100
AcDbCircle
 10
-9.299999999999997
 20
-3.200000000000017
 40
0.7
100
AcDbArc
 50
90
 51
180
  0
ARC
  5
27E
100
AcDbEntity
  8
0
  6
CONTINUOUS
 62
    7
370
   -1
100
AcDbCircle
 10
-9.299999999999997
 20
3.199999999999989
 40
0.7
100
AcDbArc
 50
180
 51
270
  0
ARC
  5
27F
100
AcDbEntity
  8
0
  6
CONTINUOUS
 62
    7
370
   -1
100
AcDbCircle
 10
3.200000000000003
 20
9.299999999999983
 40
0.7
100
AcDbArc
 50
90
 51
180
  0
ARC
  5
280
100
AcDbEntity
  8
0
  6
CONTINUOUS
 62
    7
370
   -1
100
AcDbCircle
 10
-3.199999999999989
 20
9.299999999999983
 40
0.7
100
AcDbArc
 50
0
 51
90
  0
ARC
  5
281
100
AcDbEntity
  8
0
  6
CONTINUOUS
 62
    7
370
   -1
100
AcDbCircle
 10
-8.5
 20
-2.800000000000011
 40
0.3
100
AcDbArc
 50
0
 51
90
  0
ARC
  5
282
100
AcDbEntity
  8
0
  6
CONTINUOUS
 62
    7
370
   -1
100
AcDbCircle
 10
-8.5
 20
2.799999999999983
 40
0.3
100
AcDbArc
 50
270
 51
360
  0
ARC
  5
283
100
AcDbEntity
  8
0
  6
CONTINUOUS
 62
    7
370
   -1
100
AcDbCircle
 10
8.5
 20
-2.800000000000011
 40
0.3
100
AcDbArc
 50
90
 51
180
  0
ARC
  5
284
100
AcDbEntity
  8
0
  6
CONTINUOUS
 62
    7
370
   -1
100
AcDbCircle
 10
8.5
 20
2.799999999999983
 40
0.3
100
AcDbArc
 50
180
 51
270
  0
ARC
  5
285
100
AcDbEntity
  8
0
  6
CONTINUOUS
 62
    7
370
   -1
100
AcDbCircle
 10
2.800000000000011
 20
8.5
 40
0.3
100
AcDbArc
 50
180
 51
270
  0
ARC
  5
286
100
AcDbEntity
  8
0
  6
CONTINUOUS
 62
    7
370
   -1
100
AcDbCircle
 10
-2.799999999999997
 20
8.5
 40
0.3
100
AcDbArc
 50
270
 51
360
  0
LINE
  5
287
100
AcDbEntity
  8
0
  6
CONTINUOUS
 62
    7
370
   -1
100
AcDbLine
 10
-2.5
 20
-9.299999999999983
 11
-2.5
 21
-8.5
  0
LINE
  5
288
100
AcDbEntity
  8
0
  6
CONTINUOUS
 62
    7
370
   -1
100
AcDbLine
 10
2.5
 20
-9.299999999999983
 11
2.5
 21
-8.5
  0
ARC
  5
289
100
AcDbEntity
  8
0
  6
CONTINUOUS
 62
    7
370
   -1
100
AcDbCircle
 10
3.200000000000003
 20
-9.299999999999983
 40
0.7
100
AcDbArc
 50
180
 51
270
  0
ARC
  5
28A
100
AcDbEntity
  8
0
  6
CONTINUOUS
 62
    7
370
   -1
100
AcDbCircle
 10
-3.199999999999989
 20
-9.299999999999983
 40
0.7
100
AcDbArc
 50
270
 51
0
  0
ARC
  5
28B
100
AcDbEntity
  8
0
  6
CONTINUOUS
 62
    7
370
   -1
100
AcDbCircle
 10
2.800000000000011
 20
-8.5
 40
0.3
100
AcDbArc
 50
90
 51
180
  0
ARC
  5
28C
100
AcDbEntity
  8
0
  6
CONTINUOUS
 62
    7
370
   -1
100
AcDbCircle
 10
-2.799999999999997
 20
-8.5
 40
0.3
100
AcDbArc
 50
360
 51
90
  0
LINE
  5
28D
100
AcDbEntity
  8
0
  6
CONTINUOUS
 62
    7
370
   -1
100
AcDbLine
 10
-4.870000000000005
 20
-8.200000000000017
 11
-2.80000016858739
 21
-8.200000000000017
  0
LINE
  5
28E
100
AcDbEntity
  8
0
  6
CONTINUOUS
 62
    7
370
   -1
100
AcDbLine
 10
-8
 20
-10
 11
-3.200000168587383
 21
-10
  0
LINE
  5
28F
100
AcDbEntity
  8
0
  6
CONTINUOUS
 62
    7
370
   -1
100
AcDbLine
 10
4.870000000000005
 20
-8.200000000000017
 11
2.80000016858739
 21
-8.200000000000017
  0
LINE
  5
290
100
AcDbEntity
  8
0
  6
CONTINUOUS
 62
    7
370
   -1
100
AcDbLine
 10
8
 20
-10
 11
3.200000168587383
 21
-10
  0
ENDSEC
  0
SECTION
  2
OBJECTS
  0
DICTIONARY
  5
C
330
0
100
AcDbDictionary
281
    1
  3
ACAD_GROUP
350
D
  0
DICTIONARY
  5
D
330
C
100
AcDbDictionary
281
    1
  0
ENDSEC
  0
EOF
